<svg xmlns="http://www.w3.org/2000/svg" width="32" height="32" viewBox="0 0 32 32"><rect width="30" height="30" x="1" y="1" fill="#deddda" rx="8" ry="8"/><rect width="28" height="28" x="2" y="2" fill="#1a1a1a" rx="7" ry="7"/><rect width="26" height="26" x="3" y="3" fill="#333" rx="6.5" ry="6.5"/><path fill="#ff7800" d="M6 7h8v1H6z"/><path fill="#deddda" d="M6 9h4v1H6z"/><path fill="#3584e4" d="M8 11h12v1H8z"/><path fill="#deddda" d="M8 13h6v1H8zM8 15h10v1H8z"/><path fill="#8ff0a4" d="M10 17h5v1h-5z"/><path fill="#ff7800" d="M15 19h7v1h-7z"/><path fill="#deddda" d="M6 21h9v1H6z"/><path fill="#3584e4" d="M6 23h5v1H6z"/><path fill="#8ff0a4" d="M10 19h4v1h-4z"/><path fill="#deddda" d="M16 17h6v1h-6z"/><path fill="#3584e4" d="M19 15h5v1h-5z"/></svg>