<svg xmlns="http://www.w3.org/2000/svg" width="32" height="32" viewBox="0 0 32 32"><rect width="30" height="30" x="1" y="1" fill="#f2f2f2" rx="8" ry="8"/><path fill="#f6d031" d="M28 16c0 6.627-5.373 12-12 12S4 22.627 4 16 9.373 4 16 4s12 5.373 12 12"/><path fill="none" stroke="#3d3846" stroke-linecap="round" stroke-linejoin="round" stroke-width=".8" d="M17.527 16.198c0 .501-.292.964-.764 1.214s-1.054.25-1.526 0-.764-.713-.764-1.214"/><path fill="#e93336" d="M13.582 9.6a1.6 1.6 0 0 0-1.103.484l-.469.47-.469-.47a1.601 1.601 0 1 0-2.263 2.263l2.167 2.167v-.002a.8.8 0 0 0 1.131 0l2.165-2.164a1.6 1.6 0 0 0-1.16-2.749M21.583 9.6a1.6 1.6 0 0 0-1.104.484l-.469.47-.469-.47a1.6 1.6 0 1 0-2.263 2.263l2.167 2.167v-.002a.8.8 0 0 0 1.132 0l2.164-2.164a1.6 1.6 0 0 0-1.158-2.749"/></svg>