<svg xmlns="http://www.w3.org/2000/svg" width="64" height="64"><defs><linearGradient id="b" x1="4.075" x2="10.583" y1="1.453" y2="11.312" gradientUnits="userSpaceOnUse"><stop offset="0" stop-color="#fff"/><stop offset=".312" stop-color="#fff" stop-opacity=".45"/><stop offset="1" stop-color="#fff" stop-opacity="0"/></linearGradient><linearGradient id="d" x1="15.081" x2="12.7" y1="14.816" y2="12.171" gradientUnits="userSpaceOnUse"><stop offset="0" stop-color="#fff"/><stop offset="1" stop-color="#fff" stop-opacity="0"/></linearGradient><linearGradient id="a" x1="8.466" x2="8.466" y1="1.058" y2="15.875" gradientTransform="scale(3.7796)" gradientUnits="userSpaceOnUse"><stop offset="0" stop-color="#a555d0"/><stop offset="1" stop-color="#7632ae"/></linearGradient><linearGradient id="h" x1="18.402" x2="52" y1="15.334" y2="50" gradientUnits="userSpaceOnUse"><stop offset="0" stop-color="#fff"/><stop offset="1" stop-color="#fff" stop-opacity=".25"/></linearGradient><linearGradient id="j" x1="23.337" x2="44.5" y1="21.196" y2="42" gradientUnits="userSpaceOnUse"><stop offset="0" stop-color="#fff"/><stop offset="1" stop-color="#fff" stop-opacity=".25"/></linearGradient><linearGradient id="g" x1="32" x2="32" y1="24" y2="34" gradientUnits="userSpaceOnUse"><stop offset="0" stop-color="#fff"/><stop offset="1" stop-color="#fff" stop-opacity=".803"/></linearGradient><linearGradient id="f" x1="32" x2="32" y1="17" y2="42" gradientUnits="userSpaceOnUse"><stop offset="0" stop-color="#fff" stop-opacity=".5"/><stop offset="1" stop-color="#fff" stop-opacity=".14"/></linearGradient><linearGradient id="e" x1="32" x2="32" y1="10" y2="50" gradientUnits="userSpaceOnUse"><stop offset="0" stop-color="#fff"/><stop offset="1" stop-color="#fff" stop-opacity=".5"/></linearGradient><linearGradient id="n" x1="28.818" x2="35.512" y1="35.531" y2="51.362" gradientUnits="userSpaceOnUse"><stop offset="0" stop-color="#fff"/><stop offset="1" stop-color="#fff" stop-opacity=".25"/></linearGradient><filter id="c" width="1.024" height="1.024" x="-.012" y="-.012" color-interpolation-filters="sRGB"><feGaussianBlur stdDeviation=".074"/></filter><filter id="o" width="1.089" height="1.047" x="-.045" y="-.023" color-interpolation-filters="sRGB"><feGaussianBlur stdDeviation=".186"/></filter><filter id="l" width="1.096" height="1.096" x="-.048" y="-.048" color-interpolation-filters="sRGB"><feGaussianBlur stdDeviation=".16"/></filter><filter id="k" width="1.035" height="1.035" x="-.017" y="-.017" color-interpolation-filters="sRGB"><feGaussianBlur stdDeviation=".18"/></filter><filter id="i" width="1.029" height="1.029" x="-.015" y="-.015" color-interpolation-filters="sRGB"><feGaussianBlur stdDeviation=".242"/></filter><radialGradient id="m" cx="32.027" cy="40.557" r="5" gradientTransform="matrix(5.5786 0 0 3.8062 -146.56 -117.84)" gradientUnits="userSpaceOnUse"><stop offset="0" stop-color="#f5eefa"/><stop offset=".312" stop-color="#e6dbef"/><stop offset=".381" stop-color="#dccbe8"/><stop offset=".69" stop-color="#ccb4df"/><stop offset=".736" stop-color="#bda0d5"/><stop offset="1" stop-color="#b898d3"/></radialGradient></defs><path fill="url(#a)" d="M20.26 4c-5.782 0-9.743 1.725-12.321 4.535C5.374 11.331 4 15.34 4 19.876v24.248c0 4.538 1.374 8.545 3.939 11.341C10.517 58.275 14.479 60 20.26 60h23.549c5.782 0 9.743-1.724 12.321-4.535C58.695 52.67 60 49.03 60 44.125V20.786c0-5.935-1.305-9.456-3.87-12.252C53.552 5.725 49.59 4 43.809 4H25.494z"/><path fill="url(#b)" d="M5.36 1.058c-1.53 0-2.577.457-3.26 1.2-.678.74-1.042 1.8-1.042 3.001v6.415c0 1.2.364 2.26 1.043 3 .682.744 1.73 1.2 3.26 1.2h6.23c1.53 0 2.577-.456 3.26-1.2.678-.739 1.024-1.702 1.024-3V5.5c0-1.57-.346-2.502-1.024-3.242-.683-.743-1.73-1.2-3.26-1.2H6.745zm0 .264h6.232c1.477 0 2.437.432 3.064 1.116.634.69.954 1.53.954 3.062v6.174c0 1.251-.322 2.134-.954 2.822-.627.684-1.587 1.114-3.064 1.114H5.359c-1.477 0-2.437-.43-3.064-1.114-.625-.682-.973-1.675-.973-2.822V5.26c0-1.148.348-2.14.973-2.822.627-.684 1.587-1.116 3.064-1.116" filter="url(#c)" opacity=".75" transform="scale(3.7796)"/><path fill="url(#d)" d="M5.36 1.058c-1.53 0-2.577.457-3.26 1.2-.678.74-1.042 1.8-1.042 3.001v6.415c0 1.2.364 2.26 1.043 3 .682.744 1.73 1.2 3.26 1.2h6.23c1.53 0 2.577-.456 3.26-1.2.678-.739 1.024-1.702 1.024-3V5.5c0-1.57-.346-2.502-1.024-3.242-.683-.743-1.73-1.2-3.26-1.2H6.745zm0 .264h6.232c1.477 0 2.437.432 3.064 1.116.634.69.954 1.53.954 3.062v6.174c0 1.251-.322 2.134-.954 2.822-.627.684-1.587 1.114-3.064 1.114H5.359c-1.477 0-2.437-.43-3.064-1.114-.625-.682-.973-1.675-.973-2.822V5.26c0-1.148.348-2.14.973-2.822.627-.684 1.587-1.116 3.064-1.116" filter="url(#c)" opacity=".45" transform="scale(3.7796)"/><circle cx="32" cy="30" r="20" fill="url(#e)" opacity=".35"/><circle cx="32" cy="29.5" r="12.5" fill="url(#f)"/><circle cx="32" cy="29" r="5" fill="url(#g)"/><path fill="url(#h)" d="M32 10a20 20 0 0 0-20 20 20 20 0 0 0 20 20 20 20 0 0 0 20-20 20 20 0 0 0-20-20m0 .5A19.5 19.5 0 0 1 51.5 30 19.5 19.5 0 0 1 32 49.5 19.5 19.5 0 0 1 12.5 30 19.5 19.5 0 0 1 32 10.5" filter="url(#i)" opacity=".5"/><path fill="url(#j)" d="M32 17a12.5 12.5 0 0 0-12.5 12.5A12.5 12.5 0 0 0 32 42a12.5 12.5 0 0 0 12.5-12.5A12.5 12.5 0 0 0 32 17m0 .5a12 12 0 0 1 12 12 12 12 0 0 1-12 12 12 12 0 0 1-12-12 12 12 0 0 1 12-12" filter="url(#k)" opacity=".5"/><circle cx="32" cy="29" r="4" fill="#fff" filter="url(#l)"/><path fill="url(#m)" d="M31.889 35.531c-2.19.01-3.683 1.153-4.34 2.462-.327.654-.632 1.22-.528 3.026.173 3.018 1.002 8.49 1.468 10.343.34 1.35.715 2.138 1.496 2.638.307.197.994.423 1.499.494.153.022.33.033.516.037.187-.004.363-.015.517-.037.505-.071 1.192-.297 1.499-.494.78-.5 1.157-1.288 1.496-2.638.466-1.853 1.294-7.325 1.468-10.343.104-1.806-.201-2.372-.529-3.026-.656-1.309-2.149-2.451-4.34-2.462h-.222" style="paint-order:fill markers stroke"/><path fill="url(#n)" d="M31.889 35.531c-2.19.01-3.684 1.152-4.34 2.46-.327.655-.631 1.22-.527 3.026.173 3.018 1 8.49 1.467 10.344.339 1.35.715 2.139 1.496 2.639.307.196.993.423 1.498.494.153.022.33.034.517.037.187-.003.364-.015.518-.037.504-.071 1.191-.298 1.498-.494.78-.5 1.157-1.289 1.496-2.639.466-1.853 1.294-7.325 1.467-10.344.104-1.806-.2-2.37-.528-3.025-.656-1.31-2.149-2.45-4.34-2.461h-.222m.004 1h.215c1.843.01 2.961.936 3.449 1.91.335.67.52.838.424 2.52-.167 2.905-1.019 8.482-1.44 10.156-.319 1.27-.564 1.719-1.066 2.04-.032.02-.76.299-1.098.346a4 4 0 0 1-.377.026 4 4 0 0 1-.377-.026c-.338-.048-1.065-.325-1.097-.345-.503-.322-.748-.772-1.067-2.041-.42-1.674-1.273-7.252-1.44-10.156-.096-1.682.089-1.85.425-2.52.487-.974 1.605-1.9 3.449-1.91z" filter="url(#o)" opacity=".75" style="paint-order:fill markers stroke"/></svg>