<svg xmlns="http://www.w3.org/2000/svg" width="64" height="64" viewBox="0 0 16.933 16.933"><defs><linearGradient id="a" x1="8.466" x2="8.466" y1="1.058" y2="15.875" gradientUnits="userSpaceOnUse"><stop offset="0" stop-color="#fff"/><stop offset=".746" stop-color="#eee"/><stop offset="1" stop-color="#d0d0d0"/></linearGradient><filter id="b" width="1.024" height="1.024" x="-.012" y="-.012" color-interpolation-filters="sRGB"><feGaussianBlur stdDeviation=".074"/></filter></defs><path fill="url(#a)" d="M5.36 1.058c-1.53 0-2.577.457-3.26 1.2-.678.74-1.042 1.8-1.042 3v6.416c0 1.2.364 2.261 1.042 3.001.683.744 1.73 1.2 3.26 1.2h6.23c1.53 0 2.579-.456 3.26-1.2.68-.74 1.025-1.703 1.025-3V5.5c0-1.57-.345-2.502-1.024-3.242-.682-.743-1.73-1.2-3.26-1.2H6.745z"/><path fill="silver" d="M1.093 4.63q-.015.131-.023.265h14.786a7 7 0 0 0-.023-.265zm-.035 3.704V8.6h14.816v-.265zm.012 3.704q.008.135.023.265h14.752q.012-.13.02-.265z"/><path fill="#fc676b" d="M4.895 1.073q-.136.01-.265.023v14.741q.13.014.265.023z"/><path fill="#fff" d="M5.36 1.058c-1.53 0-2.577.457-3.26 1.2-.678.74-1.042 1.8-1.042 3.001v6.415c0 1.2.364 2.26 1.043 3 .682.744 1.73 1.2 3.26 1.2h6.23c1.53 0 2.577-.456 3.26-1.2.678-.739 1.024-1.702 1.024-3V5.5c0-1.57-.346-2.502-1.024-3.242-.683-.743-1.73-1.2-3.26-1.2H6.745zm0 .264h6.232c1.477 0 2.437.432 3.064 1.116.634.69.954 1.53.954 3.062v6.174c0 1.251-.322 2.134-.954 2.822-.627.684-1.587 1.114-3.064 1.114H5.359c-1.477 0-2.437-.43-3.064-1.114-.625-.682-.973-1.675-.973-2.822V5.26c0-1.148.348-2.14.973-2.822.627-.684 1.587-1.116 3.064-1.116" filter="url(#b)" style="mix-blend-mode:overlay"/></svg>