<svg width="64" height="64" version="1.1" viewBox="0 0 16.933 16.933" xmlns="http://www.w3.org/2000/svg" xmlns:xlink="http://www.w3.org/1999/xlink">
 <defs>
  <linearGradient id="linearGradient39">
   <stop stop-color="#ffffff" offset="0"/>
   <stop stop-color="#ffffff" stop-opacity="0" offset="1"/>
  </linearGradient>
  <linearGradient id="a" x1="8.466" x2="8.466" y1="1.058" y2="15.875" gradientUnits="userSpaceOnUse">
   <stop stop-color="#fff" offset="0"/>
   <stop stop-color="#ececec" offset="1"/>
  </linearGradient>
  <filter id="b" x="-.011986" y="-.011987" width="1.024" height="1.024" color-interpolation-filters="sRGB">
   <feGaussianBlur stdDeviation=".074"/>
  </filter>
  <linearGradient id="linearGradient10" x1="8.4665" x2="8.4665" y1="5.7592" y2="10.928" gradientUnits="userSpaceOnUse">
   <stop stop-color="#080808" offset="0"/>
   <stop stop-color="#686868" offset="1"/>
  </linearGradient>
  <linearGradient id="linearGradient16" x1="6.879" x2="8.7311" y1="6.6145" y2="10.319" gradientUnits="userSpaceOnUse">
   <stop stop-color="#ffffff" offset="0"/>
   <stop stop-color="#ffffff" stop-opacity="0" offset="1"/>
  </linearGradient>
  <filter id="filter16" x="-.023802" y="-.03119" width="1.0476" height="1.0624" color-interpolation-filters="sRGB">
   <feGaussianBlur stdDeviation="0.063765203"/>
  </filter>
  <linearGradient id="linearGradient18" x1="8.4665" x2="8.4665" y1="5.7592" y2="10.928" gradientUnits="userSpaceOnUse">
   <stop stop-color="#000000" stop-opacity=".25" offset="0"/>
   <stop stop-color="#000000" stop-opacity=".15" offset="1"/>
  </linearGradient>
  <filter id="filter18" x="-.010634" y="-.013769" width="1.0213" height="1.0275" color-interpolation-filters="sRGB">
   <feGaussianBlur stdDeviation="0.02965523"/>
  </filter>
  <linearGradient id="linearGradient20" x1="10.489" x2="10.489" y1="6.8988" y2="7.5602" gradientUnits="userSpaceOnUse">
   <stop stop-color="#fff965" offset="0"/>
   <stop stop-color="#ffdb4c" offset="1"/>
  </linearGradient>
  <linearGradient id="linearGradient22" x1="8.4665" x2="8.4665" y1="7.0113" y2="10.319" gradientUnits="userSpaceOnUse">
   <stop stop-color="#7f7f7f" offset="0"/>
   <stop stop-color="#7f7f7f" offset="1"/>
  </linearGradient>
  <linearGradient id="linearGradient24" x1="7.6728" x2="8.9957" y1="8.2019" y2="9.5248" gradientUnits="userSpaceOnUse">
   <stop stop-color="#e4e4e4" offset="0"/>
   <stop stop-color="#9a9a9a" offset="1"/>
  </linearGradient>
  <filter id="filter25" x="-.147" y="-.147" width="1.294" height="1.294" color-interpolation-filters="sRGB">
   <feGaussianBlur stdDeviation="0.15395139"/>
  </filter>
  <filter id="filter26" x="-.027" y="-.027" width="1.054" height="1.054" color-interpolation-filters="sRGB">
   <feGaussianBlur stdDeviation="0.028276787"/>
  </filter>
  <linearGradient id="linearGradient27" x1="8.4665" x2="8.4665" y1="7.3403" y2="9.9895" gradientUnits="userSpaceOnUse">
   <stop stop-color="#ffffff" offset="0"/>
   <stop stop-color="#ffffff" stop-opacity="0" offset="1"/>
  </linearGradient>
  <linearGradient id="linearGradient30" x1="7.4082" x2="9.2152" y1="7.6728" y2="9.6743" gradientUnits="userSpaceOnUse">
   <stop stop-color="#ffffff" offset="0"/>
   <stop stop-color="#ffffff" stop-opacity="0" offset="1"/>
  </linearGradient>
  <filter id="filter30" x="-.027" y="-.027" width="1.054" height="1.054" color-interpolation-filters="sRGB">
   <feGaussianBlur stdDeviation="0.034229796"/>
  </filter>
  <linearGradient id="linearGradient38" x1="8.467" x2="8.467" y1="3.176" y2="13.758" gradientUnits="userSpaceOnUse">
   <stop stop-color="#858585" offset="0"/>
   <stop stop-color="#a4a4a4" offset="1"/>
  </linearGradient>
  <linearGradient id="linearGradient40" x1="3.4395" x2="6.6145" y1="3.4395" y2="4.4978" gradientUnits="userSpaceOnUse" xlink:href="#linearGradient39"/>
  <filter id="filter40" x="-.027" y="-.027" width="1.054" height="1.054" color-interpolation-filters="sRGB">
   <feGaussianBlur stdDeviation="0.03869457"/>
  </filter>
  <linearGradient id="linearGradient41" x1="3.192" x2="6.6315" y1="3.1749" y2="6.6145" gradientTransform="translate(9.5243)" gradientUnits="userSpaceOnUse" xlink:href="#linearGradient39"/>
  <linearGradient id="linearGradient43" x1="3.4395" x2="6.6145" y1="3.4395" y2="4.4978" gradientTransform="translate(0 6.2181)" gradientUnits="userSpaceOnUse" xlink:href="#linearGradient39"/>
 </defs>
 <path d="M5.36 1.058c-1.53 0-2.577.457-3.26 1.2-.678.74-1.042 1.8-1.042 3v6.416c0 1.2.364 2.261 1.042 3.001.683.744 1.73 1.2 3.26 1.2h6.23c1.53 0 2.579-.456 3.26-1.2.68-.74 1.025-1.703 1.025-3V5.5c0-1.57-.345-2.502-1.024-3.242-.682-.743-1.73-1.2-3.26-1.2H6.745z" fill="url(#a)"/>
 <path d="M5.36 1.058c-1.53 0-2.577.457-3.26 1.2-.678.74-1.042 1.8-1.042 3.001v6.415c0 1.2.364 2.26 1.043 3 .682.744 1.73 1.2 3.26 1.2h6.23c1.53 0 2.577-.456 3.26-1.2.678-.739 1.024-1.702 1.024-3V5.5c0-1.57-.346-2.502-1.024-3.242-.683-.743-1.73-1.2-3.26-1.2H6.745zm0 .264h6.232c1.477 0 2.437.432 3.064 1.116.634.69.954 1.53.954 3.062v6.174c0 1.251-.322 2.134-.954 2.822-.627.684-1.587 1.114-3.064 1.114H5.359c-1.477 0-2.437-.43-3.064-1.114-.625-.682-.973-1.675-.973-2.822V5.26c0-1.148.348-2.14.973-2.822.627-.684 1.587-1.116 3.064-1.116" fill="#fff" filter="url(#b)"/>
 <path d="m7.8603 5.7592c-0.25576 0-0.35796 0.11819-0.39325 0.15348l-0.40358 0.40307c-0.09731 0.081205-0.20471 0.096445-0.29662 0.099217h-0.88365c-0.42263 0-0.76325 0.3401-0.76325 0.76273v2.9879c0 0.42263 0.34062 0.76273 0.76325 0.76273h5.167c0.42263 0 0.76273-0.3401 0.76273-0.76273v-2.9879c0-0.42263-0.3401-0.76273-0.76273-0.76273h-0.91569c-0.0919-0.00277-0.19931-0.018012-0.29662-0.099217l-0.40358-0.40307c-0.035287-0.035287-0.13749-0.15348-0.39325-0.15348h-1.0717z" fill="url(#linearGradient10)" stroke-linecap="round" stroke-linejoin="round" stroke-width=".10583"/>
 <circle cx="8.4665" cy="8.6649" r="1.6536" fill="url(#linearGradient22)" stroke-linecap="round" stroke-linejoin="round" stroke-width=".13545"/>
 <circle cx="8.4665" cy="8.6006" r="1.2567" fill="#000000" filter="url(#filter25)" opacity=".65" stroke-linecap="round" stroke-linejoin="round" stroke-width=".10294"/>
 <circle cx="8.4665" cy="8.6649" r="1.2567" fill="url(#linearGradient24)" stroke-linecap="round" stroke-linejoin="round" stroke-width=".10294"/>
 <circle cx="10.489" cy="7.2295" r=".33072" fill="url(#linearGradient20)" stroke-linecap="round" stroke-linejoin="round" stroke-width=".098547"/>
 <path d="m7.8593 5.8905c-0.1075 4e-7 -0.17178 0.02541-0.21497 0.049092s-0.059014 0.041438-0.083714 0.066144l-0.40462 0.40462a0.1323 0.1323 0 0 1-0.0082681 0.0077513c-0.12782 0.10667-0.27331 0.12555-0.37671 0.12867a0.1323 0.1323 0 0 1-0.0036172 0h-0.88468c-0.35166 0-0.63096 0.27941-0.63096 0.63096v2.9884c0 0.35155 0.2793 0.63096 0.63096 0.63096h5.1675c0.35166 0 0.63096-0.2793 0.63096-0.63096v-2.9884c0-0.35166-0.2793-0.63096-0.63096-0.63096h-0.9162a0.1323 0.1323 0 0 1-0.003101 0c-0.1034-0.00312-0.24941-0.022-0.37723-0.12867a0.1323 0.1323 0 0 1-0.0098183-0.0077513l-0.40203-0.40462c-0.02471-0.024706-0.042591-0.042462-0.085781-0.066144s-0.10747-0.049092-0.21497-0.049092h-0.10955-0.96271-0.10955zm0 0.13281h0.10955 0.96271 0.10955c0.086656 0 0.12072 0.015264 0.15038 0.031522 0.032242 0.017679 0.031767 0.020403 0.056326 0.044958l0.40255 0.4041a0.1323 0.1323 0 0 0 0.0056843 0.0056843c0.00383 0.00334 0.0078663 0.0067084 0.011885 0.0098184 0.15997 0.1335 0.34314 0.1567 0.45888 0.16019a0.1323 0.1323 0 0 0 0.002067 0c0.0024 3.27e-5 0.005351 3.27e-5 0.007751 0h0.91414c0.28161 0 0.49815 0.21654 0.49815 0.49815v2.9884c0 0.28161-0.21654 0.49815-0.49815 0.49815h-5.1681c-0.28158 0-0.49815-0.21667-0.49815-0.49815v-2.9884c0-0.28148 0.21657-0.49815 0.49815-0.49815h0.88468c0.00205 1.59e-5 0.004151 3.18e-5 0.006201 0a0.1323 0.1323 0 0 0 0.0015503 0c0.11575-0.0034925 0.29749-0.026808 0.45733-0.16019a0.1323 0.1323 0 0 0 0.0036173-0.0036173c0.0044-0.00402 0.0098403-0.0075764 0.013952-0.011885l0.002067-0.0036172 0.40203-0.40048c0.027137-0.027145 0.022021-0.028131 0.052709-0.044958 0.029651-0.016258 0.065785-0.031522 0.15244-0.031522z" fill="url(#linearGradient16)" filter="url(#filter16)" opacity=".35" stop-color="#000000" stroke-linecap="round" stroke-linejoin="round"/>
 <path d="m7.8603 5.7592c-0.25576 0-0.35796 0.11819-0.39325 0.15348l-0.40358 0.40307c-0.09731 0.081205-0.20471 0.096445-0.29662 0.099217h-0.88365c-0.42263 0-0.76325 0.3401-0.76325 0.76273v2.9879c0 0.42263 0.34062 0.76273 0.76325 0.76273h5.167c0.42263 0 0.76273-0.3401 0.76273-0.76273v-2.9879c0-0.42263-0.3401-0.76273-0.76273-0.76273h-0.91569c-0.0919-0.00277-0.19931-0.018012-0.29662-0.099217l-0.40358-0.40307c-0.035287-0.035287-0.13749-0.15348-0.39325-0.15348h-0.10955-0.9622-0.10904zm-0.0010335 0.13126h0.10955 0.96271 0.10955c0.1075 0 0.17178 0.02541 0.21497 0.049092 0.04319 0.023682 0.061075 0.041438 0.085781 0.066144l0.40203 0.40462a0.1323 0.1323 0 0 0 0.0098183 0.0077513c0.12782 0.10667 0.27383 0.12556 0.37723 0.12867a0.1323 0.1323 0 0 0 0.003617 0h0.91621c0.35166 0 0.63096 0.2793 0.63096 0.63096v2.9884c0 0.35166-0.2793 0.63096-0.63096 0.63096h-5.1681c-0.35166 0-0.63096-0.27941-0.63096-0.63096v-2.9884c0-0.35155 0.2793-0.63096 0.63096-0.63096h0.88468a0.1323 0.1323 0 0 0 0.004134 0c0.1034-0.00312 0.24889-0.022004 0.37671-0.12867a0.1323 0.1323 0 0 0 0.0077513-0.0077513l0.40462-0.40462c0.024706-0.024706 0.040524-0.042462 0.083714-0.066144s0.10747-0.049091 0.21497-0.049092z" fill="url(#linearGradient18)" filter="url(#filter18)" stop-color="#000000" stroke-linecap="round" stroke-linejoin="round"/>
 <path d="m8.4665 7.4082a1.2567 1.2567 0 0 0-1.2567 1.2567 1.2567 1.2567 0 0 0 1.2567 1.2567 1.2567 1.2567 0 0 0 1.2567-1.2567 1.2567 1.2567 0 0 0-1.2567-1.2567zm0.094049 0.19327a1.1132 1.1132 0 0 1 1.1131 1.1131 1.1132 1.1132 0 0 1-1.1131 1.1131 1.1132 1.1132 0 0 1-1.1131-1.1131 1.1132 1.1132 0 0 1 1.1131-1.1131z" fill="url(#linearGradient27)" filter="url(#filter26)" stroke-linecap="round" stroke-linejoin="round" stroke-width=".10294"/>
 <path d="m8.4665 7.1436a1.5213 1.5213 0 0 0-1.5213 1.5213 1.5213 1.5213 0 0 0 1.5213 1.5213 1.5213 1.5213 0 0 0 1.5213-1.5213 1.5213 1.5213 0 0 0-1.5213-1.5213zm0 0.11162a1.4097 1.4097 0 0 1 1.4097 1.4097 1.4097 1.4097 0 0 1-1.4097 1.4097 1.4097 1.4097 0 0 1-1.4097-1.4097 1.4097 1.4097 0 0 1 1.4097-1.4097z" fill="url(#linearGradient30)" filter="url(#filter30)" opacity=".35" stroke-linecap="round" stroke-linejoin="round" stroke-width=".12461"/>
 <path d="m5.0275 3.176c-1.0215 0-1.8515 0.83007-1.8515 1.8515v1.3219a0.26458 0.26458 0 0 0 0.26354 0.26613 0.26458 0.26458 0 0 0 0.26354-0.26613v-1.3219c0-0.73746 0.58698-1.3244 1.3244-1.3244h1.3219a0.26458 0.26458 0 0 0 0.26613-0.26354 0.26458 0.26458 0 0 0-0.26613-0.26354h-1.3219zm5.5567 0a0.26458 0.26458 0 0 0-0.26561 0.26354 0.26458 0.26458 0 0 0 0.26561 0.26354h1.3219c0.73746 0 1.3224 0.58698 1.3224 1.3244v1.3219a0.26458 0.26458 0 0 0 0.26561 0.26613 0.26458 0.26458 0 0 0 0.26406-0.26613v-1.3219c0-1.0215-0.83059-1.8515-1.852-1.8515h-1.3219zm-7.1446 7.1426a0.26458 0.26458 0 0 0-0.26354 0.26561v1.3219c0 1.0215 0.83007 1.852 1.8515 1.852h1.3219a0.26458 0.26458 0 0 0 0.26613-0.26406 0.26458 0.26458 0 0 0-0.26613-0.26561h-1.3219c-0.73746 0-1.3244-0.58492-1.3244-1.3224v-1.3219a0.26458 0.26458 0 0 0-0.26354-0.26561zm10.054 0a0.26458 0.26458 0 0 0-0.26561 0.26561v1.3219c0 0.73746-0.58492 1.3224-1.3224 1.3224h-1.3219a0.26458 0.26458 0 0 0-0.26561 0.26561 0.26458 0.26458 0 0 0 0.26561 0.26406h1.3219c1.0215 0 1.852-0.83059 1.852-1.852v-1.3219a0.26458 0.26458 0 0 0-0.26406-0.26561z" fill="url(#linearGradient38)" stop-color="#000000" stroke-linecap="round" stroke-linejoin="round"/>
 <path d="m5.0275 3.1755c-1.0215 0-1.8515 0.83007-1.8515 1.8515v1.3224a0.26458 0.26458 0 0 0 0.26406 0.26561 0.26458 0.26458 0 0 0 0.26354-0.26561v-1.3224c0-0.73746 0.58647-1.3244 1.3239-1.3244h1.3224a0.26458 0.26458 0 0 0 0.26561-0.26354 0.26458 0.26458 0 0 0-0.26561-0.26354zm0.00103 0.13229h1.3219c0.07466-2.959e-4 0.13255 0.058147 0.1328 0.13281-0.0011 0.073857-0.058693 0.13103-0.1328 0.13074h-1.3219c-0.80763 0-1.4572 0.64755-1.4572 1.4552v1.3224a0.1323 0.1323 0 0 0 0 0.00207c2.91e-4 0.073561-0.057689 0.12883-0.13074 0.13074h-5.17e-4c-0.073622-0.00134-0.13258-0.0568-0.13229-0.13074a0.1323 0.1323 0 0 0 0-0.00207v-1.3224c0-0.94979 0.771-1.7187 1.7208-1.7187z" fill="url(#linearGradient40)" filter="url(#filter40)" opacity=".35" stop-color="#000000" stroke-linecap="round" stroke-linejoin="round"/>
 <path transform="matrix(-1 0 0 1 26.474 0)" d="m14.552 3.1755c-1.0215 0-1.8515 0.83007-1.8515 1.8515v1.3224a0.26458 0.26458 0 0 0 0.26406 0.26561 0.26458 0.26458 0 0 0 0.26354-0.26561v-1.3224c0-0.73746 0.58647-1.3244 1.3239-1.3244h1.3224a0.26458 0.26458 0 0 0 0.26561-0.26354 0.26458 0.26458 0 0 0-0.26561-0.26354zm1e-3 0.13229h1.3219c0.07466-2.959e-4 0.13255 0.058147 0.1328 0.13281-0.0011 0.073857-0.05869 0.13103-0.1328 0.13074h-1.3219c-0.80763 0-1.4572 0.64755-1.4572 1.4552v1.3224a0.1323 0.1323 0 0 0 0 0.00207c2.91e-4 0.073561-0.05769 0.12883-0.13074 0.13074h-5.17e-4c-0.07362-0.00134-0.13258-0.0568-0.13229-0.13074a0.1323 0.1323 0 0 0 0-0.00207v-1.3224c0-0.94979 0.771-1.7187 1.7208-1.7187z" fill="url(#linearGradient41)" filter="url(#filter40)" opacity=".35" stop-color="#000000" stroke-linecap="round" stroke-linejoin="round"/>
 <path transform="matrix(1 0 0 -1 0 23.149)" d="m5.0275 9.3936c-1.0215 0-1.8515 0.83007-1.8515 1.8515v1.3224a0.26458 0.26458 0 0 0 0.26406 0.26561 0.26458 0.26458 0 0 0 0.26354-0.26561v-1.3224c0-0.73746 0.58647-1.3244 1.3239-1.3244h1.3224a0.26458 0.26458 0 0 0 0.26561-0.26354 0.26458 0.26458 0 0 0-0.26561-0.26354zm0.00103 0.13229h1.3219c0.07466-2.959e-4 0.13255 0.058147 0.1328 0.13281-0.0011 0.073857-0.058693 0.13103-0.1328 0.13074h-1.3219c-0.80763 0-1.4572 0.64755-1.4572 1.4552v1.3224a0.1323 0.1323 0 0 0 0 0.0021c2.91e-4 0.07356-0.057689 0.12883-0.13074 0.13074h-5.17e-4c-0.073622-0.0013-0.13258-0.0568-0.13229-0.13074a0.1323 0.1323 0 0 0 0-0.0021v-1.3224c0-0.94979 0.771-1.7187 1.7208-1.7187z" fill="url(#linearGradient43)" filter="url(#filter40)" opacity=".35" stop-color="#000000" stroke-linecap="round" stroke-linejoin="round"/>
 <path transform="rotate(180 13.237 8.4655)" d="m14.552 3.1755c-1.0215 0-1.8515 0.83007-1.8515 1.8515v1.3224a0.26458 0.26458 0 0 0 0.26406 0.26561 0.26458 0.26458 0 0 0 0.26354-0.26561v-1.3224c0-0.73746 0.58647-1.3244 1.3239-1.3244h1.3224a0.26458 0.26458 0 0 0 0.26561-0.26354 0.26458 0.26458 0 0 0-0.26561-0.26354zm1e-3 0.13229h1.3219c0.07466-2.959e-4 0.13255 0.058147 0.1328 0.13281-0.0011 0.073857-0.05869 0.13103-0.1328 0.13074h-1.3219c-0.80763 0-1.4572 0.64755-1.4572 1.4552v1.3224a0.1323 0.1323 0 0 0 0 0.00207c2.91e-4 0.073561-0.05769 0.12883-0.13074 0.13074h-5.17e-4c-0.07362-0.00134-0.13258-0.0568-0.13229-0.13074a0.1323 0.1323 0 0 0 0-0.00207v-1.3224c0-0.94979 0.771-1.7187 1.7208-1.7187z" fill="url(#linearGradient41)" filter="url(#filter40)" opacity=".35" stop-color="#000000" stroke-linecap="round" stroke-linejoin="round"/>
</svg>
