<svg xmlns="http://www.w3.org/2000/svg" xmlns:xlink="http://www.w3.org/1999/xlink" width="64" height="64" viewBox="0 0 16.933 16.933"><defs><linearGradient id="a" x1="8.466" x2="8.466" y1="1.058" y2="15.875" gradientUnits="userSpaceOnUse"><stop offset="0" stop-color="#d7d7c9"/><stop offset="1" stop-color="#cecec1"/></linearGradient><linearGradient id="c" x1="14.023" x2="10.848" y1="2.91" y2="2.91" gradientTransform="matrix(1 0 0 .97368 0 1.831)" gradientUnits="userSpaceOnUse"><stop offset="0" stop-color="#56c4fc"/><stop offset="1" stop-color="#56c4fc" stop-opacity="0"/></linearGradient><linearGradient id="d" x1="14.023" x2="10.848" y1="6.614" y2="6.614" gradientTransform="translate(0 2.381)" gradientUnits="userSpaceOnUse"><stop offset="0" stop-color="#fa9e27"/><stop offset="1" stop-color="#fa9e27" stop-opacity="0"/></linearGradient><linearGradient id="e" x1="14.023" x2="10.848" y1="17.198" y2="17.198" gradientTransform="matrix(1 0 0 .97368 0 -4.606)" gradientUnits="userSpaceOnUse"><stop offset="0" stop-color="#63d776"/><stop offset="1" stop-color="#63d776" stop-opacity="0"/></linearGradient><linearGradient xlink:href="#a" id="b" x1="8.466" x2="8.466" y1="1.058" y2="15.875" gradientUnits="userSpaceOnUse"/><linearGradient id="f" x1="1.058" x2="15.73" y1="8.466" y2="8.466" gradientUnits="userSpaceOnUse"><stop offset="0" stop-color="#fff"/><stop offset="1" stop-color="#fff" stop-opacity=".75"/></linearGradient><linearGradient id="h" x1="3.563" x2="11.774" y1="6.366" y2="6.366" gradientUnits="userSpaceOnUse"><stop offset="0" stop-color="#fff"/><stop offset="1" stop-color="#fff" stop-opacity=".55"/></linearGradient><linearGradient id="j" x1="7.54" x2="7.54" y1="5.255" y2="9.296" gradientUnits="userSpaceOnUse"><stop offset="0" stop-color="#fff"/><stop offset="1" stop-color="#fff" stop-opacity=".85"/></linearGradient><filter id="l" width="1.591" height="1.211" x="-.295" y="-.106" color-interpolation-filters="sRGB"><feGaussianBlur stdDeviation=".652"/></filter><filter id="g" width="1.024" height="1.024" x="-.012" y="-.012" color-interpolation-filters="sRGB"><feGaussianBlur stdDeviation=".074"/></filter><filter id="i" width="1.024" height="1.024" x="-.012" y="-.012" color-interpolation-filters="sRGB"><feGaussianBlur stdDeviation=".046"/></filter><filter id="m" width="1.02" height="1.019" x="-.01" y="-.009" color-interpolation-filters="sRGB"><feGaussianBlur stdDeviation=".016"/></filter><filter id="n" width="1.017" height="1.041" x="-.009" y="-.02" color-interpolation-filters="sRGB"><feGaussianBlur stdDeviation=".025"/></filter><clipPath id="k"><path fill="url(#b)" d="M5.36 1.058c-1.53 0-2.577.457-3.26 1.2-.678.74-1.042 1.8-1.042 3.001v6.416c0 1.2.364 2.26 1.043 3 .682.743 1.73 1.2 3.26 1.2h6.23c1.009 0 1.809-.199 2.432-.548V1.605c-.624-.348-1.423-.547-2.432-.547H6.745z" opacity=".75"/></clipPath></defs><path fill="url(#a)" d="M5.36 1.058c-1.53 0-2.577.457-3.26 1.2-.678.74-1.042 1.8-1.042 3v6.416c0 1.2.364 2.261 1.042 3.001.683.744 1.73 1.2 3.26 1.2h6.23c1.53 0 2.579-.456 3.26-1.2.68-.74 1.025-1.703 1.025-3V5.5c0-1.57-.345-2.502-1.024-3.242-.682-.743-1.73-1.2-3.26-1.2H6.745z"/><path fill="url(#c)" d="M10.583 1.058v4.895h5.292V5.42c-.011-1.522-.356-2.435-1.024-3.162-.674-.734-1.705-1.189-3.205-1.2h-1.063"/><rect width="5.292" height="5.027" x="10.583" y="5.953" fill="url(#d)" rx="0" ry="0"/><path fill="url(#e)" d="M10.583 10.98v4.895h1.076c1.493-.014 2.52-.468 3.192-1.2.668-.727 1.012-1.67 1.024-2.935v-.76z"/><path fill="url(#b)" d="M5.36 1.058c-1.53 0-2.577.457-3.26 1.2-.678.74-1.042 1.8-1.042 3.001v6.416c0 1.2.364 2.26 1.043 3 .682.743 1.73 1.2 3.26 1.2h6.23c1.009 0 1.809-.199 2.432-.548V1.605c-.624-.348-1.423-.547-2.432-.547H6.745z"/><path fill="url(#f)" d="M5.36 1.058c-1.53 0-2.577.457-3.26 1.2-.678.74-1.042 1.8-1.042 3.001v6.415c0 1.2.364 2.26 1.043 3 .682.744 1.73 1.2 3.26 1.2h6.23c1.53 0 2.577-.456 3.26-1.2.678-.739 1.024-1.702 1.024-3V5.5c0-1.57-.346-2.502-1.024-3.242-.683-.743-1.73-1.2-3.26-1.2H6.745zm0 .264h6.232c1.477 0 2.437.432 3.064 1.116.634.69.954 1.53.954 3.062v6.174c0 1.251-.322 2.134-.954 2.822-.627.684-1.587 1.114-3.064 1.114H5.359c-1.477 0-2.437-.43-3.064-1.114-.625-.682-.973-1.675-.973-2.822V5.26c0-1.148.348-2.14.973-2.822.627-.684 1.587-1.116 3.064-1.116" filter="url(#g)" opacity=".65"/><circle cx="7.54" cy="8.466" r="4.63" opacity=".25"/><path fill="url(#h)" d="M7.54 3.836a4.63 4.63 0 0 0-4.63 4.63 4.63 4.63 0 0 0 4.63 4.63 4.63 4.63 0 0 0 4.63-4.63 4.63 4.63 0 0 0-4.63-4.63m0 .133a4.5 4.5 0 0 1 4.498 4.497 4.5 4.5 0 0 1-4.498 4.498 4.5 4.5 0 0 1-4.497-4.498A4.5 4.5 0 0 1 7.54 3.97" filter="url(#i)" opacity=".65"/><path fill="#fff" d="M7.537 10.171c-1.289 0-2.533.47-3.5 1.322a4.63 4.63 0 0 0 7.004.005 5.3 5.3 0 0 0-3.504-1.327" opacity=".8"/><ellipse cx="7.54" cy="7.276" fill="url(#j)" rx="1.906" ry="2.02"/><g clip-path="url(#k)" filter="url(#l)" opacity=".35"><path fill="url(#c)" d="M10.583 1.058v4.895h5.292V5.42c-.011-1.522-.356-2.435-1.024-3.162-.674-.734-1.705-1.189-3.205-1.2h-1.063" opacity="1"/><rect width="5.292" height="5.027" x="10.583" y="5.953" fill="url(#d)" opacity="1" rx="0" ry="0"/><path fill="url(#e)" d="M10.583 10.98v4.895h1.076c1.493-.014 2.52-.468 3.192-1.2.668-.727 1.012-1.67 1.024-2.935v-.76z" opacity="1"/></g><path fill="#fff" d="M7.54 5.255a1.906 2.02 0 0 0-1.906 2.02A1.906 2.02 0 0 0 7.54 9.297a1.906 2.02 0 0 0 1.907-2.02 1.906 2.02 0 0 0-1.906-2.02m.001.079c1.007 0 1.826.866 1.826 1.941s-.819 1.942-1.826 1.942-1.828-.866-1.828-1.942.82-1.941 1.828-1.941" filter="url(#m)"/><path fill="#fff" d="M7.537 10.171c-1.289 0-2.533.47-3.5 1.322a4.63 4.63 0 0 0 7.004.005 5.3 5.3 0 0 0-3.504-1.327m0 .079c1.237 0 2.424.454 3.366 1.254a4.54 4.54 0 0 1-3.362 1.513A4.54 4.54 0 0 1 4.176 11.5a5.2 5.2 0 0 1 3.36-1.25z" filter="url(#n)" opacity=".8"/></svg>