<svg xmlns="http://www.w3.org/2000/svg" xmlns:xlink="http://www.w3.org/1999/xlink" width="64" height="64"><defs><linearGradient id="b"><stop offset="0" stop-color="#fff"/><stop offset=".248" stop-color="#fff" stop-opacity=".86"/><stop offset="1" stop-color="#fff" stop-opacity="0"/></linearGradient><linearGradient xlink:href="#a" id="e" x1="6.745" x2="10.583" y1="1.058" y2="11.312" gradientUnits="userSpaceOnUse"/><linearGradient id="a"><stop offset="0" stop-color="#fff"/><stop offset="1" stop-color="#fff" stop-opacity="0"/></linearGradient><linearGradient xlink:href="#a" id="f" x1="15.081" x2="12.7" y1="14.816" y2="12.171" gradientUnits="userSpaceOnUse"/><linearGradient id="c" x1="14.221" x2="2.315" y1="2.844" y2="14.817" gradientTransform="translate(-.01 .024)scale(3.7796)" gradientUnits="userSpaceOnUse"><stop offset="0" stop-color="#ff6857"/><stop offset="1" stop-color="#ff2e69"/></linearGradient><linearGradient id="g" x1="32" x2="32" y1="49.626" y2="27.164" gradientTransform="rotate(45 32 32)" gradientUnits="userSpaceOnUse"><stop offset="0" stop-color="#fff"/><stop offset="1" stop-color="#fff" stop-opacity=".5"/></linearGradient><linearGradient id="l" x1="22.386" x2="38.039" y1="24.5" y2="14.866" gradientUnits="userSpaceOnUse"><stop offset="0" stop-color="#fff"/><stop offset="1" stop-color="#fff" stop-opacity=".36"/></linearGradient><linearGradient id="j" x1="35.25" x2="28.75" y1="20.442" y2="20.442" gradientTransform="translate(13.255 -32)" gradientUnits="userSpaceOnUse"><stop offset="0" stop-color="#ff355e"/><stop offset="1" stop-color="#ff6c8e"/></linearGradient><linearGradient id="n" x1="21.125" x2="47.5" y1="49.664" y2="33.501" gradientUnits="userSpaceOnUse"><stop offset="0" stop-color="#fff"/><stop offset="1" stop-color="#fff" stop-opacity="0"/></linearGradient><filter id="d" width="1.024" height="1.024" x="-.012" y="-.012" color-interpolation-filters="sRGB"><feGaussianBlur stdDeviation=".074"/></filter><filter id="m" width="1.056" height="1.025" x="-.028" y="-.013" color-interpolation-filters="sRGB"><feGaussianBlur stdDeviation=".191"/></filter><filter id="k" width="1.096" height="1.096" x="-.048" y="-.048" color-interpolation-filters="sRGB"><feGaussianBlur stdDeviation=".115"/></filter><filter id="o" width="1.032" height="1.038" x="-.016" y="-.019" color-interpolation-filters="sRGB"><feGaussianBlur stdDeviation=".178"/></filter><radialGradient xlink:href="#b" id="h" cx="30.565" cy="24.855" r="8.235" gradientTransform="rotate(45 275.055 105.272)scale(1.592 8.7186)" gradientUnits="userSpaceOnUse"/><radialGradient id="i" cx="31.962" cy="49.253" r="5.341" gradientTransform="matrix(.67363 .69383 -1.0398 1.0096 49.829 -28.099)" gradientUnits="userSpaceOnUse"><stop offset="0" stop-color="#fff"/><stop offset=".39" stop-color="#ffebf0"/><stop offset="1" stop-color="#ff82af"/></radialGradient><radialGradient xlink:href="#b" id="p" cx="30.565" cy="24.855" r="8.235" gradientTransform="rotate(45 275.07 105.237)scale(1.592 8.7186)" gradientUnits="userSpaceOnUse"/></defs><path fill="url(#c)" d="M20.25 4.025c-5.782 0-9.743 1.724-12.321 4.534C5.364 11.356 3.99 15.363 3.99 19.9v24.248c0 4.538 1.374 8.546 3.939 11.341 2.578 2.81 6.54 4.535 12.321 4.535h23.549c5.782 0 9.743-1.724 12.321-4.535 2.565-2.796 3.87-6.435 3.87-11.34V20.81c0-5.935-1.305-9.456-3.87-12.252-2.578-2.81-6.54-4.534-12.321-4.534H25.484z"/><g filter="url(#d)" opacity=".45" transform="scale(3.7796)"><path fill="url(#e)" d="M5.36 1.058c-1.53 0-2.577.457-3.26 1.2-.678.74-1.042 1.8-1.042 3.001v6.415c0 1.2.364 2.26 1.043 3 .682.744 1.73 1.2 3.26 1.2h6.23c1.53 0 2.577-.456 3.26-1.2.678-.739 1.024-1.702 1.024-3V5.5c0-1.57-.346-2.502-1.024-3.242-.683-.743-1.73-1.2-3.26-1.2H6.745zm0 .264h6.232c1.477 0 2.437.432 3.064 1.116.634.69.954 1.53.954 3.062v6.174c0 1.251-.322 2.134-.954 2.822-.627.684-1.587 1.114-3.064 1.114H5.359c-1.477 0-2.437-.43-3.064-1.114-.625-.682-.973-1.675-.973-2.822V5.26c0-1.148.348-2.14.973-2.822.627-.684 1.587-1.116 3.064-1.116" opacity="1"/><path fill="url(#f)" d="M5.36 1.058c-1.53 0-2.577.457-3.26 1.2-.678.74-1.042 1.8-1.042 3.001v6.415c0 1.2.364 2.26 1.043 3 .682.744 1.73 1.2 3.26 1.2h6.23c1.53 0 2.577-.456 3.26-1.2.678-.739 1.024-1.702 1.024-3V5.5c0-1.57-.346-2.502-1.024-3.242-.683-.743-1.73-1.2-3.26-1.2H6.745zm0 .264h6.232c1.477 0 2.437.432 3.064 1.116.634.69.954 1.53.954 3.062v6.174c0 1.251-.322 2.134-.954 2.822-.627.684-1.587 1.114-3.064 1.114H5.359c-1.477 0-2.437-.43-3.064-1.114-.625-.682-.973-1.675-.973-2.822V5.26c0-1.148.348-2.14.973-2.822.627-.684 1.587-1.116 3.064-1.116" opacity="1"/></g><path fill="url(#g)" d="M29.614 22.774c-1.292-.138-7.055-.47-11.424 3.9-4.95 4.95-6.991 10.39-5.332 11.014 1.265.476 4.013-2.022 6.806-2.47a10 10 0 0 1 2.24-.093c1.524-4.988 4.04-8.643 7.71-12.351zm11.619 11.674c-3.706 3.662-7.364 6.173-12.355 7.693.042.659.03 1.41-.097 2.195-.447 2.793-2.945 5.54-2.47 6.806.625 1.66 6.065-.382 11.015-5.332 4.303-4.303 4.047-9.957 3.907-11.362" opacity=".75"/><path fill="url(#h)" d="M45.579 18.421a15.01 11.562 45 0 0-4.335-3.255c-4.16 1.558-8.104 4.096-11.513 7.49l-.003.004c-3.86 3.875-6.459 7.68-7.98 12.99-.17.554-.134 1.238.493 1.865l4.277 4.278c.627.627 1.312.663 1.866.493 5.31-1.521 9.115-4.12 12.99-7.98l.003-.003c3.39-3.404 5.926-7.341 7.484-11.495a15.01 11.562 45 0 0-3.283-4.388zm-3.107 3.107a3.25 3.25 0 0 1 0 4.597 3.25 3.25 0 0 1-4.597 0 3.25 3.25 0 0 1 0-4.597 3.25 3.25 0 0 1 4.597 0"/><path fill="url(#i)" d="M22.974 40.894c-.98-.98-2.128-1.797-4.033-1.823-2.923-.04-6.3 5.056-5.137 5.447.305.103 1.318-1.112 1.823-.674.331.287-.056 1.712-1.094 3.193-1.039 1.48-2.01 2.298-1.348 2.96.663.664 2.049.32 3.547.078 1.58-.254 2.617-1.38 2.939-1.105.428.366-.929 1.525-.663 1.702s2.22-.276 4.065-2.254c2.028-2.174 1.95-3.345 1.768-4.42-.22-1.303-.887-2.124-1.867-3.104"/><circle cx="45.255" cy="-11.559" r="3.25" fill="url(#j)" transform="rotate(45)"/><path fill="#fff" d="M32 17.566a2.875 2.875 0 0 0-2.875 2.875A2.875 2.875 0 0 0 32 23.316a2.875 2.875 0 0 0 2.875-2.875A2.875 2.875 0 0 0 32 17.566m.209.297a2.58 2.58 0 0 1 2.578 2.578 2.58 2.58 0 0 1-2.578 2.578 2.58 2.58 0 0 1-2.578-2.578 2.58 2.58 0 0 1 2.578-2.578" filter="url(#k)" opacity=".45" style="mix-blend-mode:normal" transform="rotate(45 32 32)"/><path fill="url(#l)" d="M32 6.2c-.375 0-.6.125-.752.263-.096.086-.164.177-.223.244-4.612 5.273-7.22 12.483-7.236 20.291v.004c.012 5.47.863 9.998 3.543 14.828.271.512.781.97 1.668.97h6.049c.887 0 1.397-.458 1.668-.97 2.68-4.83 3.531-9.359 3.543-14.828v-.004c-.017-7.808-2.624-15.018-7.236-20.291-.059-.067-.127-.158-.223-.244-.153-.138-.377-.264-.752-.264H32zm-.082.997c.011.001.034.002.082.002h.049c.048 0 .071 0 .082-.002V7.2h-.002v.004l.002.002c.012.01.04.046.14.16C36.71 12.44 39.245 19.413 39.26 27c-.012 5.367-.824 9.669-3.418 14.346l-.01.016c-.144.272-.241.44-.783.44H29c-.542 0-.64-.168-.783-.44l-.01-.016c-2.594-4.676-3.406-8.978-3.418-14.344V27c.016-7.587 2.55-14.56 6.988-19.635.1-.114.129-.149.141-.16l.002-.002V7.2h-.002z" filter="url(#m)" style="mix-blend-mode:normal" transform="rotate(45 32 32)"/><path fill="url(#n)" d="M23.789 27.164c-1.01.816-5.32 4.657-5.32 10.836 0 7 2.403 12.29 4.017 11.559 1.232-.558 1.408-4.267 3.067-6.559a10 10 0 0 1 1.517-1.65c-2.449-4.604-3.254-8.97-3.28-14.186zm16.471.04c-.03 5.209-.842 9.571-3.297 14.175A10 10 0 0 1 38.448 43c1.658 2.291 1.834 6 3.066 6.559 1.615.731 4.018-4.559 4.018-11.56 0-6.084-4.18-9.902-5.272-10.796zm-16.483 1.462c.24 4.081 1.014 8.002 2.911 11.79-.389.383-1.58 1.453-1.945 1.958-.97 1.34-1.433 2.938-1.836 4.215-.202.638-.388 1.197-.56 1.568-.138.294-.199.331-.216.358-.053-.035-.1-.056-.21-.178-.316-.35-.74-1.075-1.114-2.055-.746-1.959-1.338-4.936-1.338-8.322 0-4.3 2.392-7.835 4.308-9.334zm16.359.45c1.518 1.608 4.396 4.646 4.396 8.884 0 3.385-.592 6.363-1.338 8.322-.374.98-.798 1.704-1.114 2.055-.11.122-.157.143-.21.178-.017-.027-.078-.064-.215-.358-.173-.37-.36-.93-.56-1.568-.404-1.277-.867-2.875-1.837-4.215-.355-.49-1.534-1.507-1.913-1.884 1.9-3.78 2.546-7.342 2.791-11.414z" filter="url(#o)" opacity=".75" style="mix-blend-mode:normal" transform="rotate(45 32 32)"/><path fill="url(#p)" d="M50.224 13.736c-.265-.265-.513-.335-.718-.345-.129-.007-.242.009-.33.015-2.684.18-5.36.77-7.952 1.74a15.01 11.562 45 0 1 4.335 3.255 15.01 11.562 45 0 1 3.283 4.388 28 28 0 0 0 1.747-7.97c.006-.089.022-.201.015-.33-.01-.205-.08-.453-.345-.718l-.018-.018z" opacity=".65"/></svg>