<svg xmlns="http://www.w3.org/2000/svg" width="64" height="64" image-rendering="optimizeSpeed"><defs><linearGradient id="c" x1="15.081" x2="12.7" y1="14.816" y2="12.171" gradientUnits="userSpaceOnUse"><stop offset="0" stop-color="#2dacfa"/><stop offset="1" stop-color="#2dacfa" stop-opacity="0"/></linearGradient><linearGradient id="d" x1="6.745" x2="10.583" y1="1.058" y2="11.312" gradientUnits="userSpaceOnUse"><stop offset="0" stop-color="#3ae7fd"/><stop offset="1" stop-color="#3ae7fd" stop-opacity="0"/></linearGradient><linearGradient id="a" x1="8.466" x2="8.466" y1="1.058" y2="15.875" gradientTransform="scale(3.7796)" gradientUnits="userSpaceOnUse"><stop offset="0" stop-color="#0287fa"/><stop offset="1" stop-color="#2239e4"/></linearGradient><linearGradient id="e" x1="31.992" x2="31.992" y1="12.136" y2="51.864" gradientUnits="userSpaceOnUse"><stop offset="0" stop-color="#b6e4ff"/><stop offset="1" stop-color="#9aafec"/></linearGradient><linearGradient id="f" x1="31.979" x2="31.979" y1="12.635" y2="51.382" gradientUnits="userSpaceOnUse"><stop offset="0" stop-color="#fffeff"/><stop offset=".504" stop-color="#d9eafe"/><stop offset="1" stop-color="#899bf1"/></linearGradient><filter id="b" width="1.024" height="1.024" x="-.012" y="-.012" color-interpolation-filters="sRGB"><feGaussianBlur stdDeviation=".074"/></filter><filter id="g" width="1.046" height="1.028" x="-.023" y="-.014" color-interpolation-filters="sRGB"><feGaussianBlur stdDeviation=".22"/></filter></defs><path fill="url(#a)" d="M20.26 4c-5.782 0-9.743 1.725-12.321 4.535C5.374 11.331 4 15.34 4 19.876v24.248c0 4.538 1.374 8.545 3.939 11.341C10.517 58.275 14.479 60 20.26 60h23.549c5.782 0 9.743-1.724 12.321-4.535C58.695 52.67 60 49.03 60 44.125V20.786c0-5.935-1.305-9.456-3.87-12.252C53.552 5.725 49.59 4 43.809 4H25.494z"/><g filter="url(#b)" opacity=".75" style="mix-blend-mode:normal" transform="scale(3.7796)"><path fill="url(#c)" d="M5.36 1.058c-1.53 0-2.577.457-3.26 1.2-.678.74-1.042 1.8-1.042 3.001v6.415c0 1.2.364 2.26 1.043 3 .682.744 1.73 1.2 3.26 1.2h6.23c1.53 0 2.577-.456 3.26-1.2.678-.739 1.024-1.702 1.024-3V5.5c0-1.57-.346-2.502-1.024-3.242-.683-.743-1.73-1.2-3.26-1.2H6.745zm0 .264h6.232c1.477 0 2.437.432 3.064 1.116.634.69.954 1.53.954 3.062v6.174c0 1.251-.322 2.134-.954 2.822-.627.684-1.587 1.114-3.064 1.114H5.359c-1.477 0-2.437-.43-3.064-1.114-.625-.682-.973-1.675-.973-2.822V5.26c0-1.148.348-2.14.973-2.822.627-.684 1.587-1.116 3.064-1.116" opacity="1"/><path fill="url(#d)" d="M5.36 1.058c-1.53 0-2.577.457-3.26 1.2-.678.74-1.042 1.8-1.042 3.001v6.415c0 1.2.364 2.26 1.043 3 .682.744 1.73 1.2 3.26 1.2h6.23c1.53 0 2.577-.456 3.26-1.2.678-.739 1.024-1.702 1.024-3V5.5c0-1.57-.346-2.502-1.024-3.242-.683-.743-1.73-1.2-3.26-1.2H6.745zm0 .264h6.232c1.477 0 2.437.432 3.064 1.116.634.69.954 1.53.954 3.062v6.174c0 1.251-.322 2.134-.954 2.822-.627.684-1.587 1.114-3.064 1.114H5.359c-1.477 0-2.437-.43-3.064-1.114-.625-.682-.973-1.675-.973-2.822V5.26c0-1.148.348-2.14.973-2.822.627-.684 1.587-1.116 3.064-1.116" opacity="1"/></g><path fill="url(#e)" d="M30.675 12.148a1.862 1.862 0 0 0-2.072 1.85v13.37l-5.572-4.503a1.861 1.861 0 1 0-2.339 2.897l7.722 6.242-7.722 6.241a1.861 1.861 0 1 0 2.34 2.894l5.57-4.503v13.367a1.862 1.862 0 0 0 3.027 1.452l11.674-9.36a1.86 1.86 0 0 0 0-2.904l-8.969-7.19 8.969-7.19a1.86 1.86 0 0 0 0-2.908l-11.674-9.357a1.87 1.87 0 0 0-.954-.398m1.649 5.729 6.84 5.482-6.84 5.479zm0 17.285 6.84 5.482-6.84 5.479z"/><path fill="url(#f)" d="M30.467 12.635a1.353 1.353 0 0 0-1.363 1.363v14.416l-6.387-5.16c-.386-.311-.73-.374-1.055-.32a1.44 1.44 0 0 0-.86.525c-.222.276-.347.62-.331.95.015.328.15.653.535.964l8.203 6.631-8.205 6.633-.002.002c-.395.311-.534.636-.55.967-.018.33.108.679.333.957s.54.475.867.527.674-.014 1.061-.336l.002-.002 6.387-5.164v14.416a1.346 1.346 0 0 0 2.214 1.06l11.674-9.359a1.35 1.35 0 0 0 0-2.123l-9.455-7.58 9.455-7.582a1.35 1.35 0 0 0 0-2.127l-11.674-9.357a1.37 1.37 0 0 0-.697-.291h-.002q-.075-.01-.15-.01zm1.357 4.201 8.14 6.524-8.14 6.52zm0 17.285 8.14 6.524-8.14 6.52z" image-rendering="auto"/><path fill="#fff" d="M30.467 12.635a1.353 1.353 0 0 0-1.363 1.363v14.416l-6.387-5.16c-.386-.311-.73-.374-1.055-.32a1.44 1.44 0 0 0-.86.525c-.222.276-.347.62-.331.95.01.23.08.46.254.683a1 1 0 0 1-.022-.184c-.015-.328.11-.673.332-.949a1.44 1.44 0 0 1 .86-.525c.324-.054.669.009 1.054.32l6.387 5.16V14.498a1.353 1.353 0 0 1 1.514-1.353h.002c.255.03.497.13.697.29l11.674 9.358q.145.117.25.258a1.36 1.36 0 0 0-.482-.758l-11.674-9.357a1.37 1.37 0 0 0-.698-.291h-.002q-.075-.01-.15-.01m9.3 10.881-7.71 6.178v.685l8.139-6.52zm-10.751 8.645-8.012 6.476-.002.002c-.395.311-.533.636-.55.967-.016.298.086.61.27.873a1.3 1.3 0 0 1-.038-.373c.017-.33.155-.656.55-.967l.003-.002 8.205-6.633zm4.947.185-.195.156 9.455 7.58q.145.117.25.256a1.36 1.36 0 0 0-.483-.756zm-4.629 3.742-.232.188v13.729c0 .33.103.618.271.843a1.5 1.5 0 0 1-.039-.343zm10.434 4.713-7.71 6.178v.685l8.138-6.52z" filter="url(#g)" image-rendering="auto"/></svg>