<svg xmlns="http://www.w3.org/2000/svg" width="64" height="64" viewBox="0 0 16.933 16.933"><defs><filter id="g" width="1.04" height="1.084" x="-.02" y="-.042" color-interpolation-filters="sRGB"><feGaussianBlur stdDeviation=".046"/></filter><filter id="h" width="1.026" height="1.052" x="-.013" y="-.026" color-interpolation-filters="sRGB"><feGaussianBlur stdDeviation=".031"/></filter><filter id="j" width="1.15" height="1.15" x="-.075" y="-.075" color-interpolation-filters="sRGB"><feGaussianBlur stdDeviation=".045"/></filter><filter id="i" width="1.26" height="1.26" x="-.13" y="-.13" color-interpolation-filters="sRGB"><feGaussianBlur stdDeviation=".024"/></filter><filter id="k" width="1.315" height="1.315" x="-.157" y="-.157" color-interpolation-filters="sRGB"><feGaussianBlur stdDeviation=".04"/></filter><filter id="l" width="1.315" height="1.315" x="-.157" y="-.157" color-interpolation-filters="sRGB"><feGaussianBlur stdDeviation=".04"/></filter><filter id="n" width="1.024" height="1.016" x="-.012" y="-.008" color-interpolation-filters="sRGB"><feGaussianBlur stdDeviation=".038"/></filter><filter id="c" width="1.235" height="1.157" x="-.118" y="-.078" color-interpolation-filters="sRGB"><feGaussianBlur stdDeviation=".363"/></filter><filter id="b" width="1.024" height="1.024" x="-.012" y="-.012" color-interpolation-filters="sRGB"><feGaussianBlur stdDeviation=".074"/></filter><linearGradient id="f" x1="6.879" x2="10.583" y1="4.498" y2="7.408" gradientUnits="userSpaceOnUse"><stop offset="0" stop-color="#fff"/><stop offset="1" stop-color="#fff" stop-opacity="0"/></linearGradient><linearGradient id="e" x1="8.466" x2="8.466" y1="3.704" y2="6.614" gradientTransform="matrix(.9689 0 0 .92823 .263 .37)" gradientUnits="userSpaceOnUse"><stop offset="0" stop-color="#5e5e5f"/><stop offset="1" stop-color="#4f4f4f"/></linearGradient><linearGradient id="m" x1="8.466" x2="8.466" y1="2.91" y2="14.023" gradientUnits="userSpaceOnUse"><stop offset="0" stop-color="#848283"/><stop offset="1" stop-color="#5c5c5c"/></linearGradient><linearGradient id="d" x1="8.466" x2="8.466" y1="3.046" y2="13.771" gradientUnits="userSpaceOnUse"><stop offset="0" stop-color="#232223"/><stop offset="1" stop-color="#767575"/></linearGradient><linearGradient id="a" x1="8.466" x2="8.466" y1="1.058" y2="15.875" gradientTransform="scale(3.7796)" gradientUnits="userSpaceOnUse"><stop offset="0" stop-color="#e1e1e0"/><stop offset="1" stop-color="#bdbdbb"/></linearGradient></defs><path fill="url(#a)" d="M20.26 4c-5.782 0-9.743 1.725-12.321 4.535C5.374 11.331 4 15.34 4 19.876v24.248c0 4.538 1.374 8.545 3.939 11.341C10.517 58.275 14.479 60 20.26 60h23.549c5.782 0 9.743-1.724 12.321-4.535C58.695 52.67 60 49.03 60 44.125V20.786c0-5.935-1.305-9.456-3.87-12.252C53.552 5.725 49.59 4 43.809 4H25.494z" transform="scale(.26458)"/><path fill="#fff" d="M5.36 1.058c-1.53 0-2.577.457-3.26 1.2-.678.74-1.042 1.8-1.042 3.001v6.415c0 1.2.364 2.26 1.043 3 .682.744 1.73 1.2 3.26 1.2h6.23c1.53 0 2.577-.456 3.26-1.2.678-.739 1.024-1.702 1.024-3V5.5c0-1.57-.346-2.502-1.024-3.242-.683-.743-1.73-1.2-3.26-1.2H6.745zm0 .264h6.232c1.477 0 2.437.432 3.064 1.116.634.69.954 1.53.954 3.062v6.174c0 1.251-.322 2.134-.954 2.822-.627.684-1.587 1.114-3.064 1.114H5.359c-1.477 0-2.437-.43-3.064-1.114-.625-.682-.973-1.675-.973-2.822V5.26c0-1.148.348-2.14.973-2.822.627-.684 1.587-1.116 3.064-1.116" filter="url(#b)"/><rect width="7.408" height="11.112" x="4.944" y="3.043" filter="url(#c)" opacity=".25" rx="1.058" ry="1.058"/><rect width="7.408" height="11.112" x="4.762" y="2.91" fill="url(#d)" stroke="#2e2d2d" stroke-width=".159" rx="1.058" ry="1.058"/><rect width="5.64" height="2.701" x="5.647" y="3.808" fill="url(#e)" rx=".315" ry=".315"/><path fill="url(#f)" d="M5.96 3.836a.27.27 0 0 0-.273.272V6.21c0 .153.12.271.274.271h5.012a.267.267 0 0 0 .271-.271V4.108a.27.27 0 0 0-.271-.272zm0 .133h5.013c.082 0 .138.057.138.139V6.21a.13.13 0 0 1-.138.138H5.96c-.082 0-.14-.056-.14-.138V4.108c0-.082.058-.14.14-.14" filter="url(#g)" opacity=".43"/><path fill="#1e1d1d" d="M5.96 3.704a.403.403 0 0 0-.404.404V6.21c0 .224.18.404.404.404h5.013c.224 0 .404-.18.404-.404V4.108a.403.403 0 0 0-.404-.404zm0 .132h5.013c.153 0 .271.119.271.272V6.21a.267.267 0 0 1-.271.271H5.96a.27.27 0 0 1-.274-.271V4.108a.27.27 0 0 1 .274-.272" filter="url(#h)"/><g transform="translate(16.391)"><circle cx="-9.986" cy="8.265" r=".728" fill="#d7d8d5" stroke="#2e2d2d" stroke-linecap="round" stroke-linejoin="round" stroke-width=".265" filter="url(#i)"/><circle cx="-9.986" cy="8.265" r=".728" fill="#d7d8d5"/><path fill="#fff" d="M-9.985 7.537a.73.73 0 0 0-.728.728.73.73 0 0 0 .728.728.73.73 0 0 0 .727-.728.73.73 0 0 0-.727-.728m.06.179a.61.61 0 0 1 .61.61.61.61 0 0 1-.61.609.61.61 0 0 1-.61-.61.61.61 0 0 1 .61-.61" filter="url(#j)"/></g><g transform="translate(18.452)"><circle cx="-9.986" cy="8.265" r=".728" fill="#d7d8d5" stroke="#2e2d2d" stroke-linecap="round" stroke-linejoin="round" stroke-width=".265" filter="url(#k)"/><circle cx="-9.986" cy="8.265" r=".728" fill="#d7d8d5"/><path fill="#fff" d="M-9.985 7.537a.73.73 0 0 0-.728.728.73.73 0 0 0 .728.728.73.73 0 0 0 .727-.728.73.73 0 0 0-.727-.728m.06.179a.61.61 0 0 1 .61.61.61.61 0 0 1-.61.609.61.61 0 0 1-.61-.61.61.61 0 0 1 .61-.61" filter="url(#j)"/></g><g transform="translate(20.513)"><circle cx="-9.986" cy="8.265" r=".728" fill="#d7d8d5" stroke="#2e2d2d" stroke-linecap="round" stroke-linejoin="round" stroke-width=".265" filter="url(#l)"/><circle cx="-9.986" cy="8.265" r=".728" fill="#ff9305"/><path fill="#ffd850" d="M-9.985 7.537a.73.73 0 0 0-.728.728.73.73 0 0 0 .728.728.73.73 0 0 0 .727-.728.73.73 0 0 0-.727-.728m.06.179a.61.61 0 0 1 .61.61.61.61 0 0 1-.61.609.61.61 0 0 1-.61-.61.61.61 0 0 1 .61-.61" filter="url(#j)"/></g><g transform="translate(16.391 2.049)"><circle cx="-9.986" cy="8.265" r=".728" fill="#d7d8d5" stroke="#2e2d2d" stroke-linecap="round" stroke-linejoin="round" stroke-width=".265" filter="url(#i)"/><circle cx="-9.986" cy="8.265" r=".728" fill="#d7d8d5"/><path fill="#fff" d="M-9.985 7.537a.73.73 0 0 0-.728.728.73.73 0 0 0 .728.728.73.73 0 0 0 .727-.728.73.73 0 0 0-.727-.728m.06.179a.61.61 0 0 1 .61.61.61.61 0 0 1-.61.609.61.61 0 0 1-.61-.61.61.61 0 0 1 .61-.61" filter="url(#j)"/></g><g transform="translate(18.452 2.049)"><circle cx="-9.986" cy="8.265" r=".728" fill="#d7d8d5" stroke="#2e2d2d" stroke-linecap="round" stroke-linejoin="round" stroke-width=".265" filter="url(#k)"/><circle cx="-9.986" cy="8.265" r=".728" fill="#d7d8d5"/><path fill="#fff" d="M-9.985 7.537a.73.73 0 0 0-.728.728.73.73 0 0 0 .728.728.73.73 0 0 0 .727-.728.73.73 0 0 0-.727-.728m.06.179a.61.61 0 0 1 .61.61.61.61 0 0 1-.61.609.61.61 0 0 1-.61-.61.61.61 0 0 1 .61-.61" filter="url(#j)"/></g><g transform="translate(20.513 2.049)"><circle cx="-9.986" cy="8.265" r=".728" fill="#d7d8d5" stroke="#2e2d2d" stroke-linecap="round" stroke-linejoin="round" stroke-width=".265" filter="url(#l)"/><circle cx="-9.986" cy="8.265" r=".728" fill="#ff9305"/><path fill="#ffd850" d="M-9.985 7.537a.73.73 0 0 0-.728.728.73.73 0 0 0 .728.728.73.73 0 0 0 .727-.728.73.73 0 0 0-.727-.728m.06.179a.61.61 0 0 1 .61.61.61.61 0 0 1-.61.609.61.61 0 0 1-.61-.61.61.61 0 0 1 .61-.61" filter="url(#j)"/></g><g transform="translate(16.391 4.098)"><circle cx="-9.986" cy="8.265" r=".728" fill="#d7d8d5" stroke="#2e2d2d" stroke-linecap="round" stroke-linejoin="round" stroke-width=".265" filter="url(#i)"/><circle cx="-9.986" cy="8.265" r=".728" fill="#d7d8d5"/><path fill="#fff" d="M-9.985 7.537a.73.73 0 0 0-.728.728.73.73 0 0 0 .728.728.73.73 0 0 0 .727-.728.73.73 0 0 0-.727-.728m.06.179a.61.61 0 0 1 .61.61.61.61 0 0 1-.61.609.61.61 0 0 1-.61-.61.61.61 0 0 1 .61-.61" filter="url(#j)"/></g><g transform="translate(18.452 4.098)"><circle cx="-9.986" cy="8.265" r=".728" fill="#d7d8d5" stroke="#2e2d2d" stroke-linecap="round" stroke-linejoin="round" stroke-width=".265" filter="url(#k)"/><circle cx="-9.986" cy="8.265" r=".728" fill="#d7d8d5"/><path fill="#fff" d="M-9.985 7.537a.73.73 0 0 0-.728.728.73.73 0 0 0 .728.728.73.73 0 0 0 .727-.728.73.73 0 0 0-.727-.728m.06.179a.61.61 0 0 1 .61.61.61.61 0 0 1-.61.609.61.61 0 0 1-.61-.61.61.61 0 0 1 .61-.61" filter="url(#j)"/></g><g transform="translate(20.513 4.098)"><circle cx="-9.986" cy="8.265" r=".728" fill="#d7d8d5" stroke="#2e2d2d" stroke-linecap="round" stroke-linejoin="round" stroke-width=".265" filter="url(#l)"/><circle cx="-9.986" cy="8.265" r=".728" fill="#ff9305"/><path fill="#ffd850" d="M-9.985 7.537a.73.73 0 0 0-.728.728.73.73 0 0 0 .728.728.73.73 0 0 0 .727-.728.73.73 0 0 0-.727-.728m.06.179a.61.61 0 0 1 .61.61.61.61 0 0 1-.61.609.61.61 0 0 1-.61-.61.61.61 0 0 1 .61-.61" filter="url(#j)"/></g><path fill="url(#m)" d="M5.82 2.91c-.586 0-1.058.472-1.058 1.059v8.995c0 .587.472 1.059 1.059 1.059h5.291c.587 0 1.059-.472 1.059-1.059V3.97c0-.587-.472-1.059-1.059-1.059zm0 .133h5.291c.515 0 .928.41.928.926v8.996a.92.92 0 0 1-.928.926h-5.29a.92.92 0 0 1-.926-.926V3.969a.92.92 0 0 1 .925-.926" filter="url(#n)"/></svg>