<svg xmlns="http://www.w3.org/2000/svg" width="64" height="64"><defs><filter id="b" width="1.024" height="1.024" x="-.012" y="-.012" color-interpolation-filters="sRGB"><feGaussianBlur stdDeviation=".074"/></filter><filter id="c" width="1.211" height="1.487" x="-.105" y="-.243" color-interpolation-filters="sRGB"><feGaussianBlur stdDeviation=".834"/></filter><filter id="e" width="1.125" height="1.041" x="-.062" y="-.02" color-interpolation-filters="sRGB"><feGaussianBlur stdDeviation=".193"/></filter><linearGradient id="a" x1="8.466" x2="8.466" y1="1.058" y2="15.875" gradientTransform="scale(3.7796)" gradientUnits="userSpaceOnUse"><stop offset="0" stop-color="#fff"/><stop offset="1" stop-color="#ececec"/></linearGradient><linearGradient id="d" x1="30.875" x2="30.875" y1="26.166" y2="49.821" gradientUnits="userSpaceOnUse"><stop offset="0"/><stop offset="1" stop-opacity=".75"/></linearGradient></defs><path fill="url(#a)" d="M20.26 4c-5.782 0-9.743 1.725-12.321 4.535C5.374 11.331 4 15.34 4 19.876v24.248c0 4.538 1.374 8.545 3.939 11.341C10.517 58.275 14.479 60 20.26 60h23.549c5.782 0 9.743-1.724 12.321-4.535C58.695 52.67 60 49.03 60 44.125V20.786c0-5.935-1.305-9.456-3.87-12.252C53.552 5.725 49.59 4 43.809 4H25.494z"/><path fill="#fff" d="M5.36 1.058c-1.53 0-2.577.457-3.26 1.2-.678.74-1.042 1.8-1.042 3.001v6.415c0 1.2.364 2.26 1.043 3 .682.744 1.73 1.2 3.26 1.2h6.23c1.53 0 2.577-.456 3.26-1.2.678-.739 1.024-1.702 1.024-3V5.5c0-1.57-.346-2.502-1.024-3.242-.683-.743-1.73-1.2-3.26-1.2H6.745zm0 .264h6.232c1.477 0 2.437.432 3.064 1.116.634.69.954 1.53.954 3.062v6.174c0 1.251-.322 2.134-.954 2.822-.627.684-1.587 1.114-3.064 1.114H5.359c-1.477 0-2.437-.43-3.064-1.114-.625-.682-.973-1.675-.973-2.822V5.26c0-1.148.348-2.14.973-2.822.627-.684 1.587-1.116 3.064-1.116" filter="url(#b)" transform="scale(3.7796)"/><path fill="#fe5c54" d="M23 14.611v-1.222h6.442v1.222h-2.493v6.871h-1.45v-6.871zm8.903 6.947q-.94 0-1.51-.597-.57-.598-.57-1.69V15.41h1.411v3.645q0 .608.315.956.32.348.875.348.565 0 .929-.364t.364-1.027V15.41h1.417v6.073h-1.341l-.011-1.217q-.543 1.293-1.88 1.293m7.414.049q-.918 0-1.58-.386-.658-.385-1.016-1.086-.354-.7-.354-1.651 0-.934.348-1.64.353-.712.994-1.109.646-.402 1.515-.402.74 0 1.37.326.635.32 1.02 1 .386.673.386 1.738v.445h-4.226q.027.81.451 1.233.43.424 1.108.424.467 0 .799-.201.336-.201.478-.587l1.298.266q-.217.734-.902 1.185-.679.445-1.69.445m-1.537-3.726h2.846q-.065-.652-.418-1.043-.348-.397-.978-.397-.647 0-1.027.419-.375.413-.423 1.02" aria-label="Tue" filter="url(#c)" opacity=".25"/><path fill="#fe5c54" stroke="#fff" stroke-linecap="round" stroke-linejoin="round" stroke-width=".2" d="M22.5 14.222V13h6.442v1.222h-2.493v6.871h-1.45v-6.871zm8.903 6.947q-.94 0-1.51-.597-.57-.598-.57-1.69V15.02h1.411v3.645q0 .608.315.956.32.348.875.348.565 0 .929-.364t.364-1.027V15.02h1.417v6.073h-1.341l-.011-1.217q-.543 1.293-1.88 1.293m7.414.049q-.918 0-1.58-.386-.658-.385-1.016-1.086-.354-.7-.354-1.651 0-.934.348-1.64.353-.712.994-1.109.646-.402 1.515-.402.74 0 1.37.326.635.32 1.02 1 .386.673.386 1.738v.445h-4.226q.027.81.451 1.233.43.424 1.108.424.467 0 .799-.201.336-.201.478-.587l1.298.266q-.217.734-.902 1.185-.679.445-1.69.445m-1.537-3.726h2.846q-.065-.652-.418-1.043-.348-.397-.978-.397-.647 0-1.027.419-.375.413-.423 1.02" aria-label="Tue"/><path fill="#fe5c54" d="M22.5 14.222V13h6.442v1.222h-2.493v6.871h-1.45v-6.871zm8.903 6.947q-.94 0-1.51-.597-.57-.598-.57-1.69V15.02h1.411v3.645q0 .608.315.956.32.348.875.348.565 0 .929-.364t.364-1.027V15.02h1.417v6.073h-1.341l-.011-1.217q-.543 1.293-1.88 1.293m7.414.049q-.918 0-1.58-.386-.658-.385-1.016-1.086-.354-.7-.354-1.651 0-.934.348-1.64.353-.712.994-1.109.646-.402 1.515-.402.74 0 1.37.326.635.32 1.02 1 .386.673.386 1.738v.445h-4.226q.027.81.451 1.233.43.424 1.108.424.467 0 .799-.201.336-.201.478-.587l1.298.266q-.217.734-.902 1.185-.679.445-1.69.445m-1.537-3.726h2.846q-.065-.652-.418-1.043-.348-.397-.978-.397-.647 0-1.027.419-.375.413-.423 1.02" aria-label="Tue"/><path fill="#373737" stroke="#fff" stroke-linecap="round" stroke-linejoin="round" stroke-width=".7" d="M35.241 25.978v24.029h-2.345V28.222l-.014.01-6.37 4.9v-2.58l5.988-4.575z" aria-label="1"/><path fill="#525252" stroke="#000" stroke-linecap="round" stroke-linejoin="round" stroke-width=".3" d="M35.241 25.978v24.029h-2.345V28.222l-.014.01-6.37 4.9v-2.58l5.988-4.575z" aria-label="1"/><path fill="url(#d)" d="m32.719 26.629-5.559 4.246v.94l5.327-4.098.029-.022.014-.01a.65.65 0 0 1 1.015.538v21.135h1.045v-22.73z" filter="url(#e)"/></svg>