<svg width="64" height="64" version="1.1" viewBox="0 0 16.933 16.933" xmlns="http://www.w3.org/2000/svg" xmlns:xlink="http://www.w3.org/1999/xlink">
 <defs>
  <linearGradient id="linearGradient38">
   <stop stop-color="#ffffff" offset="0"/>
   <stop stop-color="#ffffff" stop-opacity="0" offset="1"/>
  </linearGradient>
  <filter id="filter38" x="-.012" y="-.012" width="1.024" height="1.024" color-interpolation-filters="sRGB">
   <feGaussianBlur stdDeviation="0.074081873"/>
  </filter>
  <linearGradient id="linearGradient37" x1="15.081" x2="12.7" y1="14.816" y2="12.171" gradientUnits="userSpaceOnUse">
   <stop stop-color="#ffffff" offset="0"/>
   <stop stop-color="#ffffff" stop-opacity="0" offset="1"/>
  </linearGradient>
  <linearGradient id="linearGradient36" x1="6.7452" x2="10.583" y1="1.0583" y2="11.312" gradientUnits="userSpaceOnUse">
   <stop stop-color="#ffffff" offset="0"/>
   <stop stop-color="#ffffff" stop-opacity="0" offset="1"/>
  </linearGradient>
  <linearGradient id="linearGradient3" x1="8.4665" x2="8.4665" y1="1.0583" y2="15.875" gradientUnits="userSpaceOnUse">
   <stop stop-color="#ff372f" offset="0"/>
   <stop stop-color="#cc3227" offset="1"/>
  </linearGradient>
  <linearGradient id="linearGradient31" x1="8.4665" x2="8.4665" y1="3.4395" y2="6.3499" gradientUnits="userSpaceOnUse">
   <stop stop-color="#000000" offset="0"/>
   <stop stop-color="#000000" stop-opacity="0" offset="1"/>
  </linearGradient>
  <filter id="filter34" x="-.086719" y="-.066071" width="1.1734" height="1.1321" color-interpolation-filters="sRGB">
   <feGaussianBlur stdDeviation="0.30591846"/>
  </filter>
  <linearGradient id="linearGradient39" x1="5.5567" x2="7.8777" y1="8.467" y2="11.942" gradientUnits="userSpaceOnUse" xlink:href="#linearGradient38"/>
  <filter id="filter39" x="-.010222" y="-.019404" width="1.0204" height="1.0388" color-interpolation-filters="sRGB">
   <feGaussianBlur stdDeviation="0.030427775"/>
  </filter>
  <linearGradient id="linearGradient40" x1="4.2333" x2="6.0396" y1="10.524" y2="10.524" gradientTransform="translate(0 -5.7615)" gradientUnits="userSpaceOnUse" xlink:href="#linearGradient38"/>
 </defs>
 <path d="m5.3604 1.0584c-1.5298 0-2.5777 0.45621-3.2599 1.1998-0.67867 0.73981-1.0421 1.8001-1.0421 3.0006v6.4155c0 1.2006 0.36337 2.2609 1.0421 3.0006 0.68219 0.74354 1.7301 1.1998 3.2599 1.1998h6.2306c1.5298 0 2.5777-0.45621 3.2599-1.1998 0.67867-0.73981 1.024-1.7026 1.024-3.0006v-6.1745c0-1.5703-0.34528-2.5019-1.024-3.2416-0.68219-0.74354-1.7301-1.1998-3.2599-1.1998h-4.8457z" fill="url(#linearGradient3)"/>
 <g filter="url(#filter38)" opacity=".45">
  <path d="m5.3603 1.0583c-1.5298 0-2.5775 0.45637-3.2597 1.1999-0.67868 0.73981-1.0423 1.8002-1.0423 3.0008v6.415c0 1.2006 0.36361 2.2609 1.0423 3.0008 0.68219 0.74355 1.7299 1.1999 3.2597 1.1999h6.2305c1.5298 0 2.5775-0.45637 3.2597-1.1999 0.67868-0.73981 1.0242-1.7027 1.0242-3.0008v-6.1742c0-1.5703-0.34552-2.5018-1.0242-3.2416-0.68219-0.74355-1.7299-1.1999-3.2597-1.1999h-4.8456zm-0.00103 0.26406h6.2326c1.4772 0 2.437 0.43133 3.0644 1.1152 0.63411 0.69126 0.95341 1.5307 0.95341 3.0623v6.1742c0 1.2512-0.32181 2.1335-0.95341 2.822-0.6274 0.68381-1.5871 1.1136-3.0644 1.1136h-6.2326c-1.4772 0-2.437-0.42978-3.0644-1.1136-0.62537-0.68172-0.97253-1.6747-0.97253-2.822v-6.4145c0-1.1472 0.34717-2.1403 0.97253-2.822 0.6274-0.68381 1.5871-1.1152 3.0644-1.1152z" fill="url(#linearGradient37)" opacity="1"/>
  <path d="m5.3603 1.0583c-1.5298 0-2.5775 0.45637-3.2597 1.1999-0.67868 0.73981-1.0423 1.8002-1.0423 3.0008v6.415c0 1.2006 0.36361 2.2609 1.0423 3.0008 0.68219 0.74355 1.7299 1.1999 3.2597 1.1999h6.2305c1.5298 0 2.5775-0.45637 3.2597-1.1999 0.67868-0.73981 1.0242-1.7027 1.0242-3.0008v-6.1742c0-1.5703-0.34552-2.5018-1.0242-3.2416-0.68219-0.74355-1.7299-1.1999-3.2597-1.1999h-4.8456zm-0.00103 0.26406h6.2326c1.4772 0 2.437 0.43133 3.0644 1.1152 0.63411 0.69126 0.95341 1.5307 0.95341 3.0623v6.1742c0 1.2512-0.32181 2.1335-0.95341 2.822-0.6274 0.68381-1.5871 1.1136-3.0644 1.1136h-6.2326c-1.4772 0-2.437-0.42978-3.0644-1.1136-0.62537-0.68172-0.97253-1.6747-0.97253-2.822v-6.4145c0-1.1472 0.34717-2.1403 0.97253-2.822 0.6274-0.68381 1.5871-1.1152 3.0644-1.1152z" fill="url(#linearGradient36)" opacity="1"/>
 </g>
 <path d="m4.2332 3.1749v9.7894c0 0.73288 0.59001 1.3229 1.3229 1.3229h5.8207c0.73288 0 1.3229-0.59001 1.3229-1.3229v-9.7894z" fill="#000000" filter="url(#filter34)" opacity=".15"/>
 <rect x="2.9104" y="2.9104" width="11.112" height="1.852" rx=".92602" ry=".92602" fill="#000000"/>
 <path d="m4.2332 2.9104v9.7894c0 0.73288 0.59001 1.3229 1.3229 1.3229h5.8207c0.73288 0 1.3229-0.59001 1.3229-1.3229v-9.7894z" fill="#ffffff"/>
 <path d="m4.8074 2.9104c-0.029046 0.082686-0.044958 0.17172-0.044958 0.26458v3.7041c0 0.43973 0.35401 0.79373 0.79373 0.79373h5.8207c0.43973 0 0.79374-0.35401 0.79374-0.79373v-3.7041c0-0.092857-0.015912-0.18189-0.044958-0.26458h-7.3183z" fill="#cbcbcb"/>
 <path d="m8.0531 2.9104c-0.48546 0.19401-0.83183 0.70586-0.83146 1.3069-4.799e-4 0.76779 0.56533 1.3906 1.2635 1.3906 0.6978 0 1.2635-0.62213 1.2635-1.3896 3.754e-4 -0.60161-0.34679-1.1142-0.83301-1.3079h-0.86246zm0.43201 3.1553c-1.3627 0-2.5237 0.84046-2.7698 1.6071h5.5024c-0.23283-0.82638-1.4187-1.6071-2.7326-1.6071z" fill="#5f5f5f" stroke-width=".955"/>
 <path d="m4.8947 3.8364v3.1016c0 0.36873 0.29323 0.66196 0.66196 0.66196h5.8202c0.36873 0 0.66196-0.29323 0.66196-0.66196v-3.1016h-0.1328v3.1016c0 0.29859-0.23056 0.52916-0.52916 0.52916h-5.8202c-0.29859 0-0.52916-0.23056-0.52916-0.52916v-3.1016h-0.13281z" fill="url(#linearGradient40)" filter="url(#filter39)" stop-color="#000000" stroke-linecap="round" stroke-linejoin="round"/>
 <path d="m4.2332 2.9104v9.7894c0 0.73288 0.59001 1.3229 1.3229 1.3229h5.8207c0.73288 0 1.3229-0.59001 1.3229-1.3229v-9.7894z" fill="url(#linearGradient31)"/>
 <rect x="4.7624" y="8.2019" width="7.4082" height="5.2916" rx=".79373" ry=".79373" fill="#cbcbcb"/>
 <path d="m8.4851 8.6479c-0.69813-2e-7 -1.2639 0.62228-1.2635 1.3901-4.799e-4 0.76779 0.56533 1.3906 1.2635 1.3906 0.6978 0 1.2635-0.62214 1.2635-1.3896 4.79e-4 -0.76779-0.56533-1.3906-1.2635-1.3906zm0 3.2385c-1.3627 0-2.5237 0.84046-2.7698 1.6071h5.5024c-0.23283-0.82638-1.4187-1.6071-2.7326-1.6071z" fill="#5f5f5f" stroke-width=".955"/>
 <path d="m5.5567 8.3342c-0.36873 0-0.66196 0.29323-0.66196 0.66196v3.7031c0 0.36873 0.29323 0.66196 0.66196 0.66196h5.8202c0.36873 0 0.66196-0.29323 0.66196-0.66196v-3.7031c0-0.36873-0.29323-0.66196-0.66196-0.66196h-5.8202zm0 0.13281h5.8202c0.29859 0 0.52916 0.23056 0.52916 0.52916v3.7031c0 0.29859-0.23056 0.52916-0.52916 0.52916h-5.8202c-0.29859 0-0.52916-0.23056-0.52916-0.52916v-3.7031c0-0.29859 0.23056-0.52916 0.52916-0.52916z" fill="url(#linearGradient39)" filter="url(#filter39)" stop-color="#000000" stroke-linecap="round" stroke-linejoin="round"/>
</svg>
