<svg xmlns="http://www.w3.org/2000/svg" width="64" height="64"><defs><linearGradient id="e" x1="8.358" x2="59.375" y1="52.195" y2="52.027" gradientTransform="matrix(4.5083 0 0 4.24676 -24.681 -11.663)" gradientUnits="userSpaceOnUse" href="#a"/><linearGradient id="a"><stop offset="0" style="stop-color:#c0bfbc;stop-opacity:.96470588"/><stop offset=".122" style="stop-color:#f6f5f4;stop-opacity:.96470588"/><stop offset=".241" style="stop-color:#c0bfbc;stop-opacity:.96470588"/><stop offset=".729" style="stop-color:#c0bfbc;stop-opacity:.96470588"/><stop offset=".862" style="stop-color:#f6f5f4;stop-opacity:.96470588"/><stop offset="1" style="stop-color:#c0bfbc;stop-opacity:.96470588"/></linearGradient><linearGradient id="f" x1="33.867" x2="33.867" y1="51.861" y2="12.73" gradientTransform="matrix(4.98332 0 0 4.72765 -41.269 -31.905)" gradientUnits="userSpaceOnUse" href="#b"/><linearGradient id="b"><stop offset="0" style="stop-color:#209232;stop-opacity:1"/><stop offset="1" style="stop-color:#34c640;stop-opacity:1"/></linearGradient><linearGradient id="c" x1="7.937" x2="7.937" y1="15.081" y2="1.852" gradientTransform="translate(-3.222 1.896)scale(3.7796)" gradientUnits="userSpaceOnUse"><stop offset="0" stop-color="#cdcdcd"/><stop offset="1" stop-color="#fefefe"/></linearGradient><filter id="d" width="200%" height="200%" x="-50%" y="-50%" color-interpolation-filters="sRGB"><feGaussianBlur in="SourceAlpha" stdDeviation="6"/><feOffset dx="10" dy="10"/><feComponentTransfer result="offsetblur"><feFuncA type="linear"/></feComponentTransfer><feFlood flood-color="rgba(0,0,0,0.3)"/><feComposite in2="offsetblur" operator="in"/><feMerge><feMergeNode/><feMergeNode in="SourceGraphic"/></feMerge></filter></defs><rect width="56.002" height="56.002" x=".777" y="5.865" fill="url(#c)" rx="13.002" ry="13.002" style="stroke-width:1"/><g style="filter:url(#d)" transform="translate(7.63 12.718)scale(.16522)"><path d="M128.002 26.343C64.49 26.343 13 74.843 13 134.672c.017 18.477 5.051 36.643 14.624 52.77l-6.03 23.184c-2.166-.289-4.102 1.298-4.098 3.36l.033 13.051v.531l.002.785q.01.426.128.837c.939 7.422 8.602 12.786 16.108 11.275l42.997-8.859c15.915 7.479 33.453 11.379 51.238 11.394C191.515 243 243 194.5 243 134.672S191.515 26.343 128.002 26.343" style="fill:url(#e);fill-opacity:1;stroke-width:.208431"/><path d="M128.001 13C64.489 13 13.001 61.499 13 121.327c.017 18.478 5.052 36.644 14.625 52.772l-8.596 33.043-1.161 4.461c-2.297 8.826 6.536 17.447 15.899 15.518h.001l42.996-8.86c15.914 7.48 33.452 11.38 51.237 11.395 63.513 0 114.999-48.501 114.998-108.329S191.513 13 128.001 13" style="fill-opacity:1;stroke:none;stroke-width:.1;stroke-dasharray:none;stroke-opacity:1;fill:#fff"/><path d="M127.502 28.277c-30.903.01-59.977 13.923-78.353 37.496l82.896 3.941-101.806 44.968a87 87 0 0 0-.239 6.095c0 51.087 43.653 92.5 97.502 92.5 35.084-.006 67.458-17.893 84.777-46.839l-82.734-3.934L225 120.342c-.25-50.914-43.83-92.063-97.498-92.065" style="fill:url(#f);fill-opacity:1;stroke:none;stroke-width:.05;stroke-linejoin:miter;stroke-dasharray:none;stroke-opacity:1"/></g></svg>