<svg xmlns="http://www.w3.org/2000/svg" width="64" height="64"><defs><linearGradient id="a" x1="8.467" x2="8.467" y1="1.058" y2="15.875" gradientTransform="translate(0 1.184)scale(3.7796)" gradientUnits="userSpaceOnUse"><stop offset="0" stop-color="#fff"/><stop offset="1" stop-color="#ececec"/></linearGradient><filter id="b" width="1.024" height="1.024" x="-.012" y="-.012" color-interpolation-filters="sRGB"><feGaussianBlur stdDeviation=".074"/></filter></defs><path fill="url(#a)" d="M20.26 5.184c-5.782 0-9.743 1.725-12.321 4.535C5.374 12.515 4 16.523 4 21.06v24.248c0 4.538 1.373 8.545 3.939 11.342 2.578 2.81 6.539 4.534 12.321 4.534h23.549c5.782 0 9.743-1.724 12.321-4.534C58.695 53.853 60 50.214 60 45.308V21.971c0-5.935-1.305-9.456-3.87-12.252-2.578-2.811-6.539-4.535-12.321-4.535H20.26" style="fill:url(#a);stroke-width:3.7796"/><path fill="#fff" d="M20.26 5.184c-5.782 0-9.742 1.725-12.32 4.535C5.374 12.515 4 16.523 4 21.061v24.246c0 4.538 1.374 8.545 3.94 11.342 2.578 2.81 6.538 4.535 12.32 4.535h23.549c5.782 0 9.742-1.725 12.32-4.535C58.694 53.853 60 50.213 60 45.307V21.971c0-5.935-1.306-9.456-3.871-12.252-2.578-2.81-6.538-4.535-12.32-4.535H20.26m-.004.998h23.557c5.583 0 9.211 1.63 11.582 4.215 2.397 2.613 3.604 5.786 3.604 11.574v23.336c0 4.729-1.217 8.064-3.604 10.666-2.371 2.585-5.999 4.209-11.582 4.209H20.256c-5.583 0-9.211-1.624-11.582-4.209-2.364-2.576-3.676-6.329-3.676-10.666V21.063c0-4.336 1.312-8.089 3.676-10.666 2.371-2.584 5.998-4.215 11.582-4.215" filter="url(#b)"/><path fill="#2396ed" d="m43.396 24.094.4-.6.68.42.31.22c.73.56 2.28 2.01 2.61 4.42a9.6 9.6 0 0 1 1.77-.16c1.4 0 2.34.32 2.88.6l.27.14.18.12.5.41-.17.53c-.27.72-.69 1.37-1.23 1.91-.76.79-2.1 1.72-4.23 1.84l-.46.01h-.39c-.97 2.56-2.28 5.45-4.47 8.05-1.3 1.54-2.84 2.86-4.57 3.9a20.8 20.8 0 0 1-6.69 2.55c-1.69.32-3.41.49-5.13.48-3.8 0-7.16-.76-9.23-2.08-1.84-1.18-3.26-3.1-4.21-5.71-.84-2.39-1.25-4.9-1.21-7.43-.01-.67.47-1.25 1.13-1.36l.18-.01h27.67l.24-.02.39-.04c.67-.09 1.69-.29 2.41-.71-.86-1.42-1.1-3.09-.7-4.87.17-.74.43-1.45.79-2.12zm-24.81 3.27.1.02c.1.04.18.12.21.22l.01.1v3.45l-.01.11c-.03.1-.11.18-.21.22l-.1.01h-3.71a.31.31 0 0 1-.3-.23l-.02-.1v-3.46l.02-.11c.03-.1.1-.18.2-.21l.1-.02zm5.11 0 .1.02c.1.04.18.12.21.22l.01.1v3.45l-.02.11c-.03.1-.1.18-.2.22l-.1.01h-3.71a.33.33 0 0 1-.31-.23l-.01-.1v-3.46c0-.14.08-.27.22-.32l.1-.02zm5.19 0 .1.02c.1.04.17.12.2.22l.02.1v3.45l-.02.11c-.03.1-.1.18-.2.22l-.11.01h-3.7c-.14 0-.27-.09-.31-.23l-.01-.1v-3.46l.01-.11c.03-.1.11-.18.21-.21l.1-.02zm5.12 0 .1.02c.1.04.18.12.21.22l.02.1v3.45c0 .15-.09.28-.23.33l-.1.01h-3.71a.31.31 0 0 1-.3-.23l-.02-.1v-3.46l.02-.11c.03-.1.1-.18.2-.21l.11-.02zm5.17 0 .11.02c.09.04.17.12.2.22l.02.1v3.45c0 .15-.09.28-.23.33l-.1.01h-3.71a.31.31 0 0 1-.3-.23l-.02-.1v-3.46l.02-.11c.03-.1.1-.18.2-.21l.11-.02zm-15.48-4.96.1.01c.1.04.17.12.2.22l.02.11v3.45c0 .14-.09.27-.22.32l-.1.02h-3.71a.34.34 0 0 1-.31-.24l-.01-.1v-3.45c0-.15.08-.28.22-.33l.1-.01zm5.18 0 .11.01c.09.04.17.12.2.22l.02.11v3.45c0 .14-.09.27-.22.32l-.11.02h-3.7a.34.34 0 0 1-.31-.24l-.01-.1v-3.45l.01-.11c.03-.1.11-.18.21-.22l.1-.01zm5.13 0c.14 0 .26.09.31.23l.01.11v3.45a.32.32 0 0 1-.22.32l-.1.02h-3.71a.33.33 0 0 1-.3-.24l-.02-.1v-3.45l.02-.11c.03-.1.11-.18.2-.22l.11-.01zm0-4.97c.14 0 .26.1.31.23l.01.11v3.45c.01.15-.08.27-.22.32l-.1.02h-3.71c-.14 0-.26-.1-.3-.23l-.02-.11v-3.45l.02-.11c.03-.1.11-.18.2-.21l.1-.02z" style="stroke-width:50"/></svg>