<svg xmlns="http://www.w3.org/2000/svg" width="64" height="64"><defs><linearGradient id="a" x1="8.467" x2="8.467" y1="1.058" y2="15.875" gradientTransform="translate(1.454 -.681)scale(3.7796)" gradientUnits="userSpaceOnUse"><stop offset="0" stop-color="#fff"/><stop offset="1" stop-color="#ececec"/></linearGradient><filter id="b" width="1.024" height="1.024" x="-.012" y="-.012" color-interpolation-filters="sRGB"><feGaussianBlur stdDeviation=".074"/></filter></defs><path fill="url(#a)" d="M21.714 3.319c-5.782 0-9.743 1.724-12.321 4.535-2.565 2.796-3.939 6.803-3.939 11.341v24.248c0 4.538 1.374 8.545 3.939 11.341 2.578 2.811 6.539 4.535 12.321 4.535h23.549c5.782 0 9.743-1.724 12.321-4.535 2.566-2.796 3.871-6.435 3.871-11.341V20.106c0-5.936-1.305-9.457-3.871-12.253-2.578-2.81-6.539-4.535-12.321-4.535H26.948z" style="fill:url(#a);stroke-width:3.7796"/><path fill="#fff" d="M21.714 3.319c-5.782 0-9.742 1.725-12.32 4.535-2.565 2.796-3.94 6.804-3.94 11.342v24.246c0 4.538 1.375 8.545 3.94 11.342 2.578 2.81 6.538 4.535 12.32 4.535h23.549c5.782 0 9.742-1.725 12.32-4.535 2.566-2.797 3.872-6.436 3.872-11.342V20.106c0-5.935-1.306-9.456-3.872-12.252-2.578-2.811-6.538-4.535-12.32-4.535H21.714m-.004.998h23.557c5.583 0 9.211 1.63 11.582 4.215 2.397 2.612 3.604 5.785 3.604 11.574v23.336c0 4.729-1.216 8.064-3.604 10.666-2.371 2.585-5.998 4.209-11.582 4.209H21.71c-5.583 0-9.211-1.624-11.582-4.209-2.363-2.577-3.676-6.33-3.676-10.666V19.198c0-4.336 1.313-8.09 3.676-10.666 2.371-2.585 5.999-4.215 11.582-4.215" filter="url(#b)"/><linearGradient id="c" x1="31.5" x2="31.5" y1="10.98" y2="53.049" gradientTransform="translate(22.91 .637)scale(.66667)" gradientUnits="userSpaceOnUse"><stop offset="0" stop-color="#6dc7ff"/><stop offset="1" stop-color="#e6abff"/></linearGradient><g style="filter:none"><path fill="url(#c)" d="M60.743 21.97c-1.04-3.313-4.155-5.874-7.421-6.741q.04-.468.04-.946c0-2.126-.733-4.672-1.786-6.313-2.667 0-5.946 1.748-7.734 3.668-1.786-1.92-5.293-3.86-8.266-3.668-1.028 1.621-1.867 4.227-1.867 6.313 0 .387.02.76.059 1.135-2.985.999-5.719 3.445-6.693 6.552 1.04 3.313 4.021 5.874 7.287 6.74q-.04.468-.04.947c0 2.126.867 4.674 1.92 6.313.261.02.4 0 .668 0 2.772 0 5.146-1.746 6.932-3.666 1.788 1.92 4.294 3.666 7.066 3.666.494 0 .862.074 1.334 0 1.028-1.619 1.733-4.227 1.733-6.313 0-.387-.02-.76-.059-1.133 2.987-1.001 5.853-3.447 6.827-6.554m-7.401 5.061-4.86 4.139a3.3 3.3 0 0 1-2.134.787c-.365 0-.745-.067-1.105-.194 0 0-5.414-2.493-7.181-3.405-.474-.248-1.293-.76-1.88-1.135-.847-.539-1.393-1.5-1.299-2.513.013-.107.025-.212.045-.326a2.95 2.95 0 0 1 1.481-1.98 2.7 2.7 0 0 1 1.047-.3l-2.92-3.74c-.987-1.247-.787-3.073.432-4.066a2.8 2.8 0 0 1 3.988.447l1.52 1.858c.14-.279.333-.532.587-.74a2.14 2.14 0 0 1 1.972-.386c.121-.367.347-.7.66-.96a2.06 2.06 0 0 1 2.648.019c.132-.285.32-.539.573-.74.82-.673 2.047-.673 2.894.248 1.813 1.953 3.219 3.979 4.706 10.074.247 1.026-.295 2.159-1.174 2.913" style="stroke-width:1" transform="translate(-10.455 9.349)"/><path fill="url(#d)" d="M54.515 24.114c-1.486-6.089-2.896-8.119-4.703-10.073-.847-.918-2.076-.921-2.897-.245-.25.201-.44.456-.574.74a2.05 2.05 0 0 0-1.104-.475 2.04 2.04 0 0 0-1.538.456 2.1 2.1 0 0 0-.664.959 2.12 2.12 0 0 0-1.969.389 2.3 2.3 0 0 0-.591.736l-1.517-1.856a2.796 2.796 0 0 0-3.986-.447c-1.22.993-1.419 2.821-.438 4.066l2.926 3.74a2.7 2.7 0 0 0-1.05.298 2.95 2.95 0 0 0-1.478 1.984 3 3 0 0 0-.047.327c-.091 1.01.454 1.971 1.297 2.51.587.376 1.406.89 1.88 1.135 1.768.91 7.182 3.401 7.182 3.401a3.25 3.25 0 0 0 3.236-.588l4.86-4.14c.881-.751 1.426-1.885 1.175-2.917m-2.023 1.882-4.861 4.133a1.97 1.97 0 0 1-1.943.36s-5.261-2.484-7.182-3.411c-.237-.114-1.059-.595-1.564-.894-.45-.267-.769-.756-.742-1.288q.007-.117.031-.233c.092-.46.212-.744.63-.967.615-.331 1.247-.177 2.075.25l2.653 1.185-6.022-7.612a1.56 1.56 0 0 1 .234-2.165c.649-.535 1.597-.427 2.128.243l2.683 3.286c.016.023.027.051.047.074l.007-.007 2.157 2.642 1.015-.872-2.166-2.651c-.233-.344-.144-.847.225-1.148a.823.823 0 0 1 1.176.143l2.226 2.725 1-.888-1.878-2.307.007-.006c-.266-.34-.226-.747.102-1.015a.75.75 0 0 1 .564-.168.79.79 0 0 1 .527.304l1.846 2.166 1.027-.834-.875-1.044a.8.8 0 0 1-.165-.596.8.8 0 0 1 .291-.548c.458-.378 1.059.051 1.207.217 1.591 1.774 2.836 3.549 4.251 9.256.141.57-.187 1.216-.711 1.67" style="stroke-width:1" transform="translate(-10.455 9.349)"/><path fill="url(#e)" d="M44.242 41.303a11.27 11.27 0 0 1-8.657-4.03 11.27 11.27 0 0 1-10.676-11.302c0-1.37.246-2.714.733-4.001a11.3 11.3 0 0 1-.733-3.999 11.28 11.28 0 0 1 9.963-11.25 11.28 11.28 0 0 1 8.704-4.084 11.27 11.27 0 0 1 8.657 4.03 11.27 11.27 0 0 1 10.676 11.304c0 1.368-.246 2.712-.733 3.999.485 1.287.733 2.631.733 4.001a11.28 11.28 0 0 1-9.963 11.248 11.27 11.27 0 0 1-8.704 4.084m-.666-37.332a9.95 9.95 0 0 0-7.837 3.798l-.176.222-.282.028a9.95 9.95 0 0 0-9.038 9.952c0 1.285.246 2.546.732 3.749l.102.25-.102.25a10 10 0 0 0-.732 3.751 9.947 9.947 0 0 0 9.688 9.983l.307.009.192.241a9.96 9.96 0 0 0 7.812 3.767 9.95 9.95 0 0 0 7.837-3.8l.176-.222.282-.026a9.955 9.955 0 0 0 9.038-9.952 10 10 0 0 0-.732-3.751l-.102-.25.102-.25a10 10 0 0 0 .732-3.749 9.946 9.946 0 0 0-9.688-9.983l-.307-.011-.192-.241a9.96 9.96 0 0 0-7.812-3.765" style="stroke-width:1" transform="translate(-10.455 9.349)"/></g><linearGradient id="d" x1="32" x2="32" y1="19.02" y2="46.98" gradientTransform="translate(22.91 .637)scale(.66667)" gradientUnits="userSpaceOnUse"><stop offset="0" stop-color="#1a6dff"/><stop offset="1" stop-color="#c822ff"/></linearGradient><linearGradient id="e" x1="31.5" x2="31.5" y1="3" y2="61" gradientTransform="translate(22.91 .637)scale(.66667)" gradientUnits="userSpaceOnUse"><stop offset="0" stop-color="#1a6dff"/><stop offset="1" stop-color="#c822ff"/></linearGradient></svg>