<svg xmlns="http://www.w3.org/2000/svg" xmlns:xlink="http://www.w3.org/1999/xlink" width="64" height="64" viewBox="0 0 16.933 16.933"><defs><linearGradient id="b"><stop offset="0" stop-color="#b6e5ff"/><stop offset="1" stop-color="#b6e5ff" stop-opacity="0"/></linearGradient><linearGradient id="a"><stop offset="0" stop-color="#fff"/><stop offset="1" stop-color="#fff" stop-opacity="0"/></linearGradient><linearGradient id="h" x1="11.527" x2="5.374" y1="5.982" y2="5.982" gradientUnits="userSpaceOnUse"><stop offset="0" stop-color="#1e1d1d"/><stop offset=".498" stop-color="#302e2f"/><stop offset="1" stop-color="#1d1c1c"/></linearGradient><linearGradient id="k" x1="1.233" x2="-3.573" y1="4.601" y2="4.601" gradientTransform="translate(9.637 .003)" gradientUnits="userSpaceOnUse"><stop offset="0" stop-color="#0b70b5"/><stop offset=".416" stop-color="#45baf2"/><stop offset=".5" stop-color="#50c1f4"/><stop offset=".59" stop-color="#46b5eb"/><stop offset="1" stop-color="#0b6eba"/></linearGradient><linearGradient id="m" x1="1.233" x2="-3.573" y1="4.601" y2="4.601" gradientTransform="translate(9.637 .003)" gradientUnits="userSpaceOnUse"><stop offset="0" stop-color="#161616"/><stop offset=".331" stop-color="#3c3d3d"/><stop offset=".5" stop-color="#444"/><stop offset=".652" stop-color="#383839"/><stop offset="1" stop-color="#1d1d1d"/></linearGradient><linearGradient id="p" x1="8.466" x2="8.466" y1="3.911" y2="5.542" gradientUnits="userSpaceOnUse"><stop offset="0" stop-color="#fff"/><stop offset=".437" stop-color="#9fbfa8"/><stop offset="1" stop-color="#9aa59c" stop-opacity="0"/></linearGradient><linearGradient xlink:href="#a" id="e" x1="6.745" x2="10.583" y1="1.058" y2="11.312" gradientUnits="userSpaceOnUse"/><linearGradient xlink:href="#a" id="f" x1="15.081" x2="12.7" y1="14.816" y2="12.171" gradientUnits="userSpaceOnUse"/><linearGradient id="c" x1="8.466" x2="8.466" y1="1.058" y2="15.875" gradientUnits="userSpaceOnUse"><stop offset="0" stop-color="#b0d0ff"/><stop offset="1" stop-color="#4081ff"/></linearGradient><linearGradient xlink:href="#b" id="t" x1="12.683" x2="11.249" y1="9.372" y2="9.678" gradientUnits="userSpaceOnUse"/><linearGradient id="u" x1="12.777" x2="9.613" y1="8.327" y2="11.734" gradientUnits="userSpaceOnUse"><stop offset="0" stop-color="#fff" stop-opacity="0"/><stop offset="1" stop-color="#c8f2ff"/></linearGradient><linearGradient xlink:href="#b" id="g" x1="12.683" x2="11.249" y1="9.372" y2="9.678" gradientTransform="matrix(-1 0 0 1 16.932 0)" gradientUnits="userSpaceOnUse"/><filter id="i" width="1.24" height="1.442" x="-.12" y="-.221" color-interpolation-filters="sRGB"><feGaussianBlur stdDeviation=".322"/></filter><filter id="n" width="1.125" height="1.52" x="-.063" y="-.26" color-interpolation-filters="sRGB"><feGaussianBlur stdDeviation=".125"/></filter><filter id="j" width="1.162" height="1.323" x="-.081" y="-.161" color-interpolation-filters="sRGB"><feGaussianBlur stdDeviation=".164"/></filter><filter id="o" width="1.034" height="1.132" x="-.017" y="-.066" color-interpolation-filters="sRGB"><feGaussianBlur stdDeviation=".034"/></filter><filter id="r" width="1.087" height="1.534" x="-.044" y="-.267" color-interpolation-filters="sRGB"><feGaussianBlur stdDeviation=".119"/></filter><filter id="d" width="1.024" height="1.024" x="-.012" y="-.012" color-interpolation-filters="sRGB"><feGaussianBlur stdDeviation=".074"/></filter><filter id="s" width="1.057" height="1.299" x="-.029" y="-.149" color-interpolation-filters="sRGB"><feGaussianBlur stdDeviation=".109"/></filter><filter id="v" width="1.034" height="1.049" x="-.017" y="-.025" color-interpolation-filters="sRGB"><feGaussianBlur stdDeviation=".068"/></filter><filter id="x" width="1.24" height="1.376" x="-.12" y="-.188" color-interpolation-filters="sRGB"><feGaussianBlur stdDeviation=".162"/></filter><filter id="w" width="1.333" height="1.521" x="-.167" y="-.26" color-interpolation-filters="sRGB"><feGaussianBlur stdDeviation=".224"/></filter><radialGradient xlink:href="#a" id="q" cx="8.466" cy="3.291" r="2.023" gradientTransform="matrix(1.474 0 0 .7211 -4.013 1.547)" gradientUnits="userSpaceOnUse"/><radialGradient id="l" cx="8.366" cy="6.209" r="2.432" gradientTransform="matrix(2.4327 0 0 1.4832 -11.886 -3.459)" gradientUnits="userSpaceOnUse"><stop offset="0" stop-color="#a3ffb0" stop-opacity="0"/><stop offset=".363" stop-color="#67f591" stop-opacity="0"/><stop offset=".464" stop-color="#61f59f"/><stop offset=".5" stop-color="#df45ff"/><stop offset=".531" stop-color="#323bff"/><stop offset="1"/></radialGradient></defs><path fill="url(#c)" d="M5.36 1.058c-1.53 0-2.577.457-3.26 1.2-.678.74-1.042 1.8-1.042 3v6.416c0 1.2.364 2.261 1.042 3.001.683.744 1.73 1.2 3.26 1.2h6.23c1.53 0 2.579-.456 3.26-1.2.68-.74 1.025-1.703 1.025-3V5.5c0-1.57-.345-2.502-1.024-3.242-.682-.743-1.73-1.2-3.26-1.2H6.745z"/><g filter="url(#d)" opacity=".45"><path fill="url(#e)" d="M5.36 1.058c-1.53 0-2.577.457-3.26 1.2-.678.74-1.042 1.8-1.042 3.001v6.415c0 1.2.364 2.26 1.043 3 .682.744 1.73 1.2 3.26 1.2h6.23c1.53 0 2.577-.456 3.26-1.2.678-.739 1.024-1.702 1.024-3V5.5c0-1.57-.346-2.502-1.024-3.242-.683-.743-1.73-1.2-3.26-1.2H6.745zm0 .264h6.232c1.477 0 2.437.432 3.064 1.116.634.69.954 1.53.954 3.062v6.174c0 1.251-.322 2.134-.954 2.822-.627.684-1.587 1.114-3.064 1.114H5.359c-1.477 0-2.437-.43-3.064-1.114-.625-.682-.973-1.675-.973-2.822V5.26c0-1.148.348-2.14.973-2.822.627-.684 1.587-1.116 3.064-1.116" opacity="1"/><path fill="url(#f)" d="M5.36 1.058c-1.53 0-2.577.457-3.26 1.2-.678.74-1.042 1.8-1.042 3.001v6.415c0 1.2.364 2.26 1.043 3 .682.744 1.73 1.2 3.26 1.2h6.23c1.53 0 2.577-.456 3.26-1.2.678-.739 1.024-1.702 1.024-3V5.5c0-1.57-.346-2.502-1.024-3.242-.683-.743-1.73-1.2-3.26-1.2H6.745zm0 .264h6.232c1.477 0 2.437.432 3.064 1.116.634.69.954 1.53.954 3.062v6.174c0 1.251-.322 2.134-.954 2.822-.627.684-1.587 1.114-3.064 1.114H5.359c-1.477 0-2.437-.43-3.064-1.114-.625-.682-.973-1.675-.973-2.822V5.26c0-1.148.348-2.14.973-2.822.627-.684 1.587-1.116 3.064-1.116" opacity="1"/></g><path fill="url(#g)" d="M4.598 7.19v.047c0 .835 1.276 1.564 2.941 1.766v4.782a4.729 2.352 0 0 1-3.802-2.305 4.729 2.352 0 0 1 .113-.49 4.729 2.352 0 0 0-.046.095z" opacity=".5" style="paint-order:stroke fill markers"/><path fill="url(#h)" d="M8.467 2.905c-2.12 0-3.837.99-3.837 2.211l-.064 2.116v.002c0 .985 1.688 1.824 3.9 1.824 2.095 0 3.869-.836 3.869-1.82v-.003l-.032-2.14c-.02-1.212-1.732-2.19-3.837-2.19" style="paint-order:stroke fill markers"/><ellipse cx="8.392" cy="4.653" fill="#fff" filter="url(#i)" opacity=".42" rx="3.219" ry="1.748" style="paint-order:stroke fill markers"/><ellipse cx="8.466" cy="4.813" filter="url(#j)" opacity=".5" rx="2.432" ry="1.222"/><ellipse cx="8.466" cy="4.604" fill="url(#k)" rx="2.432" ry="1.222" style="paint-order:stroke fill markers"/><ellipse cx="8.466" cy="4.604" fill="url(#l)" opacity=".35" rx="2.432" ry="1.222" style="paint-order:stroke fill markers"/><path fill="url(#m)" d="M8.466 3.382a2.432 1.222 0 0 0-2.431 1.222 2.432 1.222 0 0 0 .051.25 2.432 1.222 0 0 1 2.38-.97 2.432 1.222 0 0 1 2.38.97 2.432 1.222 0 0 0 .053-.25 2.432 1.222 0 0 0-2.433-1.222" style="paint-order:stroke fill markers"/><path d="M8.467 3.767a2.432 1.222 0 0 0-2.402 1.03 2.432 1.222 0 0 0 .053.125 2.432 1.222 0 0 1 1.08-.724 2.023 1.295 0 0 1 1.268-.287 2.023 1.295 0 0 1 1.27.287 2.432 1.222 0 0 1 1.079.724 2.432 1.222 0 0 0 .053-.125 2.432 1.222 0 0 0-2.402-1.03z" filter="url(#n)" style="mix-blend-mode:normal"/><path d="M8.467 3.382a2.432 1.222 0 0 0-2.432 1.222 2.432 1.222 0 0 0 0 .029 2.432 1.222 0 0 1 2.432-1.194 2.432 1.222 0 0 1 2.43 1.193 2.432 1.222 0 0 0 .002-.028 2.432 1.222 0 0 0-2.433-1.222" filter="url(#o)" opacity=".65"/><ellipse cx="8.466" cy="5.206" fill="url(#p)" opacity=".25" rx="2.023" ry="1.295" style="paint-order:stroke fill markers"/><ellipse cx="8.466" cy="5.206" fill="url(#q)" opacity=".5" rx="2.023" ry="1.295" style="paint-order:stroke fill markers"/><path fill="#fff" d="M5.188 6.147a3.983 2.459 0 0 0 3.279 1.071 3.983 2.459 0 0 0 3.278-1.071 4.223 2.459 0 0 1-3.278.914 4.223 2.459 0 0 1-3.28-.914" filter="url(#r)" opacity=".25"/><path fill="#fff" d="M6.41 8.065v-.484h.167q.055 0 .093.02a.13.13 0 0 1 .054.056q.018.035.018.078a.14.14 0 0 1-.018.078q-.018.036-.054.056a.16.16 0 0 1-.093.021h-.104v.175zm.063-.23h.101q.058 0 .082-.028a.1.1 0 0 0 .024-.072.1.1 0 0 0-.024-.071q-.024-.03-.083-.03h-.1zm.328.34V7.69h.166q.057 0 .093.02.038.018.054.053a.2.2 0 0 1 .018.077q0 .048-.022.084a.12.12 0 0 1-.067.051l.108.2H7.08l-.101-.188h-.116v.188zm.062-.243h.101q.058 0 .082-.025a.1.1 0 0 0 .025-.067.1.1 0 0 0-.025-.07q-.024-.026-.082-.026h-.101zm.386.344v-.485h.295v.055H7.31v.158h.218v.055H7.31v.163h.237v.054zm.527.05-.178-.485h.065l.102.287.02.06.027.087.046-.147.1-.287h.066l-.177.485zm.39-.468v.485h-.061v-.485zm.112.488v-.485h.296v.055H8.34v.158h.218v.055H8.34v.162h.236v.055zm.497-.009-.132-.485h.063l.077.298.028.13.03-.13.078-.298h.07l.078.298.03.128a2 2 0 0 1 .028-.128l.077-.298h.064l-.133.485H9.06l-.083-.307-.024-.108-.024.108-.083.307zm.899-.579v.485h-.061v-.427H9.61l-.117.087v-.067l.105-.078zm.29.411a.14.14 0 0 1-.127-.065.32.32 0 0 1-.044-.184q0-.118.045-.183a.14.14 0 0 1 .125-.066q.081 0 .126.066t.045.183q0 .119-.045.184a.14.14 0 0 1-.126.065m0-.054q.053 0 .081-.051a.3.3 0 0 0 .03-.144q0-.092-.03-.144-.028-.051-.082-.051-.052 0-.082.052a.3.3 0 0 0-.029.143q0 .093.03.144t.081.051m.237-.103.128-.187-.12-.177h.068l.045.07a1 1 0 0 1 .042.071l.017-.033.022-.037.046-.071h.067l-.121.18.127.184h-.068l-.053-.082a1 1 0 0 1-.04-.067l-.017.032-.021.035-.054.082z" aria-label="PREVIEW 10x" opacity=".15" style="paint-order:stroke fill markers"/><path fill="#fff" d="M8.467 9.128a4.729 2.352 0 0 0-4.57 1.749 4.828 2.352 0 0 1 4.57-1.609 4.828 2.352 0 0 1 4.57 1.609 4.729 2.352 0 0 0-4.57-1.75" filter="url(#s)" opacity=".5" style="paint-order:stroke fill markers"/><path fill="#fff" d="M12.334 7.19v.047c0 .985-1.774 1.821-3.868 1.821-2.127 0-3.77-.775-3.893-1.71L3.75 11.26h.007a4.729 2.352 0 0 1 .014-.045 4.729 2.352 0 0 0-.034.265 4.729 2.352 0 0 0 4.728 2.35 4.729 2.352 0 0 0 4.728-2.35 4.729 2.352 0 0 0-.112-.49 4.729 2.352 0 0 1 .046.095z" opacity=".25" style="paint-order:stroke fill markers"/><path fill="url(#t)" d="M12.334 7.19v.047c0 .835-1.276 1.564-2.942 1.766v4.782a4.729 2.352 0 0 0 3.802-2.305 4.729 2.352 0 0 0-.112-.49 4.729 2.352 0 0 1 .046.095z" opacity=".5" style="paint-order:stroke fill markers"/><path fill="url(#u)" d="M12.334 7.19v.047a.8.8 0 0 1-.043.266 1 1 0 0 1-.126.256l.694 3.331-.02.01q.088.194.09.382c0 .505-.431 1.023-1.238 1.424-.807.402-1.954.66-3.224.66s-2.42-.258-3.227-.66c-.808-.401-1.238-.92-1.239-1.425a1 1 0 0 1 .028-.204l-.012-.003.725-3.496a1 1 0 0 1-.072-.124l-.012-.026a1 1 0 0 1-.075-.23l-.008-.038-.002-.012-.778 3.701.07.086a.3.3 0 0 0-.08-.036l-.034.161h.007l.014-.045a1.2 1.2 0 0 0-.034.265c0 1.298 2.117 2.351 4.728 2.351s4.728-1.053 4.728-2.351a1.25 1.25 0 0 0-.112-.489q.024.047.046.095z" filter="url(#v)" style="paint-order:stroke fill markers"/><ellipse cx="8.466" cy="11.253" fill="#fff" filter="url(#w)" opacity=".25" rx="1.616" ry="1.034" style="mix-blend-mode:normal;paint-order:stroke fill markers" transform="matrix(1.5353 0 0 1.2688 -4.532 -3.118)"/><ellipse cx="8.466" cy="11.253" fill="#fff" filter="url(#x)" opacity=".26" rx="1.616" ry="1.034" style="mix-blend-mode:normal;paint-order:stroke fill markers" transform="matrix(1.1166 0 0 1 -.987 0)"/></svg>