<svg xmlns="http://www.w3.org/2000/svg" width="64" height="64"><defs><linearGradient id="c" x1="15.081" x2="12.7" y1="14.816" y2="12.171" gradientUnits="userSpaceOnUse"><stop offset="0" stop-color="#2dacfa"/><stop offset="1" stop-color="#2dacfa" stop-opacity="0"/></linearGradient><linearGradient id="d" x1="6.745" x2="10.583" y1="1.058" y2="11.312" gradientUnits="userSpaceOnUse"><stop offset="0" stop-color="#3ae7fd"/><stop offset="1" stop-color="#3ae7fd" stop-opacity="0"/></linearGradient><linearGradient id="a" x1="8.466" x2="8.466" y1="1.058" y2="15.875" gradientTransform="scale(3.7796)" gradientUnits="userSpaceOnUse"><stop offset="0" stop-color="#02c5fd"/><stop offset="1" stop-color="#2f71f9"/></linearGradient><filter id="b" width="1.024" height="1.024" x="-.012" y="-.012" color-interpolation-filters="sRGB"><feGaussianBlur stdDeviation=".074"/></filter><filter id="e" width="1.292" height="1.297" x="-.146" y="-.148" color-interpolation-filters="sRGB"><feGaussianBlur stdDeviation="2.157"/></filter></defs><path fill="url(#a)" d="M20.26 4c-5.782 0-9.743 1.725-12.321 4.535C5.374 11.331 4 15.34 4 19.876v24.248c0 4.538 1.374 8.545 3.939 11.341C10.517 58.275 14.479 60 20.26 60h23.549c5.782 0 9.743-1.724 12.321-4.535C58.695 52.67 60 49.03 60 44.125V20.786c0-5.935-1.305-9.456-3.87-12.252C53.552 5.725 49.59 4 43.809 4H25.494z"/><g filter="url(#b)" opacity=".75" style="mix-blend-mode:normal" transform="scale(3.7796)"><path fill="url(#c)" d="M5.36 1.058c-1.53 0-2.577.457-3.26 1.2-.678.74-1.042 1.8-1.042 3.001v6.415c0 1.2.364 2.26 1.043 3 .682.744 1.73 1.2 3.26 1.2h6.23c1.53 0 2.577-.456 3.26-1.2.678-.739 1.024-1.702 1.024-3V5.5c0-1.57-.346-2.502-1.024-3.242-.683-.743-1.73-1.2-3.26-1.2H6.745zm0 .264h6.232c1.477 0 2.437.432 3.064 1.116.634.69.954 1.53.954 3.062v6.174c0 1.251-.322 2.134-.954 2.822-.627.684-1.587 1.114-3.064 1.114H5.359c-1.477 0-2.437-.43-3.064-1.114-.625-.682-.973-1.675-.973-2.822V5.26c0-1.148.348-2.14.973-2.822.627-.684 1.587-1.116 3.064-1.116" opacity="1"/><path fill="url(#d)" d="M5.36 1.058c-1.53 0-2.577.457-3.26 1.2-.678.74-1.042 1.8-1.042 3.001v6.415c0 1.2.364 2.26 1.043 3 .682.744 1.73 1.2 3.26 1.2h6.23c1.53 0 2.577-.456 3.26-1.2.678-.739 1.024-1.702 1.024-3V5.5c0-1.57-.346-2.502-1.024-3.242-.683-.743-1.73-1.2-3.26-1.2H6.745zm0 .264h6.232c1.477 0 2.437.432 3.064 1.116.634.69.954 1.53.954 3.062v6.174c0 1.251-.322 2.134-.954 2.822-.627.684-1.587 1.114-3.064 1.114H5.359c-1.477 0-2.437-.43-3.064-1.114-.625-.682-.973-1.675-.973-2.822V5.26c0-1.148.348-2.14.973-2.822.627-.684 1.587-1.116 3.064-1.116" opacity="1"/></g><circle cx="32.02" cy="32.044" r="30.001" fill="none"/><path d="M31.153 15.575c-2.044-.038-4.007 1.169-4.764 3.137-.904 2.35-.647 4.895-.61 7.348.013.793-.2 1.518-.524 2.201-.156.178-.31.346-.458.487-1.606 1.774-5.596 6.436-4.325 11.213-.32.14-.692.157-1.098.205-.478.055-1.012.177-1.434.68-.377.437-.434 1.034-.477 1.597-.044.564-.078 1.104-.274 1.437-.572.89-.768 1.547-.638 2.084s.579.873 1.122 1.132c1.086.52 2.656.833 3.733 1.798 1.146 1.014 2.413 1.581 3.523 1.589.923.006 1.737-.409 2.202-1.247.414.074.845.066 1.282-.058 1.475-.42 3.028-.442 4.536-.13a5.36 5.36 0 0 0 2.66-.142c.363.69.981 1.157 1.73 1.358 1.08.29 2.42.054 3.703-.727h.002c1.24-.772 2.835-.704 3.985-.952.576-.124 1.08-.353 1.287-.865.207-.511.108-1.213-.323-2.265-.146-.363-.085-.906-.023-1.479.06-.572.12-1.183-.173-1.695-.325-.584-.829-.812-1.29-.964s-.884-.25-1.195-.552c-.34-.348-.673-.819-1.096-1.191l-.013-.01a9 9 0 0 0-.299-2.002c.93-1.234 1.872-2.618 2.573-3.967h.007l.524-.074-.137-.653.083-.065 1.715-3.227c.939.05 1.964-.407 2.565-1.497 1.295-2.35 2.8-4.489 2.8-4.489-4.116.586-7.307.528-7.483 3.679-.02.357.035.677.143.959l-2.373 2.78-.022.093-.727.115.218.514a23 23 0 0 0-1.507 2.003q-.18-.316-.363-.624c-.694-1.415-1.596-2.722-2.48-4.02-1.064-1.56-1.255-3.468-1.272-5.37-.036-3.956-.457-8.058-5.015-8.144zm1.953 4.945c.359-.021.73.162 1.006.549.276.386.456 1.121.459 1.54.003.569-.201 1.14-.433 1.557-.06.11-.133.2-.209.284-.245-.144-.45-.262-.572-.332l-.132-.077a.712 1.295 8.727 0 0 .495-1.036.712 1.295 8.727 0 0-.57-1.374.712 1.295 8.727 0 0-.843 1.194.712 1.295 8.727 0 0 .004.638 2 2 0 0 0-.39-.126q-.061-.012-.125-.02a3 3 0 0 1-.086-.545c-.032-.568.084-.934.316-1.35s.72-.88 1.08-.902zm-4.667.352a2.03 1.542 82.237 0 1 .064.002 2.03 1.542 82.237 0 1 1.571 1.76 2.03 1.543 82.237 0 1-.116 1.244 4 4 0 0 0-.255.199c-.172.148-.341.234-.566.347a1.207.759 80.266 0 0 .349-1.292 1.207.759 80.266 0 0-.839-1.03 1.207.759 80.266 0 0-.644 1.357 1.207.759 80.266 0 0 1.04 1.013 9 9 0 0 0-.555.304c-.052.03-.096.063-.142.095a2.03 1.543 82.237 0 1-1.313-1.716 2.03 1.542 82.237 0 1 1.406-2.282zm3.016 2.635c.15-.004.29.012.42.04.524.113.902.44 1.134.616.044.033.102.063.242.143s.35.2.653.377c.27.16.383.4.332.703s-.284.67-.747 1.022h-.002c-.285.225-.465.501-.683.731s-.467.42-.912.504c-.522.098-.929-.015-1.295-.172s-.685-.363-1.03-.431c-.709-.132-1.248-.509-1.452-.91a.77.77 0 0 1-.086-.466c.127.022.298.09.499.191.242.123.525.287.835.45.62.326 1.35.648 2.095.61.744-.037 1.317-.42 1.727-.787.205-.184.37-.365.497-.498q.096-.102.158-.157c.04-.036.074-.045.06-.045l-.008-.16c-.069.003-.109.04-.158.083q-.074.066-.169.168c-.128.135-.29.312-.487.49-.396.354-.934.71-1.628.746-.693.035-1.4-.27-2.012-.592-.307-.161-.59-.325-.838-.451a2 2 0 0 0-.529-.205c.074-.19.237-.379.526-.546h.001c.624-.373.908-.43 1.244-.72.63-.538 1.165-.723 1.613-.734zm2.754 2.472c.08.19.148.393.192.623.411 2.136.865 3.457 2.934 6.982.213.538.375.923.558 1.368-.142-1.06-.562-2.015-.856-2.584-1.265-2.673-.004-1.024.564.167.416.776.902 2.109 1.195 3.601a51 51 0 0 0-2.103 4.092c-.182.296-.284.59-.277.885.004.188.068.37.167.527-1.124.829-1.177 2.456.005 3.046-.12.171-.234.334-.35.509-.168.255-.328.513-.47.773-2.485 1.766-6.454 1.99-9.401-1.213-.278-.604-.53-1.177-.625-1.619v-.002c-.213-1.05-.436-2.019-.763-2.802a5 5 0 0 0-.173-.372c.23-.543.344-1.115.301-1.461-.158-.923-.837-1.11-2.368-.76-1.301.314-2.09.934-1.764 1.873-.058.05-.117.093-.174.138-.431-1.1.459-1.825 1.954-2.194-.22-2.032.97-4.094 2.1-5.435.033.043-.05.285-.34.878-.64 1.098-1.268 2.889-.982 4.412a5 5 0 0 1 .595-.052c.103-1.103.375-2.144.841-2.982.893-1.896 3.19-5.099 3.257-7.755.308.298.76.529 1.3.63.285.056.6.252.986.417s.848.293 1.42.186c.49-.092.793-.32 1.029-.568.234-.248.408-.51.658-.708h.002q.382-.294.589-.6zm11.077 3.08q.184.15.398.26l-1.507 2.835-.354.278c-.119-.06-.238-.113-.358-.204-.159-.12-.203-.226-.327-.363l.093-.398zm-2.901 3.533q.219.223.48.424c.182.139.375.27.58.375-1.923 3.54-5.632 7.506-5.664 7.54-.225.198-.37.159-.375.163v-.004c0-.046.021-.178.147-.373l.02-.032.016-.035s2.262-4.968 4.796-8.058zm-21.227 7.411c.52.92 1.642 1.685 2.537 1.299.346-.146.643-.473.875-.864l.024.054c.306.733.528 1.683.74 2.727v.001c.173.81.711 1.794 1.137 2.768s.717 1.923.504 2.558v.002l-.001.003c-.332 1.071-1.074 1.522-2.042 1.515-.968-.006-2.16-.52-3.248-1.483-1.192-1.066-2.834-1.385-3.831-1.862-.499-.239-.81-.492-.897-.855-.088-.363.039-.917.587-1.767l.002-.004.002-.003c.277-.47.288-1.063.331-1.616s.115-1.055.378-1.359l.002-.002c.336-.401.714-.483 1.164-.535s.966-.054 1.44-.354l.003-.002.002-.001q.15-.102.291-.22zm21.036.132c.275.291.536.631.823.925l.001.002.003.001c.41.399.919.507 1.355.65s.796.3 1.058.772v.002l.002.001c.206.359.18.88.12 1.444-.061.564-.158 1.16.05 1.679l.002.001c.414 1.01.458 1.615.322 1.952-.137.337-.464.501-.989.614-1.05.226-2.734.145-4.117 1.005-1.204.733-2.435.932-3.378.679-.942-.254-1.607-.931-1.747-2.06v-.005c-.1-.68.326-1.525.887-2.372.132-.2.27-.393.408-.59.576.14 1.35.087 2.337-.287 1.954-1.12 2.758-2.69 2.864-4.413m-3.284 1.032c-.252.277-.43.468-.43.468zm-2.226.61" class="ColorScheme-Text" color="#fcfcfc" filter="url(#e)" opacity=".15"/><path fill="currentColor" d="M31.153 14.546c-2.044-.038-4.007 1.169-4.764 3.137-.904 2.35-.647 4.895-.61 7.348.013.793-.2 1.518-.524 2.201-.156.178-.31.346-.458.487-1.606 1.774-5.596 6.436-4.325 11.213-.32.14-.692.157-1.098.205-.478.055-1.012.177-1.434.68-.377.437-.434 1.034-.477 1.597-.044.564-.078 1.104-.274 1.437-.572.89-.768 1.547-.638 2.084s.579.873 1.122 1.132c1.086.52 2.656.833 3.733 1.798 1.146 1.014 2.413 1.581 3.523 1.589.923.006 1.737-.409 2.202-1.247.414.074.845.066 1.282-.058 1.475-.42 3.028-.442 4.536-.13a5.36 5.36 0 0 0 2.66-.142c.363.69.981 1.157 1.73 1.358 1.08.29 2.42.054 3.703-.727h.002c1.24-.772 2.835-.704 3.985-.952.576-.124 1.08-.353 1.287-.865.207-.511.108-1.213-.323-2.265-.146-.363-.085-.906-.023-1.479.06-.572.12-1.183-.173-1.695-.325-.584-.829-.812-1.29-.964s-.884-.25-1.195-.552c-.34-.348-.673-.819-1.096-1.191l-.013-.01a9 9 0 0 0-.299-2.002c.93-1.234 1.872-2.618 2.573-3.967h.007l.524-.074-.137-.653.083-.065 1.715-3.227c.939.05 1.964-.407 2.565-1.497 1.295-2.35 2.8-4.489 2.8-4.489-4.116.586-7.307.528-7.483 3.679-.02.357.035.677.143.959l-2.373 2.78-.022.093-.727.115.218.514a23 23 0 0 0-1.507 2.003q-.18-.316-.363-.624c-.694-1.415-1.596-2.722-2.48-4.02-1.064-1.56-1.255-3.468-1.272-5.37-.036-3.956-.457-8.058-5.015-8.144zm1.953 4.945c.359-.021.73.162 1.006.549.276.386.456 1.121.459 1.54.003.569-.201 1.14-.433 1.557-.06.11-.133.2-.209.284-.245-.144-.45-.262-.572-.332l-.132-.077a.712 1.295 8.727 0 0 .495-1.036.712 1.295 8.727 0 0-.57-1.374.712 1.295 8.727 0 0-.843 1.194.712 1.295 8.727 0 0 .004.638 2 2 0 0 0-.39-.126q-.061-.012-.125-.02a3 3 0 0 1-.086-.545c-.032-.568.084-.934.316-1.35s.72-.88 1.08-.902zm-4.667.352a2.03 1.542 82.237 0 1 .064.002 2.03 1.542 82.237 0 1 1.571 1.76 2.03 1.543 82.237 0 1-.116 1.244 4 4 0 0 0-.255.199c-.172.148-.341.234-.566.347a1.207.759 80.266 0 0 .349-1.292 1.207.759 80.266 0 0-.839-1.03 1.207.759 80.266 0 0-.644 1.357 1.207.759 80.266 0 0 1.04 1.013 9 9 0 0 0-.555.304c-.052.03-.096.063-.142.095a2.03 1.543 82.237 0 1-1.313-1.716 2.03 1.542 82.237 0 1 1.406-2.282zm3.016 2.635c.15-.004.29.012.42.04.524.113.902.44 1.134.616.044.033.102.063.242.143s.35.2.653.377c.27.16.383.4.332.703s-.284.67-.747 1.022h-.002c-.285.225-.465.501-.683.731s-.467.42-.912.504c-.522.098-.929-.015-1.295-.172s-.685-.363-1.03-.431c-.709-.132-1.248-.509-1.452-.91a.77.77 0 0 1-.086-.466c.127.022.298.09.499.191.242.123.525.287.835.45.62.326 1.35.648 2.095.61.744-.037 1.317-.42 1.727-.787.205-.184.37-.365.497-.498q.096-.102.158-.157c.04-.036.074-.045.06-.045l-.008-.16c-.069.003-.109.04-.158.083q-.074.066-.169.168c-.128.135-.29.312-.487.49-.396.354-.934.71-1.628.746-.693.035-1.4-.27-2.012-.592-.307-.161-.59-.325-.838-.451a2 2 0 0 0-.529-.205c.074-.19.237-.379.526-.546h.001c.624-.373.908-.43 1.244-.72.63-.538 1.165-.723 1.613-.734zm2.754 2.472c.08.19.148.393.192.623.411 2.136.865 3.457 2.934 6.982.213.538.375.923.558 1.368-.142-1.06-.562-2.015-.856-2.584-1.265-2.673-.004-1.024.564.167.416.776.902 2.109 1.195 3.601a51 51 0 0 0-2.103 4.092c-.182.296-.284.59-.277.885.004.188.068.37.167.527-1.124.829-1.177 2.456.005 3.046-.12.171-.234.334-.35.509-.168.255-.328.513-.47.773-2.485 1.766-6.454 1.99-9.401-1.213-.278-.604-.53-1.177-.625-1.619v-.002c-.213-1.05-.436-2.019-.763-2.802a5 5 0 0 0-.173-.372c.23-.543.344-1.115.301-1.461-.158-.923-.837-1.11-2.368-.76-1.301.314-2.09.934-1.764 1.873-.058.05-.117.093-.174.138-.431-1.1.459-1.825 1.954-2.194-.22-2.032.97-4.094 2.1-5.435.033.043-.05.285-.34.878-.64 1.098-1.268 2.889-.982 4.412a5 5 0 0 1 .595-.052c.103-1.103.375-2.144.841-2.982.893-1.896 3.19-5.099 3.257-7.755.308.298.76.529 1.3.63.285.056.6.252.986.417s.848.293 1.42.186c.49-.092.793-.32 1.029-.568.234-.248.408-.51.658-.708h.002q.382-.294.589-.6zm11.077 3.08q.184.15.398.26l-1.507 2.835-.354.278c-.119-.06-.238-.113-.358-.204-.159-.12-.203-.226-.327-.363l.093-.398zm-2.901 3.533q.219.222.48.424c.182.139.375.27.58.375-1.923 3.54-5.632 7.506-5.664 7.54-.225.198-.37.159-.375.163v-.004c0-.046.021-.178.147-.373l.02-.032.016-.035s2.262-4.968 4.796-8.058zm-21.227 7.411c.52.92 1.642 1.685 2.537 1.299.346-.146.643-.473.875-.864l.024.054c.306.733.528 1.683.74 2.727v.001c.173.81.711 1.794 1.137 2.768s.717 1.923.504 2.558v.002l-.001.003c-.332 1.071-1.074 1.522-2.042 1.515-.968-.006-2.16-.52-3.248-1.483-1.192-1.066-2.834-1.385-3.831-1.862-.499-.239-.81-.492-.897-.855-.088-.363.039-.917.587-1.767l.002-.004.002-.003c.277-.47.288-1.063.331-1.616s.115-1.055.378-1.359l.002-.002c.336-.401.714-.483 1.164-.535s.966-.054 1.44-.354l.003-.002.002-.001q.15-.102.291-.22zm21.036.132c.275.291.536.631.823.925l.001.002.003.001c.41.399.919.507 1.355.65s.796.3 1.058.772v.002l.002.001c.206.359.18.88.12 1.444-.061.564-.158 1.16.05 1.679l.002.001c.414 1.01.458 1.615.322 1.952-.137.337-.464.501-.989.614-1.05.226-2.734.145-4.117 1.005-1.204.733-2.435.932-3.378.679-.942-.254-1.607-.931-1.747-2.06v-.005c-.1-.68.326-1.525.887-2.372.132-.2.27-.393.408-.59.576.14 1.35.087 2.337-.287 1.954-1.12 2.758-2.69 2.864-4.413m-3.284 1.032c-.252.277-.43.468-.43.468zm-2.226.61" class="ColorScheme-Text" color="#fcfcfc"/></svg>