<svg xmlns="http://www.w3.org/2000/svg" xmlns:xlink="http://www.w3.org/1999/xlink" width="64" height="64" viewBox="0 0 16.933 16.933"><defs><linearGradient id="a"><stop offset="0" stop-color="#fff"/><stop offset="1" stop-color="#fff" stop-opacity="0"/></linearGradient><linearGradient id="b" x1="8.466" x2="8.466" y1="1.058" y2="15.875" gradientUnits="userSpaceOnUse"><stop offset="0" stop-color="#02c5fd"/><stop offset="1" stop-color="#2f71f9"/></linearGradient><linearGradient xlink:href="#a" id="e" x1="6.745" x2="10.583" y1="1.058" y2="11.312" gradientUnits="userSpaceOnUse"/><linearGradient xlink:href="#a" id="f" x1="15.081" x2="12.7" y1="14.816" y2="12.171" gradientUnits="userSpaceOnUse"/><linearGradient id="h" x1="3.969" x2="12.964" y1="13.229" y2="13.229" gradientUnits="userSpaceOnUse"><stop offset="0"/><stop offset="1" stop-color="#0b2242"/></linearGradient><linearGradient id="j" x1="12.964" x2="3.969" y1="11.641" y2="11.641" gradientUnits="userSpaceOnUse"><stop offset="0" stop-color="#fff"/><stop offset="1" stop-color="#fff" stop-opacity=".65"/></linearGradient><linearGradient id="c" x1="10.789" x2="10.789" y1="2.117" y2="14.816" gradientUnits="userSpaceOnUse"><stop offset="0" stop-color="#fff"/><stop offset=".549" stop-color="#fff" stop-opacity=".796"/><stop offset="1" stop-color="#fff" stop-opacity=".5"/></linearGradient><filter id="d" width="1.024" height="1.024" x="-.012" y="-.012" color-interpolation-filters="sRGB"><feGaussianBlur stdDeviation=".074"/></filter><filter id="i" width="1.068" height="1.315" x="-.034" y="-.158" color-interpolation-filters="sRGB"><feGaussianBlur stdDeviation=".067"/></filter><filter id="k" width="1.048" height="1.223" x="-.024" y="-.111" color-interpolation-filters="sRGB"><feGaussianBlur stdDeviation=".058"/></filter><filter id="g" width="1.099" height="1.026" x="-.049" y="-.013" color-interpolation-filters="sRGB"><feGaussianBlur stdDeviation=".068"/></filter><filter id="l" width="1.04" height="1.083" x="-.02" y="-.042" color-interpolation-filters="sRGB"><feGaussianBlur stdDeviation=".053"/></filter><filter id="m" width="1.808" height="1.18" x="-.404" y="-.09" color-interpolation-filters="sRGB"><feGaussianBlur stdDeviation=".045"/></filter><filter id="n" width="2.139" height="1.169" x="-.57" y="-.084" color-interpolation-filters="sRGB"><feGaussianBlur stdDeviation=".044"/></filter></defs><path fill="url(#b)" d="M5.36 1.058c-1.53 0-2.577.457-3.26 1.2-.678.74-1.042 1.8-1.042 3v6.416c0 1.2.364 2.261 1.042 3.001.683.744 1.73 1.2 3.26 1.2h6.23c1.53 0 2.579-.456 3.26-1.2.68-.74 1.025-1.703 1.025-3V5.5c0-1.57-.345-2.502-1.024-3.242-.682-.743-1.73-1.2-3.26-1.2H6.745z"/><path fill="url(#c)" d="M9.79 2.117q-.148 0-.286.03c-.397.069-.895.28-1.096.964L6.88 8.33c-.188.643-.258 1.195.65 1.195h.938v3.968c0 .733.59 1.323 1.322 1.323h2.247c1.54 0 2.78-1.24 2.78-2.78v-7.14c0-1.54-1.24-2.78-2.78-2.78h-1.734z"/><g filter="url(#d)" opacity=".45" style="mix-blend-mode:overlay"><path fill="url(#e)" d="M5.36 1.058c-1.53 0-2.577.457-3.26 1.2-.678.74-1.042 1.8-1.042 3.001v6.415c0 1.2.364 2.26 1.043 3 .682.744 1.73 1.2 3.26 1.2h6.23c1.53 0 2.577-.456 3.26-1.2.678-.739 1.024-1.702 1.024-3V5.5c0-1.57-.346-2.502-1.024-3.242-.683-.743-1.73-1.2-3.26-1.2zm0 .264h6.232c1.477 0 2.437.432 3.064 1.116.634.69.954 1.53.954 3.062v6.174c0 1.251-.322 2.134-.954 2.822-.627.684-1.587 1.114-3.064 1.114H5.359c-1.477 0-2.437-.43-3.064-1.114-.625-.682-.973-1.675-.973-2.822V5.26c0-1.148.348-2.14.973-2.822.627-.684 1.587-1.116 3.064-1.116" opacity="1" style="mix-blend-mode:overlay"/><path fill="url(#f)" d="M5.36 1.058c-1.53 0-2.577.457-3.26 1.2-.678.74-1.042 1.8-1.042 3.001v6.415c0 1.2.364 2.26 1.043 3 .682.744 1.73 1.2 3.26 1.2h6.23c1.53 0 2.577-.456 3.26-1.2.678-.739 1.024-1.702 1.024-3V5.5c0-1.57-.346-2.502-1.024-3.242-.683-.743-1.73-1.2-3.26-1.2zm0 .264h6.232c1.477 0 2.437.432 3.064 1.116.634.69.954 1.53.954 3.062v6.174c0 1.251-.322 2.134-.954 2.822-.627.684-1.587 1.114-3.064 1.114H5.359c-1.477 0-2.437-.43-3.064-1.114-.625-.682-.973-1.675-.973-2.822V5.26c0-1.148.348-2.14.973-2.822.627-.684 1.587-1.116 3.064-1.116" opacity="1" style="mix-blend-mode:overlay"/></g><path fill="url(#c)" d="M9.79 2.117q-.148 0-.286.03c-.397.069-.895.28-1.096.964L6.88 8.33c-.188.643-.258 1.195.65 1.195h.264c-.908 0-.838-.552-.65-1.195l1.53-5.219c.2-.684.699-.895 1.096-.964q.138-.03.285-.03zM8.466 9.525v3.968c0 .733.59 1.323 1.322 1.323h.265a1.32 1.32 0 0 1-1.323-1.323V9.526z" filter="url(#g)"/><g fill="none" stroke-linecap="round" stroke-linejoin="round"><path stroke="url(#h)" stroke-width=".529" d="M4.196 10.848C5.334 11.97 6.868 12.7 8.465 12.7c1.599 0 3.133-.73 4.272-1.852"/><path stroke="url(#j)" stroke-width=".265" d="M4.196 10.848C5.334 11.97 6.868 12.7 8.465 12.7c1.599 0 3.133-.73 4.272-1.852" filter="url(#i)" opacity=".52"/><path stroke="#000" stroke-width=".132" d="M4.216 10.897c1.138 1.122 2.673 1.852 4.27 1.852 1.6 0 3.133-.73 4.272-1.852" filter="url(#k)" style="mix-blend-mode:normal"/></g><path fill="#fff" d="M14.816 11.772c0 1.54-1.24 2.78-2.78 2.78H9.789a1.32 1.32 0 0 1-1.323-1.323v.265c0 .733.59 1.323 1.323 1.323h2.247c1.54 0 2.78-1.24 2.78-2.78z" filter="url(#l)" opacity=".25"/><rect width=".529" height="1.455" x="11.377" y="5.424" rx=".265" ry=".277"/><rect width=".265" height="1.191" x="11.509" y="5.556" fill="#fff" filter="url(#m)" opacity=".15" rx=".132" ry=".132" style="mix-blend-mode:normal"/><path fill="#fff" d="M11.588 5.522a.13.13 0 0 0-.132.132v.988a.132.132 0 0 0 .185.121.13.13 0 0 1-.078-.12v-.989c0-.054.032-.1.078-.12a.1.1 0 0 0-.053-.012" filter="url(#n)" opacity=".5"/><g transform="translate(-6.35)"><rect width=".529" height="1.455" x="11.377" y="5.424" rx=".265" ry=".277"/><rect width=".265" height="1.191" x="11.509" y="5.556" fill="#fff" filter="url(#m)" opacity=".15" rx=".132" ry=".132" style="mix-blend-mode:normal"/><path fill="#fff" d="M11.588 5.522a.13.13 0 0 0-.132.132v.988a.132.132 0 0 0 .185.121.13.13 0 0 1-.078-.12v-.989c0-.054.032-.1.078-.12a.1.1 0 0 0-.053-.012" filter="url(#n)" opacity=".5"/></g></svg>