<svg xmlns="http://www.w3.org/2000/svg" xmlns:xlink="http://www.w3.org/1999/xlink" width="64" height="64"><defs><linearGradient id="b" x1="7.937" x2="7.937" y1="15.081" y2="1.852" gradientTransform="translate(0 .032)scale(3.7795)" gradientUnits="userSpaceOnUse"><stop offset="0" stop-color="#c18434"/><stop offset="1" stop-color="#e4b154"/></linearGradient><linearGradient id="c" x1="30" x2="30" y1="6" y2="58" gradientUnits="userSpaceOnUse"><stop offset="0" stop-color="#f8deac"/><stop offset="1" stop-color="#edcaa2"/></linearGradient><linearGradient xlink:href="#a" id="h" x1="8.255" x2="52.283" y1="7.93" y2="58.422" gradientUnits="userSpaceOnUse"/><linearGradient id="a"><stop offset="0" stop-color="#fff"/><stop offset=".559" stop-color="#fff" stop-opacity=".753"/><stop offset=".822" stop-color="#fff" stop-opacity=".25"/><stop offset="1" stop-color="#fff"/></linearGradient><linearGradient xlink:href="#a" id="f" x1="8" x2="56" y1="7" y2="57" gradientUnits="userSpaceOnUse"/><filter id="d" width="1.058" height="1.276" x="-.029" y="-.138" color-interpolation-filters="sRGB"><feGaussianBlur stdDeviation=".46"/></filter><filter id="g" width="1.015" height="1.015" x="-.008" y="-.008" color-interpolation-filters="sRGB"><feGaussianBlur stdDeviation=".179"/></filter><filter id="i" width="1.015" height="1.015" x="-.008" y="-.008" color-interpolation-filters="sRGB"><feGaussianBlur stdDeviation=".179"/></filter><filter id="e" width="1.028" height="1.028" x="-.014" y="-.014" color-interpolation-filters="sRGB"><feGaussianBlur stdDeviation=".122"/></filter></defs><rect width="56" height="56" x="4" y="4" fill="url(#b)" rx="14" ry="14"/><path fill="url(#c)" d="M25 4v56h14V4z"/><rect width="1" height="56" x="31.5" y="4" opacity=".2" rx="0" ry="0"/><path d="M13 44v2c0 3.324 2.676 6 6 6h26c3.324 0 6-2.676 6-6v-2c0 3.324-2.676 6-6 6H19c-3.324 0-6-2.676-6-6" filter="url(#d)" opacity=".1"/><rect width="38" height="38" x="13" y="13" fill="#fafafa" fill-opacity=".85" stroke="#fff" stroke-width=".5" filter="url(#e)" rx="6" ry="6"/><rect width="12" height="1" x="18" y="20" fill="#cbc5b9" rx="0" ry="0"/><rect width="8" height="1" x="18" y="22" fill="#cbc5b9" rx="0" ry="0"/><rect width="10" height="1" x="18" y="24" fill="#cbc5b9" rx="0" ry="0"/><path d="M18 27.105h5.33v1.127h-1.917v4.656H19.92v-4.656H18zm8.742.976q-.682 0-1.058.504t-.375 1.417q0 .91.375 1.414.376.504 1.058.504.686 0 1.061-.504.376-.504.376-1.414 0-.914-.376-1.417-.375-.504-1.061-.504m0-1.08q1.394 0 2.185.797t.79 2.204q0 1.402-.79 2.2T26.742 33q-1.39 0-2.185-.798-.79-.798-.79-2.2 0-1.406.79-2.204.794-.798 2.185-.798zm4.261 1.548h1.398v1.499h-1.398zm0 2.84h1.398v1.498h-1.398z" aria-label="TO:"/><rect width="23" height="1" x="18" y="35" fill="#cbc5b9" rx="0" ry="0"/><rect width="17" height="1" x="18" y="37" fill="#cbc5b9" rx="0" ry="0"/><path d="M18 40h1v5h-1zm2 0h1v5h-1zm2 0h3v5h-3zm4 0h1v5h-1zm4 0h1v5h-1zm2 0h4v5h-4zm5 0h2v5h-2zm3 0h1v5h-1zm3 0h1v5h-1zm2 0h1v5h-1z"/><path fill="url(#f)" d="M18 4C10.244 4 4 10.244 4 18v28c0 7.756 6.244 14 14 14h28c7.756 0 14-6.244 14-14V18c0-7.756-6.244-14-14-14zm0 1h28c7.202 0 13 5.798 13 13v28c0 7.202-5.798 13-13 13H18c-7.202 0-13-5.798-13-13V18c0-7.202 5.798-13 13-13" filter="url(#g)" opacity=".15" style="mix-blend-mode:normal"/><path fill="url(#h)" d="M18 4C10.244 4 4 10.244 4 18v28c0 7.756 6.244 14 14 14h28c7.756 0 14-6.244 14-14V18c0-7.756-6.244-14-14-14zm0 .5h28A13.47 13.47 0 0 1 59.5 18v28A13.47 13.47 0 0 1 46 59.5H18A13.47 13.47 0 0 1 4.5 46V18A13.47 13.47 0 0 1 18 4.5" filter="url(#i)" opacity=".5"/></svg>