<svg xmlns="http://www.w3.org/2000/svg" xmlns:xlink="http://www.w3.org/1999/xlink" width="64" height="64" viewBox="0 0 16.933 16.933"><defs><linearGradient xlink:href="#b" id="a" x1="8.466" x2="8.466" y1="1.058" y2="15.875" gradientUnits="userSpaceOnUse"/><linearGradient id="b" x1="8.466" x2="8.466" y1="1.058" y2="15.875" gradientUnits="userSpaceOnUse"><stop offset="0" stop-color="#d7d7c9"/><stop offset="1" stop-color="#cecec1"/></linearGradient><linearGradient id="c" x1="14.023" x2="10.848" y1="2.91" y2="2.91" gradientTransform="matrix(1 0 0 .97368 0 1.831)" gradientUnits="userSpaceOnUse"><stop offset="0" stop-color="#56c4fc"/><stop offset="1" stop-color="#56c4fc" stop-opacity="0"/></linearGradient><linearGradient id="d" x1="14.023" x2="10.848" y1="6.614" y2="6.614" gradientTransform="translate(0 2.381)" gradientUnits="userSpaceOnUse"><stop offset="0" stop-color="#fa9e27"/><stop offset="1" stop-color="#fa9e27" stop-opacity="0"/></linearGradient><linearGradient id="e" x1="14.023" x2="10.848" y1="17.198" y2="17.198" gradientTransform="matrix(1 0 0 .97368 0 -4.606)" gradientUnits="userSpaceOnUse"><stop offset="0" stop-color="#63d776"/><stop offset="1" stop-color="#63d776" stop-opacity="0"/></linearGradient><linearGradient id="j" x1="1.058" x2="15.73" y1="8.466" y2="8.466" gradientUnits="userSpaceOnUse"><stop offset="0" stop-color="#fff"/><stop offset="1" stop-color="#fff" stop-opacity=".75"/></linearGradient><linearGradient xlink:href="#c" id="f" x1="14.023" x2="10.848" y1="2.91" y2="2.91" gradientTransform="matrix(1 0 0 .97368 0 1.831)" gradientUnits="userSpaceOnUse"/><linearGradient xlink:href="#d" id="g" x1="14.023" x2="10.848" y1="6.614" y2="6.614" gradientTransform="translate(0 2.381)" gradientUnits="userSpaceOnUse"/><linearGradient xlink:href="#e" id="h" x1="14.023" x2="10.848" y1="17.198" y2="17.198" gradientTransform="matrix(1 0 0 .97368 0 -4.606)" gradientUnits="userSpaceOnUse"/><linearGradient id="i" x1="8.466" x2="8.466" y1="1.058" y2="15.875" gradientTransform="translate(-25.01)" gradientUnits="userSpaceOnUse"><stop offset="0" stop-color="#cee3ea"/><stop offset="1" stop-color="#797a79"/></linearGradient><filter id="m" width="1.591" height="1.211" x="-.295" y="-.106" color-interpolation-filters="sRGB"><feGaussianBlur stdDeviation=".652"/></filter><filter id="k" width="1.024" height="1.024" x="-.012" y="-.012" color-interpolation-filters="sRGB"><feGaussianBlur stdDeviation=".074"/></filter><clipPath id="l"><path fill="url(#a)" d="M5.36 1.058c-1.53 0-2.577.457-3.26 1.2-.678.74-1.042 1.8-1.042 3.001v6.416c0 1.2.364 2.26 1.043 3 .682.743 1.73 1.2 3.26 1.2h6.23c1.009 0 1.809-.199 2.432-.548V1.605c-.624-.348-1.423-.547-2.432-.547H6.745z" opacity=".75"/></clipPath></defs><path fill="url(#a)" d="M5.36 1.058c-1.53 0-2.577.457-3.26 1.2-.678.74-1.042 1.8-1.042 3v6.416c0 1.2.364 2.261 1.042 3.001.683.744 1.73 1.2 3.26 1.2h6.23c1.53 0 2.579-.456 3.26-1.2.68-.74 1.025-1.703 1.025-3V5.5c0-1.57-.345-2.502-1.024-3.242-.682-.743-1.73-1.2-3.26-1.2H6.745z"/><path fill="url(#f)" d="M10.583 1.058v4.895h5.292V5.42c-.011-1.522-.356-2.435-1.024-3.162-.674-.734-1.705-1.189-3.205-1.2z"/><rect width="5.292" height="5.027" x="10.583" y="5.953" fill="url(#g)" rx="0" ry="0"/><path fill="url(#h)" d="M10.583 10.98v4.895h1.076c1.493-.014 2.52-.468 3.192-1.2.668-.727 1.013-1.67 1.024-2.935v-.76z"/><path fill="url(#i)" d="M5.36 1.058c-1.53 0-2.577.457-3.26 1.2-.678.74-1.042 1.8-1.042 3.001v6.416c0 1.2.364 2.26 1.043 3 .682.743 1.73 1.2 3.26 1.2h6.23c1.009 0 1.809-.199 2.432-.548V1.605c-.624-.348-1.423-.547-2.432-.547H6.745z"/><path fill="url(#j)" d="M5.36 1.058c-1.53 0-2.577.457-3.26 1.2-.678.74-1.042 1.8-1.042 3.001v6.415c0 1.2.364 2.26 1.043 3 .682.744 1.73 1.2 3.26 1.2h6.23c1.53 0 2.577-.456 3.26-1.2.678-.739 1.024-1.702 1.024-3V5.5c0-1.57-.346-2.502-1.024-3.242-.683-.743-1.73-1.2-3.26-1.2H6.745zm0 .264h6.232c1.477 0 2.437.432 3.064 1.116.634.69.954 1.53.954 3.062v6.174c0 1.251-.322 2.134-.954 2.822-.627.684-1.587 1.114-3.064 1.114H5.359c-1.477 0-2.437-.43-3.064-1.114-.625-.682-.973-1.675-.973-2.822V5.26c0-1.148.348-2.14.973-2.822.627-.684 1.587-1.116 3.064-1.116" filter="url(#k)" opacity=".65"/><g clip-path="url(#l)" filter="url(#m)" opacity=".35"><path fill="url(#f)" d="M10.583 1.058v4.895h5.292V5.42c-.011-1.522-.356-2.435-1.024-3.162-.674-.734-1.705-1.189-3.205-1.2z" opacity="1"/><rect width="5.292" height="5.027" x="10.583" y="5.953" fill="url(#g)" opacity="1" rx="0" ry="0"/><path fill="url(#h)" d="M10.583 10.98v4.895h1.076c1.493-.014 2.52-.468 3.192-1.2.668-.727 1.013-1.67 1.024-2.935v-.76z" opacity="1"/></g><path fill="#343434" d="M9.627 12.684a.97.97 0 0 1-.565-.313c-.32-.346-.43-.877-.307-1.485.044-.216.103-.38.211-.589.113-.217.224-.363.412-.541.228-.216.49-.361.797-.444.17-.046.645-.047.808-.003.454.125.778.397.7.587q-.044.107-.16.105c-.053 0-.089-.019-.193-.102a1.1 1.1 0 0 0-.406-.228c-.515-.157-1.1.054-1.456.526-.38.502-.488 1.215-.258 1.7.063.133.21.295.323.356.388.212.902-.025 1.167-.536a1.6 1.6 0 0 0 .19-.565c.07-.35.184-.805.22-.876.037-.075.083-.104.165-.104a.16.16 0 0 1 .162.113c.022.067.017.092-.111.63-.248 1.036-.16 1.41.325 1.383a.54.54 0 0 0 .255-.063c.128-.064.207-.07.26-.02.07.065.072.162.006.246-.047.06-.213.145-.35.18-.154.04-.423.029-.56-.024a.65.65 0 0 1-.398-.43l-.03-.098-.056.076c-.213.29-.469.454-.796.51a.8.8 0 0 1-.355.008zm-5.84-.292v-.242l.108-.012a2 2 0 0 1 .182-.011c.074 0 .075-.001.109-.092l.473-1.224.52-1.347.081-.213.728.01.284.731.553 1.43c.165.428.278.698.293.7s.1.009.194.015l.17.012v.485H5.809v-.483l.134-.012a3 3 0 0 1 .2-.012c.037 0 .067-.003.067-.007 0-.007-.161-.466-.183-.52-.011-.028-.055-.03-.566-.03s-.555.003-.566.03l-.088.248-.088.249c-.01.027.002.03.1.03.06 0 .163.005.228.012l.117.012v.483H3.788zm2.075-1.249c0-.018-.388-1.08-.399-1.092-.006-.007-.096.228-.201.523l-.198.556c-.006.017.08.022.395.022.221 0 .403-.003.403-.01zM4.207 7.566l1.084-2.945.143-.388.413.01.452 1.228c.539 1.465.782 2.128.782 2.137 0 .003-.098.007-.216.007h-.216l-.09-.257c-.05-.141-.127-.36-.17-.488l-.08-.231-1.343.01-.167.483-.167.484h-.443l.018-.048zm1.96-1.318a58 58 0 0 0-.522-1.486q-.01-.012-.017-.003c-.003.003-.121.34-.263.748l-.267.762c-.006.017.108.022.536.022h.544zm2.5 1.265v-.102l.103-.029c.14-.038.22-.112.29-.264.03-.067.28-.744.557-1.503l.5-1.381h.632l.494 1.372c.272.755.525 1.436.562 1.514.079.167.139.223.279.262l.102.029v.203h-1.603v-.205l.088-.019c.19-.04.254-.107.238-.244a3 3 0 0 0-.104-.37l-.093-.285-1.115-.01-.092.292c-.051.16-.097.333-.102.383-.009.083-.005.095.042.142.047.048.105.071.236.098.046.01.048.015.048.114v.104H8.667zm1.947-1.28-.231-.688a19 19 0 0 0-.23-.661 75 75 0 0 0-.459 1.36c0 .007.21.011.464.011.364 0 .462-.005.456-.021z"/></svg>