<svg xmlns="http://www.w3.org/2000/svg" xmlns:xlink="http://www.w3.org/1999/xlink" width="64" height="64"><defs><linearGradient id="g" x1="31.386" x2="31.622" y1="16.646" y2="51.602" gradientUnits="userSpaceOnUse"><stop offset="0" stop-color="#39bcaf"/><stop offset="1" stop-color="#02665d"/></linearGradient><linearGradient xlink:href="#a" id="d" x1="2.598" x2="10.583" y1="2.836" y2="11.312" gradientUnits="userSpaceOnUse"/><linearGradient id="a"><stop offset="0" stop-color="#fff"/><stop offset="1" stop-color="#fff" stop-opacity="0"/></linearGradient><linearGradient xlink:href="#a" id="e" x1="15.081" x2="12.7" y1="14.816" y2="12.171" gradientUnits="userSpaceOnUse"/><linearGradient id="b" x1="8.466" x2="8.466" y1="1.058" y2="15.875" gradientTransform="scale(3.7796)" gradientUnits="userSpaceOnUse"><stop offset="0" stop-color="#085265"/><stop offset="1" stop-color="#03191b"/></linearGradient><filter id="f" width="1.113" height="1.129" x="-.056" y="-.064" color-interpolation-filters="sRGB"><feGaussianBlur stdDeviation=".917"/></filter><filter id="c" width="1.024" height="1.024" x="-.012" y="-.012" color-interpolation-filters="sRGB"><feGaussianBlur stdDeviation=".074"/></filter></defs><path fill="url(#b)" d="M20.26 4c-5.782 0-9.743 1.725-12.321 4.535C5.374 11.331 4 15.34 4 19.876v24.248c0 4.538 1.374 8.545 3.939 11.341C10.517 58.275 14.479 60 20.26 60h23.549c5.782 0 9.743-1.724 12.321-4.535C58.695 52.67 60 49.03 60 44.125V20.786c0-5.935-1.305-9.456-3.87-12.252C53.552 5.725 49.59 4 43.809 4H25.494z"/><g filter="url(#c)" opacity=".35" transform="scale(3.7796)"><path fill="url(#d)" d="M5.36 1.058c-1.53 0-2.577.457-3.26 1.2-.678.74-1.042 1.8-1.042 3.001v6.415c0 1.2.364 2.26 1.043 3 .682.744 1.73 1.2 3.26 1.2h6.23c1.53 0 2.577-.456 3.26-1.2.678-.739 1.024-1.702 1.024-3V5.5c0-1.57-.346-2.502-1.024-3.242-.683-.743-1.73-1.2-3.26-1.2H6.745zm0 .264h6.232c1.477 0 2.437.432 3.064 1.116.634.69.954 1.53.954 3.062v6.174c0 1.251-.322 2.134-.954 2.822-.627.684-1.587 1.114-3.064 1.114H5.359c-1.477 0-2.437-.43-3.064-1.114-.625-.682-.973-1.675-.973-2.822V5.26c0-1.148.348-2.14.973-2.822.627-.684 1.587-1.116 3.064-1.116"/><path fill="url(#e)" d="M5.36 1.058c-1.53 0-2.577.457-3.26 1.2-.678.74-1.042 1.8-1.042 3.001v6.415c0 1.2.364 2.26 1.043 3 .682.744 1.73 1.2 3.26 1.2h6.23c1.53 0 2.577-.456 3.26-1.2.678-.739 1.024-1.702 1.024-3V5.5c0-1.57-.346-2.502-1.024-3.242-.683-.743-1.73-1.2-3.26-1.2H6.745zm0 .264h6.232c1.477 0 2.437.432 3.064 1.116.634.69.954 1.53.954 3.062v6.174c0 1.251-.322 2.134-.954 2.822-.627.684-1.587 1.114-3.064 1.114H5.359c-1.477 0-2.437-.43-3.064-1.114-.625-.682-.973-1.675-.973-2.822V5.26c0-1.148.348-2.14.973-2.822.627-.684 1.587-1.116 3.064-1.116"/></g><path d="M23.813 17.224a.65.65 0 0 0-.29.092 16.96 16.96 0 0 0-7.9 19.073A16.96 16.96 0 0 0 27.25 48.276a.652.652 0 0 0 .835-.624v-6.005a10 10 0 0 0 1.305.443v7.898c-2.995-.437-5.862-1.528-8.295-3.34a18.255 18.255 0 0 1-6.255-20.893.652.652 0 0 0-.652-.884.65.65 0 0 0-.573.438 19.565 19.565 0 0 0 16.36 26.15.65.65 0 0 0 .719-.647v-8.47a10 10 0 0 0 1.307.091 10 10 0 0 0 1.307-.094v8.473a.65.65 0 0 0 .721.647 19.56 19.56 0 0 0 16.355-26.15.65.65 0 0 0-.657-.438.652.652 0 0 0-.568.884 18.26 18.26 0 0 1-6.254 20.893c-2.434 1.812-5.298 2.906-8.293 3.342v-7.907a10 10 0 0 0 1.307-.428v5.997a.652.652 0 0 0 .833.624A16.96 16.96 0 0 0 48.38 36.389a16.96 16.96 0 0 0-7.9-19.073.65.65 0 0 0-.374-.092.652.652 0 0 0-.278 1.22 15.65 15.65 0 0 1 7.294 17.606c-1.335 4.984-5.076 8.887-9.897 10.608v-5.597a3.26 3.26 0 0 0 2.603-3.192 3.26 3.26 0 0 0-2.017-3.01c1.092-5.18 3.322-3.385 3.322-5.356v-.716c0-1.852-5.602-11.135-9.13-11.135s-9.131 9.284-9.131 11.135v.716c0 1.97 2.23.177 3.322 5.353a3.26 3.26 0 0 0-2.018 3.013 3.26 3.26 0 0 0 2.606 3.19v5.602c-4.823-1.721-8.564-5.626-9.9-10.611a15.65 15.65 0 0 1 7.294-17.606.652.652 0 0 0-.362-1.22zm3.623 18.689a1.956 1.956 0 0 1 1.956 1.956 1.956 1.956 0 0 1-1.956 1.957 1.956 1.956 0 0 1-1.957-1.957 1.956 1.956 0 0 1 1.957-1.956m9.13 0a1.956 1.956 0 0 1 1.956 1.956 1.956 1.956 0 0 1-1.956 1.957 1.956 1.956 0 0 1-1.957-1.957 1.956 1.956 0 0 1 1.957-1.956" filter="url(#f)" opacity=".25"/><path fill="url(#g)" d="M23.813 17.224a.65.65 0 0 0-.29.092 16.96 16.96 0 0 0-7.9 19.073A16.96 16.96 0 0 0 27.25 48.276a.652.652 0 0 0 .835-.624v-6.005a10 10 0 0 0 1.305.443v7.898c-2.995-.437-5.862-1.528-8.295-3.34a18.255 18.255 0 0 1-6.255-20.893.652.652 0 0 0-.652-.884.65.65 0 0 0-.573.438 19.565 19.565 0 0 0 16.36 26.15.65.65 0 0 0 .719-.647v-8.47a10 10 0 0 0 1.307.091 10 10 0 0 0 1.307-.094v8.473a.65.65 0 0 0 .721.647 19.56 19.56 0 0 0 16.355-26.15.65.65 0 0 0-.657-.438.652.652 0 0 0-.568.884 18.26 18.26 0 0 1-6.254 20.893c-2.434 1.812-5.298 2.906-8.293 3.342v-7.907a10 10 0 0 0 1.307-.428v5.997a.652.652 0 0 0 .833.624A16.96 16.96 0 0 0 48.38 36.389a16.96 16.96 0 0 0-7.9-19.073.65.65 0 0 0-.374-.092.652.652 0 0 0-.278 1.22 15.65 15.65 0 0 1 7.294 17.606c-1.335 4.984-5.076 8.887-9.897 10.608v-5.597a3.26 3.26 0 0 0 2.603-3.192 3.26 3.26 0 0 0-2.017-3.01c1.092-5.18 3.322-3.385 3.322-5.356v-.716c0-1.852-5.602-11.135-9.13-11.135s-9.131 9.284-9.131 11.135v.716c0 1.97 2.23.177 3.322 5.353a3.26 3.26 0 0 0-2.018 3.013 3.26 3.26 0 0 0 2.606 3.19v5.602c-4.823-1.721-8.564-5.626-9.9-10.611a15.65 15.65 0 0 1 7.294-17.606.652.652 0 0 0-.362-1.22zm3.623 18.689a1.956 1.956 0 0 1 1.956 1.956 1.956 1.956 0 0 1-1.956 1.957 1.956 1.956 0 0 1-1.957-1.957 1.956 1.956 0 0 1 1.957-1.956m9.13 0a1.956 1.956 0 0 1 1.956 1.956 1.956 1.956 0 0 1-1.956 1.957 1.956 1.956 0 0 1-1.957-1.957 1.956 1.956 0 0 1 1.957-1.956"/></svg>