<svg xmlns="http://www.w3.org/2000/svg" xmlns:xlink="http://www.w3.org/1999/xlink" width="64" height="64"><defs><linearGradient id="a"><stop offset="0" stop-color="#1496ff"/><stop offset="1" stop-color="#1f8dff"/></linearGradient><linearGradient id="g" x1="24.944" x2="24.944" y1="23.25" y2="52.75" gradientUnits="userSpaceOnUse"><stop offset="0" stop-color="#f8f8f9"/><stop offset="1" stop-color="#ededed"/></linearGradient><linearGradient xlink:href="#a" id="j" x1="24.944" x2="24.944" y1="25.5" y2="50.5" gradientUnits="userSpaceOnUse"/><linearGradient id="k" x1="16" x2="34" y1="29" y2="47" gradientUnits="userSpaceOnUse"><stop offset="0" stop-color="#62deff"/><stop offset="1" stop-color="#fff" stop-opacity=".1"/></linearGradient><linearGradient xlink:href="#a" id="h" x1="24.944" x2="24.944" y1="25.5" y2="50.5" gradientTransform="translate(.556 .5)" gradientUnits="userSpaceOnUse"/><linearGradient id="l" x1="22" x2="31" y1="35" y2="45" gradientUnits="userSpaceOnUse"><stop offset="0" stop-color="#fff"/><stop offset="1" stop-color="#fff" stop-opacity=".35"/></linearGradient><linearGradient id="m" x1="24.943" x2="24.943" y1="23.25" y2="52.75" gradientUnits="userSpaceOnUse"><stop offset="0" stop-color="#fff" stop-opacity=".75"/><stop offset="1" stop-color="#fff" stop-opacity=".25"/></linearGradient><linearGradient id="c" x1="8.466" x2="8.466" y1="1.058" y2="15.875" gradientTransform="scale(3.7796)" gradientUnits="userSpaceOnUse"><stop offset="0" stop-color="#fff"/><stop offset="1" stop-color="#ececec"/></linearGradient><linearGradient id="d" x1="25" x2="25" y1="4" y2="27" gradientUnits="userSpaceOnUse"><stop offset="0" stop-color="#0b8cff"/><stop offset="1" stop-color="#0884ff"/></linearGradient><linearGradient id="e" x1="47" x2="47" y1="4" y2="46.562" gradientUnits="userSpaceOnUse"><stop offset="0" stop-color="#44de5d"/><stop offset="1" stop-color="#47df60"/></linearGradient><linearGradient id="n" x1="8" x2="16" y1="11.512" y2="11" gradientUnits="userSpaceOnUse"><stop offset="0" stop-color="#7cfb92"/><stop offset="1" stop-color="#7cfb92" stop-opacity=".35"/></linearGradient><linearGradient xlink:href="#c" id="b" x1="8.466" x2="8.466" y1="1.058" y2="15.875" gradientTransform="scale(3.7796)" gradientUnits="userSpaceOnUse"/><filter id="i" width="1.216" height="1.216" x="-.108" y="-.108" color-interpolation-filters="sRGB"><feGaussianBlur stdDeviation="1.125"/></filter><filter id="f" width="1.294" height="1.294" x="-.147" y="-.147" color-interpolation-filters="sRGB"><feGaussianBlur stdDeviation="1.807"/></filter><filter id="q" width="1.096" height="1.096" x="-.048" y="-.048" color-interpolation-filters="sRGB"><feGaussianBlur stdDeviation=".38"/></filter><filter id="o" width="1.024" height="1.024" x="-.012" y="-.012" color-interpolation-filters="sRGB"><feGaussianBlur stdDeviation=".074"/></filter><clipPath id="p"><path fill="url(#b)" stroke-width="3.78" d="M20.26 4c-5.782 0-9.743 1.725-12.321 4.535C5.374 11.331 4 15.34 4 19.876v24.248c0 4.538 1.374 8.545 3.939 11.341C10.517 58.275 14.479 60 20.26 60h23.549c5.782 0 9.743-1.724 12.321-4.535C58.695 52.67 60 49.03 60 44.125V20.786c0-5.935-1.305-9.456-3.87-12.252C53.552 5.725 49.59 4 43.809 4H25.494z"/></clipPath></defs><path fill="url(#c)" d="M20.26 4c-5.782 0-9.743 1.725-12.321 4.535C5.374 11.331 4 15.34 4 19.876v24.248c0 4.538 1.374 8.545 3.939 11.341C10.517 58.275 14.479 60 20.26 60h23.549c5.782 0 9.743-1.724 12.321-4.535C58.695 52.67 60 49.03 60 44.125V20.786c0-5.935-1.305-9.456-3.87-12.252C53.552 5.725 49.59 4 43.809 4H25.494z"/><path fill="url(#d)" d="M19 4h12v23H19z"/><path fill="#48c0ff" d="M30 4h.5v23H30z" opacity=".25"/><path fill="#48c0ff" d="M19.5 4h.5v23h-.5z"/><path fill="url(#e)" d="M33 4v24l26.883 18.562Q60 45.398 60 44.125V20.786c0-5.935-1.304-9.455-3.869-12.252C53.561 5.733 49.615 4.01 43.861 4h-.053z"/><path fill="#ffce05" d="M33.498 45.5a.5.5 0 0 0-.262.059.5.5 0 0 0-.265.441v14h10.838c3.475 0 6.292-.623 8.547-1.73L33.752 45.586a.5.5 0 0 0-.254-.086z"/><path fill="#62f27a" d="M33.5 4.5v23.318l25.926 17.831q.02-.29.04-.58l-.497-.336v.002L34 27.553V4.501z"/><path fill="#ff82ca" d="M4 24v20.125c0 4.502 1.353 8.48 3.879 11.273a13 13 0 0 0 .982.973 13 13 0 0 0 3.432 2.168q.66.287 1.379.521c.96.312 2.001.552 3.13.711q.848.12 1.76.178v-25.95z"/><path fill="#fff64d" d="M33.471 46v14h.5V46.947l17.305 11.799q.282-.11.553-.23z"/><circle cx="25.95" cy="39" r="14.75" filter="url(#f)" opacity=".15"/><circle cx="24.944" cy="38" r="14.75" fill="url(#g)"/><circle cx="25.5" cy="38.5" r="12.5" fill="url(#h)" filter="url(#i)" opacity=".35"/><circle cx="24.944" cy="38" r="12.5" fill="url(#j)"/><path fill="url(#k)" d="M24.943 26a12 12 0 0 0-12 12 12 12 0 0 0 12 12 12 12 0 0 0 12-12 12 12 0 0 0-12-12m0 .5a11.5 11.5 0 0 1 11.5 11.5 11.5 11.5 0 0 1-11.5 11.5 11.5 11.5 0 0 1-11.5-11.5 11.5 11.5 0 0 1 11.5-11.5"/><path fill="#d6e1ec" d="M24.932 29a1 1 0 0 0-.926.625l-5.763 14.244a1 1 0 0 0 1.642 1.074l5.05-5.172 5.07 5.172a1 1 0 0 0 1.64-1.076L25.86 29.623a1 1 0 0 0-.928-.623"/><path fill="url(#l)" d="M24.932 29a1 1 0 0 0-.926.625l-5.763 14.244a1 1 0 0 0 1.642 1.074l5.05-5.172 5.07 5.172a1 1 0 0 0 1.64-1.076L25.86 29.623a1 1 0 0 0-.928-.623m.002.8c.084 0 .154.046.186.124l5.785 14.244h-.002c.068.167.017.182-.074.242-.092.06-.128.098-.252-.027l-5.069-5.172a.8.8 0 0 0-1.144.002l-5.051 5.172c-.127.13-.162.087-.254.027s-.142-.074-.074-.242l5.763-14.244a.2.2 0 0 1 .186-.125"/><path fill="url(#m)" d="M24.943 23.25A14.75 14.75 0 0 0 10.193 38a14.75 14.75 0 0 0 14.75 14.75A14.75 14.75 0 0 0 39.693 38a14.75 14.75 0 0 0-14.75-14.75m0 1c7.606 0 13.75 6.144 13.75 13.75s-6.144 13.75-13.75 13.75-13.75-6.144-13.75-13.75 6.144-13.75 13.75-13.75"/><path fill="#40db5a" d="M16.5 4.275c-3.797.591-6.584 2.106-8.56 4.26a13.4 13.4 0 0 0-1.637 2.207l7.838 5.486A1.5 1.5 0 0 0 16.5 15z"/><path fill="url(#n)" d="m16 5.457-.5.178V15c0 .243-.111.382-.26.459-.148.077-.326.088-.525-.05l-6.998-4.9-.352.364 7.063 4.945A.984.984 0 0 0 16 15z"/><path fill="#fff" d="M5.36 1.058c-1.53 0-2.577.457-3.26 1.2-.678.74-1.042 1.8-1.042 3.001v6.415c0 1.2.364 2.26 1.043 3 .682.744 1.73 1.2 3.26 1.2h6.23c1.53 0 2.577-.456 3.26-1.2.678-.739 1.024-1.702 1.024-3V5.5c0-1.57-.346-2.502-1.024-3.242-.683-.743-1.73-1.2-3.26-1.2H6.745zm0 .264h6.232c1.477 0 2.437.432 3.064 1.116.634.69.954 1.53.954 3.062v6.174c0 1.251-.322 2.134-.954 2.822-.627.684-1.587 1.114-3.064 1.114H5.359c-1.477 0-2.437-.43-3.064-1.114-.625-.682-.973-1.675-.973-2.822V5.26c0-1.148.348-2.14.973-2.822.627-.684 1.587-1.116 3.064-1.116" filter="url(#o)" opacity=".5" style="mix-blend-mode:normal" transform="scale(3.7796)"/><path fill="#e0ffe7" d="M41 4a19 19 0 0 0 19 19v-4A15 15 0 0 1 45 4z" clip-path="url(#p)" filter="url(#q)"/><path fill="#fff" d="M38 4a22 22 0 0 0 22 22v-5.213c0-1.805-.121-3.387-.361-4.793A12 12 0 0 1 48.006 4.348 24 24 0 0 0 43.808 4z" opacity=".5"/><path fill="#fff" d="M38 4a22 22 0 0 0 22 22v-1A21 21 0 0 1 39 4z" opacity=".35" style="mix-blend-mode:normal"/><path fill="#fff" d="M42.639 4c1.632 0 3.13.13 4.5.373a12.867 12.867 0 0 0 12.475 12.488c.257 1.508.387 3.203.387 5.139v-1.213c0-1.805-.121-3.387-.362-4.793A12 12 0 0 1 48.006 4.348 24 24 0 0 0 43.81 4z" opacity=".35"/></svg>