<svg xmlns="http://www.w3.org/2000/svg" width="64" height="64" viewBox="0 0 16.933 16.933"><defs><linearGradient id="d" x1="3.864" x2="4.705" y1="4.384" y2="5.226" gradientUnits="userSpaceOnUse"><stop offset="0" stop-color="#7ebfff"/><stop offset="1" stop-color="#498bfe"/></linearGradient><linearGradient id="e" x1="3.864" x2="4.705" y1="4.384" y2="5.226" gradientUnits="userSpaceOnUse"><stop offset="0" stop-color="#ff8a7d"/><stop offset="1" stop-color="#ff4d42"/></linearGradient><linearGradient id="f" x1="3.864" x2="4.705" y1="4.384" y2="5.226" gradientUnits="userSpaceOnUse"><stop offset="0" stop-color="#ffd252"/><stop offset="1" stop-color="#ff9816"/></linearGradient><linearGradient id="a" x1="8.466" x2="8.466" y1="1.058" y2="15.875" gradientUnits="userSpaceOnUse"><stop offset="0" stop-color="#fff"/><stop offset="1" stop-color="#ececec"/></linearGradient><filter id="c" width="1.6" height="1.6" x="-.3" y="-.3" color-interpolation-filters="sRGB"><feGaussianBlur stdDeviation=".198"/></filter><filter id="b" width="1.024" height="1.024" x="-.012" y="-.012" color-interpolation-filters="sRGB"><feGaussianBlur stdDeviation=".074"/></filter></defs><path fill="url(#a)" d="M5.36 1.058c-1.53 0-2.577.457-3.26 1.2-.678.74-1.042 1.8-1.042 3v6.416c0 1.2.364 2.261 1.042 3.001.683.744 1.73 1.2 3.26 1.2h6.23c1.53 0 2.579-.456 3.26-1.2.68-.74 1.025-1.703 1.025-3V5.5c0-1.57-.345-2.502-1.024-3.242-.682-.743-1.73-1.2-3.26-1.2H6.745z"/><path fill="#fff" d="M5.36 1.058c-1.53 0-2.577.457-3.26 1.2-.678.74-1.042 1.8-1.042 3.001v6.415c0 1.2.364 2.26 1.043 3 .682.744 1.73 1.2 3.26 1.2h6.23c1.53 0 2.577-.456 3.26-1.2.678-.739 1.024-1.702 1.024-3V5.5c0-1.57-.346-2.502-1.024-3.242-.683-.743-1.73-1.2-3.26-1.2H6.745zm0 .264h6.232c1.477 0 2.437.432 3.064 1.116.634.69.954 1.53.954 3.062v6.174c0 1.251-.322 2.134-.954 2.822-.627.684-1.587 1.114-3.064 1.114H5.359c-1.477 0-2.437-.43-3.064-1.114-.625-.682-.973-1.675-.973-2.822V5.26c0-1.148.348-2.14.973-2.822.627-.684 1.587-1.116 3.064-1.116" filter="url(#b)"/><rect width="7.408" height=".265" x="6.35" y="4.629" fill="#c1c1c1" stroke="#b6b6b6" stroke-width=".053" ry=".132"/><rect width="7.408" height=".265" x="6.35" y="8.333" fill="#c1c1c1" stroke="#b6b6b6" stroke-width=".053" ry=".132"/><rect width="7.408" height=".265" x="6.35" y="12.038" fill="#c1c1c1" stroke="#b6b6b6" stroke-width=".053" ry=".132"/><circle cx="4.233" cy="4.762" r="1.323" fill="#3b7df7" opacity=".45"/><circle cx="4.365" cy="4.895" r=".794" fill="#3c7ef8" filter="url(#c)" opacity=".6"/><circle cx="4.233" cy="4.762" r=".794" fill="#3c7ef8"/><path fill="url(#d)" d="M4.233 4.101a.66.66 0 0 0-.661.661.66.66 0 0 0 .661.662.66.66 0 0 0 .662-.662.66.66 0 0 0-.662-.661m0 .132a.53.53 0 0 1 .53.53.53.53 0 0 1-.53.529.53.53 0 0 1-.529-.53.53.53 0 0 1 .53-.529"/><g transform="translate(0 3.704)"><circle cx="4.233" cy="4.762" r="1.323" fill="#ff4136" opacity=".45"/><circle cx="4.365" cy="4.895" r=".794" fill="#ff4136" filter="url(#c)" opacity=".6"/><circle cx="4.233" cy="4.762" r=".794" fill="#ff4136"/><path fill="url(#e)" d="M4.233 4.101a.66.66 0 0 0-.661.661.66.66 0 0 0 .661.662.66.66 0 0 0 .662-.662.66.66 0 0 0-.662-.661m0 .132a.53.53 0 0 1 .53.53.53.53 0 0 1-.53.529.53.53 0 0 1-.529-.53.53.53 0 0 1 .53-.529"/></g><g transform="translate(0 7.408)"><circle cx="4.233" cy="4.762" r="1.323" fill="#fe8e0b" opacity=".45"/><circle cx="4.365" cy="4.895" r=".794" fill="#fe8e0b" filter="url(#c)" opacity=".6"/><circle cx="4.233" cy="4.762" r=".794" fill="#fe8e0b"/><path fill="url(#f)" d="M4.233 4.101a.66.66 0 0 0-.661.661.66.66 0 0 0 .661.662.66.66 0 0 0 .662-.662.66.66 0 0 0-.662-.661m0 .132a.53.53 0 0 1 .53.53.53.53 0 0 1-.53.529.53.53 0 0 1-.529-.53.53.53 0 0 1 .53-.529"/></g></svg>