<svg xmlns="http://www.w3.org/2000/svg" xmlns:xlink="http://www.w3.org/1999/xlink" width="64" height="64"><defs><linearGradient id="b"><stop offset="0" stop-color="#fff"/><stop offset="1" stop-color="#fff" stop-opacity=".65"/></linearGradient><linearGradient xlink:href="#a" id="g" x1="6.745" x2="10.583" y1="1.058" y2="11.312" gradientUnits="userSpaceOnUse"/><linearGradient id="a"><stop offset="0" stop-color="#fff"/><stop offset="1" stop-color="#fff" stop-opacity="0"/></linearGradient><linearGradient xlink:href="#a" id="h" x1="15.081" x2="12.7" y1="14.816" y2="12.171" gradientUnits="userSpaceOnUse"/><linearGradient id="c" x1="8.466" x2="8.466" y1="1.058" y2="15.875" gradientTransform="scale(3.7796)" gradientUnits="userSpaceOnUse"><stop offset="0" stop-color="#ff9709"/><stop offset="1" stop-color="#fa691e"/></linearGradient><linearGradient xlink:href="#b" id="i" x1="-38.839" x2="-49.839" y1="20.292" y2="43.801" gradientUnits="userSpaceOnUse"/><linearGradient xlink:href="#b" id="j" x1="-21.644" x2="-35.644" y1="22.167" y2="35.801" gradientUnits="userSpaceOnUse"/><linearGradient id="k" x1="-54.626" x2="-18.122" y1="30.322" y2="30.001" gradientUnits="userSpaceOnUse"><stop offset="0" stop-color="#fff5db"/><stop offset="1" stop-color="#fff3de"/></linearGradient><linearGradient id="d" x1="12" x2="53" y1="31" y2="44" gradientUnits="userSpaceOnUse"><stop offset="0" stop-color="#ffda84"/><stop offset="1" stop-color="#fff3d6" stop-opacity="0"/></linearGradient><filter id="f" width="1.024" height="1.024" x="-.012" y="-.012" color-interpolation-filters="sRGB"><feGaussianBlur stdDeviation=".074"/></filter><filter id="e" width="1.034" height="1.051" x="-.017" y="-.026" color-interpolation-filters="sRGB"><feGaussianBlur stdDeviation=".287"/></filter></defs><path fill="url(#c)" d="M20.26 4c-5.782 0-9.743 1.725-12.321 4.535C5.374 11.331 4 15.34 4 19.876v24.248c0 4.538 1.374 8.545 3.939 11.341C10.517 58.275 14.479 60 20.26 60h23.549c5.782 0 9.743-1.724 12.321-4.535C58.695 52.67 60 49.03 60 44.125V20.786c0-5.935-1.305-9.456-3.87-12.252C53.552 5.725 49.59 4 43.809 4H25.494z"/><path fill="#f79b55" d="M32.748 20c-.279.22-.477.403-.6.523v.002c.123-.12.321-.305.6-.525m16.455 0v21.954c0 .04.001.1-.004.17.005-.07.006-.13.006-.17v-21.86zm-35.406.105a3.106 3.106 0 0 0-2.297 3.01v20.77A3.1 3.1 0 0 0 14.602 47h16.422c-.615-.434-2.02-1.331-4.188-2.214-2.423-.988-6.743-.793-9.408-.37-1.434.228-2.526-.136-3.092-.824-.565-.687-.539-1.467-.539-1.636zm36.406 0v21.85c0 .17.025.95-.541 1.637s-1.656 1.052-3.09.824c-2.664-.423-6.987-.618-9.41.37-2.185.89-3.58 1.787-4.18 2.214h16.416a3.1 3.1 0 0 0 3.102-3.115v-20.77a3.106 3.106 0 0 0-2.297-3.01z" style="paint-order:stroke fill markers"/><path fill="url(#d)" d="M32.748 20c-.279.22-.477.403-.6.523v.002c.123-.12.321-.305.6-.525m16.455 0v1h.002v-.906zm-35.406.105a3.105 3.105 0 0 0-2.297 3.01v20.77A3.1 3.1 0 0 0 14.602 47h16.422a17 17 0 0 0-1.621-1H14.602c-1.18 0-2.102-.923-2.102-2.115v-20.77c0-.902.528-1.65 1.297-1.96zm36.406 0v1.05c.768.31 1.297 1.058 1.297 1.96v20.77c0 1.192-.922 2.115-2.102 2.115h-14.8c-.76.418-1.299.775-1.616 1h16.416a3.1 3.1 0 0 0 3.102-3.115v-20.77a3.105 3.105 0 0 0-2.297-3.01z" filter="url(#e)" style="paint-order:stroke fill markers"/><g filter="url(#f)" opacity=".45" transform="scale(3.7796)"><path fill="url(#g)" d="M5.36 1.058c-1.53 0-2.577.457-3.26 1.2-.678.74-1.042 1.8-1.042 3.001v6.415c0 1.2.364 2.26 1.043 3 .682.744 1.73 1.2 3.26 1.2h6.23c1.53 0 2.577-.456 3.26-1.2.678-.739 1.024-1.702 1.024-3V5.5c0-1.57-.346-2.502-1.024-3.242-.683-.743-1.73-1.2-3.26-1.2H6.745zm0 .264h6.232c1.477 0 2.437.432 3.064 1.116.634.69.954 1.53.954 3.062v6.174c0 1.251-.322 2.134-.954 2.822-.627.684-1.587 1.114-3.064 1.114H5.359c-1.477 0-2.437-.43-3.064-1.114-.625-.682-.973-1.675-.973-2.822V5.26c0-1.148.348-2.14.973-2.822.627-.684 1.587-1.116 3.064-1.116" opacity="1"/><path fill="url(#h)" d="M5.36 1.058c-1.53 0-2.577.457-3.26 1.2-.678.74-1.042 1.8-1.042 3.001v6.415c0 1.2.364 2.26 1.043 3 .682.744 1.73 1.2 3.26 1.2h6.23c1.53 0 2.577-.456 3.26-1.2.678-.739 1.024-1.702 1.024-3V5.5c0-1.57-.346-2.502-1.024-3.242-.683-.743-1.73-1.2-3.26-1.2H6.745zm0 .264h6.232c1.477 0 2.437.432 3.064 1.116.634.69.954 1.53.954 3.062v6.174c0 1.251-.322 2.134-.954 2.822-.627.684-1.587 1.114-3.064 1.114H5.359c-1.477 0-2.437-.43-3.064-1.114-.625-.682-.973-1.675-.973-2.822V5.26c0-1.148.348-2.14.973-2.822.627-.684 1.587-1.116 3.064-1.116" opacity="1"/></g><g stroke-linecap="round" stroke-linejoin="round"><path fill="url(#i)" d="M-36.239 20.683s-2.527-2.933-8.655-3.581-7.225.576-7.756 1.047c-.53.472-.795 1.078-.795 1.945v21.86c0 .318.01 1.865 2.475 1.474 2.762-.439 7.132-.714 9.942.431 3.198 1.303 4.796 2.692 4.796 2.692z" opacity=".95" style="paint-order:stroke fill markers" transform="translate(68.241)"/><path fill="url(#j)" d="M-36.244 20.683s2.527-2.933 8.655-3.581 7.225.576 7.756 1.047c.53.472.795 1.078.795 1.945v21.86c0 .318-.01 1.865-2.475 1.474-2.762-.439-7.132-.714-9.942.431-3.198 1.303-4.796 2.692-4.796 2.692z" opacity=".95" style="paint-order:stroke fill markers" transform="translate(68.241)"/><path fill="url(#k)" d="M-23.832 15.924c-1.03-.033-2.293.018-3.861.184-5.302.56-7.664 2.509-8.55 3.341-.883-.83-3.245-2.78-8.546-3.341-1.568-.166-2.83-.215-3.86-.182-1.545.05-2.579.28-3.318.592s-1.197.75-1.348.883c-.725.644-1.13 1.622-1.13 2.693v21.861c0 .17-.025.95.54 1.637s1.656 1.052 3.09.824c2.665-.423 6.987-.618 9.41.369 2.884 1.175 4.413 2.374 4.536 2.477.16.107.436.144.62.144.223-.01.523-.035.66-.156.122-.103 1.627-1.29 4.51-2.465 2.424-.987 6.746-.792 9.411-.37 1.434.229 2.524-.136 3.09-.823s.54-1.468.54-1.637V20.094c0-1.07-.405-2.048-1.13-2.693-.2-.178-.914-.836-2.195-1.164-.641-.165-1.439-.28-2.47-.313zm-24.785 1.002c.973-.031 2.19.014 3.723.176 6.023.637 8.567 3.48 8.652 3.578.085-.097 2.63-2.941 8.654-3.578 6.129-.648 7.226.575 7.756 1.047.53.471.795 1.078.795 1.945v21.861c0 .317-.01 1.864-2.474 1.473-2.762-.439-7.133-.714-9.944.431-2.998 1.222-4.59 2.519-4.777 2.676v.016l-.01-.008-.006.006-.002.002v-.016c-.187-.157-1.78-1.454-4.777-2.676-2.81-1.145-7.181-.87-9.944-.431-2.464.391-2.474-1.156-2.474-1.473v-21.86c0-.868.264-1.475.795-1.946.397-.354 1.114-1.13 4.033-1.223" style="paint-order:stroke fill markers" transform="translate(68.241)"/></g></svg>