<svg xmlns="http://www.w3.org/2000/svg" xmlns:xlink="http://www.w3.org/1999/xlink" width="64" height="64" viewBox="0 0 16.933 16.933"><defs><linearGradient id="g" x1="328.2" x2="328.2" y1="50.301" y2="95.039" gradientTransform="translate(-33.683 -.076)scale(.12734)" gradientUnits="userSpaceOnUse"><stop offset="0" stop-color="#ffe6ec"/><stop offset="1" stop-color="#fb96a9"/></linearGradient><linearGradient xlink:href="#a" id="d" x1="6.745" x2="10.583" y1="1.058" y2="11.312" gradientUnits="userSpaceOnUse"/><linearGradient id="a"><stop offset="0" stop-color="#fff"/><stop offset="1" stop-color="#fff" stop-opacity="0"/></linearGradient><linearGradient xlink:href="#a" id="e" x1="15.081" x2="12.7" y1="14.816" y2="12.171" gradientUnits="userSpaceOnUse"/><linearGradient id="b" x1="8.466" x2="8.466" y1="1.058" y2="15.875" gradientUnits="userSpaceOnUse"><stop offset="0" stop-color="#ff4d71"/><stop offset="1" stop-color="#ff0130"/></linearGradient><linearGradient id="h" x1="6.441" x2="12.448" y1="5.734" y2="9.86" gradientUnits="userSpaceOnUse"><stop offset="0" stop-color="#fff"/><stop offset=".537" stop-color="#fff" stop-opacity="0"/><stop offset=".671" stop-color="#fff" stop-opacity=".693"/><stop offset="1" stop-color="#fff" stop-opacity="0"/></linearGradient><filter id="c" width="1.024" height="1.024" x="-.012" y="-.012" color-interpolation-filters="sRGB"><feGaussianBlur stdDeviation=".074"/></filter><filter id="f" width="1.335" height="1.262" x="-.167" y="-.131" color-interpolation-filters="sRGB"><feGaussianBlur stdDeviation=".556"/></filter></defs><path fill="url(#b)" d="M5.36 1.058c-1.53 0-2.577.457-3.26 1.2-.678.74-1.042 1.8-1.042 3v6.416c0 1.2.364 2.261 1.042 3.001.683.744 1.73 1.2 3.26 1.2h6.23c1.53 0 2.579-.456 3.26-1.2.68-.74 1.025-1.703 1.025-3V5.5c0-1.57-.345-2.502-1.024-3.242-.682-.743-1.73-1.2-3.26-1.2H6.745z"/><g filter="url(#c)" opacity=".45"><path fill="url(#d)" d="M5.36 1.058c-1.53 0-2.577.457-3.26 1.2-.678.74-1.042 1.8-1.042 3.001v6.415c0 1.2.364 2.26 1.043 3 .682.744 1.73 1.2 3.26 1.2h6.23c1.53 0 2.577-.456 3.26-1.2.678-.739 1.024-1.702 1.024-3V5.5c0-1.57-.346-2.502-1.024-3.242-.683-.743-1.73-1.2-3.26-1.2H6.745zm0 .264h6.232c1.477 0 2.437.432 3.064 1.116.634.69.954 1.53.954 3.062v6.174c0 1.251-.322 2.134-.954 2.822-.627.684-1.587 1.114-3.064 1.114H5.359c-1.477 0-2.437-.43-3.064-1.114-.625-.682-.973-1.675-.973-2.822V5.26c0-1.148.348-2.14.973-2.822.627-.684 1.587-1.116 3.064-1.116" opacity="1"/><path fill="url(#e)" d="M5.36 1.058c-1.53 0-2.577.457-3.26 1.2-.678.74-1.042 1.8-1.042 3.001v6.415c0 1.2.364 2.26 1.043 3 .682.744 1.73 1.2 3.26 1.2h6.23c1.53 0 2.577-.456 3.26-1.2.678-.739 1.024-1.702 1.024-3V5.5c0-1.57-.346-2.502-1.024-3.242-.683-.743-1.73-1.2-3.26-1.2H6.745zm0 .264h6.232c1.477 0 2.437.432 3.064 1.116.634.69.954 1.53.954 3.062v6.174c0 1.251-.322 2.134-.954 2.822-.627.684-1.587 1.114-3.064 1.114H5.359c-1.477 0-2.437-.43-3.064-1.114-.625-.682-.973-1.675-.973-2.822V5.26c0-1.148.348-2.14.973-2.822.627-.684 1.587-1.116 3.064-1.116" opacity="1"/></g><path d="M12.096 3.758c-.09-.002-.2.014-.34.045l-2.35.478-.047.01-2.13.42c-.39.084-.467.302-.458.647l.007 5.386c-.017.38-.06.588-.494.658-1.542.23-1.84.706-1.832 1.384.01.676.558 1.218 1.313 1.142.662-.074 1.156-.266 1.459-.879.117-.23.157-.71.128-1.196l-.007-4.286c.001-.3-.05-.467.348-.55l2.393-.482 1.421-.286c.23-.047.34.032.344.293l.006 3.201c-.018.38-.055.553-.49.623-1.543.23-1.846.74-1.837 1.42.01.676.567 1.182 1.322 1.106.663-.073 1.138-.244 1.441-.856.118-.231.127-.69.137-1.185l-.003-6.555c0-.369-.064-.532-.331-.538" filter="url(#f)" opacity=".1"/><path fill="url(#g)" d="M11.765 3.22c-.09-.001-.2.014-.34.046l-2.35.477-.047.01-2.13.42c-.39.084-.467.302-.458.647l.007 5.387c-.017.379-.06.587-.494.657-1.542.23-1.84.707-1.832 1.385.01.676.558 1.218 1.313 1.142.662-.074 1.156-.266 1.459-.879.117-.23.157-.71.128-1.197L7.014 7.03c.001-.3-.05-.467.348-.55l2.393-.482 1.421-.287c.23-.047.34.032.344.293v.001l.006 3.2c-.018.38-.055.553-.49.623-1.543.23-1.846.741-1.837 1.42.01.676.567 1.183 1.322 1.107.663-.073 1.138-.245 1.441-.857.118-.23.127-.69.137-1.184l-.003-6.556c0-.368-.064-.532-.331-.537"/><path fill="url(#h)" d="M11.765 3.22c-.09-.001-.2.014-.34.046l-2.35.477-.047.01-2.13.42c-.39.084-.467.302-.458.647l.007 5.387c-.017.379-.06.587-.494.657-1.542.23-1.84.707-1.832 1.385.01.676.558 1.218 1.313 1.142.662-.074 1.156-.266 1.459-.879.117-.23.157-.71.128-1.197L7.014 7.03c.001-.3-.05-.467.348-.55l2.393-.482 1.421-.287c.23-.047.34.032.344.293v.001l.006 3.2c-.018.38-.055.553-.49.623-1.543.23-1.846.741-1.837 1.42.01.676.567 1.183 1.322 1.107.663-.073 1.138-.245 1.441-.857.118-.23.127-.69.137-1.184l-.003-6.556c0-.368-.064-.532-.331-.537m-.003.134c.107.002.127.015.154.064.027.048.047.163.047.34l.004 6.556c-.01.493-.036.954-.123 1.123v.002c-.141.286-.313.457-.53.573-.216.116-.484.175-.806.21-.69.07-1.167-.371-1.176-.976-.004-.32.057-.564.293-.777s.672-.397 1.43-.51h.002c.234-.038.398-.114.49-.254s.102-.3.112-.492v-.004l-.007-3.203v-.004c-.001-.149-.033-.279-.134-.362s-.234-.085-.367-.058l-1.528.306-2.287.461a.8.8 0 0 0-.266.098.4.4 0 0 0-.152.176c-.057.137-.035.264-.035.406l.006 4.291v.002c.028.475-.025.954-.114 1.13l-.001.001c-.283.572-.71.735-1.354.807-.686.069-1.16-.406-1.168-1.012-.004-.32.056-.555.29-.76.235-.204.672-.38 1.43-.494q.359-.055.497-.274c.09-.146.1-.314.11-.507v-.004l-.007-5.39v-.002c-.004-.163.016-.275.061-.348s.119-.13.291-.167l2.13-.42.048-.009 2.35-.479h.001q.201-.044.309-.04"/></svg>