<svg xmlns="http://www.w3.org/2000/svg" xmlns:xlink="http://www.w3.org/1999/xlink" width="64" height="64" image-rendering="optimizeSpeed"><defs><linearGradient xlink:href="#a" id="d" x1="6.745" x2="10.583" y1="1.058" y2="11.312" gradientUnits="userSpaceOnUse"/><linearGradient id="a"><stop offset="0" stop-color="#fff"/><stop offset="1" stop-color="#fff" stop-opacity="0"/></linearGradient><linearGradient xlink:href="#a" id="e" x1="15.081" x2="12.7" y1="14.816" y2="12.171" gradientUnits="userSpaceOnUse"/><linearGradient id="b" x1="8.466" x2="8.466" y1="1.058" y2="15.875" gradientTransform="scale(3.7796)" gradientUnits="userSpaceOnUse"><stop offset="0" stop-color="#323232"/><stop offset="1" stop-color="#141515"/></linearGradient><filter id="c" width="1.024" height="1.024" x="-.012" y="-.012" color-interpolation-filters="sRGB"><feGaussianBlur stdDeviation=".074"/></filter></defs><path fill="url(#b)" d="M20.26 4c-5.782 0-9.743 1.725-12.321 4.535C5.374 11.331 4 15.34 4 19.876v24.248c0 4.538 1.374 8.545 3.939 11.341C10.517 58.275 14.479 60 20.26 60h23.549c5.782 0 9.743-1.724 12.321-4.535C58.695 52.67 60 49.03 60 44.125V20.786c0-5.935-1.305-9.456-3.87-12.252C53.552 5.725 49.59 4 43.809 4H25.494z"/><g filter="url(#c)" opacity=".45" transform="scale(3.7796)"><path fill="url(#d)" d="M5.36 1.058c-1.53 0-2.577.457-3.26 1.2-.678.74-1.042 1.8-1.042 3.001v6.415c0 1.2.364 2.26 1.043 3 .682.744 1.73 1.2 3.26 1.2h6.23c1.53 0 2.577-.456 3.26-1.2.678-.739 1.024-1.702 1.024-3V5.5c0-1.57-.346-2.502-1.024-3.242-.683-.743-1.73-1.2-3.26-1.2H6.745zm0 .264h6.232c1.477 0 2.437.432 3.064 1.116.634.69.954 1.53.954 3.062v6.174c0 1.251-.322 2.134-.954 2.822-.627.684-1.587 1.114-3.064 1.114H5.359c-1.477 0-2.437-.43-3.064-1.114-.625-.682-.973-1.675-.973-2.822V5.26c0-1.148.348-2.14.973-2.822.627-.684 1.587-1.116 3.064-1.116" opacity="1"/><path fill="url(#e)" d="M5.36 1.058c-1.53 0-2.577.457-3.26 1.2-.678.74-1.042 1.8-1.042 3.001v6.415c0 1.2.364 2.26 1.043 3 .682.744 1.73 1.2 3.26 1.2h6.23c1.53 0 2.577-.456 3.26-1.2.678-.739 1.024-1.702 1.024-3V5.5c0-1.57-.346-2.502-1.024-3.242-.683-.743-1.73-1.2-3.26-1.2H6.745zm0 .264h6.232c1.477 0 2.437.432 3.064 1.116.634.69.954 1.53.954 3.062v6.174c0 1.251-.322 2.134-.954 2.822-.627.684-1.587 1.114-3.064 1.114H5.359c-1.477 0-2.437-.43-3.064-1.114-.625-.682-.973-1.675-.973-2.822V5.26c0-1.148.348-2.14.973-2.822.627-.684 1.587-1.116 3.064-1.116" opacity="1"/></g><path fill="#ec4e3e" d="M7.5 30c.277 0 .5.223.5.5v3a.5.5 0 1 1-1 0v-3c0-.277.223-.5.5-.5m2-2c.277 0 .5.223.5.5v7a.5.5 0 1 1-1 0v-7c0-.277.223-.5.5-.5m2-6c.277 0 .5.319.5.714v18.571c0 .396-.223.715-.5.715s-.5-.319-.5-.715v-18.57c0-.396.223-.715.5-.715m2 4c.277 0 .5.223.5.5v11a.5.5 0 1 1-1 0v-11c0-.277.223-.5.5-.5m2-6c.277 0 .5.223.5.5v23a.5.5 0 1 1-1 0v-23c0-.277.223-.5.5-.5m2 1c.277 0 .5.223.5.5v21a.5.5 0 1 1-1 0v-21c0-.277.223-.5.5-.5m2-9c.277 0 .5.223.5.5v39a.5.5 0 1 1-1 0v-39c0-.277.223-.5.5-.5m2 4c.277 0 .5.223.5.5v31a.5.5 0 1 1-1 0v-31c0-.277.223-.5.5-.5m2-2c.277 0 .5.223.5.5v35a.5.5 0 1 1-1 0v-35c0-.277.223-.5.5-.5m2 5c.277 0 .5.223.5.5v25a.5.5 0 1 1-1 0v-25c0-.277.223-.5.5-.5m2 10c.277 0 .5.223.5.5v5a.5.5 0 1 1-1 0v-5c0-.277.223-.5.5-.5m2-2c.277 0 .5.223.5.5v9a.5.5 0 1 1-1 0v-9c0-.277.223-.5.5-.5"/><path fill="#69aeff" d="M31.5 7A1.5 1.5 0 0 0 30 8.5a1.5 1.5 0 0 0 1 1.412v44.176a1.5 1.5 0 0 0-1 1.412 1.5 1.5 0 0 0 1.5 1.5 1.5 1.5 0 0 0 1.5-1.5 1.5 1.5 0 0 0-1-1.412V9.912A1.5 1.5 0 0 0 33 8.5 1.5 1.5 0 0 0 31.5 7"/><path fill="#fff" d="M33.5 26c.277 0 .5.223.5.5v11a.5.5 0 1 1-1 0v-11c0-.277.223-.5.5-.5m2 3c.277 0 .5.223.5.5v5a.5.5 0 1 1-1 0v-5c0-.277.223-.5.5-.5m2-1c.277 0 .5.223.5.5v7a.5.5 0 1 1-1 0v-7c0-.277.223-.5.5-.5m2 0c.277 0 .5.223.5.5v7a.5.5 0 1 1-1 0v-7c0-.277.223-.5.5-.5m2 1c.277 0 .5.223.5.5v5a.5.5 0 1 1-1 0v-5c0-.277.223-.5.5-.5m2 1c.277 0 .5.223.5.5v3a.5.5 0 1 1-1 0v-3c0-.277.223-.5.5-.5m2 0c.277 0 .5.223.5.5v3a.5.5 0 1 1-1 0v-3c0-.277.223-.5.5-.5m2-2c.277 0 .5.223.5.5v7a.5.5 0 1 1-1 0v-7c0-.277.223-.5.5-.5m2 1c.277 0 .5.223.5.5v5a.5.5 0 1 1-1 0v-5c0-.277.223-.5.5-.5m2-2c.277 0 .5.223.5.5v9a.5.5 0 1 1-1 0v-9c0-.277.223-.5.5-.5m2 3c.277 0 .5.223.5.5v3a.5.5 0 1 1-1 0v-3c0-.277.223-.5.5-.5m2 1c.277 0 .5.223.5.5v1a.5.5 0 1 1-1 0v-1c0-.277.223-.5.5-.5m2 0c.277 0 .5.223.5.5v1a.5.5 0 1 1-1 0v-1c0-.277.223-.5.5-.5"/><path fill="#ff2a2a" d="M5.5 31c.277 0 .5.223.5.5v1a.5.5 0 1 1-1 0v-1c0-.277.223-.5.5-.5"/></svg>