<svg xmlns="http://www.w3.org/2000/svg" xmlns:xlink="http://www.w3.org/1999/xlink" width="64" height="64"><defs><linearGradient xlink:href="#a" id="d" x1="6.745" x2="10.583" y1="1.058" y2="11.312" gradientUnits="userSpaceOnUse"/><linearGradient id="a"><stop offset="0" stop-color="#fff"/><stop offset="1" stop-color="#fff" stop-opacity="0"/></linearGradient><linearGradient xlink:href="#a" id="e" x1="15.081" x2="12.7" y1="14.816" y2="12.171" gradientUnits="userSpaceOnUse"/><linearGradient id="b" x1="8.466" x2="8.466" y1="1.058" y2="15.875" gradientTransform="scale(3.7796)" gradientUnits="userSpaceOnUse"><stop offset="0" stop-color="#53d8e1"/><stop offset="1" stop-color="#74abdd"/></linearGradient><linearGradient id="f" x1="-46.25" x2="-46.25" y1="16.5" y2="39.861" gradientTransform="translate(69)" gradientUnits="userSpaceOnUse"><stop offset="0" stop-color="#f9fdfe"/><stop offset="1" stop-color="#bde1f0"/></linearGradient><linearGradient id="g" x1="-58.978" x2="-32.579" y1="26.989" y2="29.725" gradientTransform="translate(69)" gradientUnits="userSpaceOnUse"><stop offset="0" stop-color="#f9fdfe"/><stop offset="1" stop-color="#f9fdfe" stop-opacity="0"/></linearGradient><linearGradient id="h" x1="-35.005" x2="-60.005" y1="18" y2="27" gradientTransform="matrix(-1 0 0 1 -5.005 10)" gradientUnits="userSpaceOnUse"><stop offset="0" stop-color="#f9fdfe"/><stop offset="1" stop-color="#f9fdfe" stop-opacity=".853"/></linearGradient><filter id="c" width="1.024" height="1.024" x="-.012" y="-.012" color-interpolation-filters="sRGB"><feGaussianBlur stdDeviation=".074"/></filter></defs><path fill="url(#b)" d="M20.26 4c-5.782 0-9.743 1.725-12.321 4.535C5.374 11.331 4 15.34 4 19.876v24.248c0 4.538 1.374 8.545 3.939 11.341C10.517 58.275 14.479 60 20.26 60h23.549c5.782 0 9.743-1.724 12.321-4.535C58.695 52.67 60 49.03 60 44.125V20.786c0-5.935-1.305-9.456-3.87-12.252C53.552 5.725 49.59 4 43.809 4H25.494z"/><g filter="url(#c)" style="mix-blend-mode:overlay" transform="scale(3.7796)"><path fill="url(#d)" d="M5.36 1.058c-1.53 0-2.577.457-3.26 1.2-.678.74-1.042 1.8-1.042 3.001v6.415c0 1.2.364 2.26 1.043 3 .682.744 1.73 1.2 3.26 1.2h6.23c1.53 0 2.577-.456 3.26-1.2.678-.739 1.024-1.702 1.024-3V5.5c0-1.57-.346-2.502-1.024-3.242-.683-.743-1.73-1.2-3.26-1.2H6.745zm0 .264h6.232c1.477 0 2.437.432 3.064 1.116.634.69.954 1.53.954 3.062v6.174c0 1.251-.322 2.134-.954 2.822-.627.684-1.587 1.114-3.064 1.114H5.359c-1.477 0-2.437-.43-3.064-1.114-.625-.682-.973-1.675-.973-2.822V5.26c0-1.148.348-2.14.973-2.822.627-.684 1.587-1.116 3.064-1.116"/><path fill="url(#e)" d="M5.36 1.058c-1.53 0-2.577.457-3.26 1.2-.678.74-1.042 1.8-1.042 3.001v6.415c0 1.2.364 2.26 1.043 3 .682.744 1.73 1.2 3.26 1.2h6.23c1.53 0 2.577-.456 3.26-1.2.678-.739 1.024-1.702 1.024-3V5.5c0-1.57-.346-2.502-1.024-3.242-.683-.743-1.73-1.2-3.26-1.2H6.745zm0 .264h6.232c1.477 0 2.437.432 3.064 1.116.634.69.954 1.53.954 3.062v6.174c0 1.251-.322 2.134-.954 2.822-.627.684-1.587 1.114-3.064 1.114H5.359c-1.477 0-2.437-.43-3.064-1.114-.625-.682-.973-1.675-.973-2.822V5.26c0-1.148.348-2.14.973-2.822.627-.684 1.587-1.116 3.064-1.116"/></g><path fill="url(#f)" d="M14.971 16.5c-2.2 0-3.97 1.77-3.97 3.97v10.56c0 2.2 1.77 3.97 3.97 3.97h2.03v3.612a1.25 1.25 0 0 0 2.048.96L24.545 35h5.985c2.2 0 3.97-1.77 3.97-3.97V20.47c0-2.2-1.77-3.97-3.97-3.97z"/><path fill="url(#g)" d="M14.971 16.5c-2.2 0-3.97 1.77-3.97 3.97v10.56c0 2.2 1.77 3.97 3.97 3.97h2.03v3.612a1.25 1.25 0 0 0 2.048.96L24.545 35h5.985c2.2 0 3.97-1.77 3.97-3.97V20.47c0-2.2-1.77-3.97-3.97-3.97zm0 1H30.53a2.94 2.94 0 0 1 2.97 2.97v10.56A2.94 2.94 0 0 1 30.53 34h-5.984a1 1 0 0 0-.64.23l-5.495 4.573c-.217.18-.41.09-.41-.191V35a1 1 0 0 0-1-1h-2.03a2.94 2.94 0 0 1-2.97-2.97V20.47a2.94 2.94 0 0 1 2.97-2.97z" style="mix-blend-mode:overlay"/><path fill="#11242c" d="M49.029 26.5c2.2 0 3.97 1.77 3.97 3.97v10.56c0 2.2-1.77 3.97-3.97 3.97h-2.03v3.612a1.25 1.25 0 0 1-2.048.96L39.455 45H33.47c-2.2 0-3.97-1.77-3.97-3.97V30.47c0-2.2 1.77-3.97 3.97-3.97z"/><path fill="#1e2729" stroke="#fff" stroke-linecap="round" stroke-linejoin="round" stroke-width=".1" d="M22.578 20.162a.5.5 0 0 0-.469.326l-3.738 10a.5.5 0 0 0 .469.674h.328a.5.5 0 0 0 .469-.324l1.12-3.004h4.065l1.127 3.004a.5.5 0 0 0 .467.324h.33a.5.5 0 0 0 .469-.676l-3.746-10a.5.5 0 0 0-.47-.324zm.207 2.225q.13.35.264.705l1.285 3.433h-3.09l1.277-3.431.002-.002q.133-.355.262-.705"/><path fill="#fff" stroke="#000" stroke-linecap="round" stroke-linejoin="round" stroke-width=".4" d="M41.219 30.377a.3.3 0 0 0-.129.031l-.728.34a.34.34 0 0 0-.141.494c.103.16.29.508.451.8h-3.96a.34.34 0 0 0-.34.339v.701a.34.34 0 0 0 .34.34h1.542a8.84 8.84 0 0 0 1.928 3.861c-.86.575-2.02 1.13-3.664 1.625a.34.34 0 0 0-.168.535q.32.405.562.73a.34.34 0 0 0 .387.118c1.795-.648 3.067-1.29 3.97-1.955.897.669 2.124 1.291 3.829 1.88a.34.34 0 0 0 .39-.128c.139-.202.353-.47.637-.791a.34.34 0 0 0-.166-.553c-1.657-.44-2.775-.945-3.568-1.463.923-1.034 1.567-2.317 1.9-3.86h1.504a.34.34 0 0 0 .34-.339v-.701a.34.34 0 0 0-.34-.34h-3.521a.34.34 0 0 0 .05-.17 32 32 0 0 0-.804-1.34.34.34 0 0 0-.301-.154zm-1.496 3.045h3.057c-.27 1.2-.77 2.178-1.495 2.951-.765-.815-1.283-1.793-1.562-2.951"/><path fill="url(#h)" d="M49.025 26.5c2.2 0 3.97 1.77 3.97 3.97v10.56c0 2.2-1.77 3.97-3.97 3.97h-2.03v3.612a1.25 1.25 0 0 1-2.048.96L39.45 45h-5.985c-2.2 0-3.97-1.77-3.97-3.97V30.47c0-2.2 1.77-3.97 3.97-3.97zm0 1H33.466a2.94 2.94 0 0 0-2.97 2.97v10.56a2.94 2.94 0 0 0 2.97 2.97h5.984a1 1 0 0 1 .64.23l5.495 4.573c.217.18.41.09.41-.191V45a1 1 0 0 1 1-1h2.03a2.94 2.94 0 0 0 2.97-2.97V30.47a2.94 2.94 0 0 0-2.97-2.97z" opacity=".15" style="mix-blend-mode:normal"/></svg>