<svg xmlns="http://www.w3.org/2000/svg" width="64" height="64"><defs><linearGradient id="a" x1="8.466" x2="8.466" y1="1.058" y2="15.875" gradientTransform="scale(3.7796)" gradientUnits="userSpaceOnUse"><stop offset="0" stop-color="#3199e5"/><stop offset="1" stop-color="#0a4faa"/></linearGradient><linearGradient id="e" x1="29.75" x2="29.75" y1="25" y2="47" gradientUnits="userSpaceOnUse"><stop offset="0" stop-color="#ecf6ff"/><stop offset="1" stop-color="#5a8fcb"/></linearGradient><linearGradient id="b" x1="42.25" x2="42.25" y1="18.035" y2="32.167" gradientUnits="userSpaceOnUse"><stop offset="0" stop-color="#fedc4e"/><stop offset="1" stop-color="#e3a300"/></linearGradient><linearGradient id="f" x1="29.75" x2="29.75" y1="19.622" y2="47.877" gradientUnits="userSpaceOnUse"><stop offset="0" stop-color="#fff"/><stop offset="1" stop-color="#fff" stop-opacity=".6"/></linearGradient><linearGradient id="c" x1="42.25" x2="42.25" y1="15.5" y2="34" gradientUnits="userSpaceOnUse"><stop offset="0" stop-color="#fff"/><stop offset="1" stop-color="#fff" stop-opacity="0"/></linearGradient><linearGradient id="k" x1="6.745" x2="10.583" y1="1.058" y2="11.312" gradientUnits="userSpaceOnUse"><stop offset="0" stop-color="#52e3f7"/><stop offset="1" stop-color="#52e3f7" stop-opacity="0"/></linearGradient><linearGradient id="j" x1="15.081" x2="12.7" y1="14.816" y2="12.171" gradientUnits="userSpaceOnUse"><stop offset="0" stop-color="#1a9df1"/><stop offset="1" stop-color="#1a9df1" stop-opacity="0"/></linearGradient><filter id="i" width="1.024" height="1.024" x="-.012" y="-.012" color-interpolation-filters="sRGB"><feGaussianBlur stdDeviation=".074"/></filter><filter id="g" width="1.046" height="1.066" x="-.023" y="-.033" color-interpolation-filters="sRGB"><feGaussianBlur stdDeviation=".366"/></filter><filter id="d" width="1.054" height="1.054" x="-.027" y="-.027" color-interpolation-filters="sRGB"><feGaussianBlur stdDeviation=".242"/></filter><filter id="h" width="1.456" height="1.521" x="-.228" y="-.26" color-interpolation-filters="sRGB"><feGaussianBlur stdDeviation="1.632"/></filter></defs><path fill="url(#a)" d="M20.26 4c-5.782 0-9.743 1.725-12.321 4.535C5.374 11.331 4 15.34 4 19.876v24.248c0 4.538 1.374 8.545 3.939 11.341C10.517 58.275 14.479 60 20.26 60h23.549c5.782 0 9.743-1.724 12.321-4.535C58.695 52.67 60 49.03 60 44.125V20.786c0-5.935-1.305-9.456-3.87-12.252C53.552 5.725 49.59 4 43.809 4H25.494z"/><circle cx="42.25" cy="26.25" r="10.75" fill="url(#b)"/><path fill="url(#c)" d="M42.25 15.5A10.75 10.75 0 0 0 31.5 26.25 10.75 10.75 0 0 0 42.25 37 10.75 10.75 0 0 0 53 26.25 10.75 10.75 0 0 0 42.25 15.5m0 1A9.75 9.75 0 0 1 52 26.25 9.75 9.75 0 0 1 42.25 36a9.75 9.75 0 0 1-9.75-9.75 9.75 9.75 0 0 1 9.75-9.75" filter="url(#d)" style="mix-blend-mode:overlay"/><path fill="url(#e)" d="M27 20.5a10.75 10.75 0 0 0-10.721 9.947 8.5 8.5 0 0 0-5.78 8.053A8.5 8.5 0 0 0 19 47h20v-.004l.25.004A9.75 9.75 0 0 0 49 37.25a9.75 9.75 0 0 0-9.75-9.75 9.8 9.8 0 0 0-2.093.227A10.75 10.75 0 0 0 27 20.5"/><path fill="url(#f)" d="M27 20.5a10.75 10.75 0 0 0-10.721 9.947 8.5 8.5 0 0 0-5.78 8.053A8.5 8.5 0 0 0 19 47h20v-.004l.25.004A9.75 9.75 0 0 0 49 37.25a9.75 9.75 0 0 0-9.75-9.75 9.8 9.8 0 0 0-2.093.227A10.75 10.75 0 0 0 27 20.5m0 1a9.74 9.74 0 0 1 9.21 6.555 1 1 0 0 0 1.161.648 8.8 8.8 0 0 1 1.879-.203A8.735 8.735 0 0 1 48 37.25a8.735 8.735 0 0 1-8.97 8.746l-.042.016L39 46H19a7.485 7.485 0 0 1-7.5-7.5 7.49 7.49 0 0 1 5.1-7.105 1 1 0 0 0 .677-.874A9.736 9.736 0 0 1 27 21.5" filter="url(#g)"/><path fill="#f7e7b8" d="M32.396 21.953a10.75 10.75 0 0 0-.896 4.297A10.75 10.75 0 0 0 42.25 37a10.75 10.75 0 0 0 6.449-2.15 9.75 9.75 0 0 0-9.45-7.35 9.8 9.8 0 0 0-2.093.226 10.75 10.75 0 0 0-4.76-5.773" filter="url(#h)" style="mix-blend-mode:normal"/><g filter="url(#i)" style="mix-blend-mode:normal" transform="scale(3.7796)"><path fill="url(#j)" d="M5.36 1.058c-1.53 0-2.577.457-3.26 1.2-.678.74-1.042 1.8-1.042 3.001v6.415c0 1.2.364 2.26 1.043 3 .682.744 1.73 1.2 3.26 1.2h6.23c1.53 0 2.577-.456 3.26-1.2.678-.739 1.024-1.702 1.024-3V5.5c0-1.57-.346-2.502-1.024-3.242-.683-.743-1.73-1.2-3.26-1.2H6.745zm0 .264h6.232c1.477 0 2.437.432 3.064 1.116.634.69.954 1.53.954 3.062v6.174c0 1.251-.322 2.134-.954 2.822-.627.684-1.587 1.114-3.064 1.114H5.359c-1.477 0-2.437-.43-3.064-1.114-.625-.682-.973-1.675-.973-2.822V5.26c0-1.148.348-2.14.973-2.822.627-.684 1.587-1.116 3.064-1.116"/><path fill="url(#k)" d="M5.36 1.058c-1.53 0-2.577.457-3.26 1.2-.678.74-1.042 1.8-1.042 3.001v6.415c0 1.2.364 2.26 1.043 3 .682.744 1.73 1.2 3.26 1.2h6.23c1.53 0 2.577-.456 3.26-1.2.678-.739 1.024-1.702 1.024-3V5.5c0-1.57-.346-2.502-1.024-3.242-.683-.743-1.73-1.2-3.26-1.2H6.745zm0 .264h6.232c1.477 0 2.437.432 3.064 1.116.634.69.954 1.53.954 3.062v6.174c0 1.251-.322 2.134-.954 2.822-.627.684-1.587 1.114-3.064 1.114H5.359c-1.477 0-2.437-.43-3.064-1.114-.625-.682-.973-1.675-.973-2.822V5.26c0-1.148.348-2.14.973-2.822.627-.684 1.587-1.116 3.064-1.116"/></g></svg>