<svg xmlns="http://www.w3.org/2000/svg" width="64" height="64" viewBox="0 0 16.933 16.933"><defs><linearGradient id="b" x1="8.466" x2="8.466" y1="1.058" y2="15.875" gradientUnits="userSpaceOnUse"><stop offset="0" stop-color="#02c5fd"/><stop offset="1" stop-color="#2f71f9"/></linearGradient><linearGradient id="d" x1="8.466" x2="8.466" y1="5.292" y2="12.171" gradientUnits="userSpaceOnUse"><stop offset="0" stop-color="#c4d8ec"/><stop offset="1" stop-color="#4b90e9"/></linearGradient><linearGradient id="j" x1="8.467" x2="8.467" y1="4.762" y2="9.528" gradientUnits="userSpaceOnUse"><stop offset="0" stop-color="#fff"/><stop offset="1" stop-color="#bdd0ea"/></linearGradient><linearGradient id="g" x1="8.467" x2="8.467" y1="8.406" y2="12.171" gradientUnits="userSpaceOnUse"><stop offset="0" stop-color="#d9e7f6"/><stop offset="1" stop-color="#99bff2"/></linearGradient><linearGradient id="e" x1="2.91" x2="14.023" y1="8.466" y2="8.466" gradientUnits="userSpaceOnUse"><stop offset="0" stop-color="#c2f5fe"/><stop offset="1" stop-color="#91c3f8"/></linearGradient><linearGradient id="h" x1="5.307" x2="14.134" y1="9.697" y2="12.282" gradientUnits="userSpaceOnUse"><stop offset="0" stop-color="#fff"/><stop offset="1" stop-color="#fff" stop-opacity=".5"/></linearGradient><linearGradient id="a" x1="8.467" x2="8.467" y1="4.762" y2="9.79" gradientUnits="userSpaceOnUse"><stop offset="0" stop-color="#fff"/><stop offset="1" stop-color="#dae6f3"/></linearGradient><filter id="n" width="1.024" height="1.024" x="-.012" y="-.012" color-interpolation-filters="sRGB"><feGaussianBlur stdDeviation=".074"/></filter><filter id="f" width="1.02" height="1.03" x="-.01" y="-.015" color-interpolation-filters="sRGB"><feGaussianBlur stdDeviation=".046"/></filter><filter id="i" width="1.018" height="1.037" x="-.009" y="-.018" color-interpolation-filters="sRGB"><feGaussianBlur stdDeviation=".039"/></filter><filter id="k" width="1.026" height="1.053" x="-.013" y="-.027" color-interpolation-filters="sRGB"><feGaussianBlur stdDeviation=".056"/></filter><filter id="m" width="1.16" height="1.333" x="-.08" y="-.166" color-interpolation-filters="sRGB"><feGaussianBlur stdDeviation=".349"/></filter><filter id="c" width="1.18" height="1.27" x="-.09" y="-.135" color-interpolation-filters="sRGB"><feGaussianBlur stdDeviation=".417"/></filter><clipPath id="l"><path fill="url(#a)" stroke-width="1.112" d="M4.104 4.762a1.197 1.197 0 0 0-.87.376L7.38 9.334a1.533 1.55 0 0 0 2.172 0L13.7 5.139a1.2 1.2 0 0 0-.871-.377z"/></clipPath></defs><path fill="url(#b)" d="M5.36 1.058c-1.53 0-2.577.457-3.26 1.2-.678.74-1.042 1.8-1.042 3v6.416c0 1.2.364 2.261 1.042 3.001.683.744 1.73 1.2 3.26 1.2h6.23c1.53 0 2.579-.456 3.26-1.2.68-.74 1.025-1.703 1.025-3V5.5c0-1.57-.345-2.502-1.024-3.242-.682-.743-1.73-1.2-3.26-1.2H6.745z"/><rect width="11.112" height="7.408" x="3.233" y="5.138" filter="url(#c)" opacity=".15" rx="1.199" ry="1.19"/><rect width="11.112" height="7.408" x="2.91" y="4.762" fill="url(#d)" rx="1.199" ry="1.19"/><path fill="url(#e)" d="M4.11 4.762c-.665 0-1.2.53-1.2 1.19v5.03c0 .658.535 1.189 1.2 1.189h8.714c.664 0 1.199-.53 1.199-1.19V5.952c0-.66-.535-1.19-1.2-1.19zm0 .265h8.714a.92.92 0 0 1 .934.924v5.03c0 .516-.41.925-.934.925H4.11a.92.92 0 0 1-.933-.925V5.95a.92.92 0 0 1 .933-.924" filter="url(#f)" style="mix-blend-mode:normal"/><path fill="url(#g)" d="M4.104 12.171q-.062 0-.123-.007a1.2 1.2 0 0 1-.748-.369L7.381 7.6a1.533 1.55 0 0 1 2.172 0l4.147 4.195a1.2 1.2 0 0 1-.871.376z"/><path fill="url(#h)" d="M8.467 7.144a1.533 1.55 0 0 0-1.086.455l-4.148 4.196a1.2 1.2 0 0 0 .871.376h8.725a1.2 1.2 0 0 0 .871-.377L9.553 7.6a1.533 1.55 0 0 0-1.086-.455m0 .262c.324 0 .649.126.898.379l3.89 3.938c-.135.077-.256.182-.427.183H4.103a1 1 0 0 1-.095-.006c-.135-.014-.23-.104-.34-.168L7.57 7.785c.25-.253.573-.379.897-.379" filter="url(#i)"/><path fill="url(#j)" d="M4.104 4.762q-.062 0-.123.007c-.294.03-.556.166-.748.37l4.148 4.195a1.533 1.55 0 0 0 2.172 0L13.7 5.139a1.2 1.2 0 0 0-.871-.377z"/><path fill="#fff" d="M4.104 4.762a1.197 1.197 0 0 0-.87.376L7.38 9.334a1.533 1.55 0 0 0 2.172 0L13.7 5.139a1.2 1.2 0 0 0-.871-.377zm0 .265h8.724c.17.001.292.106.428.184l-3.89 3.938a1.25 1.25 0 0 1-1.795 0L3.668 5.2c.11-.064.205-.154.34-.168a1 1 0 0 1 .096-.005" filter="url(#k)"/><path fill="#fff" d="M4.104 12.171q-.062 0-.123-.007a1.2 1.2 0 0 1-.748-.369L7.381 7.6a1.533 1.55 0 0 1 2.172 0l4.147 4.195a1.2 1.2 0 0 1-.871.376z" clip-path="url(#l)" filter="url(#m)" opacity=".68"/><path fill="#dce7ef" d="m5.748 5.812.112-.31h.046l.114.31h-.042l-.03-.087H5.82l-.03.087zm.084-.121h.103l-.022-.063L5.9 5.59l-.017-.056-.017.057-.012.037zm.231.207V5.58H6.1v.037h.004l.011-.016q.008-.01.02-.017.014-.007.037-.007.029 0 .05.014.023.015.035.042t.013.063q0 .037-.012.064t-.035.042-.051.015q-.022 0-.036-.008-.013-.007-.02-.017l-.012-.016h-.002v.122zm.102-.115q.022 0 .037-.011.014-.012.022-.032t.007-.044-.007-.043q-.008-.02-.022-.031-.015-.012-.037-.012-.032 0-.048.024-.017.024-.017.062 0 .039.017.063t.048.024m.158.115V5.58h.036v.037h.005l.01-.016q.008-.01.02-.017.014-.007.037-.007.029 0 .05.014.023.015.035.042t.013.063q0 .037-.012.064t-.035.042-.051.015q-.022 0-.036-.008-.013-.007-.02-.017l-.011-.016H6.36v.122zm.102-.115q.022 0 .037-.011.014-.012.022-.032t.007-.044-.007-.043q-.007-.02-.022-.031-.015-.012-.037-.012-.032 0-.048.024-.017.024-.017.062 0 .039.017.063t.048.024m.196-.28v.309h-.038v-.31zm.163.314q-.034 0-.058-.015-.025-.015-.038-.042t-.013-.062.013-.063.036-.043q.024-.015.055-.015.019 0 .037.006t.032.02.024.036.008.054v.015h-.167q.001.037.02.056.02.02.05.02.021 0 .036-.01.015-.009.022-.026l.036.01q-.008.026-.033.042t-.06.017m-.071-.14h.13q-.003-.03-.02-.048-.015-.019-.044-.019-.02 0-.034.01-.014.009-.023.024t-.009.033m.345.135v-.31h.106q.036 0 .059.014.023.013.035.035.011.022.011.05t-.011.05-.035.036-.06.013h-.066v.112zm.04-.147h.064q.037 0 .052-.018.016-.018.016-.046 0-.027-.016-.045-.015-.019-.052-.019h-.065zm.291.152q-.021 0-.04-.008-.017-.009-.028-.024t-.01-.04q0-.02.007-.032t.021-.02q.014-.006.03-.01l.032-.005.033-.005q.013-.002.02-.005.006-.003.006-.012 0-.022-.012-.034t-.036-.012-.04.01q-.014.011-.019.024l-.036-.012q.009-.021.024-.033t.034-.017.036-.005q.011 0 .026.003t.029.01q.013.01.022.026.01.016.01.043v.153H7.46V5.78h-.003q-.004.008-.012.017-.009.008-.023.014t-.034.006m.007-.033q.02 0 .035-.008t.022-.02q.007-.014.007-.028v-.032l-.01.005-.017.003-.02.003-.014.002q-.013.002-.025.006t-.019.012q-.007.007-.007.02 0 .019.014.028.013.01.034.01m.167.028V5.58H7.6v.036h.003q.006-.018.022-.029.017-.01.038-.01h.019v.038l-.009-.002h-.014q-.025 0-.041.015-.017.015-.017.039v.145zm.258-.232v.032h-.048v.14q0 .015.006.022.007.007.022.007h.008l.01-.002.008.031q-.006.003-.013.004H7.8q-.03 0-.047-.015-.017-.016-.017-.045v-.142H7.7V5.58h.035v-.055h.037v.055zm.297.236q-.04 0-.071-.02-.031-.019-.049-.054-.017-.036-.017-.085t.017-.084.049-.055q.031-.02.07-.02.032 0 .058.013t.044.034.023.055h-.04q-.003-.021-.016-.036t-.03-.021q-.018-.008-.038-.008-.028 0-.05.014t-.036.042-.013.066.013.067.036.041.05.014q.02 0 .038-.007.017-.008.03-.022.013-.015.017-.036h.04q-.006.032-.024.055-.017.022-.043.035-.027.012-.058.012m.245.001q-.022 0-.04-.008t-.028-.024-.01-.04q0-.02.007-.032t.021-.02q.013-.006.03-.01l.031-.005.034-.005q.013-.002.02-.005.006-.003.006-.012 0-.022-.012-.034t-.037-.012-.039.01q-.014.011-.02.024l-.035-.012q.009-.021.024-.033t.033-.017.036-.005q.012 0 .027.003t.028.01q.014.01.023.025.01.017.01.044v.153h-.037V5.78h-.003q-.004.008-.013.017-.008.008-.022.014t-.034.006m.007-.033q.02 0 .035-.008t.021-.02q.008-.014.008-.028v-.032l-.01.005-.018.003-.019.003-.014.002q-.014.002-.026.006t-.018.012q-.007.007-.007.02 0 .019.013.028.014.01.035.01m.204-.281v.309h-.037v-.31zm.103 0v.309H8.64v-.31zm.16.314q-.032 0-.055-.015-.024-.015-.037-.042t-.014-.063.014-.063.037-.042.055-.015.055.015.038.042.013.063-.013.063-.038.042-.055.015m0-.034q.023 0 .038-.012t.023-.031.007-.043-.007-.043-.023-.031-.038-.013-.038.013-.022.031-.008.043.008.043.022.031.038.012m.16.029V5.58h.036v.036h.003q.006-.018.023-.029.016-.01.037-.01h.019v.038l-.009-.002h-.014q-.025 0-.041.015t-.016.039v.145zm.167 0V5.58H9.2v.036h.002q.007-.018.023-.029.017-.01.037-.01h.02v.038l-.009-.002h-.014q-.025 0-.042.015-.016.015-.016.039v.145zm.164 0V5.58h.037v.232zm.019-.27q-.01 0-.019-.007-.007-.008-.007-.018t.007-.017q.008-.007.019-.007t.018.007.008.017-.008.018-.018.007m.149.275q-.022 0-.04-.008t-.029-.024-.01-.04q0-.02.007-.032t.021-.02q.014-.006.03-.01l.032-.005.034-.005q.014-.002.019-.005.006-.003.006-.012 0-.022-.012-.034t-.036-.012-.04.01q-.014.011-.019.024l-.036-.012q.01-.021.024-.033t.034-.017q.018-.005.036-.005.011 0 .026.003t.029.01q.014.01.022.025.01.017.01.044v.153h-.037V5.78h-.003q-.004.008-.012.017-.009.008-.023.014t-.033.006m.006-.033q.02 0 .035-.008t.022-.02q.007-.014.007-.028v-.032l-.01.005-.017.003-.02.003-.014.002q-.013.002-.025.006t-.019.012q-.007.007-.007.02 0 .019.014.028.013.01.034.01m.388.032q-.052 0-.08-.042-.029-.041-.029-.117 0-.075.029-.117.029-.041.08-.041t.08.041.028.117q0 .076-.028.117t-.08.042m0-.035q.034 0 .052-.032.019-.033.019-.092t-.019-.091-.052-.033-.052.033q-.019.032-.019.091 0 .06.019.092.018.032.052.032m.257.035q-.027 0-.048-.01-.022-.012-.035-.03-.013-.019-.014-.042h.039q.001.02.018.034.017.013.04.013.02 0 .034-.009t.023-.024.008-.034q0-.02-.009-.036t-.024-.025-.034-.009q-.014 0-.03.005-.014.004-.023.011l-.037-.004.018-.153h.163v.034h-.13l-.01.09h.002q.01-.007.024-.012.014-.006.03-.006.029 0 .05.014.023.013.036.037.013.023.013.053t-.014.053-.036.037q-.024.013-.054.013m.263 0q-.052 0-.08-.042-.029-.041-.029-.117 0-.075.029-.117.029-.041.08-.041t.08.041.028.117q0 .076-.028.117t-.08.042m0-.035q.034 0 .052-.032.018-.033.018-.092t-.018-.091-.052-.033-.053.033-.018.091.018.092.053.032m.27-.278v.309h-.04v-.273h-.002l-.074.056v-.043l.067-.05zm.061.246v-.032l.136-.214h.048v.211h.041v.035h-.041v.063h-.038v-.063zm.146-.035v-.162h-.003l-.1.16v.002z"/><g fill="#50effe" filter="url(#n)" opacity=".65" style="mix-blend-mode:normal"><path d="M5.36 1.058c-1.53 0-2.577.457-3.26 1.2-.678.74-1.042 1.8-1.042 3.001v6.415c0 1.2.364 2.26 1.043 3 .682.744 1.73 1.2 3.26 1.2h6.23c1.53 0 2.577-.456 3.26-1.2.678-.739 1.024-1.702 1.024-3V5.5c0-1.57-.346-2.502-1.024-3.242-.683-.743-1.73-1.2-3.26-1.2H6.745zm0 .264h6.232c1.477 0 2.437.432 3.064 1.116.634.69.954 1.53.954 3.062v6.174c0 1.251-.322 2.134-.954 2.822-.627.684-1.587 1.114-3.064 1.114H5.359c-1.477 0-2.437-.43-3.064-1.114-.625-.682-.973-1.675-.973-2.822V5.26c0-1.148.348-2.14.973-2.822.627-.684 1.587-1.116 3.064-1.116" opacity=".8"/><path d="M5.36 1.058c-1.53 0-2.577.457-3.26 1.2-.678.74-1.042 1.8-1.042 3.001v6.415c0 1.2.364 2.26 1.043 3 .682.744 1.73 1.2 3.26 1.2h6.23c1.53 0 2.577-.456 3.26-1.2.678-.739 1.024-1.702 1.024-3V5.5c0-1.57-.346-2.502-1.024-3.242-.683-.743-1.73-1.2-3.26-1.2H6.745zm0 .264h6.232c1.477 0 2.437.432 3.064 1.116.634.69.954 1.53.954 3.062v6.174c0 1.251-.322 2.134-.954 2.822-.627.684-1.587 1.114-3.064 1.114H5.359c-1.477 0-2.437-.43-3.064-1.114-.625-.682-.973-1.675-.973-2.822V5.26c0-1.148.348-2.14.973-2.822.627-.684 1.587-1.116 3.064-1.116" opacity=".8"/></g></svg>