<svg xmlns="http://www.w3.org/2000/svg" xmlns:xlink="http://www.w3.org/1999/xlink" width="64" height="64"><defs><linearGradient id="a"><stop offset="0" stop-color="#fff"/><stop offset="1" stop-color="#fff" stop-opacity="0"/></linearGradient><linearGradient xlink:href="#a" id="d" x1="2.598" x2="10.583" y1="2.836" y2="11.312" gradientUnits="userSpaceOnUse"/><linearGradient xlink:href="#a" id="e" x1="15.081" x2="12.7" y1="14.816" y2="12.171" gradientUnits="userSpaceOnUse"/><linearGradient id="b" x1="8.466" x2="8.466" y1="1.058" y2="15.875" gradientTransform="scale(3.7796)" gradientUnits="userSpaceOnUse"><stop offset="0" stop-color="#323131"/><stop offset="1" stop-color="#141414"/></linearGradient><linearGradient id="k" x1="14" x2="50" y1="32" y2="32" gradientUnits="userSpaceOnUse"><stop offset="0" stop-color="#fa6f58"/><stop offset="1" stop-color="#f95946"/></linearGradient><linearGradient id="j" x1="50" x2="14" y1="31" y2="31" gradientUnits="userSpaceOnUse"><stop offset="0" stop-color="#ffb90b"/><stop offset="1" stop-color="#ffd00d"/></linearGradient><linearGradient id="i" x1="49.515" x2="14" y1="24" y2="24" gradientUnits="userSpaceOnUse"><stop offset="0" stop-color="#0796e7"/><stop offset="1" stop-color="#1cabfd"/></linearGradient><linearGradient id="f" x1="32" x2="32" y1="16" y2="37" gradientUnits="userSpaceOnUse"><stop offset="0" stop-color="#dcd8cf"/><stop offset="1" stop-color="#bea397"/></linearGradient><linearGradient id="l" x1="39.17" x2="42.333" y1="33.219" y2="41" gradientUnits="userSpaceOnUse"><stop offset="0" stop-color="#fff"/><stop offset="1" stop-color="#fff" stop-opacity="0"/></linearGradient><linearGradient id="g" x1="14.558" x2="22.572" y1="17.65" y2="35.036" gradientUnits="userSpaceOnUse"><stop offset="0" stop-color="#fff"/><stop offset="1" stop-color="#fff" stop-opacity="0"/></linearGradient><filter id="c" width="1.024" height="1.024" x="-.012" y="-.012" color-interpolation-filters="sRGB"><feGaussianBlur stdDeviation=".074"/></filter><filter id="m" width="1.017" height="1.044" x="-.008" y="-.022" color-interpolation-filters="sRGB"><feGaussianBlur stdDeviation=".145"/></filter><filter id="h" width="1.021" height="1.028" x="-.011" y="-.014" color-interpolation-filters="sRGB"><feGaussianBlur stdDeviation=".185"/></filter><filter id="o" width="1.162" height="1.324" x="-.081" y="-.162" color-interpolation-filters="sRGB"><feGaussianBlur stdDeviation="1.215"/></filter><clipPath id="n"><path fill="#d8d2c9" stroke-linecap="round" stroke-linejoin="round" stroke-width="2" d="M11 32v11c0 2.77 2.23 5 5 5h32c2.77 0 5-2.23 5-5V32h-9c-2.03 0-4.605 0-7.36 3.647-2.308 3.055-6.973 3.055-9.28 0C24.604 32 22.03 32 20 32z" style="paint-order:fill markers stroke"/></clipPath></defs><path fill="url(#b)" d="M20.26 4c-5.782 0-9.743 1.725-12.321 4.535C5.374 11.331 4 15.34 4 19.876v24.248c0 4.538 1.374 8.545 3.939 11.341C10.517 58.275 14.479 60 20.26 60h23.549c5.782 0 9.743-1.724 12.321-4.535C58.695 52.67 60 49.03 60 44.125V20.786c0-5.935-1.305-9.456-3.87-12.252C53.552 5.725 49.59 4 43.809 4H25.494z"/><g filter="url(#c)" opacity=".35" transform="scale(3.7796)"><path fill="url(#d)" d="M5.36 1.058c-1.53 0-2.577.457-3.26 1.2-.678.74-1.042 1.8-1.042 3.001v6.415c0 1.2.364 2.26 1.043 3 .682.744 1.73 1.2 3.26 1.2h6.23c1.53 0 2.577-.456 3.26-1.2.678-.739 1.024-1.702 1.024-3V5.5c0-1.57-.346-2.502-1.024-3.242-.683-.743-1.73-1.2-3.26-1.2H6.745zm0 .264h6.232c1.477 0 2.437.432 3.064 1.116.634.69.954 1.53.954 3.062v6.174c0 1.251-.322 2.134-.954 2.822-.627.684-1.587 1.114-3.064 1.114H5.359c-1.477 0-2.437-.43-3.064-1.114-.625-.682-.973-1.675-.973-2.822V5.26c0-1.148.348-2.14.973-2.822.627-.684 1.587-1.116 3.064-1.116"/><path fill="url(#e)" d="M5.36 1.058c-1.53 0-2.577.457-3.26 1.2-.678.74-1.042 1.8-1.042 3.001v6.415c0 1.2.364 2.26 1.043 3 .682.744 1.73 1.2 3.26 1.2h6.23c1.53 0 2.577-.456 3.26-1.2.678-.739 1.024-1.702 1.024-3V5.5c0-1.57-.346-2.502-1.024-3.242-.683-.743-1.73-1.2-3.26-1.2H6.745zm0 .264h6.232c1.477 0 2.437.432 3.064 1.116.634.69.954 1.53.954 3.062v6.174c0 1.251-.322 2.134-.954 2.822-.627.684-1.587 1.114-3.064 1.114H5.359c-1.477 0-2.437-.43-3.064-1.114-.625-.682-.973-1.675-.973-2.822V5.26c0-1.148.348-2.14.973-2.822.627-.684 1.587-1.116 3.064-1.116"/></g><rect width="42" height="32" x="11" y="16" fill="url(#f)" rx="5" ry="5" style="paint-order:fill markers stroke"/><path fill="url(#g)" d="M16 16c-2.77 0-5 2.23-5 5v22c0 2.77 2.23 5 5 5h32c2.77 0 5-2.23 5-5V21c0-2.77-2.23-5-5-5zm0 .8h32c2.34 0 4.2 1.86 4.2 4.2v22c0 2.34-1.86 4.2-4.2 4.2H16c-2.34 0-4.2-1.86-4.2-4.2V21c0-2.34 1.86-4.2 4.2-4.2" filter="url(#h)" style="paint-order:fill markers stroke"/><rect width="36" height="16" x="14" y="19" fill="url(#i)" rx="2.475" ry="2.475" style="paint-order:fill markers stroke"/><path fill="#fff" d="M16.494 19.422a2.193 2.193 0 0 0-2.193 2.193v13.012c0 1.212.981 2.194 2.193 2.194h31.012a2.193 2.193 0 0 0 2.193-2.194V21.615a2.193 2.193 0 0 0-2.193-2.193zm0 .398h31.012c.997 0 1.795.798 1.795 1.795v13.012c0 .997-.798 1.795-1.795 1.795H16.494a1.787 1.787 0 0 1-1.795-1.795V21.615c0-.997.798-1.795 1.795-1.795" opacity=".5" style="mix-blend-mode:overlay;paint-order:fill markers stroke"/><rect width="36" height="16" x="14" y="23" fill="url(#j)" rx="2.475" ry="2.475" style="paint-order:fill markers stroke"/><path fill="#fff" d="M16.494 23.381a2.193 2.193 0 0 0-2.193 2.193v13.012c0 1.212.981 2.194 2.193 2.194h31.012a2.193 2.193 0 0 0 2.193-2.194V25.574a2.193 2.193 0 0 0-2.193-2.193zm0 .398h31.012c.997 0 1.795.798 1.795 1.795v13.012c0 .997-.798 1.795-1.795 1.795H16.494a1.787 1.787 0 0 1-1.795-1.795V25.574c0-.997.798-1.795 1.795-1.795" opacity=".5" style="mix-blend-mode:overlay;paint-order:fill markers stroke"/><rect width="36" height="18" x="14" y="27" fill="url(#k)" rx="2.475" ry="2.475" style="paint-order:fill markers stroke"/><path fill="#fff" d="M16.494 27.301a2.193 2.193 0 0 0-2.193 2.193v13.012c0 1.212.981 2.194 2.193 2.194h31.012a2.193 2.193 0 0 0 2.193-2.194V29.494a2.193 2.193 0 0 0-2.193-2.193zm0 .398h31.012c.997 0 1.795.798 1.795 1.795v13.012c0 .997-.798 1.795-1.795 1.795H16.494a1.787 1.787 0 0 1-1.795-1.795V29.494c0-.997.798-1.795 1.795-1.795" opacity=".5" style="mix-blend-mode:overlay;paint-order:fill markers stroke"/><path fill="#d8d2c9" d="M11 32v11c0 2.77 2.23 5 5 5h32c2.77 0 5-2.23 5-5V32h-9c-2.03 0-4.605 0-7.36 3.647-2.308 3.055-6.973 3.055-9.28 0C24.604 32 22.03 32 20 32z" style="paint-order:fill markers stroke"/><path fill="url(#l)" d="M11 32v11c0 2.77 2.23 5 5 5h32c2.77 0 5-2.23 5-5V32h-9c-2.03 0-4.605 0-7.36 3.647-2.308 3.055-6.973 3.055-9.28 0C24.604 32 22.03 32 20 32zm.8.8H20c2.03 0 4.111-.126 6.72 3.329 2.621 3.47 7.939 3.47 10.56 0C39.89 32.674 41.97 32.8 44 32.8h8.2V43c0 2.34-1.859 4.199-4.2 4.199H16c-2.34 0-4.199-1.859-4.199-4.2V32.802z" filter="url(#m)" style="paint-order:fill markers stroke"/><rect width="36" height="18" x="14" y="27" fill="url(#k)" clip-path="url(#n)" filter="url(#o)" opacity=".15" rx="2.475" ry="2.475" style="paint-order:fill markers stroke"/></svg>