<svg xmlns="http://www.w3.org/2000/svg" width="64" height="64"><defs><linearGradient id="a" x1="8.466" x2="8.466" y1="1.058" y2="15.875" gradientTransform="scale(3.7796)" gradientUnits="userSpaceOnUse"><stop offset="0" stop-color="#0ffb41"/><stop offset="1" stop-color="#00d601"/></linearGradient><linearGradient id="c" x1="26" x2="50" y1="18" y2="37.5" gradientUnits="userSpaceOnUse"><stop offset="0" stop-color="#fff"/><stop offset="1" stop-color="#a2fda7"/></linearGradient><linearGradient id="e" x1="6.745" x2="10.583" y1="1.058" y2="11.312" gradientUnits="userSpaceOnUse"><stop offset="0" stop-color="#fff"/><stop offset="1" stop-color="#fff" stop-opacity="0"/></linearGradient><linearGradient id="f" x1="15.081" x2="13.229" y1="14.816" y2="1.323" gradientUnits="userSpaceOnUse"><stop offset="0" stop-color="#00fb04"/><stop offset="1" stop-color="#1dff7b"/></linearGradient><filter id="d" width="1.024" height="1.024" x="-.012" y="-.012" color-interpolation-filters="sRGB"><feGaussianBlur stdDeviation=".074"/></filter><filter id="b" width="1.1" height="1.092" x="-.05" y="-.046" color-interpolation-filters="sRGB"><feGaussianBlur stdDeviation=".77"/></filter></defs><path fill="url(#a)" d="M20.26 4c-5.782 0-9.743 1.725-12.321 4.535C5.374 11.331 4 15.34 4 19.876v24.248c0 4.538 1.374 8.545 3.939 11.341C10.517 58.275 14.479 60 20.26 60h23.549c5.782 0 9.743-1.724 12.321-4.535C58.695 52.67 60 49.03 60 44.125V20.786c0-5.935-1.305-9.456-3.87-12.252C53.552 5.725 49.59 4 43.809 4H25.494z"/><path d="M36 13.5c-.822 0-1.5.678-1.5 1.5v37c0 .822.678 1.5 1.5 1.5h4c.822 0 1.5-.678 1.5-1.5V15c0-.822-.678-1.5-1.5-1.5zm10 10c-.822 0-1.5.678-1.5 1.5v27c0 .822.678 1.5 1.5 1.5h4c.822 0 1.5-.678 1.5-1.5V25c0-.822-.678-1.5-1.5-1.5zm-20 8c-.822 0-1.5.678-1.5 1.5v19c0 .822.678 1.5 1.5 1.5h4c.822 0 1.5-.678 1.5-1.5V33c0-.822-.678-1.5-1.5-1.5zm-10 10c-.822 0-1.5.678-1.5 1.5v9c0 .822.678 1.5 1.5 1.5h4c.822 0 1.5-.678 1.5-1.5v-9c0-.822-.678-1.5-1.5-1.5z" filter="url(#b)" opacity=".1" style="paint-order:fill markers stroke"/><path fill="#cbfed3" stroke="url(#c)" stroke-linecap="round" stroke-linejoin="round" d="M35 13c-.554 0-1 .446-1 1v37c0 .554.446 1 1 1h4c.554 0 1-.446 1-1V14c0-.554-.446-1-1-1zm10 10c-.554 0-1 .446-1 1v27c0 .554.446 1 1 1h4c.554 0 1-.446 1-1V24c0-.554-.446-1-1-1zm-20 8c-.554 0-1 .446-1 1v19c0 .554.446 1 1 1h4c.554 0 1-.446 1-1V32c0-.554-.446-1-1-1zM15 41c-.554 0-1 .446-1 1v9c0 .554.446 1 1 1h4c.554 0 1-.446 1-1v-9c0-.554-.446-1-1-1z" style="paint-order:fill markers stroke"/><g filter="url(#d)" style="mix-blend-mode:overlay" transform="scale(3.7796)"><path fill="url(#e)" d="M5.36 1.058c-1.53 0-2.577.457-3.26 1.2-.678.74-1.042 1.8-1.042 3.001v6.415c0 1.2.364 2.26 1.043 3 .682.744 1.73 1.2 3.26 1.2h6.23c1.53 0 2.577-.456 3.26-1.2.678-.739 1.024-1.702 1.024-3V5.5c0-1.57-.346-2.502-1.024-3.242-.683-.743-1.73-1.2-3.26-1.2H6.745zm0 .264h6.232c1.477 0 2.437.432 3.064 1.116.634.69.954 1.53.954 3.062v6.174c0 1.251-.322 2.134-.954 2.822-.627.684-1.587 1.114-3.064 1.114H5.359c-1.477 0-2.437-.43-3.064-1.114-.625-.682-.973-1.675-.973-2.822V5.26c0-1.148.348-2.14.973-2.822.627-.684 1.587-1.116 3.064-1.116"/><path fill="url(#f)" d="M5.36 1.058c-1.53 0-2.577.457-3.26 1.2-.678.74-1.042 1.8-1.042 3.001v6.415c0 1.2.364 2.26 1.043 3 .682.744 1.73 1.2 3.26 1.2h6.23c1.53 0 2.577-.456 3.26-1.2.678-.739 1.024-1.702 1.024-3V5.5c0-1.57-.346-2.502-1.024-3.242-.683-.743-1.73-1.2-3.26-1.2H6.745zm0 .264h6.232c1.477 0 2.437.432 3.064 1.116.634.69.954 1.53.954 3.062v6.174c0 1.251-.322 2.134-.954 2.822-.627.684-1.587 1.114-3.064 1.114H5.359c-1.477 0-2.437-.43-3.064-1.114-.625-.682-.973-1.675-.973-2.822V5.26c0-1.148.348-2.14.973-2.822.627-.684 1.587-1.116 3.064-1.116"/></g></svg>