<svg xmlns="http://www.w3.org/2000/svg" width="64" height="64"><defs><linearGradient id="a" x1="8.466" x2="8.466" y1="1.058" y2="15.875" gradientTransform="scale(3.7796)" gradientUnits="userSpaceOnUse"><stop offset="0" stop-color="#02c5fd"/><stop offset="1" stop-color="#2f71f9"/></linearGradient><linearGradient id="d" x1="32" x2="32" y1="50" y2="52.5" gradientUnits="userSpaceOnUse"><stop offset="0" stop-color="#c6faff"/><stop offset="1" stop-color="#fff" stop-opacity="0"/></linearGradient><linearGradient id="c" x1="32" x2="32" y1="11.791" y2="29.104" gradientUnits="userSpaceOnUse"><stop offset="0" stop-color="#fff"/><stop offset="1" stop-color="#b6e4ff"/></linearGradient><linearGradient id="e" x1="32" x2="32" y1="11.791" y2="29.104" gradientUnits="userSpaceOnUse"><stop offset="0" stop-color="#fff"/><stop offset="1" stop-color="#cff8ff"/></linearGradient><linearGradient id="g" x1="6.745" x2="10.583" y1="1.058" y2="11.312" gradientUnits="userSpaceOnUse"><stop offset="0" stop-color="#08faff"/><stop offset="1" stop-color="#4edbfe" stop-opacity="0"/></linearGradient><linearGradient id="h" x1="15.081" x2="12.7" y1="14.816" y2="12.171" gradientUnits="userSpaceOnUse"><stop offset="0" stop-color="#4edbfe"/><stop offset="1" stop-color="#4edbfe" stop-opacity="0"/></linearGradient><filter id="f" width="1.024" height="1.024" x="-.012" y="-.012" color-interpolation-filters="sRGB"><feGaussianBlur stdDeviation=".074"/></filter><filter id="b" width="1.328" height="1.267" x="-.164" y="-.133" color-interpolation-filters="sRGB"><feGaussianBlur stdDeviation="2.262"/></filter></defs><path fill="url(#a)" d="M20.26 4c-5.782 0-9.743 1.725-12.321 4.535C5.374 11.331 4 15.34 4 19.876v24.248c0 4.538 1.374 8.545 3.939 11.341C10.517 58.275 14.479 60 20.26 60h23.549c5.782 0 9.743-1.724 12.321-4.535C58.695 52.67 60 49.03 60 44.125V20.786c0-5.935-1.305-9.456-3.87-12.252C53.552 5.725 49.59 4 43.809 4H25.494z"/><path d="M19.594 12.249a2 2 0 0 0-1.975 1.68L15.453 27.24a2 2 0 0 0 1.975 2.32H30.75v20.896H24.5c-.692 0-1.25.558-1.25 1.25s.558 1.25 1.25 1.25h15c.693 0 1.25-.557 1.25-1.25s-.557-1.25-1.25-1.25h-6.25V29.561h13.322a2 2 0 0 0 1.979-2.293l-1.979-13.312a2 2 0 0 0-1.978-1.707z" filter="url(#b)" opacity=".1" style="mix-blend-mode:overlay;paint-order:fill markers stroke"/><path fill="#95d5ff" d="M30.75 27.958h2.5v23.067h-2.5z" style="paint-order:fill markers stroke"/><path fill="#b1f8ff" d="M30.75 27.959v23.066h.691V27.959z" style="paint-order:fill markers stroke"/><path fill="url(#c)" d="M19.594 11.791a2 2 0 0 0-1.975 1.68l-2.166 13.312a2 2 0 0 0 1.975 2.32h29.145a2 2 0 0 0 1.979-2.293l-1.979-13.312a2 2 0 0 0-1.978-1.707z" style="paint-order:fill markers stroke"/><rect width="17.5" height="2.5" x="23.25" y="50" fill="#95d5ff" rx="1.25" ry="1.25" style="paint-order:fill markers stroke"/><path fill="url(#d)" d="M24.5 50c-.692 0-1.25.558-1.25 1.25s.558 1.25 1.25 1.25h15c.693 0 1.25-.557 1.25-1.25S40.193 50 39.5 50zm0 .5h15c.424 0 .75.326.75.75s-.326.75-.75.75h-15c-.424 0-.75-.326-.75-.75s.326-.75.75-.75" style="mix-blend-mode:overlay;paint-order:fill markers stroke"/><path fill="url(#e)" d="M19.594 11.791a2 2 0 0 0-1.975 1.68l-2.166 13.312a2 2 0 0 0 1.975 2.32h29.145a2 2 0 0 0 1.979-2.293l-1.979-13.312a2 2 0 0 0-1.978-1.707zm0 1h25a.99.99 0 0 1 .99.854l1.979 13.312a.982.982 0 0 1-.99 1.146H17.426a.98.98 0 0 1-.988-1.16l2.166-13.312a.99.99 0 0 1 .988-.84z" style="paint-order:fill markers stroke"/><rect width="25" height="2" x="19.5" y="25" fill="#9cd8ff" rx="1" ry="1" style="paint-order:fill markers stroke"/><g transform="matrix(1.1083 0 0 .93335 54.167 1.272)"><circle cx="-20" cy="18.458" r="5" fill="#62d9ff" style="paint-order:fill markers stroke"/><path fill="#ae498e" d="M-20 13.459a5 5 0 0 0-3.133 1.102L-20 18.459z" style="paint-order:fill markers stroke"/><path fill="#e46067" d="M-23.113 14.546a5 5 0 0 0-1.766 2.812L-20 18.46z" style="paint-order:fill markers stroke"/><path fill="#63bf6d" d="M-15.128 19.586-20 18.459l-3.109 3.916a5 5 0 0 0 3.098 1.083v.002l.014-.001.025.002v-.002a5 5 0 0 0 3.063-1.07l.01-.01.023-.014v-.002a5 5 0 0 0 1.748-2.777" style="paint-order:fill markers stroke"/><path fill="#eda13b" d="M-24.869 17.321a5 5 0 0 0 .36 3.301L-20 18.46z" style="paint-order:fill markers stroke"/><path fill="#e2ca73" d="M-24.526 20.584a5 5 0 0 0 2.329 2.367L-20 18.46z" style="paint-order:fill markers stroke"/></g><g filter="url(#f)" style="mix-blend-mode:normal" transform="scale(3.7796)"><path fill="url(#g)" d="M5.36 1.058c-1.53 0-2.577.457-3.26 1.2-.678.74-1.042 1.8-1.042 3.001v6.415c0 1.2.364 2.26 1.043 3 .682.744 1.73 1.2 3.26 1.2h6.23c1.53 0 2.577-.456 3.26-1.2.678-.739 1.024-1.702 1.024-3V5.5c0-1.57-.346-2.502-1.024-3.242-.683-.743-1.73-1.2-3.26-1.2H6.745zm0 .264h6.232c1.477 0 2.437.432 3.064 1.116.634.69.954 1.53.954 3.062v6.174c0 1.251-.322 2.134-.954 2.822-.627.684-1.587 1.114-3.064 1.114H5.359c-1.477 0-2.437-.43-3.064-1.114-.625-.682-.973-1.675-.973-2.822V5.26c0-1.148.348-2.14.973-2.822.627-.684 1.587-1.116 3.064-1.116"/><path fill="url(#h)" d="M5.36 1.058c-1.53 0-2.577.457-3.26 1.2-.678.74-1.042 1.8-1.042 3.001v6.415c0 1.2.364 2.26 1.043 3 .682.744 1.73 1.2 3.26 1.2h6.23c1.53 0 2.577-.456 3.26-1.2.678-.739 1.024-1.702 1.024-3V5.5c0-1.57-.346-2.502-1.024-3.242-.683-.743-1.73-1.2-3.26-1.2H6.745zm0 .264h6.232c1.477 0 2.437.432 3.064 1.116.634.69.954 1.53.954 3.062v6.174c0 1.251-.322 2.134-.954 2.822-.627.684-1.587 1.114-3.064 1.114H5.359c-1.477 0-2.437-.43-3.064-1.114-.625-.682-.973-1.675-.973-2.822V5.26c0-1.148.348-2.14.973-2.822.627-.684 1.587-1.116 3.064-1.116"/></g></svg>