<svg xmlns="http://www.w3.org/2000/svg" xmlns:xlink="http://www.w3.org/1999/xlink" width="64" height="64"><defs><linearGradient id="a"><stop offset="0" stop-color="#666"/><stop offset="1" stop-color="#333"/></linearGradient><linearGradient xlink:href="#a" id="g" x1="195.75" x2="195.75" y1="1016.2" y2="1032.2" gradientTransform="translate(-211.12 -1249.1)scale(1.25)" gradientUnits="userSpaceOnUse"/><linearGradient xlink:href="#a" id="h" x1="195.75" x2="195.75" y1="1016.2" y2="1032.2" gradientTransform="matrix(-1.25 0 0 1.25 282.62 -1249.7)" gradientUnits="userSpaceOnUse"/><linearGradient xlink:href="#a" id="f" x1="3716.2" x2="3716.2" y1="683.98" y2="705.13" gradientTransform="matrix(.99459 0 0 1 20.039 -.13)" gradientUnits="userSpaceOnUse"/><linearGradient id="b" x1="8.466" x2="8.466" y1="1.058" y2="15.875" gradientTransform="scale(3.7796)" gradientUnits="userSpaceOnUse"><stop offset="0" stop-color="#fff"/><stop offset="1" stop-color="#ececec"/></linearGradient><filter id="d" width="1.106" height="1.141" x="-.053" y="-.069" color-interpolation-filters="sRGB"><feGaussianBlur stdDeviation=".405"/></filter><filter id="c" width="1.024" height="1.024" x="-.012" y="-.012" color-interpolation-filters="sRGB"><feGaussianBlur stdDeviation=".074"/></filter></defs><path fill="url(#b)" d="M20.26 4c-5.782 0-9.743 1.725-12.321 4.535C5.374 11.331 4 15.34 4 19.876v24.248c0 4.538 1.374 8.545 3.939 11.341C10.517 58.275 14.479 60 20.26 60h23.549c5.782 0 9.743-1.724 12.321-4.535C58.695 52.67 60 49.03 60 44.125V20.786c0-5.935-1.305-9.456-3.87-12.252C53.552 5.725 49.59 4 43.809 4H25.494z"/><rect width="42" height="42" x="11" y="11" fill="#fff" rx="9.825" ry="9.825"/><path fill="#fff" d="M5.36 1.058c-1.53 0-2.577.457-3.26 1.2-.678.74-1.042 1.8-1.042 3.001v6.415c0 1.2.364 2.26 1.043 3 .682.744 1.73 1.2 3.26 1.2h6.23c1.53 0 2.577-.456 3.26-1.2.678-.739 1.024-1.702 1.024-3V5.5c0-1.57-.346-2.502-1.024-3.242-.683-.743-1.73-1.2-3.26-1.2H6.745zm0 .264h6.232c1.477 0 2.437.432 3.064 1.116.634.69.954 1.53.954 3.062v6.174c0 1.251-.322 2.134-.954 2.822-.627.684-1.587 1.114-3.064 1.114H5.359c-1.477 0-2.437-.43-3.064-1.114-.625-.682-.973-1.675-.973-2.822V5.26c0-1.148.348-2.14.973-2.822.627-.684 1.587-1.116 3.064-1.116" filter="url(#c)" transform="scale(3.7796)"/><g stroke-width=".8"><g fill="#f09e6f"><path d="M17 43h30v1H17zm0-23h30v1H17z"/><path d="M20 18v28h-1V18zm25 0v28h-1V18z"/></g><g filter="url(#d)" opacity=".25" transform="translate(-4505.5 1115.3)scale(1.25)"><path d="M3638.7-873.87v3h-1.492v-1.4h-9.25l-2.088 12.4h-2.387l-1.99-6.3h-1.193v-1.7h2.487l1.74 5 1.74-11"/><path stroke="#000" stroke-linecap="round" stroke-linejoin="round" stroke-width="1.6" d="m3637-867.64-7 7m0-7 7 7"/></g><path fill="url(#f)" d="M3724.9 691.66v1.994h-.992v-.93h-6.15l-1.388 8.244h-1.587l-1.322-4.189h-.794v-1.13h1.653l1.157 3.324 1.157-7.313" transform="translate(-6960.4 -1277.4)scale(1.8801)"/></g><path fill="none" stroke="url(#g)" stroke-linecap="round" stroke-linejoin="round" stroke-width="2" d="M40.75 30.75 32 39.5"/><path fill="none" stroke="url(#h)" stroke-linecap="round" stroke-linejoin="round" stroke-width="2" d="m32 30.75 8.75 8.75"/></svg>