<svg xmlns="http://www.w3.org/2000/svg" width="64" height="64"><defs><linearGradient id="a" x1="8.466" x2="8.466" y1="1.058" y2="15.875" gradientTransform="scale(3.7796)" gradientUnits="userSpaceOnUse"><stop offset="0" stop-color="#fea024"/><stop offset="1" stop-color="#fc8518"/></linearGradient><linearGradient id="c" x1="-48.886" x2="-48.886" y1="6.096" y2="55.541" gradientTransform="rotate(45 -7.975 129.82)" gradientUnits="userSpaceOnUse"><stop offset="0" stop-color="#faf9f9"/><stop offset="1" stop-color="#fbcfa3"/></linearGradient><linearGradient id="d" x1="28.839" x2="32.375" y1="30.868" y2="36.773" gradientUnits="userSpaceOnUse"><stop offset="0" stop-color="#fffdfb"/><stop offset="1" stop-color="#fdddb8"/></linearGradient><linearGradient id="g" x1="33.7" x2="33.7" y1="49.933" y2="52.126" gradientUnits="userSpaceOnUse"><stop offset="0" stop-color="#fff"/><stop offset="1" stop-color="#fff" stop-opacity=".1"/></linearGradient><linearGradient id="j" x1="15.081" x2="12.013" y1="14.816" y2="11.99" gradientUnits="userSpaceOnUse"><stop offset="0" stop-color="#fed429"/><stop offset="1" stop-color="#fed429" stop-opacity=".3"/></linearGradient><linearGradient id="k" x1="2.438" x2="7.717" y1="1.939" y2="7.784" gradientUnits="userSpaceOnUse"><stop offset="0" stop-color="#fed429"/><stop offset="1" stop-color="#fed429" stop-opacity=".28"/></linearGradient><filter id="e" width="1.375" height="1.242" x="-.188" y="-.121" color-interpolation-filters="sRGB"><feGaussianBlur stdDeviation=".121"/></filter><filter id="f" width="1.294" height="1.294" x="-.147" y="-.147" color-interpolation-filters="sRGB"><feGaussianBlur stdDeviation=".356"/></filter><filter id="b" width="1.294" height="1.294" x="-.147" y="-.147" color-interpolation-filters="sRGB"><feGaussianBlur stdDeviation="2.224"/></filter><filter id="h" width="1.013" height="1.223" x="-.006" y="-.112" color-interpolation-filters="sRGB"><feGaussianBlur stdDeviation=".083"/></filter><filter id="i" width="1.024" height="1.024" x="-.012" y="-.012" color-interpolation-filters="sRGB"><feGaussianBlur stdDeviation=".074"/></filter></defs><path fill="url(#a)" d="M20.26 4c-5.782 0-9.743 1.725-12.321 4.535C5.374 11.331 4 15.34 4 19.876v24.248c0 4.538 1.374 8.545 3.939 11.341C10.517 58.275 14.479 60 20.26 60h23.549c5.782 0 9.743-1.724 12.321-4.535C58.695 52.67 60 49.03 60 44.125V20.786c0-5.935-1.305-9.456-3.87-12.252C53.552 5.725 49.59 4 43.809 4H25.494z"/><path d="M51.233 14.322c-.287-.286-.649-.563-1.081-.592-3.218-.222-6.935 3.627-10.96 7.383a1402 1402 0 0 0-7.716 7.257v1.414l4.404 4.405h1.414s3.504-3.692 7.258-7.716c3.755-4.026 7.605-7.742 7.384-10.96-.05-.5-.43-.92-.703-1.191zM30.061 31.199 19.454 41.806c-4.626 4.626-3.757 6.908-3.757 6.908l1.253 1.253s2.282.869 6.908-3.757l10.607-10.607z" filter="url(#b)" opacity=".1" style="mix-blend-mode:overlay"/><path fill="url(#c)" d="M50.526 13.35c-.287-.286-.649-.563-1.081-.592-3.218-.222-6.935 3.627-10.96 7.383a1402 1402 0 0 0-7.716 7.257v1.414l4.404 4.405h1.414s3.504-3.692 7.258-7.716c3.755-4.026 7.605-7.742 7.384-10.96-.05-.5-.43-.92-.703-1.191zM29.354 30.227 18.747 40.834c-4.626 4.626-3.756 6.908-3.756 6.908l1.252 1.253s2.283.869 6.908-3.757l10.607-10.607z"/><rect width="6.229" height="2" x="42.13" y="-1.383" fill="#fac35e" opacity=".75" rx="0" ry="0" style="paint-order:fill markers stroke" transform="rotate(45)"/><path fill="#fac35e" d="M15.087 47.837s-1.352 1.242-1.341 2.402c1.16.01 2.402-1.341 2.402-1.341l-.61-.61z" opacity=".75" style="paint-order:fill markers stroke"/><path fill="#ffa752" d="m17.908 51.926 30.327-.001c.376 0 1.185-.08 1.256-.922.036-.423-.426-.872-1.026-.87l-21.873.047c-6.12.014-8.684 1.746-8.684 1.746z" opacity=".75" style="paint-order:fill markers stroke"/><path fill="url(#d)" d="M49.445 12.758c-3.217-.221-6.935 3.627-10.961 7.383a1413 1413 0 0 0-7.717 7.258v1.414l4.405 4.404h1.414s3.503-3.693 7.257-7.717c3.756-4.026 7.606-7.74 7.385-10.957-.05-.5-.43-.923-.703-1.193-.287-.286-.647-.562-1.08-.592m-.295.992q.115-.002.227.006c.046.003.224.085.443.303.23.23.395.509.406.57.074 1.184-.652 2.73-1.992 4.48-1.346 1.758-3.232 3.684-5.121 5.71-3.599 3.857-6.692 7.117-6.959 7.398h-.568l-3.819-3.818v-.569c.28-.266 3.54-3.358 7.399-6.957 2.025-1.89 3.95-3.775 5.709-5.12 1.648-1.262 3.12-1.985 4.275-2.003M29.353 30.227 18.748 40.834c-4.626 4.626-3.758 6.908-3.758 6.908l.016.014 1.238 1.238s2.283.87 6.908-3.756l10.605-10.607zm0 1.414 2.99 2.99-9.898 9.9c-2.233 2.233-3.832 3.068-4.781 3.366-.467.147-.771.165-.944.16l-.79-.79c-.005-.173.01-.477.158-.944.298-.95 1.134-2.549 3.367-4.781z" style="paint-order:fill markers stroke"/><path fill="#fff" d="M15.088 47.838s-1.353 1.24-1.342 2.4q.12.002.242-.015c.117-1.004 1.13-2.013 1.305-2.18z" filter="url(#e)" style="mix-blend-mode:overlay;paint-order:fill markers stroke"/><path fill="#fff" d="m30.768 28.812-1.414 1.414 4.404 4.404 1.414-1.414zm.002.707 3.697 3.697-.707.707-3.697-3.697z" filter="url(#f)" style="mix-blend-mode:overlay;paint-order:fill markers stroke"/><path fill="url(#g)" d="m48.465 50.133-21.873.047c-6.105.013-8.67 1.737-8.684 1.746h30.326c.376 0 1.184-.081 1.256-.924.036-.423-.425-.87-1.025-.869zm0 .5c.34 0 .519.28.527.326v.002c-.022.264-.092.3-.234.37-.142.068-.37.095-.523.095h-27.64c1.361-.378 3.269-.74 5.999-.746z" filter="url(#h)" opacity=".5" style="mix-blend-mode:overlay;paint-order:fill markers stroke"/><g filter="url(#i)" opacity=".75" style="mix-blend-mode:overlay" transform="scale(3.7796)"><path fill="url(#j)" d="M5.36 1.058c-1.53 0-2.577.457-3.26 1.2-.678.74-1.042 1.8-1.042 3.001v6.415c0 1.2.364 2.26 1.043 3 .682.744 1.73 1.2 3.26 1.2h6.23c1.53 0 2.577-.456 3.26-1.2.678-.739 1.024-1.702 1.024-3V5.5c0-1.57-.346-2.502-1.024-3.242-.683-.743-1.73-1.2-3.26-1.2H6.745zm0 .264h6.232c1.477 0 2.437.432 3.064 1.116.634.69.954 1.53.954 3.062v6.174c0 1.251-.322 2.134-.954 2.822-.627.684-1.587 1.114-3.064 1.114H5.359c-1.477 0-2.437-.43-3.064-1.114-.625-.682-.973-1.675-.973-2.822V5.26c0-1.148.348-2.14.973-2.822.627-.684 1.587-1.116 3.064-1.116"/><path fill="url(#k)" d="M5.36 1.058c-1.53 0-2.577.457-3.26 1.2-.678.74-1.042 1.8-1.042 3.001v6.415c0 1.2.364 2.26 1.043 3 .682.744 1.73 1.2 3.26 1.2h6.23c1.53 0 2.577-.456 3.26-1.2.678-.739 1.024-1.702 1.024-3V5.5c0-1.57-.346-2.502-1.024-3.242-.683-.743-1.73-1.2-3.26-1.2H6.745zm0 .264h6.232c1.477 0 2.437.432 3.064 1.116.634.69.954 1.53.954 3.062v6.174c0 1.251-.322 2.134-.954 2.822-.627.684-1.587 1.114-3.064 1.114H5.359c-1.477 0-2.437-.43-3.064-1.114-.625-.682-.973-1.675-.973-2.822V5.26c0-1.148.348-2.14.973-2.822.627-.684 1.587-1.116 3.064-1.116"/></g></svg>