<svg xmlns="http://www.w3.org/2000/svg" xmlns:xlink="http://www.w3.org/1999/xlink" width="64" height="64" viewBox="0 0 16.933 16.933"><defs><linearGradient id="g" x1="8.547" x2="8.547" y1="8.202" y2="8.731" gradientUnits="userSpaceOnUse"><stop offset="0" stop-color="#fff"/><stop offset="1" stop-color="#fff" stop-opacity="0"/></linearGradient><linearGradient id="f" x1="5.207" x2="5.207" y1="4.109" y2="7.552" gradientUnits="userSpaceOnUse"><stop offset="0" stop-color="#f9f9f9"/><stop offset="1" stop-color="#c6c6c6"/></linearGradient><linearGradient xlink:href="#a" id="d" x1="2.598" x2="10.583" y1="2.836" y2="11.312" gradientUnits="userSpaceOnUse"/><linearGradient id="a"><stop offset="0" stop-color="#fff"/><stop offset="1" stop-color="#fff" stop-opacity="0"/></linearGradient><linearGradient xlink:href="#a" id="e" x1="15.081" x2="12.7" y1="14.816" y2="12.171" gradientUnits="userSpaceOnUse"/><linearGradient id="b" x1="8.466" x2="8.466" y1="1.058" y2="15.875" gradientUnits="userSpaceOnUse"><stop offset="0" stop-color="#323131"/><stop offset="1" stop-color="#141414"/></linearGradient><linearGradient id="m" x1="-48.492" x2="-48.492" y1="9.589" y2="54.426" gradientTransform="translate(18.956 9.454)scale(.11803)" gradientUnits="userSpaceOnUse"><stop offset="0" stop-color="#f6f6f6"/><stop offset="1" stop-color="#b8b8ba"/></linearGradient><linearGradient id="k" x1="512" x2="512" y1="1.999" y2="1022" gradientTransform="translate(17.991 3.969)" gradientUnits="userSpaceOnUse"><stop offset="0" stop-color="#a9a9af"/><stop offset="1" stop-color="#616065"/></linearGradient><filter id="j" width="1.12" height="1.12" x="-.06" y="-.06" color-interpolation-filters="sRGB"><feGaussianBlur stdDeviation=".65"/></filter><filter id="i" width="1.102" height="1.091" x="-.051" y="-.045" color-interpolation-filters="sRGB"><feGaussianBlur stdDeviation=".058"/></filter><filter id="h" width="1.056" height="1.336" x="-.028" y="-.168" color-interpolation-filters="sRGB"><feGaussianBlur stdDeviation=".037"/></filter><filter id="c" width="1.024" height="1.024" x="-.012" y="-.012" color-interpolation-filters="sRGB"><feGaussianBlur stdDeviation=".074"/></filter><filter id="l" width="1.15" height="1.15" x="-.075" y="-.075" color-interpolation-filters="sRGB"><feGaussianBlur stdDeviation=".165"/></filter></defs><path fill="url(#b)" d="M5.36 1.058c-1.53 0-2.577.457-3.26 1.2-.678.74-1.042 1.8-1.042 3v6.416c0 1.2.364 2.261 1.043 3 .682.744 1.73 1.2 3.26 1.2h6.23c1.53 0 2.578-.456 3.26-1.2.679-.739 1.024-1.702 1.024-3V5.5c0-1.57-.345-2.502-1.024-3.242-.682-.743-1.73-1.2-3.26-1.2H6.745z"/><g filter="url(#c)" opacity=".35"><path fill="url(#d)" d="M5.36 1.058c-1.53 0-2.577.457-3.26 1.2-.678.74-1.042 1.8-1.042 3.001v6.415c0 1.2.364 2.26 1.043 3 .682.744 1.73 1.2 3.26 1.2h6.23c1.53 0 2.577-.456 3.26-1.2.678-.739 1.024-1.702 1.024-3V5.5c0-1.57-.346-2.502-1.024-3.242-.683-.743-1.73-1.2-3.26-1.2H6.745zm0 .264h6.232c1.477 0 2.437.432 3.064 1.116.634.69.954 1.53.954 3.062v6.174c0 1.251-.322 2.134-.954 2.822-.627.684-1.587 1.114-3.064 1.114H5.359c-1.477 0-2.437-.43-3.064-1.114-.625-.682-.973-1.675-.973-2.822V5.26c0-1.148.348-2.14.973-2.822.627-.684 1.587-1.116 3.064-1.116"/><path fill="url(#e)" d="M5.36 1.058c-1.53 0-2.577.457-3.26 1.2-.678.74-1.042 1.8-1.042 3.001v6.415c0 1.2.364 2.26 1.043 3 .682.744 1.73 1.2 3.26 1.2h6.23c1.53 0 2.577-.456 3.26-1.2.678-.739 1.024-1.702 1.024-3V5.5c0-1.57-.346-2.502-1.024-3.242-.683-.743-1.73-1.2-3.26-1.2H6.745zm0 .264h6.232c1.477 0 2.437.432 3.064 1.116.634.69.954 1.53.954 3.062v6.174c0 1.251-.322 2.134-.954 2.822-.627.684-1.587 1.114-3.064 1.114H5.359c-1.477 0-2.437-.43-3.064-1.114-.625-.682-.973-1.675-.973-2.822V5.26c0-1.148.348-2.14.973-2.822.627-.684 1.587-1.116 3.064-1.116"/></g><path fill="url(#f)" d="M3.95 4.109a.106.106 0 0 0-.1.104v.447a.11.11 0 0 0 .056.094l2.018 1.078L3.906 6.91a.11.11 0 0 0-.056.094v.443a.106.106 0 0 0 .156.092L6.51 6.168a.11.11 0 0 0 .054-.092v-.494a.11.11 0 0 0-.054-.094L4.006 4.121a.1.1 0 0 0-.056-.012" style="paint-order:stroke markers fill"/><path fill="#666" d="M7.116 8.202h2.861c.087 0 .157.07.157.157v.215c0 .087-.07.157-.157.157H7.116a.156.156 0 0 1-.157-.157V8.36c0-.087.07-.157.157-.157"/><path fill="url(#g)" d="M7.116 8.202a.156.156 0 0 0-.157.156v.216c0 .087.07.157.157.157h2.861c.087 0 .157-.07.157-.157v-.216a.157.157 0 0 0-.157-.156zm-.006.132h2.866q.025.001.026.026v.214q-.001.025-.026.026h-2.86q-.025-.001-.024-.026V8.36q0-.022.017-.026" filter="url(#h)" opacity=".5"/><path fill="#fff" d="M3.95 4.109a.106.106 0 0 0-.1.104v.447a.11.11 0 0 0 .056.094l2.018 1.078L3.906 6.91a.11.11 0 0 0-.056.094v.443a.106.106 0 0 0 .156.092L6.51 6.168a.11.11 0 0 0 .054-.092v-.494a.11.11 0 0 0-.054-.094L4.006 4.121a.1.1 0 0 0-.056-.012m-.007.127.003.002h-.003zm.04.022 2.449 1.34v.462l-2.45 1.342V7.02l2.004-1.07a.132.132 0 0 0 0-.235l-2.003-1.07z" opacity=".35"/><path fill="#fff" d="M3.95 4.109a.106.106 0 0 0-.1.104v.15a.106.106 0 0 1 .1-.104.1.1 0 0 1 .056.012L6.51 5.64a.11.11 0 0 1 .054.092v-.15a.11.11 0 0 0-.054-.093L4.006 4.121a.1.1 0 0 0-.056-.012m1.833 1.798L3.907 6.91a.11.11 0 0 0-.056.094v.15a.11.11 0 0 1 .056-.094l2.018-1.078z" filter="url(#i)" style="paint-order:stroke markers fill"/><circle cx="50" cy="50" r="13" filter="url(#j)" opacity=".25" style="paint-order:stroke markers fill" transform="scale(.26458)"/><g stroke-width="2.308" image-rendering="optimizeSpeed"><path fill="url(#k)" d="M984.88 316.75q-9.292-22.529-20.962-44.139a452 452 0 0 0-13.938-24.203c-21.124-34.252-46.894-66.614-77.311-97.029-99.568-99.568-219.83-149.38-360.67-149.38-140.85 0-261.05 49.811-360.61 149.38-99.569 99.572-149.38 219.78-149.38 360.61s49.811 261.11 149.38 360.67c99.568 99.568 219.78 149.32 360.61 149.32 140.84 0 261.11-49.758 360.67-149.32 54.836-54.89 94.598-116.04 119.23-183.42 20.043-54.943 30.092-113.99 30.092-177.25 0-48.515-5.889-94.598-17.72-138.25a657 657 0 0 0-4.214-14.695 498 498 0 0 0-15.18-42.302z" transform="translate(9.776 9.776)scale(.00675)"/><path fill="#fff" d="M13.232 9.79q-1.425 0-2.434 1.008a3.32 3.32 0 0 0-1.006 2.566 3.3 3.3 0 0 1 1.006-2.302 3.32 3.32 0 0 1 2.434-1.008q1.425 0 2.434 1.008.309.308.522.655a3 3 0 0 1 .094.164q.08.145.142.297a3 3 0 0 1 .102.286l.029.1q.104.381.117.8l.003-.132q0-.491-.12-.933l-.029-.1a3 3 0 0 0-.102-.285q-.064-.151-.142-.298a3 3 0 0 0-.094-.163 3.6 3.6 0 0 0-.522-.655 3.32 3.32 0 0 0-2.434-1.009" opacity=".15"/></g><path d="M12.101 10.985a.1.1 0 0 0-.039.128l.104.251c.012.041-.003.078-.04.1-.044.027-.091.018-.123-.025l-.155-.203a.1.1 0 0 0-.112-.038.1.1 0 0 0-.027.014.1.1 0 0 0-.024.139l.144.227c.021.041.012.082-.024.11-.036.03-.078.03-.114.001l-.006-.005-.19-.175a.1.1 0 0 0-.098-.024.1.1 0 0 0-.042.024.1.1 0 0 0 0 .141l.183.201c.026.034.024.074-.003.108-.032.04-.08.047-.124.018l-.215-.138a.1.1 0 0 0-.084-.013.1.1 0 0 0-.055.038.1.1 0 0 0 .025.139l.211.162v.001c.036.032.041.074.017.114-.023.037-.06.054-.102.041l-.25-.104a.1.1 0 0 0-.067-.006.1.1 0 0 0-.065.054c-.024.05-.001.107.048.132l.237.125h.001c.038.023.05.062.036.104-.016.048-.058.072-.11.06l-.249-.057a.1.1 0 0 0-.049 0 .1.1 0 0 0-.073.07.1.1 0 0 0 .07.123l.245.078.005.001.003.001a.085.085 0 0 1 .057.103c-.009.042-.038.07-.08.073l-.273-.013q-.015 0-.03.003a.1.1 0 0 0-.078.088c-.004.055.036.1.09.108l.257.034.008.001c.045.008.072.04.073.086a.086.086 0 0 1-.073.092l-.264.034-.02.004a.1.1 0 0 0-.07.104.1.1 0 0 0 .107.09l.257-.01c.053-.003.09.026.097.076.006.042-.01.078-.048.095l-.263.083a.1.1 0 0 0-.07.122.1.1 0 0 0 .122.07l.252-.055c.049-.012.088.01.106.054a.086.086 0 0 1-.035.11l-.238.123a.1.1 0 0 0-.049.133c.024.05.082.069.133.048l.237-.098c.049-.02.093-.005.117.039.02.037.017.075-.01.105l-.22.168a.1.1 0 0 0-.025.139.1.1 0 0 0 .138.024l.218-.138c.043-.027.087-.021.119.015.03.034.032.076.006.112v.002l-.184.198a.1.1 0 0 0 0 .141c.04.04.1.037.14 0l.19-.173h.001c.039-.036.086-.036.123-.003.032.028.042.065.026.102l-.15.233a.1.1 0 0 0 .025.139c.045.031.105.019.139-.025l.157-.204c.03-.04.074-.05.116-.026.04.022.057.06.045.104l-.104.25a.1.1 0 0 0 .048.132.1.1 0 0 0 .132-.048l.119-.227c.025-.047.068-.064.115-.045q.061.024.059.086l-.06.27a.1.1 0 0 0 .07.122.1.1 0 0 0 .122-.07l.078-.245c.015-.048.052-.072.1-.065a.086.086 0 0 1 .077.082l-.012.271a.1.1 0 0 0 .09.108c.055.005.101-.036.108-.09l.035-.254c.007-.053.042-.084.092-.082q.065.002.085.06l.036.276a.1.1 0 0 0 .107.09.1.1 0 0 0 .09-.108l-.01-.272q.007-.065.073-.08c.05-.01.09.015.105.066l.076.244a.1.1 0 0 0 .122.07.1.1 0 0 0 .07-.122l-.054-.249-.001-.008a.087.087 0 0 1 .06-.102c.041-.014.079-.002.102.034l.001.001.125.239a.1.1 0 0 0 .132.048.1.1 0 0 0 .049-.132l-.099-.237a.086.086 0 0 1 .036-.115.085.085 0 0 1 .113.016l.164.212a.1.1 0 0 0 .138.024.1.1 0 0 0 .025-.138l-.137-.214c-.029-.045-.021-.093.018-.124.035-.028.075-.029.11-.002l.198.181c.041.037.102.04.141 0a.1.1 0 0 0 0-.14l-.174-.19-.004-.004c-.03-.036-.03-.08 0-.115a.085.085 0 0 1 .114-.022l.007.004.216.137c.046.03.107.02.139-.024a.1.1 0 0 0-.025-.14l-.202-.153c-.042-.032-.052-.08-.025-.123a.084.084 0 0 1 .104-.039l.247.102c.05.02.109.001.132-.049a.1.1 0 0 0-.048-.132l-.236-.121v-.001c-.04-.023-.052-.063-.038-.106a.085.085 0 0 1 .109-.058l.25.054a.1.1 0 0 0 .121-.07.1.1 0 0 0-.07-.122l-.243-.076c-.05-.015-.075-.057-.066-.106a.084.084 0 0 1 .089-.072h.006l.256.01a.1.1 0 0 0 .108-.09.1.1 0 0 0-.09-.108l-.268-.035c-.042-.01-.066-.042-.067-.086-.001-.05.03-.086.082-.092l.253-.034c.054-.007.095-.053.09-.108s-.053-.093-.108-.09l-.261.012h-.001a.087.087 0 0 1-.09-.078c-.006-.048.017-.086.065-.1l.244-.078a.1.1 0 0 0 .07-.122.1.1 0 0 0-.121-.07l-.266.06c-.042.003-.075-.02-.09-.06-.019-.046-.002-.09.046-.114l.225-.119a.1.1 0 0 0 .049-.132.1.1 0 0 0-.084-.056q-.019-.002-.037.003l-.012.005-.245.102h-.001a.086.086 0 0 1-.106-.043c-.024-.042-.014-.086.026-.116l.203-.157a.1.1 0 0 0 .024-.139.1.1 0 0 0-.104-.04.1.1 0 0 0-.034.015l-.233.15c-.036.015-.074.006-.102-.026-.033-.038-.032-.085.004-.124l.171-.189a.1.1 0 0 0 0-.14.1.1 0 0 0-.097-.025.1.1 0 0 0-.043.024l-.198.183a.086.086 0 0 1-.114-.006c-.036-.032-.042-.076-.014-.118l.137-.217a.1.1 0 0 0-.025-.14.1.1 0 0 0-.084-.012.1.1 0 0 0-.055.037l-.167.22c-.029.028-.068.031-.105.01-.044-.023-.06-.068-.038-.116l.096-.237a.1.1 0 0 0-.048-.133.1.1 0 0 0-.047-.008h-.013a.1.1 0 0 0-.072.057l-.124.24a.086.086 0 0 1-.108.032c-.046-.017-.066-.057-.055-.106l.055-.251a.1.1 0 0 0-.07-.122.1.1 0 0 0-.05 0 .1.1 0 0 0-.073.07l-.083.265q-.029.055-.094.046c-.05-.008-.079-.045-.076-.098l.01-.255a.1.1 0 0 0-.13-.103.1.1 0 0 0-.069.086l-.035.27a.086.086 0 0 1-.09.065c-.048 0-.08-.03-.087-.08l-.035-.255a.1.1 0 0 0-.108-.091l-.02.004a.1.1 0 0 0-.07.104l.011.257c.004.05-.024.085-.071.095a.087.087 0 0 1-.104-.059l-.003-.007-.077-.243a.1.1 0 0 0-.122-.07.1.1 0 0 0-.07.122l.056.25c.012.05-.01.092-.058.108a.086.086 0 0 1-.111-.046l-.119-.228a.1.1 0 0 0-.132-.049zm-.194 1.057s.108-.068.213-.051c.108.017.196.153.196.153l.472.818s.095.18.098.43c.003.235-.125.463-.125.463l-.445.77s-.088.137-.196.154c-.105.017-.213-.051-.213-.051l.006.011a1.9 1.9 0 0 1-.505-.863 1.89 1.89 0 0 1 .499-1.834m.822-.475.014-.004a1.89 1.89 0 0 1 2.313 1.336l.008.031a.33.33 0 0 1-.061.184c-.07.085-.232.094-.232.094h-.89s-.26-.004-.463-.124a1.04 1.04 0 0 1-.323-.3l-.472-.817s-.074-.145-.035-.247a.35.35 0 0 1 .14-.153m.4 1.641a.207.207 0 0 1 .282.076.207.207 0 0 1-.076.282.207.207 0 0 1-.282-.076.207.207 0 0 1 .076-.282m.277.484c.217-.121.42-.13.42-.13h.945s.163.008.232.093c.05.062.06.15.061.19a1.89 1.89 0 0 1-1.343 1.367 1.9 1.9 0 0 1-.991-.004h.009s-.113-.06-.151-.159c-.04-.102.035-.247.035-.247l.452-.783c.033-.05.155-.229.33-.327" filter="url(#l)" opacity=".15" style="paint-order:fill markers stroke"/><path fill="url(#m)" d="M12.101 10.829a.1.1 0 0 0-.039.128l.104.251c.012.041-.003.078-.04.1-.044.027-.091.018-.123-.025l-.155-.203a.1.1 0 0 0-.112-.038.1.1 0 0 0-.027.014.1.1 0 0 0-.024.139l.144.227c.021.041.012.082-.024.11-.036.03-.078.03-.114.001l-.006-.005-.19-.175a.1.1 0 0 0-.098-.024.1.1 0 0 0-.042.024.1.1 0 0 0 0 .141l.183.201c.026.034.024.074-.003.108-.032.04-.08.047-.124.018l-.215-.138a.1.1 0 0 0-.084-.013.1.1 0 0 0-.055.038.1.1 0 0 0 .025.139l.211.162v.001c.036.032.041.074.017.114-.023.037-.06.054-.102.041l-.25-.104a.1.1 0 0 0-.067-.006.1.1 0 0 0-.065.054c-.024.05-.001.107.048.132l.237.125h.001c.038.023.05.062.036.104-.016.048-.058.072-.11.06l-.249-.057a.1.1 0 0 0-.049 0 .1.1 0 0 0-.073.07.1.1 0 0 0 .07.123l.245.078.005.001.003.001a.085.085 0 0 1 .057.103c-.009.042-.038.07-.08.073l-.273-.013q-.015 0-.03.003a.1.1 0 0 0-.078.088c-.004.055.036.1.09.108l.257.034.008.001c.045.008.072.04.073.086a.086.086 0 0 1-.073.092l-.264.034-.02.004a.1.1 0 0 0-.07.104.1.1 0 0 0 .107.09l.257-.01c.053-.003.09.026.097.076.006.042-.01.078-.048.095l-.263.083a.1.1 0 0 0-.07.122.1.1 0 0 0 .122.07l.252-.055c.049-.012.088.01.106.054a.086.086 0 0 1-.035.11l-.238.123a.1.1 0 0 0-.049.133c.024.05.082.069.133.048l.237-.098c.049-.02.093-.005.117.039.02.037.017.075-.01.105l-.22.168a.1.1 0 0 0-.025.139.1.1 0 0 0 .138.024l.218-.138c.043-.027.087-.021.119.015.03.034.032.076.006.112v.002l-.184.198a.1.1 0 0 0 0 .141c.04.04.1.037.14 0l.19-.173h.001c.039-.036.086-.036.123-.003.032.028.042.065.026.102l-.15.233a.1.1 0 0 0 .025.139c.045.031.105.019.139-.025l.157-.204c.03-.04.074-.05.116-.026.04.022.057.06.045.104l-.104.25a.1.1 0 0 0 .048.132.1.1 0 0 0 .132-.048l.119-.227c.025-.047.068-.064.115-.045q.061.024.059.086l-.06.27a.1.1 0 0 0 .07.122.1.1 0 0 0 .122-.07l.078-.245c.015-.048.052-.072.1-.065a.086.086 0 0 1 .077.082l-.012.271a.1.1 0 0 0 .09.108c.055.005.101-.036.108-.09l.035-.254c.007-.053.042-.084.092-.082q.065.002.085.06l.036.276a.1.1 0 0 0 .107.09.1.1 0 0 0 .09-.108l-.01-.272q.007-.065.073-.08c.05-.01.09.015.105.066l.076.244a.1.1 0 0 0 .122.07.1.1 0 0 0 .07-.122l-.054-.249-.001-.008a.087.087 0 0 1 .06-.102c.041-.014.079-.002.102.034l.001.001.125.239a.1.1 0 0 0 .132.048.1.1 0 0 0 .049-.132l-.099-.237a.086.086 0 0 1 .036-.115.085.085 0 0 1 .113.016l.164.212a.1.1 0 0 0 .138.024.1.1 0 0 0 .025-.138l-.137-.214c-.029-.045-.021-.093.018-.124.035-.028.075-.029.11-.002l.198.181c.041.037.102.04.141 0a.1.1 0 0 0 0-.14l-.174-.19-.004-.004c-.03-.036-.03-.08 0-.115a.085.085 0 0 1 .114-.022l.007.004.216.137c.046.03.107.02.139-.024a.1.1 0 0 0-.025-.14l-.202-.153c-.042-.032-.052-.08-.025-.123a.084.084 0 0 1 .104-.039l.247.102c.05.02.109.001.132-.049a.1.1 0 0 0-.048-.132l-.236-.121v-.001c-.04-.023-.052-.063-.038-.106a.085.085 0 0 1 .109-.058l.25.054a.1.1 0 0 0 .121-.07.1.1 0 0 0-.07-.122l-.243-.076c-.05-.015-.075-.057-.066-.106a.084.084 0 0 1 .089-.072h.006l.256.01a.1.1 0 0 0 .108-.09.1.1 0 0 0-.09-.108l-.268-.035c-.042-.01-.066-.042-.067-.086-.001-.05.03-.086.082-.092l.253-.034c.054-.007.095-.053.09-.108s-.053-.093-.108-.09l-.261.012h-.001a.087.087 0 0 1-.09-.078c-.006-.048.017-.086.065-.1l.244-.078a.1.1 0 0 0 .07-.122.1.1 0 0 0-.121-.07l-.266.06c-.042.003-.075-.02-.09-.06-.019-.046-.002-.09.046-.114l.225-.119a.1.1 0 0 0 .049-.132.1.1 0 0 0-.084-.056q-.019-.002-.037.003l-.012.005-.245.102h-.001a.086.086 0 0 1-.106-.043c-.024-.042-.014-.086.026-.116l.203-.157a.1.1 0 0 0 .024-.139.1.1 0 0 0-.104-.04.1.1 0 0 0-.034.015l-.233.15c-.036.015-.074.006-.102-.026-.033-.038-.032-.085.004-.124l.171-.189a.1.1 0 0 0 0-.14.1.1 0 0 0-.097-.025.1.1 0 0 0-.043.024l-.198.183a.086.086 0 0 1-.114-.006c-.036-.032-.042-.076-.014-.118l.137-.217a.1.1 0 0 0-.025-.14.1.1 0 0 0-.084-.012.1.1 0 0 0-.055.037l-.167.22c-.029.028-.068.031-.105.01-.044-.023-.06-.068-.038-.116l.096-.237a.1.1 0 0 0-.048-.133.1.1 0 0 0-.047-.008h-.013a.1.1 0 0 0-.072.057l-.124.24a.086.086 0 0 1-.108.032c-.046-.017-.066-.057-.055-.106l.055-.251a.1.1 0 0 0-.07-.122.1.1 0 0 0-.05 0 .1.1 0 0 0-.073.07l-.083.265q-.029.054-.094.046c-.05-.008-.079-.045-.076-.098l.01-.255a.1.1 0 0 0-.13-.103.1.1 0 0 0-.069.086l-.035.27a.086.086 0 0 1-.09.065c-.048 0-.08-.03-.087-.08l-.035-.255a.1.1 0 0 0-.108-.091l-.02.004a.1.1 0 0 0-.07.104l.011.257c.004.05-.024.085-.071.095a.087.087 0 0 1-.104-.059l-.003-.007-.077-.243a.1.1 0 0 0-.122-.07.1.1 0 0 0-.07.122l.056.25c.012.05-.01.092-.058.108a.086.086 0 0 1-.111-.046l-.119-.228a.1.1 0 0 0-.132-.049zm-.194 1.057s.108-.068.213-.051c.108.017.196.153.196.153l.472.818s.095.18.098.43c.003.235-.125.463-.125.463l-.445.77s-.088.137-.196.154c-.105.017-.213-.051-.213-.051l.006.011a1.9 1.9 0 0 1-.505-.863 1.89 1.89 0 0 1 .499-1.834m.822-.475.014-.004a1.89 1.89 0 0 1 2.313 1.336l.008.031a.33.33 0 0 1-.061.184c-.07.085-.232.094-.232.094h-.89s-.26-.004-.463-.124a1.04 1.04 0 0 1-.323-.3l-.472-.817s-.074-.145-.035-.247a.35.35 0 0 1 .14-.153m.4 1.641a.207.207 0 0 1 .282.076.207.207 0 0 1-.076.282.207.207 0 0 1-.282-.076.207.207 0 0 1 .076-.282m.277.484c.217-.121.42-.13.42-.13h.945s.163.008.232.093c.05.062.06.15.061.19a1.89 1.89 0 0 1-1.343 1.367 1.9 1.9 0 0 1-.991-.004h.009s-.113-.06-.151-.159c-.04-.102.035-.247.035-.247l.452-.783c.033-.05.155-.229.33-.327" style="paint-order:fill markers stroke"/></svg>