<svg xmlns="http://www.w3.org/2000/svg" width="64" height="64" viewBox="0 0 16.933 16.933"><defs><linearGradient id="a" x1="8.466" x2="8.466" y1="1.058" y2="15.875" gradientUnits="userSpaceOnUse"><stop offset="0" stop-color="#54f06e"/><stop offset="1" stop-color="#27c142"/></linearGradient><linearGradient id="e" x1="7.011" x2="7.011" y1="5.402" y2="12.104" gradientUnits="userSpaceOnUse"><stop offset="0" stop-color="#fff"/><stop offset=".42" stop-color="#dff7e3"/><stop offset="1" stop-color="#93e5a1"/></linearGradient><linearGradient id="c" x1="13.452" x2="11.446" y1="6.405" y2="11.594" gradientUnits="userSpaceOnUse"><stop offset="0" stop-color="#fff"/><stop offset="1" stop-color="#97e5a5"/></linearGradient><linearGradient id="h" x1="10.802" x2="11.711" y1="8.65" y2="8.65" gradientUnits="userSpaceOnUse"><stop offset="0"/><stop offset="1" stop-opacity="0"/></linearGradient><linearGradient id="j" x1="6.745" x2="10.583" y1="1.058" y2="11.312" gradientUnits="userSpaceOnUse"><stop offset="0" stop-color="#a0fed2"/><stop offset="1" stop-color="#4bfa7f"/></linearGradient><filter id="i" width="1.024" height="1.024" x="-.012" y="-.012" color-interpolation-filters="sRGB"><feGaussianBlur stdDeviation=".074"/></filter><filter id="f" width="1.053" height="1.056" x="-.026" y="-.028" color-interpolation-filters="sRGB"><feGaussianBlur stdDeviation=".084"/></filter><filter id="d" width="1.074" height="1.042" x="-.037" y="-.021" color-interpolation-filters="sRGB"><feGaussianBlur stdDeviation=".056"/></filter><filter id="g" width="4.054" height="1.72" x="-1.527" y="-.36" color-interpolation-filters="sRGB"><feGaussianBlur stdDeviation=".388"/></filter><filter id="b" width="1.126" height="1.185" x="-.063" y="-.092" color-interpolation-filters="sRGB"><feGaussianBlur stdDeviation=".28"/></filter></defs><path fill="url(#a)" d="M5.36 1.058c-1.53 0-2.577.457-3.26 1.2-.678.74-1.042 1.8-1.042 3v6.416c0 1.2.364 2.261 1.042 3.001.683.744 1.73 1.2 3.26 1.2h6.23c1.53 0 2.579-.456 3.26-1.2.68-.74 1.025-1.703 1.025-3V5.5c0-1.57-.345-2.502-1.024-3.242-.682-.743-1.73-1.2-3.26-1.2H6.745z"/><path d="M4.36 5.11c-.657 0-1.185.528-1.185 1.184V11.2c0 .657.528 1.185 1.185 1.185h5.303c.656 0 1.185-.528 1.185-1.185v-1.173l1.98 1.728a.609.609 0 0 0 1.01-.459V6.2a.61.61 0 0 0-.355-.553.6.6 0 0 0-.224-.055.6.6 0 0 0-.427.147l-1.984 1.706v-1.15c0-.656-.529-1.185-1.185-1.185z" filter="url(#b)" opacity=".1" style="paint-order:fill markers stroke"/><path fill="url(#c)" d="M13.259 5.31a.6.6 0 0 0-.427.147l-2.38 2.047a.6.6 0 0 0-.213.46v.973a.6.6 0 0 0 .208.46l2.381 2.078a.609.609 0 0 0 1.01-.46V5.919a.61.61 0 0 0-.355-.552.6.6 0 0 0-.224-.055" style="paint-order:fill markers stroke"/><path fill="#fff" d="M13.259 5.31a.6.6 0 0 0-.427.147l-2.38 2.047a.6.6 0 0 0-.213.46v.973a.6.6 0 0 0 .208.46l2.381 2.078a.609.609 0 0 0 1.01-.46V5.919a.61.61 0 0 0-.355-.552.6.6 0 0 0-.224-.055m-.049.212a.4.4 0 0 1 .185.037.4.4 0 0 1 .232.359v5.098c0 .178-.1.302-.234.363a.38.38 0 0 1-.426-.065l-2.381-2.078a.4.4 0 0 1-.137-.299v-.972c0-.116.053-.226.141-.301l2.38-2.047a.4.4 0 0 1 .24-.096" filter="url(#d)" opacity=".65" style="paint-order:fill markers stroke"/><rect width="7.673" height="7.276" x="3.175" y="4.829" fill="url(#e)" rx="1.185" ry="1.185" style="paint-order:fill markers stroke"/><path fill="#fff" d="M4.36 4.829c-.657 0-1.185.528-1.185 1.185v4.906c0 .656.528 1.184 1.185 1.184h5.303c.656 0 1.185-.528 1.185-1.184V6.013c0-.656-.529-1.184-1.185-1.184zm0 .212h5.302c.543 0 .975.43.975.973v4.906a.967.967 0 0 1-.975.973H4.36a.965.965 0 0 1-.972-.973V6.014c0-.543.43-.973.972-.973" filter="url(#f)" opacity=".65" style="paint-order:fill markers stroke"/><path fill="#fff" d="m10.848 7.163-.396.34a.6.6 0 0 0-.213.462v.972a.6.6 0 0 0 .209.46l.4.349z" filter="url(#g)" style="paint-order:fill markers stroke"/><path fill="url(#h)" d="M13.259 5.31a.6.6 0 0 0-.427.147l-1.984 1.706v2.583l1.98 1.728a.609.609 0 0 0 1.01-.458V5.918a.61.61 0 0 0-.355-.553.6.6 0 0 0-.224-.054z" opacity=".05" style="mix-blend-mode:normal;paint-order:fill markers stroke"/><g filter="url(#i)" style="mix-blend-mode:normal"><path fill="url(#j)" d="M5.36 1.058c-1.53 0-2.577.457-3.26 1.2-.678.74-1.042 1.8-1.042 3.001v6.415c0 1.2.364 2.26 1.043 3 .682.744 1.73 1.2 3.26 1.2h6.23c1.53 0 2.577-.456 3.26-1.2.678-.739 1.024-1.702 1.024-3V5.5c0-1.57-.346-2.502-1.024-3.242-.683-.743-1.73-1.2-3.26-1.2H6.745zm0 .264h6.232c1.477 0 2.437.432 3.064 1.116.634.69.954 1.53.954 3.062v6.174c0 1.251-.322 2.134-.954 2.822-.627.684-1.587 1.114-3.064 1.114H5.359c-1.477 0-2.437-.43-3.064-1.114-.625-.682-.973-1.675-.973-2.822V5.26c0-1.148.348-2.14.973-2.822.627-.684 1.587-1.116 3.064-1.116"/></g></svg>