<svg xmlns="http://www.w3.org/2000/svg" xmlns:xlink="http://www.w3.org/1999/xlink" width="64" height="64" viewBox="0 0 16.933 16.933"><defs><filter id="i" width="1.105" height="1.036" x="-.052" y="-.018" color-interpolation-filters="sRGB"><feGaussianBlur stdDeviation=".074"/></filter><filter id="h" width="1.079" height="1.041" x="-.04" y="-.02" color-interpolation-filters="sRGB"><feGaussianBlur stdDeviation=".083"/></filter><filter id="k" width="1.079" height="1.041" x="-.04" y="-.021" color-interpolation-filters="sRGB"><feGaussianBlur stdDeviation=".083"/></filter><filter id="l" width="1.086" height="1.039" x="-.043" y="-.02" color-interpolation-filters="sRGB"><feGaussianBlur stdDeviation=".079"/></filter><filter id="n" width="1.079" height="1.041" x="-.039" y="-.021" color-interpolation-filters="sRGB"><feGaussianBlur stdDeviation=".083"/></filter><filter id="o" width="1.087" height="1.039" x="-.043" y="-.02" color-interpolation-filters="sRGB"><feGaussianBlur stdDeviation=".079"/></filter><filter id="c" width="1.024" height="1.024" x="-.012" y="-.012" color-interpolation-filters="sRGB"><feGaussianBlur stdDeviation=".074"/></filter><filter id="p" width="1.558" height="1.277" x="-.279" y="-.138" color-interpolation-filters="sRGB"><feGaussianBlur stdDeviation=".231"/></filter><filter id="q" width="1.564" height="1.277" x="-.282" y="-.139" color-interpolation-filters="sRGB"><feGaussianBlur stdDeviation=".23"/></filter><linearGradient id="f" x1="5.435" x2="5.435" y1="3.605" y2="13.339" gradientUnits="userSpaceOnUse"><stop offset="0" stop-color="#fbcf4c"/><stop offset="1" stop-color="#a38837"/></linearGradient><linearGradient id="j" x1="8.48" x2="8.48" y1="3.605" y2="13.295" gradientUnits="userSpaceOnUse"><stop offset="0" stop-color="#5fc064"/><stop offset="1" stop-color="#448447"/></linearGradient><linearGradient id="m" x1="11.5" x2="11.5" y1="3.605" y2="13.273" gradientTransform="translate(.05)" gradientUnits="userSpaceOnUse"><stop offset="0" stop-color="#3687e5"/><stop offset="1" stop-color="#2960a0"/></linearGradient><linearGradient id="g" x1="3.704" x2="6.35" y1="4.233" y2="13.229" gradientUnits="userSpaceOnUse"><stop offset="0" stop-color="#fff" stop-opacity=".5"/><stop offset="1" stop-color="#fff" stop-opacity=".2"/></linearGradient><linearGradient xlink:href="#a" id="d" x1="2.598" x2="10.583" y1="2.836" y2="11.312" gradientUnits="userSpaceOnUse"/><linearGradient id="a"><stop offset="0" stop-color="#fff"/><stop offset="1" stop-color="#fff" stop-opacity="0"/></linearGradient><linearGradient xlink:href="#a" id="e" x1="15.081" x2="12.7" y1="14.816" y2="12.171" gradientUnits="userSpaceOnUse"/><linearGradient id="b" x1="8.466" x2="8.466" y1="1.058" y2="15.875" gradientUnits="userSpaceOnUse"><stop offset="0" stop-color="#323131"/><stop offset="1" stop-color="#141414"/></linearGradient></defs><path fill="url(#b)" d="M5.36 1.058c-1.53 0-2.577.457-3.26 1.2-.678.74-1.042 1.8-1.042 3v6.416c0 1.2.364 2.261 1.043 3 .682.744 1.73 1.2 3.26 1.2h6.23c1.53 0 2.578-.456 3.26-1.2.679-.739 1.024-1.702 1.024-3V5.5c0-1.57-.345-2.502-1.024-3.242-.682-.743-1.73-1.2-3.26-1.2H6.745z"/><g filter="url(#c)" style="mix-blend-mode:overlay"><path fill="url(#d)" d="M5.36 1.058c-1.53 0-2.577.457-3.26 1.2-.678.74-1.042 1.8-1.042 3.001v6.415c0 1.2.364 2.26 1.043 3 .682.744 1.73 1.2 3.26 1.2h6.23c1.53 0 2.577-.456 3.26-1.2.678-.739 1.024-1.702 1.024-3V5.5c0-1.57-.346-2.502-1.024-3.242-.683-.743-1.73-1.2-3.26-1.2H6.745zm0 .264h6.232c1.477 0 2.437.432 3.064 1.116.634.69.954 1.53.954 3.062v6.174c0 1.251-.322 2.134-.954 2.822-.627.684-1.587 1.114-3.064 1.114H5.359c-1.477 0-2.437-.43-3.064-1.114-.625-.682-.973-1.675-.973-2.822V5.26c0-1.148.348-2.14.973-2.822.627-.684 1.587-1.116 3.064-1.116"/><path fill="url(#e)" d="M5.36 1.058c-1.53 0-2.577.457-3.26 1.2-.678.74-1.042 1.8-1.042 3.001v6.415c0 1.2.364 2.26 1.043 3 .682.744 1.73 1.2 3.26 1.2h6.23c1.53 0 2.577-.456 3.26-1.2.678-.739 1.024-1.702 1.024-3V5.5c0-1.57-.346-2.502-1.024-3.242-.683-.743-1.73-1.2-3.26-1.2H6.745zm0 .264h6.232c1.477 0 2.437.432 3.064 1.116.634.69.954 1.53.954 3.062v6.174c0 1.251-.322 2.134-.954 2.822-.627.684-1.587 1.114-3.064 1.114H5.359c-1.477 0-2.437-.43-3.064-1.114-.625-.682-.973-1.675-.973-2.822V5.26c0-1.148.348-2.14.973-2.822.627-.684 1.587-1.116 3.064-1.116"/></g><g filter="url(#c)" opacity=".5" style="mix-blend-mode:overlay"><path fill="url(#d)" d="M5.36 1.058c-1.53 0-2.577.457-3.26 1.2-.678.74-1.042 1.8-1.042 3.001v6.415c0 1.2.364 2.26 1.043 3 .682.744 1.73 1.2 3.26 1.2h6.23c1.53 0 2.577-.456 3.26-1.2.678-.739 1.024-1.702 1.024-3V5.5c0-1.57-.346-2.502-1.024-3.242-.683-.743-1.73-1.2-3.26-1.2H6.745zm0 .264h6.232c1.477 0 2.437.432 3.064 1.116.634.69.954 1.53.954 3.062v6.174c0 1.251-.322 2.134-.954 2.822-.627.684-1.587 1.114-3.064 1.114H5.359c-1.477 0-2.437-.43-3.064-1.114-.625-.682-.973-1.675-.973-2.822V5.26c0-1.148.348-2.14.973-2.822.627-.684 1.587-1.116 3.064-1.116"/><path fill="url(#e)" d="M5.36 1.058c-1.53 0-2.577.457-3.26 1.2-.678.74-1.042 1.8-1.042 3.001v6.415c0 1.2.364 2.26 1.043 3 .682.744 1.73 1.2 3.26 1.2h6.23c1.53 0 2.577-.456 3.26-1.2.678-.739 1.024-1.702 1.024-3V5.5c0-1.57-.346-2.502-1.024-3.242-.683-.743-1.73-1.2-3.26-1.2H6.745zm0 .264h6.232c1.477 0 2.437.432 3.064 1.116.634.69.954 1.53.954 3.062v6.174c0 1.251-.322 2.134-.954 2.822-.627.684-1.587 1.114-3.064 1.114H5.359c-1.477 0-2.437-.43-3.064-1.114-.625-.682-.973-1.675-.973-2.822V5.26c0-1.148.348-2.14.973-2.822.627-.684 1.587-1.116 3.064-1.116"/></g><path fill="url(#f)" d="M5.435 3.605a2.513 2.513 0 0 0-.573 4.96v4.172a.594.594 0 1 0 1.19 0v-.362h.525c.15 0 .269-.12.269-.27V10.13a.27.27 0 0 0-.269-.269h-.525V8.555a2.514 2.514 0 0 0-.617-4.95zm0 .972a.66.66 0 0 1 .661.662.66.66 0 0 1-.661.661.66.66 0 0 1-.662-.661.66.66 0 0 1 .662-.662" style="paint-order:fill markers stroke"/><path fill="url(#g)" d="M5.435 3.605a2.513 2.513 0 0 0-.573 4.96v4.172a.594.594 0 1 0 1.19 0v-.362h.525c.15 0 .269-.12.269-.27V10.13a.27.27 0 0 0-.269-.269h-.525V8.555a2.514 2.514 0 0 0-.617-4.95zm0 .211c1.275 0 2.301 1.03 2.301 2.303A2.3 2.3 0 0 1 6 8.349a.21.21 0 0 0-.16.206V9.86a.21.21 0 0 0 .213.211h.525c.036 0 .057.023.057.06v1.974c0 .035-.022.056-.057.056h-.525a.21.21 0 0 0-.213.213v.362a.38.38 0 0 1-.383.384.38.38 0 0 1-.383-.384v-4.17a.21.21 0 0 0-.164-.207 2.3 2.3 0 0 1 .526-4.543m0 .549a.877.877 0 0 0-.873.873c0 .48.394.873.874.873s.873-.393.873-.873a.876.876 0 0 0-.873-.873m0 .212a.66.66 0 0 1 .661.662.66.66 0 0 1-.661.661.66.66 0 0 1-.662-.661.66.66 0 0 1 .662-.662" filter="url(#h)" opacity=".35" style="mix-blend-mode:overlay;paint-order:fill markers stroke"/><path fill="#fff" d="M5.435 3.605a2.513 2.513 0 0 0-.573 4.96v4.172a.594.594 0 0 0 .7.586.594.594 0 0 1-.49-.586V8.566a2.513 2.513 0 0 1 .468-4.959zm.211.972a1 1 0 0 0-.106.009.66.66 0 0 1 .556.653.66.66 0 0 1-.555.653 1 1 0 0 0 .105.008.66.66 0 0 0 .662-.661.66.66 0 0 0-.662-.662" filter="url(#i)" opacity=".5" style="mix-blend-mode:overlay;paint-order:fill markers stroke"/><path fill="url(#j)" d="M8.48 3.605a2.514 2.514 0 0 0-2.514 2.513A2.51 2.51 0 0 0 7.617 8.48v3.975l.794.841h.165l1.153-1.152v-.425l-.576-.575.57-.57v-.2l-.54-.54.54-.54v-.187l-.566-.567a2.514 2.514 0 0 0 1.836-2.42A2.514 2.514 0 0 0 8.48 3.604m0 .972a.66.66 0 0 1 .661.662.66.66 0 0 1-.661.661.66.66 0 0 1-.662-.661.66.66 0 0 1 .662-.662" style="paint-order:fill markers stroke"/><rect width=".265" height="2.514" x="6.085" y="9.861" opacity=".15" rx="0" ry="0" style="mix-blend-mode:overlay;paint-order:fill markers stroke"/><path d="M8.59 8.547s-.244.184-.244.449v4.23l.065.069h.166l.014-.014z" opacity=".15" style="mix-blend-mode:overlay;paint-order:fill markers stroke"/><path fill="#fff" d="M8.48 3.605a2.514 2.514 0 0 0-2.514 2.513A2.51 2.51 0 0 0 7.617 8.48v3.975l.794.841h.165l1.153-1.152v-.425l-.576-.575.57-.57v-.2l-.54-.54.54-.54v-.187l-.566-.567a2.514 2.514 0 0 0 1.836-2.42A2.514 2.514 0 0 0 8.48 3.604m0 .211c1.274 0 2.301 1.03 2.301 2.303A2.3 2.3 0 0 1 9.1 8.336a.212.212 0 0 0-.092.353l.504.505v.011l-.479.479a.21.21 0 0 0 0 .299l.479.478v.023l-.508.508a.21.21 0 0 0 0 .301l.514.514v.248l-1.022 1.021-.666-.705V8.478a.21.21 0 0 0-.14-.196 2.3 2.3 0 0 1-1.512-2.163A2.3 2.3 0 0 1 8.48 3.816m0 .549a.876.876 0 0 0-.872.873c0 .48.393.873.872.873.48 0 .874-.393.874-.873a.877.877 0 0 0-.874-.873m0 .212a.66.66 0 0 1 .661.662.66.66 0 0 1-.661.661.66.66 0 0 1-.662-.661.66.66 0 0 1 .662-.662" filter="url(#k)" opacity=".15" style="mix-blend-mode:overlay;paint-order:fill markers stroke"/><path fill="#fff" d="M8.48 3.605a2.514 2.514 0 0 0-2.514 2.513 2.51 2.51 0 0 0 .807 1.844A2.5 2.5 0 0 1 6.18 6.34a2.514 2.514 0 0 1 2.513-2.514 2.51 2.51 0 0 1 1.697.665 2.51 2.51 0 0 0-1.91-.886m.571 1.301a.66.66 0 0 1 .09.333.66.66 0 0 1-.661.661.66.66 0 0 1-.36-.108.66.66 0 0 0 .572.33.66.66 0 0 0 .662-.662.66.66 0 0 0-.303-.554M7.617 8.612v3.842l.794.841h.004l-.585-.62V8.701a3 3 0 0 1-.213-.09m1.759.146-.007.003.354.354v-.01zM9.4 10.05l-.004.004.327.329v-.01zm-.03 1.31-.005.004.364.363v-.009z" filter="url(#l)" opacity=".5" style="mix-blend-mode:overlay;paint-order:fill markers stroke"/><path fill="url(#m)" d="M11.55 3.605a2.514 2.514 0 0 0-2.513 2.513 2.51 2.51 0 0 0 1.455 2.28v.405c0 .128.103.231.231.231h.034v3.875c0 .202.162.364.364.364h.419l.764-.66v-1.1l-.32-.319v-.483l.345-.345V9.034h.048a.23.23 0 0 0 .231-.231v-.405a2.51 2.51 0 0 0 1.456-2.28 2.514 2.514 0 0 0-2.514-2.513m0 .972a.66.66 0 0 1 .661.662.66.66 0 0 1-.661.661.66.66 0 0 1-.661-.661.66.66 0 0 1 .661-.662" style="paint-order:fill markers stroke"/><path d="M11.509 8.996a.13.13 0 0 0-.132.132v4.145h.162l.102-.088V9.128a.13.13 0 0 0-.132-.132" opacity=".15" style="mix-blend-mode:overlay;paint-order:fill markers stroke"/><path fill="#fff" d="M11.55 3.605a2.514 2.514 0 0 0-2.513 2.513 2.51 2.51 0 0 0 1.455 2.28v.405c0 .128.103.231.231.231h.034v3.875c0 .202.162.364.364.364h.419l.764-.66v-1.1l-.32-.319v-.483l.345-.345V9.034h.048a.23.23 0 0 0 .231-.231v-.405a2.51 2.51 0 0 0 1.456-2.28 2.514 2.514 0 0 0-2.514-2.513m.001.211c1.274 0 2.3 1.03 2.3 2.303a2.3 2.3 0 0 1-1.332 2.088.21.21 0 0 0-.123.191v.405q.001.021-.02.02h-.046a.21.21 0 0 0-.213.212v1.242l-.283.283a.21.21 0 0 0-.062.15v.483a.21.21 0 0 0 .062.15l.258.259v.914l-.63.545h-.34a.15.15 0 0 1-.153-.153V9.035a.21.21 0 0 0-.211-.213h-.035q-.021.002-.02-.019v-.405a.21.21 0 0 0-.123-.19 2.3 2.3 0 0 1-1.332-2.089 2.3 2.3 0 0 1 2.303-2.303m0 .549a.877.877 0 0 0-.873.873c0 .48.393.873.873.873s.873-.393.873-.873a.876.876 0 0 0-.873-.873m-.001.212a.66.66 0 0 1 .661.662.66.66 0 0 1-.661.661.66.66 0 0 1-.661-.661.66.66 0 0 1 .661-.662" filter="url(#n)" opacity=".15" style="mix-blend-mode:overlay;paint-order:fill markers stroke"/><path fill="#fff" d="M11.55 3.605a2.514 2.514 0 0 0-2.513 2.513 2.51 2.51 0 0 0 .893 1.92 2.51 2.51 0 0 1-.682-1.718 2.514 2.514 0 0 1 2.513-2.513 2.5 2.5 0 0 1 1.63.6 2.51 2.51 0 0 0-1.841-.802m.55 1.269a.66.66 0 0 1 .111.365.66.66 0 0 1-.661.661.66.66 0 0 1-.338-.093.66.66 0 0 0 .55.295.66.66 0 0 0 .66-.661.66.66 0 0 0-.323-.568M10.491 8.49v.313c0 .122.093.221.213.23l-.002-.028V8.6a3 3 0 0 1-.211-.11m.265.664v3.755c0 .158.1.291.24.342a.4.4 0 0 1-.028-.14V9.236h-.034a.23.23 0 0 1-.178-.082" filter="url(#o)" opacity=".5" style="mix-blend-mode:overlay;paint-order:fill markers stroke"/><path fill="#fff" d="M6.958 4.119a2.5 2.5 0 0 0-.871 1.23.7.7 0 0 1-.041.143 2.5 2.5 0 0 0-.08.626 2.51 2.51 0 0 0 .992 2 2.51 2.51 0 0 0 .913-2.622.7.7 0 0 1-.044-.15 2.5 2.5 0 0 0-.87-1.228" filter="url(#p)" opacity=".25" style="mix-blend-mode:overlay;paint-order:fill markers stroke"/><path fill="#fff" d="M10.015 4.128a2.51 2.51 0 0 0-.978 1.99 2.51 2.51 0 0 0 .979 1.99 2.51 2.51 0 0 0 .978-1.99 2.51 2.51 0 0 0-.979-1.99" filter="url(#q)" opacity=".2" style="mix-blend-mode:overlay;paint-order:fill markers stroke"/></svg>