<svg xmlns="http://www.w3.org/2000/svg" width="64" height="64" viewBox="0 0 16.933 16.933"><defs><linearGradient id="c" x1="6.745" x2="10.583" y1="1.058" y2="11.312" gradientUnits="userSpaceOnUse"><stop offset="0" stop-color="#fff"/><stop offset="1" stop-color="#fff" stop-opacity="0"/></linearGradient><linearGradient id="d" x1="15.081" x2="13.229" y1="14.816" y2="1.323" gradientUnits="userSpaceOnUse"><stop offset="0" stop-color="#fff"/><stop offset="1" stop-color="#fff" stop-opacity=".36"/></linearGradient><linearGradient id="a" x1="8.466" x2="8.466" y1="1.058" y2="15.875" gradientUnits="userSpaceOnUse"><stop offset="0" stop-color="#54f06e"/><stop offset="1" stop-color="#27c142"/></linearGradient><linearGradient id="f" x1="8.478" x2="8.478" y1="3.798" y2="12.662" gradientUnits="userSpaceOnUse"><stop offset="0" stop-color="#fff"/><stop offset="1" stop-color="#9fe6ab"/></linearGradient><filter id="b" width="1.024" height="1.024" x="-.012" y="-.012" color-interpolation-filters="sRGB"><feGaussianBlur stdDeviation=".074"/></filter><filter id="g" width="1.049" height="1.06" x="-.025" y="-.03" color-interpolation-filters="sRGB"><feGaussianBlur stdDeviation=".111"/></filter><filter id="e" width="1.267" height="1.327" x="-.134" y="-.163" color-interpolation-filters="sRGB"><feGaussianBlur stdDeviation=".603"/></filter></defs><path fill="url(#a)" d="M5.36 1.058c-1.53 0-2.577.457-3.26 1.2-.678.74-1.042 1.8-1.042 3v6.416c0 1.2.364 2.261 1.042 3.001.683.744 1.73 1.2 3.26 1.2h6.23c1.53 0 2.579-.456 3.26-1.2.68-.74 1.025-1.703 1.025-3V5.5c0-1.57-.345-2.502-1.024-3.242-.682-.743-1.73-1.2-3.26-1.2H6.745z"/><g filter="url(#b)" style="mix-blend-mode:overlay"><path fill="url(#c)" d="M5.36 1.058c-1.53 0-2.577.457-3.26 1.2-.678.74-1.042 1.8-1.042 3.001v6.415c0 1.2.364 2.26 1.043 3 .682.744 1.73 1.2 3.26 1.2h6.23c1.53 0 2.577-.456 3.26-1.2.678-.739 1.024-1.702 1.024-3V5.5c0-1.57-.346-2.502-1.024-3.242-.683-.743-1.73-1.2-3.26-1.2H6.745zm0 .264h6.232c1.477 0 2.437.432 3.064 1.116.634.69.954 1.53.954 3.062v6.174c0 1.251-.322 2.134-.954 2.822-.627.684-1.587 1.114-3.064 1.114H5.359c-1.477 0-2.437-.43-3.064-1.114-.625-.682-.973-1.675-.973-2.822V5.26c0-1.148.348-2.14.973-2.822.627-.684 1.587-1.116 3.064-1.116"/><path fill="url(#d)" d="M5.36 1.058c-1.53 0-2.577.457-3.26 1.2-.678.74-1.042 1.8-1.042 3.001v6.415c0 1.2.364 2.26 1.043 3 .682.744 1.73 1.2 3.26 1.2h6.23c1.53 0 2.577-.456 3.26-1.2.678-.739 1.024-1.702 1.024-3V5.5c0-1.57-.346-2.502-1.024-3.242-.683-.743-1.73-1.2-3.26-1.2H6.745zm0 .264h6.232c1.477 0 2.437.432 3.064 1.116.634.69.954 1.53.954 3.062v6.174c0 1.251-.322 2.134-.954 2.822-.627.684-1.587 1.114-3.064 1.114H5.359c-1.477 0-2.437-.43-3.064-1.114-.625-.682-.973-1.675-.973-2.822V5.26c0-1.148.348-2.14.973-2.822.627-.684 1.587-1.116 3.064-1.116"/></g><path d="M8.477 4.062c-3.394 0-5.412 1.978-5.412 4.418 0 .97.314 1.867.907 2.595.063.117.232.46.207.758-.032.366-.122.647-.543.923-.42.277.526.18 1.088-.031.252-.095.528-.305.728-.48.82.415 1.836.653 3.025.653 3.286 0 5.413-1.978 5.413-4.418S11.92 4.062 8.477 4.062" filter="url(#e)" opacity=".1" style="paint-order:fill markers stroke"/><path fill="url(#f)" d="M8.477 3.798c-3.394 0-5.412 1.978-5.412 4.418 0 .97.314 1.866.907 2.595.063.117.232.459.207.757-.032.366-.122.647-.543.924-.42.277.526.179 1.088-.032.252-.094.528-.305.728-.479.82.414 1.836.652 3.025.652 3.286 0 5.413-1.977 5.413-4.417S11.92 3.798 8.477 3.798" style="paint-order:fill markers stroke"/><path fill="#fff" d="M8.477 3.798c-3.394 0-5.412 1.978-5.412 4.418 0 .97.314 1.866.907 2.595.063.117.232.459.207.757-.032.366-.122.647-.543.924-.42.277.526.179 1.088-.032.252-.094.528-.305.728-.479.82.414 1.836.652 3.025.652 3.286 0 5.413-1.977 5.413-4.417S11.92 3.798 8.477 3.798m0 .212c1.68 0 2.98.48 3.859 1.242.878.76 1.342 1.802 1.342 2.965 0 2.317-2 4.205-5.202 4.205-1.161 0-2.143-.233-2.93-.63a.21.21 0 0 0-.233.03c-.191.166-.461.363-.665.44-.225.084-.527.14-.753.164.256-.262.468-.536.494-.84.033-.39-.16-.744-.23-.875l-.022-.033a3.84 3.84 0 0 1-.86-2.461c0-1.162.475-2.204 1.36-2.965C5.52 4.49 6.82 4.01 8.477 4.01" filter="url(#g)" opacity=".75" style="mix-blend-mode:overlay;paint-order:fill markers stroke"/></svg>