<svg xmlns="http://www.w3.org/2000/svg" xmlns:xlink="http://www.w3.org/1999/xlink" width="64" height="64"><defs><filter id="k" width="1.024" height="1.024" x="-.012" y="-.012" color-interpolation-filters="sRGB"><feGaussianBlur stdDeviation=".224"/></filter><filter id="l" width="1.024" height="1.024" x="-.012" y="-.012" color-interpolation-filters="sRGB"><feGaussianBlur stdDeviation=".222"/></filter><filter id="i" width="1.009" height="1.009" x="-.004" y="-.004" color-interpolation-filters="sRGB"><feGaussianBlur stdDeviation=".051"/></filter><filter id="h" width="1.024" height="1.024" x="-.012" y="-.012" color-interpolation-filters="sRGB"><feGaussianBlur stdDeviation=".14"/></filter><filter id="m" width="1.126" height="1.11" x="-.063" y="-.055" color-interpolation-filters="sRGB"><feGaussianBlur stdDeviation=".57"/></filter><filter id="d" width="1.024" height="1.024" x="-.012" y="-.012" color-interpolation-filters="sRGB"><feGaussianBlur stdDeviation=".074"/></filter><filter id="c" width="1.15" height="1.15" x="-.075" y="-.075" color-interpolation-filters="sRGB"><feGaussianBlur stdDeviation="1.401"/></filter><linearGradient id="j" x1="-48.492" x2="-48.492" y1="9.589" y2="54.426" gradientTransform="translate(80.51 .1)" gradientUnits="userSpaceOnUse"><stop offset="0" stop-color="#f6f6f6"/><stop offset="1" stop-color="#b8b8ba"/></linearGradient><linearGradient id="g" x1="-48.508" x2="-48.508" y1="17.709" y2="46.209" gradientTransform="translate(80.51 .1)" gradientUnits="userSpaceOnUse"><stop offset="0" stop-color="#bfbfc2"/><stop offset="1" stop-color="#a4a4a7"/></linearGradient><linearGradient xlink:href="#a" id="e" x1="6.745" x2="10.583" y1="1.058" y2="11.312" gradientUnits="userSpaceOnUse"/><linearGradient id="a"><stop offset="0" stop-color="#fff"/><stop offset="1" stop-color="#fff" stop-opacity="0"/></linearGradient><linearGradient xlink:href="#a" id="f" x1="15.081" x2="12.7" y1="14.816" y2="12.171" gradientUnits="userSpaceOnUse"/><linearGradient id="b" x1="8.466" x2="8.466" y1="1.058" y2="15.875" gradientTransform="scale(3.7796)" gradientUnits="userSpaceOnUse"><stop offset="0" stop-color="#a9a9af"/><stop offset="1" stop-color="#616065"/></linearGradient></defs><path fill="url(#b)" d="M20.26 4c-5.782 0-9.743 1.725-12.321 4.535C5.374 11.331 4 15.34 4 19.876v24.248c0 4.538 1.374 8.545 3.939 11.341C10.517 58.275 14.479 60 20.26 60h23.549c5.782 0 9.743-1.724 12.321-4.535C58.695 52.67 60 49.03 60 44.125V20.786c0-5.935-1.305-9.456-3.87-12.252C53.552 5.725 49.59 4 43.809 4H25.494z"/><path d="M22.436 12.724c-.366.218-.496.676-.33 1.081l.877 2.132v.005c.101.344-.025.652-.34.844-.365.222-.767.145-1.036-.216h-.002l-1.314-1.717a.87.87 0 0 0-.947-.321.8.8 0 0 0-.226.112c-.383.268-.457.782-.207 1.177l1.223 1.93.002.004c.174.344.095.69-.209.932-.302.243-.662.253-.962.006l-.053-.046-1.606-1.48a.88.88 0 0 0-.838-.21.8.8 0 0 0-.355.21c-.33.33-.314.846 0 1.192l1.552 1.702c.217.291.206.628-.026.917-.267.334-.671.397-1.048.15l-.002.003-1.82-1.168a.9.9 0 0 0-.714-.118.82.82 0 0 0-.464.324c-.268.383-.16.89.21 1.176l1.789 1.38v.002l.006.006.001.002c.294.264.345.621.14.959-.194.319-.515.456-.865.35l-.001-.001-2.118-.884a.9.9 0 0 0-.573-.046.82.82 0 0 0-.55.453c-.198.424-.005.905.409 1.122l2.013 1.057v.001h.002l.002-.002.001.002c.319.198.43.523.308.882-.137.405-.492.605-.93.501l-2.112-.474a.9.9 0 0 0-.416.003.83.83 0 0 0-.618.594c-.12.451.152.891.597 1.033l2.07.66.042.013.027.009c.384.144.562.471.483.867-.073.363-.32.598-.681.621h-.003l-2.305-.106a1 1 0 0 0-.256.021.84.84 0 0 0-.659.746c-.04.465.304.852.767.915l2.17.29q.033.004.065.01h.004c.382.069.607.342.615.729.01.397-.221.692-.613.773l-.008.003-2.233.288a1 1 0 0 0-.168.036.846.846 0 0 0-.6.879c.04.465.448.784.915.766l2.175-.09-.001.003c.45-.026.758.221.823.643.055.36-.091.662-.41.81l-2.224.695c-.446.14-.717.583-.596 1.034s.576.697 1.033.597l2.136-.467.001.002c.416-.1.75.076.899.458.142.366.032.718-.298.93l-2.02 1.042c-.415.214-.605.7-.408 1.124.198.424.69.585 1.122.408l2.007-.825.003.002c.414-.178.79-.051.994.324.171.311.143.64-.09.886l-.002.001-1.866 1.423c-.372.284-.475.795-.207 1.177.268.383.778.457 1.173.207l1.847-1.167.003.002c.357-.236.728-.184 1 .125.251.286.273.642.055.948l-.003.007-.005.007-1.55 1.68c-.317.344-.331.865 0 1.196.33.33.846.314 1.192-.001l1.607-1.463.005.005c.327-.31.724-.315 1.045-.033.267.234.35.55.214.862v.001l-.001.001-1.263 1.972c-.253.394-.176.907.207 1.175.383.269.889.163 1.175-.207l1.333-1.726.003.003c.254-.344.623-.422.983-.225.336.185.48.514.376.88h.001l-.884 2.115c-.18.431-.015.924.41 1.121.423.198.902.007 1.12-.407l1.007-1.92.006.004c.202-.403.573-.547.971-.392.33.128.514.395.497.73v.003l-.515 2.29c-.102.457.146.913.597 1.034.452.121.892-.151 1.034-.596l.662-2.076.008.002c.12-.41.439-.611.844-.549.377.058.624.315.653.69v.004l-.106 2.297c-.021.466.302.874.768.914s.852-.304.914-.767l.29-2.15h.007c.053-.447.351-.708.778-.699.353.008.617.195.716.516v.002l.001.002.301 2.33c.06.463.449.807.914.766s.786-.447.767-.914l-.094-2.307c.026-.358.259-.604.62-.676.42-.084.761.122.89.553l.646 2.068c.14.446.583.717 1.034.596s.696-.578.596-1.035l-.462-2.108-.012-.065c-.07-.408.127-.736.512-.866.35-.119.666-.016.865.283l.009.015 1.06 2.022c.218.414.696.604 1.12.407s.59-.69.41-1.121l-.837-2.009c-.17-.392-.043-.754.308-.967.334-.203.688-.156.952.13l1.39 1.797c.286.37.792.476 1.175.208s.46-.78.207-1.173l-1.16-1.815.003-.002c-.248-.376-.185-.78.149-1.047.294-.235.634-.245.928-.017l.002-.001v.002l1.683 1.534c.345.315.862.33 1.192 0 .33-.331.318-.85.001-1.194l-1.475-1.598-.03-.036-.01-.01c-.253-.302-.245-.665 0-.97.25-.314.614-.386.97-.188l.065.041 1.825 1.157c.395.25.907.176 1.175-.207s.164-.893-.208-1.177l-1.71-1.304.001-.003c-.36-.27-.439-.671-.217-1.036.198-.326.523-.45.882-.329l.004.003 2.088.855c.432.178.925.017 1.123-.407.197-.423.006-.904-.41-1.119l-1.994-1.032-.01-.005c-.327-.198-.437-.536-.313-.9.131-.388.456-.582.869-.506l.052.013 2.111.461c.457.1.914-.146 1.035-.597.121-.452-.152-.894-.598-1.033l-2.054-.643c-.431-.13-.641-.481-.558-.9.077-.385.352-.611.748-.608l.057.001 2.166.089c.467.019.874-.302.915-.767.04-.466-.302-.856-.765-.916l-2.268-.292c-.355-.084-.562-.36-.57-.733-.01-.427.251-.726.699-.778h.001l2.136-.29c.464-.062.807-.45.766-.915s-.446-.787-.913-.765l-2.216.102h-.009c-.408-.006-.69-.259-.752-.657-.062-.405.137-.724.547-.845v-.003l2.065-.66c.445-.141.718-.58.597-1.032-.121-.451-.577-.7-1.033-.597l-2.248.504-.002.001v-.001h-.002c-.352.033-.63-.156-.763-.495-.155-.399-.012-.767.39-.97v-.006l1.91-1.002c.414-.217.607-.696.41-1.12a.83.83 0 0 0-.71-.479.9.9 0 0 0-.31.033q-.051.016-.1.037l-2.08.867-.012.004c-.373.115-.71-.026-.899-.37-.197-.36-.119-.727.225-.981l-.006-.006 1.722-1.326c.37-.286.475-.794.207-1.177a.83.83 0 0 0-.78-.348.912.912 0 0 0-.393.14l-1.967 1.261c-.312.137-.631.053-.866-.215-.282-.321-.275-.718.034-1.046l-.004-.007 1.454-1.595c.315-.345.332-.863.001-1.193a.83.83 0 0 0-.83-.209.9.9 0 0 0-.364.206l-1.678 1.548-.001.001c-.308.224-.668.202-.957-.052-.309-.27-.36-.643-.124-1l-.005-.004 1.163-1.837c.25-.395.178-.908-.205-1.176a.83.83 0 0 0-.715-.113.9.9 0 0 0-.462.32l-1.415 1.858c-.248.238-.576.268-.89.096-.375-.205-.504-.58-.325-.994l-.008-.005.823-2.001c.177-.433.017-.924-.406-1.121a.8.8 0 0 0-.405-.076q-.056.003-.11.012a.89.89 0 0 0-.605.471l-1.053 2.036-.004.002c-.213.311-.556.413-.913.274-.382-.149-.56-.482-.46-.898l-.005-.001.465-2.13c.1-.456-.145-.912-.597-1.033a.8.8 0 0 0-.41-.004.88.88 0 0 0-.623.601l-.7 2.24-.001.003c-.153.301-.448.44-.797.386-.423-.065-.672-.376-.646-.825l-.008-.002.089-2.16c.019-.467-.3-.872-.767-.913a.8.8 0 0 0-.332.036.88.88 0 0 0-.582.731l-.296 2.284v.002c-.097.357-.383.565-.76.557-.41-.01-.69-.261-.739-.686h-.007l-.292-2.159c-.063-.463-.449-.808-.914-.767a.86.86 0 0 0-.767.914l.099 2.176c.026.426-.205.723-.607.804-.399.08-.735-.106-.879-.495L27.882 14l-.655-2.056c-.142-.445-.58-.717-1.032-.596s-.7.576-.597 1.032l.474 2.115c.104.438-.088.785-.493.923-.389.131-.75-.004-.94-.387l-1.003-1.94a.866.866 0 0 0-.962-.464.8.8 0 0 0-.238.097zm-1.645 8.956s.92-.578 1.803-.437c.915.147 1.665 1.303 1.665 1.303l4 6.928s.8 1.533.827 3.64c.025 1.994-1.058 3.925-1.058 3.925l-3.769 6.526s-.75 1.158-1.665 1.304c-.883.141-1.803-.436-1.803-.436l.056.101a16 16 0 0 1-4.283-7.313 16 16 0 0 1 4.227-15.54zm6.966-4.022.12-.033a16 16 0 0 1 19.596 11.313l.068.265c-.02.352-.11 1.06-.52 1.563-.583.72-1.96.79-1.96.79h-7.537s-2.214-.027-3.93-1.047c-1.81-1.076-2.737-2.535-2.737-2.535l-4-6.928s-.627-1.228-.296-2.094c.262-.684.953-1.148 1.195-1.294zm3.387 13.903a1.75 1.75 0 0 1 2.391.64 1.75 1.75 0 0 1-.64 2.391 1.75 1.75 0 0 1-2.391-.64 1.75 1.75 0 0 1 .64-2.39m2.347 4.099c1.837-1.03 3.565-1.102 3.565-1.102l8.005-.001s1.376.07 1.96.79c.425.522.508 1.268.523 1.604a16 16 0 0 1-11.385 11.585 16 16 0 0 1-8.394-.032l.076-.001s-.96-.508-1.279-1.344c-.331-.865.296-2.092.296-2.092l3.83-6.633.004-.008c.272-.422 1.312-1.933 2.799-2.766z" filter="url(#c)" opacity=".2" style="paint-order:fill markers stroke"/><g filter="url(#d)" style="mix-blend-mode:overlay" transform="scale(3.7796)"><path fill="url(#e)" d="M5.36 1.058c-1.53 0-2.577.457-3.26 1.2-.678.74-1.042 1.8-1.042 3.001v6.415c0 1.2.364 2.26 1.043 3 .682.744 1.73 1.2 3.26 1.2h6.23c1.53 0 2.577-.456 3.26-1.2.678-.739 1.024-1.702 1.024-3V5.5c0-1.57-.346-2.502-1.024-3.242-.683-.743-1.73-1.2-3.26-1.2H6.745zm0 .264h6.232c1.477 0 2.437.432 3.064 1.116.634.69.954 1.53.954 3.062v6.174c0 1.251-.322 2.134-.954 2.822-.627.684-1.587 1.114-3.064 1.114H5.359c-1.477 0-2.437-.43-3.064-1.114-.625-.682-.973-1.675-.973-2.822V5.26c0-1.148.348-2.14.973-2.822.627-.684 1.587-1.116 3.064-1.116" opacity=".75"/><path fill="url(#f)" d="M5.36 1.058c-1.53 0-2.577.457-3.26 1.2-.678.74-1.042 1.8-1.042 3.001v6.415c0 1.2.364 2.26 1.043 3 .682.744 1.73 1.2 3.26 1.2h6.23c1.53 0 2.577-.456 3.26-1.2.678-.739 1.024-1.702 1.024-3V5.5c0-1.57-.346-2.502-1.024-3.242-.683-.743-1.73-1.2-3.26-1.2H6.745zm0 .264h6.232c1.477 0 2.437.432 3.064 1.116.634.69.954 1.53.954 3.062v6.174c0 1.251-.322 2.134-.954 2.822-.627.684-1.587 1.114-3.064 1.114H5.359c-1.477 0-2.437-.43-3.064-1.114-.625-.682-.973-1.675-.973-2.822V5.26c0-1.148.348-2.14.973-2.822.627-.684 1.587-1.116 3.064-1.116" opacity=".75"/></g><path fill="url(#g)" d="M32.002 17.81c-.415 0-.725.334-.75.748l-.059.973s-.044.637-.683.738-.895-.309-.895-.309l-.379-1.134c-.115-.345-.426-.575-.771-.555a.7.7 0 0 0-.149.023c-.4.108-.605.512-.529.92l.225 1.196c-.011.092-.088.49-.62.695-.465.179-.784-.096-.906-.23l-.582-.881a.8.8 0 0 0-.673-.373.7.7 0 0 0-.35.097c-.36.208-.455.651-.275 1.026l.414.863-.002.015s.28.576-.223.983c-.398.322-.748.246-.877.201l-.928-.822a.83.83 0 0 0-.537-.213.72.72 0 0 0-.523.213c-.294.294-.27.745 0 1.06l.78.91-.017.002s.228.427-.18.93c-.274.34-.625.32-.824.274l-1-.498a.85.85 0 0 0-.433-.09.73.73 0 0 0-.592.363c-.208.36-.067.791.275 1.025l.756.516.02.047s.53.357.299.96c-.173.449-.483.574-.631.608l-1.223-.25a1 1 0 0 0-.226-.015.74.74 0 0 0-.692.546c-.107.402.138.78.53.918l1.124.395-.027.021s.41.256.309.895a.78.78 0 0 1-.547.64h-.002l-1.127.069c-.414.025-.75.334-.75.75s.336.718.75.75l.883.068.054.04s.638.044.739.683c.072.46-.12.722-.233.832l-1.178.393c-.393.13-.638.518-.53.92s.511.605.92.529l1.16-.217-.018.04s.483.016.715.62a.78.78 0 0 1-.157.83l-.922.61c-.346.228-.483.663-.275 1.023s.651.455 1.025.275l.774-.37.072.007s.576-.28.983.223c.308.38.252.718.207.86l-.795.896c-.275.31-.294.766 0 1.06s.745.27 1.06 0l.875-.75.004.035s.427-.227.93.18c.358.29.32.666.267.857l-.459.918c-.185.372-.086.818.274 1.026s.791.067 1.025-.276l.483-.707.047-.02s.357-.53.96-.298c.522.2.607.59.62.691l-.229 1.114c-.083.406.13.81.531.918s.78-.138.918-.53l.373-1.062.01.014s.256-.41.895-.31c.639.102.683.74.683.74l.006.007.053.88c.025.415.334.75.75.75s.718-.335.75-.75l.066-.878.008-.01s.045-.637.684-.738.894.308.894.308l.371 1.055c.138.392.517.635.918.528.351-.095.559-.415.55-.766a1 1 0 0 0-.018-.15L36 43.81l.006.002s.017-.483.62-.715.962.299.962.299l.027.012.492.72c.235.343.664.48 1.024.272a.73.73 0 0 0 .365-.662.85.85 0 0 0-.09-.36l-.424-.85-.002-.003c-.054-.153-.165-.596.245-.928.502-.407.93-.18.93-.18l.001-.023.867.744c.315.27.765.292 1.059-.002a.72.72 0 0 0 .215-.523.82.82 0 0 0-.213-.536l-.775-.875c-.045-.12-.134-.478.197-.886.407-.503.982-.223.982-.223l.057-.006.78.373c.373.18.815.085 1.023-.275a.7.7 0 0 0 .097-.35.8.8 0 0 0-.37-.674l-.89-.586-.002-.002c-.14-.147-.335-.445-.177-.855.232-.604.715-.621.715-.621l-.014-.033 1.146.214c.408.077.809-.127.916-.529a.7.7 0 0 0 .026-.222c-.014-.315-.233-.59-.553-.696l-1.152-.385c-.11-.1-.324-.364-.248-.845.1-.64.738-.684.738-.684l.057-.04.867-.067c.414-.032.748-.335.748-.75s-.334-.725-.748-.75l-1.115-.067a.78.78 0 0 1-.547-.642c-.101-.64.308-.895.308-.895l-.035-.025 1.123-.395c.392-.137.635-.516.528-.918-.095-.35-.415-.558-.766-.549a1 1 0 0 0-.15.018l-1.227.25c-.153-.039-.45-.169-.617-.603-.232-.604.299-.961.299-.961l.027-.065.738-.504c.343-.234.48-.663.272-1.023a.73.73 0 0 0-.662-.365.85.85 0 0 0-.36.09l-1.03.513a.78.78 0 0 1-.784-.283c-.407-.503-.18-.93-.18-.93l-.031-.004.785-.914c.27-.315.292-.765-.002-1.058a.72.72 0 0 0-.523-.215.82.82 0 0 0-.536.213l-.943.836c-.145.044-.478.093-.852-.21-.502-.406-.222-.982-.222-.982l-.004-.04.404-.845c.18-.374.085-.815-.275-1.023a.7.7 0 0 0-.35-.098.8.8 0 0 0-.674.372l-.619.937c-.147.14-.444.338-.857.18-.604-.232-.621-.715-.621-.715l-.008.004.223-1.186c.076-.408-.128-.808-.53-.916a.7.7 0 0 0-.222-.025c-.315.013-.589.233-.696.553l-.39 1.17c-.073.091-.34.363-.873.279-.626-.1-.682-.714-.684-.739l-.074-.972c-.032-.414-.335-.748-.75-.748zm0 4.25a10 10 0 0 1 10 10 10 10 0 0 1-10 10 10 10 0 0 1-10-10 10 10 0 0 1 10-10" style="paint-order:fill markers stroke"/><path fill="#fff" d="M32.002 17.811c-.415 0-.725.334-.75.748l-.059.973s-.044.637-.683.738c.105.018.229.022.37 0 .64-.1.684-.738.684-.738l.06-.973c.02-.35.244-.642.564-.725a.7.7 0 0 0-.186-.023m3.467.457c-.315.014-.589.233-.696.553l-.39 1.17a.8.8 0 0 1-.496.279c.53.082.794-.188.867-.28l.39-1.17a.8.8 0 0 1 .542-.529.7.7 0 0 0-.217-.023m-6.947.002q-.03 0-.057.002a.7.7 0 0 0-.149.023c-.4.108-.605.513-.529.92l.225 1.196c-.011.092-.088.49-.62.695a1 1 0 0 1-.11.035.77.77 0 0 0 .482-.035c.53-.204.608-.603.619-.695l-.225-1.196c-.076-.407.128-.812.53-.92l.001-.002a.7.7 0 0 0-.168-.023m10.256 1.348a.8.8 0 0 0-.674.37l-.62.938a.86.86 0 0 1-.373.215.78.78 0 0 0 .745-.215l.619-.937a.82.82 0 0 1 .474-.348.7.7 0 0 0-.172-.023m-13.547.004a.7.7 0 0 0-.35.097c-.36.208-.455.652-.275 1.026l.414.863-.002.016s.28.575-.223.982a1.1 1.1 0 0 1-.438.22c.162.04.469.055.809-.22.503-.407.223-.982.223-.982l.002-.016-.414-.863c-.18-.374-.085-.818.275-1.026a.7.7 0 0 1 .176-.074.7.7 0 0 0-.197-.023m16.324 2.144a.82.82 0 0 0-.536.213l-.943.836-.045.012a.8.8 0 0 0 .416-.012l.943-.836a.85.85 0 0 1 .356-.191.7.7 0 0 0-.192-.022m-19.102.006a.72.72 0 0 0-.524.213c-.294.294-.27.746 0 1.06l.781.91-.017.002s.227.427-.18.93a.77.77 0 0 1-.428.277.77.77 0 0 0 .8-.277c.406-.503.179-.93.179-.93l.017-.002-.78-.91c-.271-.315-.295-.766 0-1.06a.7.7 0 0 1 .33-.192.8.8 0 0 0-.178-.021m9.734.289a10 10 0 0 1 9.814 10 10 10 0 0 1-9.814 9.998l.185.002a10 10 0 0 0 10-10 10 10 0 0 0-10-10zm11.492 2.506a.85.85 0 0 0-.36.09l-1.017.508c.134.032.26.024.36.005l1.029-.513a1 1 0 0 1 .19-.07.8.8 0 0 0-.202-.02m-23.424.006a.73.73 0 0 0-.592.363c-.208.36-.067.791.275 1.025l.756.516.02.047s.53.357.299.96c-.13.337-.337.489-.494.56l.234.048c.148-.034.459-.159.63-.607.233-.604-.298-.961-.298-.961l-.02-.047-.755-.516c-.343-.234-.484-.665-.276-1.025a.72.72 0 0 1 .46-.344.8.8 0 0 0-.24-.02m24.744 3.248a1 1 0 0 0-.15.017l-.989.202q.076.035.133.048l1.213-.248a.8.8 0 0 0-.207-.02m-26.066.006a.74.74 0 0 0-.692.547c-.107.4.138.78.53.917l1.125.395-.028.021s.41.256.309.895a.78.78 0 0 1-.547.64h-.002l-1.127.069c-.414.025-.75.335-.75.75s.336.718.75.75l.883.068.055.04s.637.044.738.683c.073.46-.12.722-.232.832l-1.178.393c-.394.13-.639.518-.531.92s.512.605.92.529l.017-.004a.73.73 0 0 1-.566-.525c-.108-.402.137-.79.53-.92l1.179-.393c.113-.11.305-.371.232-.832-.1-.639-.738-.684-.738-.684l-.055-.039-.883-.068c-.413-.032-.75-.334-.75-.75 0-.415.336-.725.75-.75L20 31.243h.002a.78.78 0 0 0 .547-.641c.101-.639-.308-.895-.308-.895l.027-.021-1.125-.395c-.392-.137-.637-.516-.53-.917a.74.74 0 0 1 .56-.53l-.013-.002a1 1 0 0 0-.226-.015m1.754 8.232-.295.055c.152.038.453.168.621.605a.78.78 0 0 1-.156.83l-.922.61c-.346.228-.483.663-.276 1.023.173.3.509.415.832.342a.71.71 0 0 1-.46-.342c-.208-.36-.071-.795.275-1.023l.922-.61a.78.78 0 0 0 .156-.83c-.232-.604-.715-.62-.715-.62zm23.39.006.014.033s-.043 0-.109.018l.871.164c.12.022.24.02.352-.004zm-21.821 2.951a1 1 0 0 0-.174.02.78.78 0 0 1 .432.28c.308.381.252.719.207.86l-.795.897c-.275.31-.294.766 0 1.06a.73.73 0 0 0 .699.188.7.7 0 0 1-.328-.188c-.294-.294-.275-.75 0-1.06l.795-.897c.045-.141.1-.479-.207-.86a.76.76 0 0 0-.63-.3m20.262 0a.8.8 0 0 0-.21.02c.11.023.18.058.18.058l.057-.006.78.373c.183.088.382.11.562.067a1 1 0 0 1-.191-.067l-.78-.373-.056.006s-.146-.071-.342-.078m-2.285 2.338a1 1 0 0 0-.2.021.5.5 0 0 1 .121.043l.002-.023.868.744a.82.82 0 0 0 .73.188.9.9 0 0 1-.36-.188l-.866-.744-.002.023s-.114-.061-.293-.064m-15.73.002a1 1 0 0 0-.146.02c.131.03.281.095.438.222.358.29.32.666.267.858l-.459.918c-.185.37-.086.817.274 1.025.175.101.367.12.545.072a.7.7 0 0 1-.174-.072c-.36-.208-.46-.654-.274-1.025l.46-.918c.051-.192.09-.568-.268-.858-.256-.207-.492-.25-.662-.242m2.94 1.684a.7.7 0 0 0-.164.021 1 1 0 0 1 .113.037c.522.2.606.59.62.692l-.23 1.113c-.082.406.13.81.532.918.128.034.255.03.371 0-.401-.108-.614-.512-.531-.918l.229-1.113c-.013-.102-.098-.491-.62-.692a.8.8 0 0 0-.32-.058m9.858 0a.8.8 0 0 0-.192.021c.306.08.479.336.479.336l.027.012.492.72c.197.288.532.43.848.344a.84.84 0 0 1-.477-.344l-.492-.72-.027-.012s-.24-.356-.658-.357m-6.623.876q-.094.001-.174.016l.006.002c.638.101.683.738.683.738l.006.008.053.881c.025.414.334.75.75.75a.7.7 0 0 0 .185-.023c-.319-.084-.543-.377-.564-.727l-.053-.88-.006-.009s-.045-.637-.683-.738a1.3 1.3 0 0 0-.203-.018m3.43.002a1.2 1.2 0 0 0-.221.014c.365.064.517.31.517.31l.371 1.055c.137.39.514.633.914.528a.81.81 0 0 1-.543-.528l-.37-1.054s-.195-.312-.669-.325" filter="url(#h)" opacity=".5" style="paint-order:fill markers stroke"/><path fill="#fff" d="M32.002 17.811c-.415 0-.725.334-.75.748l-.059.973s-.044.637-.683.738-.895-.309-.895-.309l-.379-1.134c-.115-.345-.426-.575-.771-.555a.7.7 0 0 0-.149.023c-.4.108-.605.512-.529.92l.225 1.196c-.011.092-.088.49-.62.695-.465.179-.784-.096-.906-.23l-.582-.881a.8.8 0 0 0-.673-.374.7.7 0 0 0-.35.098c-.36.208-.455.651-.275 1.026l.414.863-.002.015s.28.576-.223.983c-.398.322-.748.246-.877.201l-.928-.822a.83.83 0 0 0-.537-.213.72.72 0 0 0-.523.213c-.294.294-.27.745 0 1.06l.781.91-.018.002s.228.427-.18.93c-.274.34-.625.32-.824.274l-1-.499a.85.85 0 0 0-.433-.09.73.73 0 0 0-.592.364c-.208.36-.067.791.275 1.025l.756.516.02.047s.53.357.299.96c-.173.449-.483.574-.631.608l-1.223-.25a1 1 0 0 0-.226-.015.74.74 0 0 0-.692.546c-.107.402.138.78.53.918l1.124.395-.027.021s.41.256.309.895a.78.78 0 0 1-.547.64h-.002l-1.127.069c-.414.025-.75.334-.75.75s.336.718.75.75l.883.068.054.04s.638.044.739.683c.072.46-.12.722-.233.832l-1.177.393c-.394.13-.64.518-.532.92s.512.605.92.529l1.16-.217-.017.039s.483.017.715.621a.78.78 0 0 1-.157.83l-.921.61c-.347.228-.484.663-.276 1.023s.651.455 1.026.275l.773-.37.072.007s.576-.28.983.223c.308.38.252.718.207.86l-.795.896c-.275.31-.294.766 0 1.06s.745.27 1.06 0l.875-.75.004.035s.427-.227.93.18c.358.29.32.666.267.857l-.459.918c-.185.371-.086.818.274 1.026.36.207.791.067 1.025-.276l.483-.707.047-.02s.357-.53.96-.298c.522.2.607.59.62.691l-.229 1.114c-.083.406.13.81.531.918s.78-.138.918-.53l.373-1.062.01.014s.256-.41.895-.31c.639.102.683.74.683.74l.006.007.053.88c.025.415.334.75.75.75s.718-.335.75-.75l.066-.878.008-.01s.045-.637.684-.738.894.309.894.309l.371 1.054c.138.392.517.635.918.528.352-.095.559-.415.55-.766a1 1 0 0 0-.018-.15L36 43.81l.006.002s.017-.483.62-.715.962.299.962.299l.027.012.492.72c.235.343.664.48 1.024.272a.73.73 0 0 0 .365-.662.85.85 0 0 0-.09-.36l-.424-.85-.002-.003c-.054-.153-.165-.596.245-.928.502-.407.93-.18.93-.18l.001-.023.867.744c.315.27.765.292 1.059-.002a.72.72 0 0 0 .215-.523.82.82 0 0 0-.213-.536l-.775-.875c-.045-.12-.134-.478.197-.886.407-.503.982-.223.982-.223l.057-.006.78.373c.373.18.815.085 1.023-.275a.7.7 0 0 0 .097-.35.8.8 0 0 0-.37-.674l-.89-.586-.001-.002c-.141-.147-.336-.444-.178-.855.232-.604.715-.621.715-.621l-.014-.033 1.146.215c.408.076.809-.128.916-.53a.7.7 0 0 0 .026-.222c-.014-.315-.233-.589-.553-.696l-1.152-.384c-.11-.101-.324-.365-.248-.846.1-.639.738-.684.738-.684l.057-.04.867-.067c.414-.032.748-.335.748-.75s-.334-.725-.748-.75l-1.115-.067a.78.78 0 0 1-.547-.642c-.101-.639.308-.895.308-.895l-.035-.025 1.123-.395c.392-.137.635-.516.528-.918-.095-.35-.415-.558-.766-.548a1 1 0 0 0-.15.017l-1.227.25c-.153-.039-.45-.169-.617-.603-.232-.604.299-.961.299-.961l.027-.065.738-.504c.343-.234.48-.663.272-1.023a.73.73 0 0 0-.662-.365.85.85 0 0 0-.36.09l-1.03.513a.78.78 0 0 1-.784-.283c-.407-.503-.18-.93-.18-.93l-.031-.004.785-.914c.27-.315.292-.764-.002-1.058a.72.72 0 0 0-.523-.215.82.82 0 0 0-.536.213l-.943.836c-.145.044-.478.093-.851-.21-.503-.406-.223-.982-.223-.982l-.004-.04.404-.844c.18-.374.085-.816-.275-1.024a.7.7 0 0 0-.35-.097.8.8 0 0 0-.674.37l-.619.938c-.147.14-.444.338-.857.18-.604-.232-.621-.715-.621-.715l-.008.004.223-1.186c.076-.407-.128-.808-.53-.916a.7.7 0 0 0-.222-.025c-.315.014-.589.233-.696.553l-.39 1.17c-.073.091-.34.363-.873.279-.626-.099-.682-.714-.684-.738l-.074-.973c-.032-.414-.335-.748-.75-.748zm0 .5c.147 0 .237.093.252.285l.074.973v.002c.004.054.02.275.166.54s.47.577.938.651c.723.114 1.2-.283 1.341-.46a.5.5 0 0 0 .084-.153l.391-1.17c.047-.14.147-.209.242-.213q.03-.001.073.01c.142.038.201.149.166.34l-.223 1.185a.5.5 0 0 0 .055.139l-.055-.031s.014.244.142.486.39.519.8.676c.617.237 1.16-.073 1.382-.285a.5.5 0 0 0 .072-.084l.62-.938c.068-.104.167-.15.246-.148a.2.2 0 0 1 .109.03c.127.074.158.202.074.376l-.404.844a.5.5 0 0 0-.045.257l-.002.006c-.034.098-.068.135-.074.313-.011.305.108.748.484 1.053a1.47 1.47 0 0 0 1.313.296.5.5 0 0 0 .185-.103l.944-.836a.32.32 0 0 1 .209-.086c.062 0 .11.016.164.068.104.105.102.233-.024.38l-.785.913a.5.5 0 0 0-.02.116l-.011-.022s-.112.22-.121.494c-.01.274.078.646.353.987.385.475.96.518 1.268.459a.5.5 0 0 0 .129-.043l1.029-.514q.075-.037.148-.04c.103-.002.166.03.217.118.074.128.038.25-.12.36l-.737.503a.5.5 0 0 0-.18.22l-.006.01c-.078.068-.126.085-.22.235-.163.259-.28.7-.106 1.152.226.59.7.844.961.91a.5.5 0 0 0 .223.005l1.226-.25a.4.4 0 0 1 .065-.008q.219-.007.27.18c.038.143-.03.252-.212.316l-1.123.394a.5.5 0 0 0-.064.078v-.005s-.207.135-.352.367a1.5 1.5 0 0 0-.185 1.03c.097.613.583.938.883 1.038a.5.5 0 0 0 .129.026l1.115.066c.182.011.277.104.277.252 0 .147-.095.235-.287.25l-.867.066a.5.5 0 0 0-.254.094l-.02.014c-.1.019-.15.01-.308.094-.27.142-.593.467-.668.945-.103.652.212 1.115.404 1.29a.5.5 0 0 0 .18.106l1.152.385c.141.047.207.15.211.244q.002.029-.008.07c-.038.143-.15.204-.342.169l-1.146-.215a.5.5 0 0 0-.104.037l.008-.012s-.247.014-.488.143c-.242.128-.519.39-.676.798-.236.615.07 1.156.281 1.38l.01.01.002.001a.5.5 0 0 0 .078.063l.889.586a.3.3 0 0 1 .146.248.2.2 0 0 1-.03.109c-.074.127-.2.157-.374.074h-.002l-.78-.373a.5.5 0 0 0-.267-.047h-.006c-.097-.034-.138-.067-.318-.074a1.32 1.32 0 0 0-1.05.486c-.449.554-.36 1.154-.278 1.375a.5.5 0 0 0 .094.157l.775.875c.061.069.087.145.088.209a.21.21 0 0 1-.068.166c-.105.104-.233.1-.38-.026l-.867-.744a.5.5 0 0 0-.125-.02l.032-.017s-.22-.112-.494-.121a1.5 1.5 0 0 0-.985.353c-.307.249-.453.593-.48.871s.037.493.08.614l.025.058.002.002.422.848q.037.075.037.148c.003.103-.027.166-.115.217-.129.074-.253.038-.361-.12l-.493-.722a.5.5 0 0 0-.136-.113c-.056-.072-.104-.158-.291-.275a1.32 1.32 0 0 0-1.153-.106c-.408.157-.67.435-.799.676s-.142.486-.142.486l.057-.039a.5.5 0 0 0-.053.157l.224 1.097a.4.4 0 0 1 .008.065q.007.218-.177.267c-.144.039-.255-.027-.319-.209l-.37-1.054a.5.5 0 0 0-.048-.1s-.135-.207-.367-.352a1.5 1.5 0 0 0-1.03-.185 1.32 1.32 0 0 0-.945.666c-.127.24-.136.424-.14.473a1 1 0 0 0-.026.064l-.066.879c-.015.192-.106.289-.252.289s-.24-.099-.252-.281l-.053-.881-.011-.035c-.002-.021-.016-.25-.153-.508a1.32 1.32 0 0 0-.945-.666c-.433-.068-.797.04-1.03.185s-.367.352-.367.352l.05-.002a.5.5 0 0 0-.108.088l-.373 1.062c-.064.183-.175.25-.317.211-.141-.038-.206-.155-.17-.334l.229-1.113a.5.5 0 0 0 .006-.164c-.027-.212-.228-.822-.936-1.094a1.32 1.32 0 0 0-1.152.106c-.147.092-.161.139-.228.217l-.004.003a.5.5 0 0 0-.217.176l-.483.707c-.108.157-.236.197-.36.125-.127-.072-.16-.205-.077-.369l.459-.918a.5.5 0 0 0 .035-.092c.04-.145.077-.36.03-.615s-.198-.545-.466-.762a1.52 1.52 0 0 0-.986-.353c-.274.01-.492.121-.492.121l.014.008a.5.5 0 0 0-.11.017l-.875.75c-.146.126-.278.13-.38.028-.104-.104-.102-.24.019-.377l.795-.897a.5.5 0 0 0 .103-.18c.079-.246.123-.808-.295-1.324a1.32 1.32 0 0 0-1.05-.486c-.18.007-.22.04-.317.074l-.023-.002a.5.5 0 0 0-.27.047l-.773.371c-.173.083-.302.052-.375-.074s-.037-.256.117-.357l.922-.61a.5.5 0 0 0 .1-.086c.205-.233.471-.757.248-1.34-.158-.408-.435-.67-.676-.798s-.489-.143-.489-.143l.002.004a.5.5 0 0 0-.093-.035l-1.16.217c-.19.035-.309-.029-.346-.168-.038-.14.034-.26.207-.317l1.178-.392a.5.5 0 0 0 .189-.116c.194-.188.477-.643.379-1.267a1.32 1.32 0 0 0-.668-.945c-.157-.084-.208-.075-.309-.094l-.02-.014a.5.5 0 0 0-.251-.092l-.883-.068h-.002c-.192-.015-.287-.104-.287-.25s.097-.241.28-.252l1.099-.066a.5.5 0 0 0 .158-.028c.296-.1.786-.422.883-1.035.068-.432-.043-.799-.188-1.031a1.3 1.3 0 0 0-.35-.367l.003.02a.5.5 0 0 0-.075-.089l-1.125-.394c-.182-.064-.25-.175-.212-.317.03-.115.109-.17.24-.177a.4.4 0 0 1 .096.006l1.222.25a.5.5 0 0 0 .213-.002c.258-.06.751-.31.985-.916a1.32 1.32 0 0 0-.106-1.153c-.105-.166-.167-.196-.244-.26a.5.5 0 0 0-.154-.187l-.756-.516c-.16-.108-.196-.236-.123-.361.045-.08.1-.11.19-.115a.36.36 0 0 1 .179.039l1 .498a.5.5 0 0 0 .107.039c.298.07.917.063 1.328-.445.276-.34.363-.713.354-.987-.01-.273-.121-.494-.121-.494l-.022.043a.5.5 0 0 0-.023-.135l-.781-.91c-.126-.146-.129-.278-.026-.38a.2.2 0 0 1 .164-.067c.066 0 .144.026.211.086l.928.822a.5.5 0 0 0 .166.098c.232.082.818.153 1.357-.283a1.32 1.32 0 0 0 .485-1.051c-.01-.259-.082-.4-.108-.457a.5.5 0 0 0-.015-.096l-.414-.863c-.083-.173-.052-.304.074-.377a.2.2 0 0 1 .107-.03.3.3 0 0 1 .248.149l.582.88a1 1 0 0 0 .047.06c.094.103.253.255.504.359s.605.138.953.004c.72-.277.912-.904.936-1.106a.5.5 0 0 0-.004-.15l-.225-1.195c-.035-.19.027-.307.166-.344a.2.2 0 0 1 .047-.008h.002c.106-.006.218.065.268.215l.379 1.135a.5.5 0 0 0 .05.105s.135.207.368.352.596.254 1.029.185c.478-.075.802-.396.945-.666s.158-.53.158-.53v-.005l.059-.973c.011-.182.104-.277.252-.277m0 3.25c-5.793 0-10.5 4.707-10.5 10.5s4.707 10.5 10.5 10.5 10.5-4.707 10.5-10.5-4.707-10.5-10.5-10.5m0 .5a10 10 0 0 1 10 10 10 10 0 0 1-10 10 10 10 0 0 1-10-10 10 10 0 0 1 10-10" filter="url(#i)" opacity=".15" style="paint-order:fill markers stroke"/><path fill="url(#j)" d="M22.436 11.752c-.366.218-.496.676-.33 1.081l.877 2.133v.004c.101.344-.025.652-.34.844-.365.222-.767.145-1.036-.216h-.002l-1.314-1.717a.87.87 0 0 0-.947-.321.8.8 0 0 0-.226.112c-.383.268-.457.782-.207 1.177l1.223 1.93.002.004c.174.344.095.69-.209.932-.302.243-.662.253-.962.006l-.053-.046-1.606-1.48a.88.88 0 0 0-.838-.21.8.8 0 0 0-.355.21c-.33.33-.314.846 0 1.192l1.552 1.702c.217.291.206.628-.026.917-.267.334-.671.397-1.048.15l-.002.003-1.82-1.168a.9.9 0 0 0-.714-.118.82.82 0 0 0-.464.324c-.268.383-.16.89.21 1.176l1.789 1.38v.002l.006.006.001.002c.294.264.345.621.14.959-.194.319-.515.456-.865.35l-.001-.001-2.118-.884a.9.9 0 0 0-.573-.046.82.82 0 0 0-.55.453c-.198.424-.005.905.409 1.122l2.013 1.057v.001h.002l.002-.002.001.002c.319.198.43.523.308.882-.137.405-.492.605-.93.501l-2.112-.474a.9.9 0 0 0-.416.003.83.83 0 0 0-.618.594c-.12.451.152.891.597 1.033l2.07.66.042.013.027.009c.384.144.562.471.483.867-.073.363-.32.598-.681.621h-.003l-2.305-.106a1 1 0 0 0-.256.021.84.84 0 0 0-.659.746c-.04.465.304.852.767.915l2.17.29q.033.003.065.01h.004c.382.069.607.342.615.729.01.397-.221.692-.613.773l-.008.003-2.233.288a1 1 0 0 0-.168.036.846.846 0 0 0-.6.879c.04.465.448.784.915.766l2.175-.09-.001.003c.45-.026.758.221.823.643.055.36-.091.662-.41.81l-2.224.695c-.446.14-.717.583-.596 1.034s.576.697 1.033.597l2.136-.467.001.002c.416-.1.75.076.899.458.142.366.032.718-.298.93l-2.02 1.042c-.415.214-.605.7-.408 1.124.198.424.69.585 1.122.408l2.007-.825.003.002c.414-.178.79-.051.994.324.171.311.143.64-.09.886l-.002.001-1.866 1.423c-.372.284-.475.795-.207 1.177.268.383.778.457 1.173.207l1.847-1.167.003.002c.357-.236.728-.184 1 .125.251.286.273.642.055.948l-.003.007-.005.007-1.55 1.68c-.317.344-.331.865 0 1.196.33.33.846.314 1.192-.001l1.607-1.463.005.005c.327-.31.724-.315 1.045-.033.267.234.35.55.214.862v.001l-.001.001-1.263 1.972c-.253.394-.176.907.207 1.175.383.269.889.163 1.175-.207l1.333-1.726.003.003c.254-.344.623-.422.983-.225.336.185.48.514.376.88h.001l-.884 2.115c-.18.431-.015.924.41 1.121.423.198.902.007 1.12-.407l1.007-1.92.006.004c.202-.403.573-.547.971-.392.33.128.514.395.497.73v.003l-.515 2.29c-.102.457.146.913.597 1.034.452.121.892-.151 1.034-.596l.662-2.076.008.002c.12-.41.439-.611.844-.549.377.058.624.315.653.69v.004l-.106 2.297c-.021.466.302.874.768.914s.852-.304.914-.767l.29-2.15h.007c.053-.447.351-.708.778-.699.353.008.617.195.716.516v.002l.001.002.301 2.33c.06.463.449.807.914.766s.786-.447.767-.914l-.094-2.307c.026-.358.259-.604.62-.676.42-.084.761.122.89.553l.646 2.068c.14.446.583.717 1.034.596s.696-.578.596-1.035l-.462-2.108-.012-.065c-.07-.408.127-.736.512-.866.35-.119.666-.016.865.283l.009.015 1.06 2.022c.218.414.696.604 1.12.407s.59-.69.41-1.121l-.837-2.009c-.17-.392-.043-.754.308-.967.334-.203.688-.156.952.13l1.39 1.797c.286.37.792.476 1.175.208s.46-.78.207-1.173l-1.16-1.815.003-.002c-.248-.376-.185-.78.149-1.047.294-.235.634-.245.928-.017l.002-.001v.002l1.683 1.534c.345.315.862.33 1.192 0 .33-.331.318-.85.001-1.194l-1.475-1.598-.03-.036-.01-.01c-.253-.302-.245-.665 0-.97.25-.314.614-.386.97-.188l.065.041 1.825 1.157c.395.25.907.176 1.175-.207s.164-.893-.208-1.177l-1.71-1.304.001-.003c-.36-.27-.439-.671-.217-1.036.198-.326.523-.45.882-.329l.004.003 2.088.855c.432.178.925.017 1.123-.407.197-.423.006-.904-.41-1.119l-1.994-1.032-.01-.005c-.327-.198-.437-.536-.313-.9.131-.388.456-.582.869-.506l.052.013 2.111.461c.457.1.914-.146 1.035-.597.121-.452-.152-.894-.598-1.033l-2.054-.643c-.431-.13-.641-.481-.558-.9.077-.385.352-.611.748-.608l.057.001 2.166.089c.467.019.874-.302.915-.767.04-.466-.302-.856-.765-.916l-2.268-.292c-.355-.084-.562-.36-.57-.733-.01-.427.251-.726.699-.778h.001l2.136-.29c.464-.062.807-.45.766-.915s-.446-.787-.913-.765l-2.216.102h-.009c-.408-.006-.69-.259-.752-.657-.062-.405.137-.724.547-.845v-.003l2.065-.66c.445-.141.718-.58.597-1.032-.121-.451-.577-.7-1.033-.597l-2.248.504-.002.001v-.001h-.002c-.352.033-.63-.156-.763-.495-.155-.399-.012-.767.39-.97v-.006l1.91-1.002c.414-.217.607-.696.41-1.12a.83.83 0 0 0-.71-.479.9.9 0 0 0-.31.033q-.051.015-.1.037l-2.08.867-.012.004c-.373.115-.71-.026-.899-.37-.197-.36-.119-.727.225-.981l-.006-.006 1.722-1.326c.37-.286.475-.794.207-1.177a.83.83 0 0 0-.78-.348.912.912 0 0 0-.393.14l-1.967 1.261c-.312.137-.631.053-.866-.215-.282-.321-.275-.718.034-1.046l-.004-.007 1.454-1.595c.315-.345.332-.863.001-1.193a.83.83 0 0 0-.83-.209.9.9 0 0 0-.364.206l-1.678 1.548-.001.001c-.308.224-.668.202-.957-.052-.309-.27-.36-.643-.124-1l-.005-.004 1.163-1.837c.25-.395.178-.908-.205-1.176a.83.83 0 0 0-.715-.113.9.9 0 0 0-.462.32l-1.415 1.858c-.248.238-.576.268-.89.096-.375-.205-.504-.58-.325-.994l-.008-.005.823-2.001c.177-.433.017-.924-.406-1.121a.8.8 0 0 0-.405-.076q-.056.003-.11.012a.89.89 0 0 0-.605.471l-1.053 2.036-.004.002c-.213.311-.556.413-.913.274-.382-.149-.56-.482-.46-.898l-.005-.001.465-2.13c.1-.456-.145-.912-.597-1.033a.8.8 0 0 0-.41-.004.88.88 0 0 0-.623.601l-.7 2.24-.001.003c-.153.301-.448.44-.797.386-.423-.065-.672-.376-.646-.825l-.008-.002.089-2.16c.019-.467-.3-.872-.767-.913a.8.8 0 0 0-.332.036.88.88 0 0 0-.582.731l-.296 2.284v.002c-.097.357-.383.565-.76.557-.41-.01-.69-.261-.739-.686h-.007l-.292-2.159c-.063-.463-.449-.808-.914-.767a.86.86 0 0 0-.767.914l.099 2.176c.026.426-.205.723-.607.804-.399.08-.735-.106-.879-.495l-.021-.064-.655-2.056c-.142-.445-.58-.717-1.032-.596s-.7.576-.597 1.032l.474 2.115c.104.438-.088.785-.493.923-.389.131-.75-.004-.94-.387l-1.003-1.94a.866.866 0 0 0-.962-.464.8.8 0 0 0-.238.097zm-1.645 8.956s.92-.578 1.803-.437c.915.147 1.665 1.303 1.665 1.303l4 6.928s.8 1.533.827 3.64c.025 1.994-1.058 3.925-1.058 3.925l-3.769 6.526s-.75 1.158-1.665 1.304c-.883.141-1.803-.436-1.803-.436l.056.101a16 16 0 0 1-4.283-7.313 16 16 0 0 1 4.227-15.54zm6.966-4.022.12-.033a16 16 0 0 1 19.596 11.313l.068.265c-.02.352-.11 1.06-.52 1.563-.583.72-1.96.79-1.96.79h-7.537s-2.214-.027-3.93-1.047c-1.81-1.076-2.737-2.535-2.737-2.535l-4-6.928s-.627-1.228-.296-2.094c.262-.684.953-1.148 1.195-1.294zm3.387 13.903a1.75 1.75 0 0 1 2.391.64 1.75 1.75 0 0 1-.64 2.391 1.75 1.75 0 0 1-2.391-.64 1.75 1.75 0 0 1 .64-2.39m2.347 4.099c1.837-1.03 3.565-1.102 3.565-1.102l8.005-.001s1.376.07 1.96.79c.425.522.508 1.268.523 1.604a16 16 0 0 1-11.385 11.585 16 16 0 0 1-8.394-.032l.076-.001s-.96-.508-1.279-1.344c-.331-.865.296-2.092.296-2.092l3.83-6.633.004-.008c.272-.422 1.312-1.933 2.799-2.766z" style="paint-order:fill markers stroke"/><path fill="#fff" d="M30.143 9.69a.9.9 0 0 0-.254.037c-.373.111-.617.472-.598.88l.098 2.176c.026.427-.205.723-.607.803-.399.08-.734-.105-.877-.494l-.022-.065-.654-2.054c-.142-.446-.582-.719-1.033-.598s-.7.577-.598 1.033l.475 2.115c.104.439-.088.785-.493.922-.388.132-.75-.004-.94-.386l-1.003-1.94a.866.866 0 0 0-1.123-.408 1 1 0 0 0-.078.04c-.366.22-.495.678-.328 1.083l.877 2.13v.007c.1.344-.027.652-.342.843-.365.222-.766.145-1.035-.216h-.002L20.29 13.88a.87.87 0 0 0-.947-.32.8.8 0 0 0-.227.11c-.382.269-.455.784-.205 1.179l1.223 1.93.002.003c.175.344.094.689-.209.932-.302.242-.663.253-.963.006l-.053-.045-1.605-1.48a.88.88 0 0 0-.838-.212.8.8 0 0 0-.355.21c-.331.33-.315.847 0 1.193l1.552 1.703c.218.29.205.626-.027.916-.267.333-.67.398-1.047.15l-.002.004-1.82-1.17a.9.9 0 0 0-.713-.117.82.82 0 0 0-.465.324c-.268.383-.161.89.209 1.176l1.79 1.381.005.006h.002v.002c.294.265.344.623.139.961-.194.319-.513.456-.864.35l-.002-.002-2.117-.883a.9.9 0 0 0-.574-.047.82.82 0 0 0-.549.453c-.197.424-.005.904.408 1.121l2.014 1.059h.004c.269.167.391.424.35.717l.043-.022-.043.025a1 1 0 0 1-.041.163c-.137.404-.492.603-.93.5l-2.113-.473a.9.9 0 0 0-.414.002.83.83 0 0 0-.62.594c-.12.451.153.89.598 1.033l2.069.66.043.014.027.007c.384.144.561.472.482.868-.072.363-.32.597-.681.62h-.002l-2.305-.105a1 1 0 0 0-.256.022.84.84 0 0 0-.66.746c-.04.465.304.851.768.914l2.17.289.064.01h.006c.382.07.606.343.615.73.009.397-.221.692-.613.774l-.008.002-2.234.289a1 1 0 0 0-.168.035.846.846 0 0 0-.6.879c.04.465.449.784.916.765l2.174-.09-.002.004c.45-.026.76.22.824.643.055.36-.091.662-.41.81l-2.225.696c-.446.14-.716.582-.595 1.033.12.452.576.698 1.033.598l2.136-.467v.002c.416-.1.75.074.899.457.142.365.033.718-.297.93l-2.02 1.043c-.415.214-.605.7-.408 1.123.198.423.689.585 1.121.408l2.008-.824.002.002c.414-.179.789-.051.994.324.17.311.143.64-.09.887h-.002l-1.865 1.423c-.371.284-.475.793-.207 1.176s.777.457 1.172.207l1.848-1.168.004.002c.356-.236.727-.183.998.125.252.287.274.643.056.95l-.003.005-.004.008-1.551 1.68c-.317.344-.33.865 0 1.195s.846.315 1.191 0l1.608-1.463.004.004c.327-.309.725-.315 1.046-.033.268.235.349.551.213.863v.002L18.91 49.36c-.253.393-.176.908.207 1.176s.888.163 1.173-.207l1.334-1.727.004.002c.254-.344.623-.422.983-.225.336.185.48.515.377.88v.001l-.883 2.114c-.18.431-.015.925.408 1.123.424.197.902.005 1.12-.408l1.007-1.92.006.004c.202-.403.574-.548.973-.393.329.128.514.394.496.73v.002l-.516 2.291c-.102.456.146.915.598 1.036.451.12.891-.153 1.033-.598l.662-2.076.008.002c.121-.41.44-.611.846-.55.377.059.622.316.652.69v.006l-.106 2.295c-.021.467.302.875.768.916s.852-.304.914-.767l.29-2.15h.007c.052-.448.35-.71.777-.7.353.008.619.196.717.518v.002h.002l.3 2.33c.06.463.45.808.915.767s.784-.447.766-.914l-.094-2.306c.025-.359.26-.606.62-.678.42-.084.76.123.89.555l.646 2.066c.14.446.582.717 1.033.596s.696-.577.596-1.034l-.461-2.109-.012-.064c-.07-.409.127-.737.512-.868.35-.118.666-.014.865.286l.008.013 1.062 2.022c.218.414.696.605 1.12.408.423-.198.59-.69.41-1.121l-.838-2.01c-.17-.392-.042-.754.308-.967.334-.203.688-.156.952.13v.001l1.39 1.797c.286.37.791.475 1.174.207s.46-.778.207-1.172l-1.16-1.816.004-.002c-.248-.377-.185-.778.148-1.045.294-.236.634-.245.928-.018l.002-.002.002.002 1.682 1.535c.345.315.86.33 1.19-.002.331-.33.32-.85.003-1.193l-1.475-1.598-.03-.037-.01-.01c-.254-.301-.245-.664 0-.968.25-.314.613-.386.968-.188q.034.019.066.041l1.827 1.156c.395.25.905.176 1.173-.207s.165-.894-.207-1.177l-1.71-1.303.002-.004c-.362-.269-.44-.67-.217-1.035.198-.326.522-.45.88-.33l.004.004 2.088.855c.433.178.926.016 1.123-.408.198-.424.005-.904-.41-1.12l-1.992-1.03-.012-.006c-.327-.198-.435-.535-.312-.899.131-.388.456-.582.869-.506l.053.012 2.11.461c.456.1.913-.146 1.034-.598s-.151-.891-.597-1.03l-2.053-.645c-.432-.13-.642-.481-.559-.9.077-.385.352-.611.748-.608l.057.002 2.166.088c.467.019.873-.3.914-.766.04-.465-.302-.856-.766-.916l-2.267-.293c-.355-.084-.562-.36-.57-.732-.01-.428.251-.725.699-.778l.002-.002 2.136-.287c.464-.062.807-.45.766-.916-.04-.465-.447-.787-.914-.765l-2.215.101-.01.002c-.408-.006-.69-.26-.752-.658-.062-.406.138-.724.547-.846l.002-.002 2.063-.66c.445-.142.718-.581.598-1.033s-.578-.698-1.034-.596l-2.248.504h-.004c-.351.032-.63-.156-.761-.496-.156-.398-.014-.766.388-.969v-.006l1.91-1.002c.414-.217.608-.697.41-1.12a.83.83 0 0 0-.71-.48.9.9 0 0 0-.41.071l-2.08.867-.01.004c-.373.115-.713-.026-.9-.369-.198-.36-.12-.728.224-.982l-.004-.006 1.72-1.326c.37-.286.476-.795.208-1.178a.82.82 0 0 0-.883-.33.9.9 0 0 0-.291.12l-1.967 1.263c-.312.136-.63.052-.865-.215-.282-.321-.276-.717.033-1.045l-.004-.008 1.455-1.594c.315-.345.33-.863 0-1.193a.83.83 0 0 0-.83-.21.9.9 0 0 0-.363.206l-1.678 1.549h-.002c-.308.224-.668.203-.957-.051-.308-.27-.359-.644-.123-1l-.006-.004 1.164-1.838c.25-.395.178-.907-.205-1.176a.83.83 0 0 0-.715-.113.9.9 0 0 0-.463.32l-1.416 1.858c-.247.238-.574.27-.888.097-.375-.205-.505-.58-.326-.994l-.006-.006.822-2.002c.177-.432.017-.923-.406-1.12a.8.8 0 0 0-.405-.075c-.036.003-.075.004-.11.012a.89.89 0 0 0-.606.47l-1.053 2.036-.004.002c-.213.311-.556.414-.912.275-.383-.149-.56-.483-.46-.898l-.005-.002.465-2.13c.1-.456-.146-.911-.598-1.032a.8.8 0 0 0-.41-.004.88.88 0 0 0-.623.601l-.7 2.24-.001.002c-.153.302-.447.439-.797.385-.423-.065-.67-.374-.645-.824l-.007-.002.087-2.16c.02-.467-.3-.872-.765-.912a.8.8 0 0 0-.334.037.88.88 0 0 0-.582.73l-.295 2.283v.002c-.098.357-.384.566-.762.557-.41-.01-.69-.26-.738-.685h-.006l-.293-2.159c-.059-.434-.402-.765-.828-.771zm-.01.798.022.002h.002l.008.008q.007.014.013.07l.293 2.159.022.02c.048.354.197.709.47.96.284.261.663.39 1.028.399.68.015 1.369-.481 1.55-1.145a.8.8 0 0 0-.078-.611l.135.232.262-2.015v-.002c.006-.049.027-.067.035-.073h.016l.023.002.002.002h.002l.002.002h.002v.002l.002.002.002.006a.3.3 0 0 1 .002.069l-.088 2.16.02.025c-.014.371.074.758.312 1.06.247.314.621.507.998.565.62.095 1.338-.232 1.633-.816a1 1 0 0 0 .059-.156l.691-2.21c.015-.048.043-.06.051-.062l.002-.002h.004l.006.002a.1.1 0 0 1 .027.01l.002.002v.002l.002.002v.002l.002.002v.002a.3.3 0 0 1-.01.068l-.464 2.13.011.017c-.078.352-.058.74.114 1.072.177.342.49.594.83.727.61.238 1.37.004 1.783-.512a.8.8 0 0 0 .135-.143l1.052-2.035c.017-.033.034-.047.045-.053h.014l.006-.002h.002l.002.002.004.002.021.01v.002h.002l.002.002v.004l.002.002v.006q-.001.016-.023.067l-.823 2.002.01.03c-.14.345-.188.74-.066 1.106.126.379.41.685.744.868.554.303 1.352.239 1.83-.221a1 1 0 0 0 .08-.092l1.416-1.857a.1.1 0 0 1 .053-.04l.014-.003h.002v.002h.007l.002.002h.002l.002.002.018.013.002.002v.002l.002.002v.008c0 .012-.01.03-.033.067l-1.164 1.836.004.029c-.19.302-.305.669-.258 1.037.049.382.257.726.531.967.516.453 1.375.506 1.943.101a1 1 0 0 0 .086-.064l1.676-1.547a.1.1 0 0 1 .049-.027l.021-.008h.002v.002h.004l.002.002q.004.004.01.012l.016.017.002.002v.01l-.002.002v.002a.3.3 0 0 1-.043.055l-1.453 1.596-.004.037c-.247.275-.428.628-.44 1.011a1.58 1.58 0 0 0 .403 1.07c.417.475 1.181.685 1.787.42a1 1 0 0 0 .113-.058l1.965-1.262a.1.1 0 0 1 .037-.017v.002l.014-.002h.002q.016-.004.021-.006h.002v.002h.002v.002h.002l.008.014.012.02.002.001v.008l-.002.002v.002l-.002.002v.002a.2.2 0 0 1-.051.047l-1.72 1.326a1 1 0 0 0-.061.111c-.246.215-.47.476-.543.805a1.58 1.58 0 0 0 .17 1.09c.337.617 1.156.959 1.836.75l.046-.018.012-.004.026-.01 2.08-.867.011-.005.006-.002a.1.1 0 0 1 .035-.002h.024l.004.004v.002l.006.013.01.022v.006l-.002.002v.004l-.004.004a.3.3 0 0 1-.059.035l-1.91 1.002-.014.03c-.327.173-.62.442-.762.8-.147.37-.126.79.012 1.144.157.402.531.674.95.836l-.133-.23a.8.8 0 0 0 1.09.295l-.1.058 2.129-.476a.3.3 0 0 1 .064-.01h.004l.002.002h.002v.002l.006.006q.004.008.006.024.005.016.006.025l-.002.002v.004l-.006.006a.3.3 0 0 1-.065.025l-2.064.66-.03.03c-.334.11-.653.31-.85.619a1.58 1.58 0 0 0-.216 1.082c.11.714.798 1.326 1.531 1.338h.008c.028 0 .037-.002.051-.002l2.215-.102q.052-.003.066 0h.002l.002.002h.002l.002.002v.002h.002v.004l.002.002q.002.009.002.024v.027l-.002.002v.002l-.002.002v.002h-.002l-.004.004a.3.3 0 0 1-.066.014l-2.123.287-.014.002h-.002a1.63 1.63 0 0 0-1.01.51c-.265.297-.389.7-.38 1.08.014.66.513 1.333 1.183 1.492a1 1 0 0 0 .084.016l2.268.29a.2.2 0 0 1 .062.014h.002l.004.004v.002h.002v.004a.1.1 0 0 1 0 .03.1.1 0 0 1-.006.027v.002h-.002v.002l-.002.002h-.002l-.002.002h-.002q-.014.006-.068.004l-2.166-.09.016.002-.1-.004h-.002c-.703-.005-1.4.568-1.537 1.252-.151.756.368 1.6 1.113 1.822l2.045.641a.2.2 0 0 1 .063.025h.002l.002.002v.002l.002.002v.01l-.004.022-.008.021-.002.002v.002h-.002l-.004.004h-.002l-.002.002c-.012.004-.032.001-.072-.007l-2.096-.46-.016-.003-.076-.016-.002-.002c-.725-.134-1.538.347-1.771 1.037-.218.642.052 1.475.656 1.84l.03.018.009.003.018.01 1.994 1.033q.046.024.058.034v.002l.002.002v.002l.002.002v.006l-.002.002a.1.1 0 0 1-.02.04l-.003.005h-.004l-.002.002h-.002a.2.2 0 0 1-.07-.022l-2.016-.824.047.031a.8.8 0 0 0-.172-.082c-.653-.22-1.468.09-1.82.67-.396.65-.199 1.598.406 2.069l.008.023 1.709 1.303q.044.033.05.048v.004l.002.002-.002.002v.006l-.011.02-.016.018-.002.002v.002h-.006l-.002.002h-.002l-.002-.002h-.002a.2.2 0 0 1-.06-.032L47.895 43.4l-.012-.008q-.046-.03-.105-.062c-.63-.352-1.536-.176-1.985.384-.432.54-.448 1.434.014 1.985l.014.015.015.018c.002.004.01.017.041.049l1.47 1.592a.2.2 0 0 1 .038.048v.012l-.002.002v.002l-.002.002-.013.018-.018.016-.002.002h-.014l-.002-.002a.2.2 0 0 1-.053-.041v.002l-1.59-1.452.06.108a.8.8 0 0 0-.312-.242l.108.007c-.046-.035-.114-.021-.164-.05a.8.8 0 0 0-.237-.075c-.51-.187-1.104-.18-1.517.15-.534.429-.634 1.23-.367 1.862a.8.8 0 0 0 .04.244l1.16 1.815h.003c.019.03.029.046.031.056v.008l-.004.004-.021.018-.02.012h-.002l-.002.002h-.004l-.002-.002h-.004l-.002-.002h-.002a.3.3 0 0 1-.045-.051l-1.355-1.754.025.047a.8.8 0 0 0-.105-.145c-.477-.516-1.36-.63-1.955-.27-.621.378-.926 1.279-.625 1.97l.832 1.998a.2.2 0 0 1 .02.06l-.003.002v.004l-.002.002v.002l-.006.006-.021.012-.024.008-.002.002h-.002l-.002-.002h-.004l-.002-.002h-.002v-.002a.3.3 0 0 1-.035-.059l-1.06-2.021-.036-.06-.011-.02-.004-.006c-.37-.556-1.166-.808-1.787-.598-.691.234-1.17 1.032-1.045 1.758q.005.036.023.117l.457 2.094a.3.3 0 0 1 .01.068l-.002.006-.002.002v.002l-.002.002h-.002v.002h-.002a.1.1 0 0 1-.045.012h-.006l-.002-.002h-.002l-.002-.002h-.002v-.002l-.002-.002a.2.2 0 0 1-.023-.059l-.643-2.056-.002-.002a1.63 1.63 0 0 0-.682-.92 1.6 1.6 0 0 0-1.13-.188c-.639.128-1.213.727-1.26 1.404a1 1 0 0 0-.002.09l.093 2.307a.3.3 0 0 1-.002.068l-.002.002v.002l-.002.002v.002h-.002l-.002.002h-.002l-.002.002h-.002l-.021.004a.1.1 0 0 1-.03-.002h-.001l-.004-.004v-.002h-.002l-.002-.002q-.008-.014-.012-.062l-.3-2.33a.8.8 0 0 0-.057-.17c-.206-.6-.825-1.033-1.436-1.047a1.6 1.6 0 0 0-1.082.383c-.289.258-.446.624-.496.994l-.018.015-.29 2.15a.2.2 0 0 1-.016.067l-.002.002v.002l-.004.004h-.004l-.002.002q-.01.002-.026 0a.1.1 0 0 1-.027-.006l-.002-.002h-.002v-.002l-.002-.002v-.002l-.002-.002v-.002a.2.2 0 0 1-.002-.062l.102-2.215-.022.082a.8.8 0 0 0 .018-.197.8.8 0 0 0-.043-.178c-.109-.644-.64-1.213-1.28-1.31a1.58 1.58 0 0 0-1.084.214c-.31.201-.516.526-.625.864l-.027.015-.662 2.076a.2.2 0 0 1-.027.065v.002h-.002l-.002.002h-.002l-.002.002h-.008l-.022-.004-.027-.01v-.002l-.004-.004v-.002l-.002-.002v-.002a.2.2 0 0 1 .01-.062l.515-2.291a.8.8 0 0 0-.058-.393c-.083-.55-.427-1.066-.928-1.262h-.002a1.58 1.58 0 0 0-1.145-.01c-.358.144-.63.436-.804.764l-.026.006-1.008 1.92a.3.3 0 0 1-.037.06l-.004.005h-.012l-.021-.008-.022-.014h-.002v-.002l-.002-.002v-.002l-.002-.002v-.008a.2.2 0 0 1 .02-.06l.883-2.114a1 1 0 0 0 .031-.092v-.002l.012-.042c.164-.664-.182-1.43-.774-1.754a1.58 1.58 0 0 0-1.09-.168c-.364.081-.671.315-.89.6l-.024.001-1.334 1.727a.3.3 0 0 1-.046.053h-.002l-.002.002h-.01l-.002-.002-.02-.014q-.016-.01-.021-.018v-.002l-.002-.002v-.01a.2.2 0 0 1 .03-.056l1.159-1.807-.168.096a.8.8 0 0 0 .334-.379v.004c.261-.601.054-1.368-.42-1.783a1.6 1.6 0 0 0-1.07-.405c-.387.01-.745.193-1.022.444h-.025l-1.606 1.46-.002.005a.3.3 0 0 1-.054.043h-.012l-.002-.002h-.002l-.002-.002a.1.1 0 0 1-.031-.034v-.006l-.002-.002.002-.002v-.004q.002-.015.039-.052v-.004l1.55-1.68a1 1 0 0 0 .051-.063l.022-.03v-.003h.002v-.002l.025-.039.004-.006c.005-.006.008-.008.016-.021v-.002c.347-.565.279-1.374-.155-1.867a1.58 1.58 0 0 0-.966-.532c-.367-.047-.73.068-1.032.256h-.033l-1.848 1.168v.004a.3.3 0 0 1-.06.033h-.008l-.002-.002h-.002l-.004-.004a.2.2 0 0 1-.027-.043v-.008l.002-.002v-.002a.2.2 0 0 1 .048-.045l1.827-1.392-.045.025a.8.8 0 0 0 .183-.144c.454-.482.513-1.269.211-1.82a1.58 1.58 0 0 0-.87-.745c-.361-.118-.75-.068-1.089.067l-.045-.004-2.006.826a.2.2 0 0 1-.07.021l-.002-.002h-.004l-.002-.002h-.002v-.002l-.002-.002h-.002l-.01-.02a.1.1 0 0 1-.007-.026v-.004l.002-.006v-.002c.006-.011.023-.02.056-.037l2.02-1.041.064-.04c.602-.386.868-1.235.611-1.892a1.58 1.58 0 0 0-.728-.832c-.331-.17-.717-.186-1.066-.11l-.022-.01-2.137.467a.3.3 0 0 1-.068.01h-.002l-.002-.002h-.002l-.002-.002h-.002v-.002l-.002-.002v-.002h-.002l-.006-.021q-.005-.019-.006-.03l.002-.002v-.004l.002-.002v-.002h.002l.002-.002a.2.2 0 0 1 .059-.023l2.224-.695a1 1 0 0 0 .098-.037c.61-.284.962-1.022.865-1.657a1.58 1.58 0 0 0-.562-.998c-.298-.235-.68-.318-1.045-.308l-.04-.018-2.173.088a.2.2 0 0 1-.074-.004l-.002-.002h-.002v-.002h-.002v-.002l-.002-.002v-.002l-.002-.002q-.002-.006-.002-.02v-.025l.002-.002v-.002l.004-.004q.01-.006.04-.013v-.002l.028-.006 2.233-.287.068-.014h.002v-.002c.705-.149 1.264-.858 1.248-1.572-.016-.688-.582-1.372-1.272-1.498h-.013q-.027-.006-.092-.016l-.018-.002-2.152-.29a.3.3 0 0 1-.068-.013l-.002-.002h-.002v-.002l-.002-.002h-.002v-.006l-.002-.002q0-.008.002-.023 0-.013.002-.02v-.002l.002-.002v-.002h.002l.004-.004.031-.008h.002s.015-.003.037-.002l2.22.102-.048-.012a.8.8 0 0 0 .225.016c.681-.044 1.286-.62 1.414-1.262.14-.705-.305-1.518-.987-1.773H13.3l-.04-.014-.012-.004-.041-.013-.012-.004-2.07-.66a.3.3 0 0 1-.065-.026l-.002-.002h-.002v-.002l-.002-.002v-.004l-.002-.002v-.004q0-.008.006-.021l.004-.012v-.002h.002v-.002h.002v-.002h.002l.023-.006a.1.1 0 0 1 .053 0l2.111.475-.01-.004c.758.18 1.628-.295 1.874-1.022.18-.535-.042-1.146-.444-1.558a.8.8 0 0 0-1.021-.276l.379-.219-1.627-.853a.3.3 0 0 1-.06-.037v-.002l-.003-.002v-.002l-.002-.002v-.006l.002-.002.008-.022.004-.01h.002v-.001h.002q.003-.001.013-.004a.1.1 0 0 1 .069.007l1.865.78h.002v-.002l-.123-.213a.8.8 0 0 0 .451.348c.663.2 1.436-.134 1.78-.7.321-.529.25-1.278-.13-1.773a1 1 0 0 0-.054-.082l-.016-.018.037.055a1 1 0 0 0-.105-.115 1 1 0 0 0-.074-.084l-1.788-1.381a.2.2 0 0 1-.056-.053v-.012l.012-.02.006-.005h.002v-.002h.002l.005-.002c.009-.003.039-.003.075.02l1.82 1.167.021-.004c.65.41 1.61.273 2.086-.322.414-.516.446-1.358.043-1.897l-.05-.06L16.7 16.85a.3.3 0 0 1-.043-.055l-.002-.002v-.008l.002-.002v-.002h.002v-.002l.015-.018.006-.006h.002l.002-.002h.004c.01 0 .037.002.07.032l1.606 1.478c.044.04.079.067.088.074v.002c.55.453 1.435.43 1.97 0 .54-.431.74-1.293.423-1.918l-.024-.043-.002-.003-.013-.022-1.223-1.93a.2.2 0 0 1-.033-.068v-.006l.002-.002v-.002l.002-.002v-.002q.006-.005.017-.012l.004-.004h.004v-.002h.012c.012.001.033.01.06.045l1.315 1.719.018.004c.47.607 1.42.803 2.07.408.55-.335.86-1.086.692-1.72a1 1 0 0 0-.028-.116l-.877-2.133h.002q-.024-.06-.017-.076l.002-.002v-.002l.008-.008h.002l.004-.002q.003 0 .007-.002l.006-.002.01-.002c.013.001.034.011.057.055l1.002 1.94-.004-.012c.336.676 1.223 1.022 1.912.789.36-.122.695-.376.885-.727s.219-.765.13-1.139l-.472-2.105a.3.3 0 0 1-.01-.066l.002-.002v-.004l.002-.002v-.002h.002l.002-.002q.008-.005.025-.008.015-.005.024-.006h.004l.002.002h.002l.006.006v.002a.3.3 0 0 1 .025.064l.655 2.055-.002-.012q.014.051.035.112c.256.692 1.07 1.145 1.787 1.002.358-.072.71-.266.943-.573s.327-.696.305-1.064l-.098-2.164v-.004c-.002-.047.009-.065.018-.072h.002l.002-.002.006-.002.01-.002.005-.002zm2.35 4.825a16.844 16.844 0 0 0-4.812.568l-.005.002-.127.035a.8.8 0 0 0-.195.084c-.308.186-1.143.683-1.53 1.693-.27.708-.137 1.374 0 1.872.139.497.33.87.33.87l.022.038 4 6.927.018.03s.89 1.165 2.322 2.236c-.585-.115-1.21-.09-1.761.229-.517.298-.805.802-1.008 1.322a13.3 13.3 0 0 0-.768-3.086l-.015-.03-4-6.927-.022-.037s-.228-.353-.59-.72-.872-.817-1.62-.936c-1.305-.209-2.354.548-2.354.548a1 1 0 0 0-.137.108 16.8 16.8 0 0 0 .059 23.996 1 1 0 0 0 .08.005c.002.002 1.048.755 2.351.547.749-.12 1.26-.567 1.621-.935.362-.369.59-.723.59-.723l.022-.035 3.767-6.527.006-.008s.815-1.655 1.02-3.586c.053.169-.026.349.066.508.573.992 1.715 1.272 2.781 1.023-1.356.953-2.3 2.193-2.57 2.611l-.002.002-.002.004v.002l-.026.04-3.828 6.632-.02.035s-.191.376-.33.873c-.138.498-.272 1.164-.001 1.872.471 1.233 1.652 1.763 1.652 1.763l.012-.047a1 1 0 0 0 .074.112A16.801 16.801 0 0 0 48.32 36.174a.8.8 0 0 0 .024-.229c-.018-.416-.075-1.302-.701-2.074-.478-.588-1.12-.807-1.62-.935-.499-.13-.92-.149-.92-.149l-.04-.002-8.006.002h-.033s-1.564.173-3.303.969c.751-.799 1.081-1.932.508-2.926-.13-.226-.395-.272-.578-.441 1.853.91 3.863.996 3.863.996h7.547l.04-.002s.423-.02.923-.149c.5-.128 1.143-.346 1.62-.935.604-.743.672-1.593.696-2.024a.8.8 0 0 0-.021-.234l-.07-.277-.003-.004c-1.968-7.345-8.527-12.247-15.764-12.447zm-.463.794a16 16 0 0 1 15.455 11.86l.066.263c-.02.352-.109 1.06-.517 1.563-.584.72-1.963.79-1.963.79h-7.535s-2.215-.027-3.93-1.046c-1.81-1.076-2.738-2.535-2.738-2.535l-4-6.928s-.626-1.228-.295-2.094c.261-.684.953-1.149 1.195-1.295l.12-.033a16 16 0 0 1 4.142-.545zm-9.756 4.143q.165-.004.33.022c.915.146 1.666 1.302 1.666 1.302l4 6.928s.8 1.533.826 3.639c.026 1.994-1.056 3.925-1.056 3.925l-3.77 6.528s-.749 1.156-1.664 1.302c-.883.141-1.805-.435-1.805-.435l.057.101a16 16 0 0 1-4.283-7.312 16 16 0 0 1 4.226-15.543s.705-.441 1.473-.457zm9.756 10.105a1.75 1.75 0 0 1 1.516.875 1.75 1.75 0 0 1-.641 2.39 1.75 1.75 0 0 1-2.39-.64 1.75 1.75 0 0 1 .64-2.39 1.75 1.75 0 0 1 .875-.235m13.043 3.229s1.375.071 1.959.79c.424.523.509 1.268.523 1.604a16 16 0 0 1-11.387 11.584 16 16 0 0 1-8.392-.031h.074s-.958-.509-1.277-1.344c-.331-.866.295-2.094.295-2.094l3.83-6.633.004-.007c.272-.423 1.312-1.933 2.798-2.766 1.837-1.03 3.567-1.102 3.567-1.102zM26.807 50.113l.004.02-.002-.019z" filter="url(#k)" opacity=".35" style="paint-order:fill markers stroke"/><path fill="#fff" d="M30.16 9.691a.9.9 0 0 0-.271.036c-.374.111-.617.472-.598.88l.098 2.176c.022.37-.147.641-.454.76.141.063.305.078.48.043.403-.08.635-.376.608-.803l-.1-2.176a.865.865 0 0 1 .524-.853.8.8 0 0 0-.287-.063m3.732 0a.8.8 0 0 0-.246.041.88.88 0 0 0-.582.73l-.295 2.284v.002a.72.72 0 0 1-.425.498q.134.054.298.059c.378.008.664-.2.762-.557l-.002-.002.297-2.283a.88.88 0 0 1 .523-.71.8.8 0 0 0-.33-.062m3.74.65a.8.8 0 0 0-.2.024.88.88 0 0 0-.624.602l-.699 2.24-.002.002a.7.7 0 0 1-.347.338 1 1 0 0 0 .185.047c.35.053.645-.084.797-.385v-.002l.701-2.24a.9.9 0 0 1 .504-.563.9.9 0 0 0-.314-.062m-11.23.007a.8.8 0 0 0-.206.027c-.452.121-.7.577-.598 1.033l.475 2.115c.1.42-.073.757-.444.905a.76.76 0 0 0 .584.017c.405-.137.598-.483.494-.922l-.474-2.115c-.095-.42.109-.84.494-.998a.8.8 0 0 0-.324-.062m-3.597 1.287a.827.827 0 0 0-.37.117c-.365.218-.494.677-.327 1.082l.877 2.13v.007c.1.344-.028.652-.342.843a1 1 0 0 1-.094.05c.226.112.485.098.729-.05.314-.19.44-.5.34-.843v-.006l-.878-2.131c-.166-.405-.036-.864.33-1.082a1 1 0 0 1 .079-.041l.033-.014a.8.8 0 0 0-.377-.062m18.412 0a1 1 0 0 0-.092.002q-.056.002-.111.011a.89.89 0 0 0-.606.471l-1.052 2.035-.004.002a.8.8 0 0 1-.3.268l.022.008c.357.139.7.036.912-.276l.004-.002 1.053-2.035a.9.9 0 0 1 .451-.424.8.8 0 0 0-.277-.06m-21.66 1.888a.8.8 0 0 0-.44.149c-.382.268-.455.783-.205 1.178l1.223 1.93.002.003c.175.344.094.689-.209.932a1 1 0 0 1-.17.11c.263.132.554.09.805-.11.303-.243.381-.588.207-.932l-.002-.004-1.223-1.93c-.25-.394-.176-.909.207-1.177a1 1 0 0 1 .156-.086.85.85 0 0 0-.351-.063m24.9 0a.905.905 0 0 0-.707.355l-1.416 1.858a.8.8 0 0 1-.182.133c.292.13.588.087.817-.133l1.416-1.857a.9.9 0 0 1 .384-.293.9.9 0 0 0-.312-.063m2.852 2.428a.919.919 0 0 0-.574.24l-1.678 1.55h-.002a1 1 0 0 1-.13.08.72.72 0 0 0 .764-.08h.002l1.678-1.55a.9.9 0 0 1 .287-.18.8.8 0 0 0-.348-.06m-30.635.002a.82.82 0 0 0-.561.24c-.33.33-.315.848 0 1.194l1.553 1.703c.217.29.204.626-.028.916a.8.8 0 0 1-.273.226c.334.151.674.066.908-.226.232-.29.243-.625.025-.916l-1.55-1.703c-.315-.346-.33-.863 0-1.194a.8.8 0 0 1 .271-.18.9.9 0 0 0-.346-.06m15.664.158a16 16 0 0 1 15.136 11.855l.067.264c-.02.352-.11 1.06-.518 1.562-.584.72-1.963.791-1.963.791h.635s1.377-.071 1.961-.79c.408-.503.5-1.21.52-1.563l-.069-.264a16 16 0 0 0-15.77-11.855zm17.435 2.733a1 1 0 0 0-.207.023.9.9 0 0 0-.29.121l-1.948 1.248c.19.099.404.106.615.014l1.967-1.262a1 1 0 0 1 .17-.084.9.9 0 0 0-.307-.06m-35.448.002a.824.824 0 0 0-.732.352c-.269.382-.162.89.208 1.175l1.79 1.38.003.005.002.002h.002v.002c.294.264.344.623.139.96a.8.8 0 0 1-.32.311l.09.037v.002c.35.106.67-.03.864-.35.206-.337.156-.696-.138-.96l-.002-.002-.006-.004v-.002l-1.79-1.381c-.37-.286-.478-.793-.21-1.176a.8.8 0 0 1 .371-.293.9.9 0 0 0-.271-.058m8.591 1.404a2 2 0 0 0-.304.023c.907.158 1.648 1.301 1.648 1.301l4 6.928s.8 1.533.826 3.639c.025 1.994-1.056 3.925-1.056 3.925l-3.77 6.528s-.741 1.143-1.648 1.3c.2.03.41.036.617.002.915-.146 1.666-1.302 1.666-1.302l3.767-6.528s1.084-1.93 1.06-3.925c-.028-2.106-.827-3.64-.827-3.64l-4-6.927s-.751-1.156-1.666-1.302a2 2 0 0 0-.313-.022zm-10.47 1.865a.9.9 0 0 0-.266.026.82.82 0 0 0-.55.453c-.197.423-.005.904.409 1.12l2.014 1.06h.004c.318.197.43.523.308.882a.75.75 0 0 1-.42.473l.123.027c.439.104.795-.095.932-.5.122-.359.01-.685-.309-.883h-.005l-2.012-1.058c-.414-.217-.608-.698-.41-1.121a.82.82 0 0 1 .45-.422 1 1 0 0 0-.269-.057m39.18 0a.9.9 0 0 0-.335.072l-2.015.84c.163.08.356.094.558.032l.012-.004 2.08-.868.033-.013a.9.9 0 0 0-.334-.059M11.11 25.66q-.105.001-.203.025a.83.83 0 0 0-.619.594c-.12.452.152.891.598 1.033l2.068.66.043.014.027.008c.384.144.562.471.483.867-.062.31-.252.529-.531.6l.482.021h.002c.36-.023.61-.258.682-.62.079-.397-.099-.724-.483-.868l-.027-.008-.043-.013-2.069-.66c-.445-.143-.718-.582-.597-1.034a.82.82 0 0 1 .53-.566l-.132-.03a1 1 0 0 0-.21-.023m41.736.004a1 1 0 0 0-.13.021l-1.989.446q.167.075.371.058h.004l2.121-.476a.9.9 0 0 0-.377-.049M10.52 29.377a1 1 0 0 0-.256.021.84.84 0 0 0-.66.746c-.04.466.305.852.768.914l2.17.29.064.01h.006c.382.07.607.343.615.73.01.397-.221.692-.613.773l-.008.002-2.234.29a1 1 0 0 0-.168.034.846.846 0 0 0-.6.88c.041.465.45.784.916.765l.41-.018a.84.84 0 0 1-.693-.748.85.85 0 0 1 .602-.879 1 1 0 0 1 .168-.035l2.232-.289.008-.002c.392-.081.622-.376.613-.773-.009-.387-.233-.66-.615-.73h-.004l-.065-.01-2.17-.29c-.463-.062-.808-.448-.767-.914a.84.84 0 0 1 .66-.746q.006-.001.012-.004zm42.998 0-1.773.082q.087.02.183.021l.008-.002 1.819-.084a1 1 0 0 0-.237-.017m-20.943.98a2 2 0 0 0-.232.028 1.75 1.75 0 0 1 1.193.845 1.75 1.75 0 0 1-.64 2.391 1.8 1.8 0 0 1-.557.205 1.75 1.75 0 0 0 1.191-.205 1.75 1.75 0 0 0 .641-2.39 1.75 1.75 0 0 0-1.596-.874m12.49 3.227c.055.003 1.385.086 1.957.791.425.523.51 1.268.524 1.603a16 16 0 0 1-11.387 11.584 16 16 0 0 1-3.82.543 16 16 0 0 0 4.455-.543A16 16 0 0 0 48.18 35.978c-.015-.335-.1-1.08-.524-1.603-.584-.72-1.96-.791-1.96-.791zm-31.736 1.158-.406.018c.323.057.54.283.594.629.055.36-.091.662-.41.81l-2.225.695c-.446.14-.717.582-.596 1.034.121.451.577.697 1.034.597l.13-.029a.82.82 0 0 1-.529-.568c-.12-.452.15-.894.596-1.034l2.224-.695c.32-.148.464-.45.409-.81-.065-.423-.373-.67-.823-.643zm38.6 0a1 1 0 0 0-.185.018l1.775.072a1 1 0 0 0 .227-.016l-1.76-.072zm-37.613 3.291a1 1 0 0 0-.224.027v-.001l-.13.027a.74.74 0 0 1 .393.432c.143.365.034.717-.297.93l-2.019 1.042c-.415.215-.606.7-.408 1.123.192.412.662.577 1.086.422a.82.82 0 0 1-.453-.422c-.198-.423-.005-.908.41-1.123l2.017-1.043c.33-.212.442-.564.3-.93-.122-.31-.365-.483-.675-.484m36.752.002a.75.75 0 0 0-.332.055l1.987.433c.174.038.35.028.505-.027l-1.982-.434a1 1 0 0 0-.178-.027m-1.53 3.082a.7.7 0 0 0-.27.07l2.027.832a.91.91 0 0 0 .672.014l-.037-.014-2.088-.855-.004-.004a.8.8 0 0 0-.3-.043m-33.753.002a.9.9 0 0 0-.361.068q.203.101.332.336c.17.312.143.64-.09.887h-.002l-1.865 1.424c-.372.283-.475.793-.207 1.176.23.329.638.43 1 .293a.8.8 0 0 1-.367-.293c-.269-.383-.165-.893.207-1.176l1.867-1.424h.002c.233-.247.26-.575.09-.887-.139-.252-.354-.394-.606-.404m1.883 2.785a.8.8 0 0 0-.297.078q.13.068.242.194c.252.286.275.643.057.949l-.004.006-.004.008-1.55 1.68c-.317.343-.331.864 0 1.195a.83.83 0 0 0 .902.181.8.8 0 0 1-.27-.181c-.33-.33-.317-.852 0-1.196l1.553-1.68.004-.007q.001-.005.004-.006c.218-.306.195-.662-.057-.95-.165-.187-.367-.28-.58-.27m29.904.006a.7.7 0 0 0-.252.074 1 1 0 0 1 .135.076l1.826 1.157c.252.16.553.187.807.086a1 1 0 0 1-.174-.086l-1.824-1.157-.067-.04a.8.8 0 0 0-.451-.11m-2.36 2.404a.7.7 0 0 0-.29.08q.068.035.134.086l.002-.002.002.002 1.682 1.536c.261.238.62.304.922.18a.9.9 0 0 1-.287-.18l-1.684-1.536h-.002a.73.73 0 0 0-.479-.166m-25.125.002a.7.7 0 0 0-.314.078 1 1 0 0 1 .188.127c.267.235.348.552.212.864v.002l-1.263 1.972c-.252.394-.176.908.207 1.176.243.17.536.19.79.086a1 1 0 0 1-.155-.086c-.383-.268-.46-.782-.207-1.176l1.261-1.972h.002v-.002c.136-.312.052-.629-.215-.864a.76.76 0 0 0-.506-.205m2.8 1.957a.66.66 0 0 0-.337.077q.03.013.06.029c.337.184.481.514.378.879v.002l-.883 2.113c-.18.431-.015.925.408 1.123.222.104.46.1.666.014l-.031-.014c-.424-.198-.59-.692-.41-1.123l.885-2.113-.002-.002c.103-.365-.039-.695-.375-.88a.8.8 0 0 0-.36-.105m19.536.002a.8.8 0 0 0-.287.076q.122.063.229.176v.002l1.39 1.797c.248.321.662.444 1.018.295a.93.93 0 0 1-.385-.295l-1.389-1.797v-.002a.72.72 0 0 0-.576-.252M25.93 49.72a.7.7 0 0 0-.289.07c.314.132.49.393.473.72v.003l-.516 2.29c-.102.457.146.915.598 1.036.186.05.37.033.531-.035-.385-.159-.588-.58-.494-1l.516-2.291v-.002c.018-.337-.17-.603-.498-.73a.8.8 0 0 0-.32-.061m13.436.002a.9.9 0 0 0-.312.068c.11.055.21.145.289.264l.008.013 1.062 2.022c.212.403.67.595 1.086.422a.9.9 0 0 1-.453-.422l-1.06-2.022-.01-.013a.69.69 0 0 0-.61-.332m-10.107.886a.7.7 0 0 0-.322.06.71.71 0 0 1 .461.64v.005l-.105 2.295c-.022.467.301.876.767.916a.8.8 0 0 0 .389-.06.87.87 0 0 1-.522-.856l.106-2.295-.002-.001.002-.004c-.03-.375-.278-.632-.655-.69a1 1 0 0 0-.119-.01m6.803 0a1 1 0 0 0-.309.063c.19.086.336.26.41.51l.647 2.066c.14.446.582.717 1.033.596q.054-.014.104-.033a.9.9 0 0 1-.502-.563l-.647-2.066c-.113-.378-.388-.584-.736-.573m-3.379.3a.8.8 0 0 0-.334.058c.2.079.348.237.416.459v.002h.002l.3 2.33c.06.463.45.808.915.767a.8.8 0 0 0 .244-.06.88.88 0 0 1-.525-.707l-.301-2.33-.002-.002c-.098-.322-.362-.51-.715-.518" filter="url(#l)" style="paint-order:fill markers stroke"/><path fill="#fff" d="M25.23 19.621a.7.7 0 0 0-.35.098c-.36.207-.454.651-.275 1.025l.414.863-.002.016s.264.543-.183.947l.955 1.653a10 10 0 0 1 2.603-1.489l-.951-1.65q-.024.011-.049.021c-.465.18-.784-.095-.906-.23l-.582-.881a.8.8 0 0 0-.674-.373m16.662 10.963a10 10 0 0 1 .11 1.477 10 10 0 0 1-.118 1.523h1.96c.109-.622.736-.666.736-.666l.056-.041.867-.066c.414-.032.748-.335.748-.75s-.333-.725-.748-.75l-1.115-.067a.78.78 0 0 1-.547-.642q0-.009-.002-.018zM25.808 39.91l-.986 1.71c.328.285.29.648.24.835l-.46.918c-.185.371-.085.818.274 1.026.36.207.792.067 1.026-.276l.482-.707.047-.02s.357-.53.961-.298l.033.013.99-1.716a10 10 0 0 1-2.607-1.485" filter="url(#m)" opacity=".75" style="paint-order:fill markers stroke"/></svg>