<svg xmlns="http://www.w3.org/2000/svg" xmlns:xlink="http://www.w3.org/1999/xlink" width="64" height="64"><defs><linearGradient xlink:href="#a" id="d" x1="6.745" x2="10.583" y1="1.058" y2="11.312" gradientUnits="userSpaceOnUse"/><linearGradient id="a"><stop offset="0" stop-color="#fff"/><stop offset="1" stop-color="#fff" stop-opacity="0"/></linearGradient><linearGradient xlink:href="#a" id="e" x1="15.081" x2="9.636" y1="14.816" y2="7.269" gradientUnits="userSpaceOnUse"/><linearGradient id="b" x1="8.466" x2="8.466" y1="1.058" y2="15.875" gradientTransform="scale(3.7796)" gradientUnits="userSpaceOnUse"><stop offset="0" stop-color="#80c7ff"/><stop offset="1" stop-color="#7c71f1"/></linearGradient><linearGradient id="j" x1="27" x2="27" y1="11" y2="46" gradientUnits="userSpaceOnUse"><stop offset="0" stop-color="#202439" stop-opacity="0"/><stop offset="1" stop-color="#575dac"/></linearGradient><linearGradient id="g" x1="27" x2="27" y1="11.5" y2="45.5" gradientUnits="userSpaceOnUse"><stop offset="0" stop-color="#fff"/><stop offset="1" stop-color="#fff" stop-opacity="0"/></linearGradient><linearGradient id="h" x1="27" x2="27" y1="14.275" y2="46" gradientTransform="translate(10 7)" gradientUnits="userSpaceOnUse"><stop offset="0" stop-color="#feffff"/><stop offset="1" stop-color="#a19df0"/></linearGradient><linearGradient id="f" x1="27" x2="27" y1="11" y2="46" gradientUnits="userSpaceOnUse"><stop offset="0" stop-color="#202439"/><stop offset="1" stop-color="#575dac"/></linearGradient><filter id="c" width="1.024" height="1.024" x="-.012" y="-.012" color-interpolation-filters="sRGB"><feGaussianBlur stdDeviation=".074"/></filter><filter id="i" width="1.079" height="1.041" x="-.04" y="-.02" color-interpolation-filters="sRGB"><feGaussianBlur stdDeviation=".298"/></filter><filter id="k" width="1.497" height="1.142" x="-.248" y="-.071" color-interpolation-filters="sRGB"><feGaussianBlur stdDeviation=".828"/></filter></defs><path fill="url(#b)" d="M20.26 4c-5.782 0-9.743 1.725-12.321 4.535C5.374 11.331 4 15.34 4 19.876v24.248c0 4.538 1.374 8.545 3.939 11.341C10.517 58.275 14.479 60 20.26 60h23.549c5.782 0 9.743-1.724 12.321-4.535C58.695 52.67 60 49.03 60 44.125V20.786c0-5.935-1.305-9.456-3.87-12.252C53.552 5.725 49.59 4 43.809 4H25.494z"/><g filter="url(#c)" style="mix-blend-mode:overlay" transform="scale(3.7796)"><path fill="url(#d)" d="M5.36 1.058c-1.53 0-2.577.457-3.26 1.2-.678.74-1.042 1.8-1.042 3.001v6.415c0 1.2.364 2.26 1.043 3 .682.744 1.73 1.2 3.26 1.2h6.23c1.53 0 2.577-.456 3.26-1.2.678-.739 1.024-1.702 1.024-3V5.5c0-1.57-.346-2.502-1.024-3.242-.683-.743-1.73-1.2-3.26-1.2H6.745zm0 .264h6.232c1.477 0 2.437.432 3.064 1.116.634.69.954 1.53.954 3.062v6.174c0 1.251-.322 2.134-.954 2.822-.627.684-1.587 1.114-3.064 1.114H5.359c-1.477 0-2.437-.43-3.064-1.114-.625-.682-.973-1.675-.973-2.822V5.26c0-1.148.348-2.14.973-2.822.627-.684 1.587-1.116 3.064-1.116" opacity=".75"/><path fill="url(#e)" d="M5.36 1.058c-1.53 0-2.577.457-3.26 1.2-.678.74-1.042 1.8-1.042 3.001v6.415c0 1.2.364 2.26 1.043 3 .682.744 1.73 1.2 3.26 1.2h6.23c1.53 0 2.577-.456 3.26-1.2.678-.739 1.024-1.702 1.024-3V5.5c0-1.57-.346-2.502-1.024-3.242-.683-.743-1.73-1.2-3.26-1.2H6.745zm0 .264h6.232c1.477 0 2.437.432 3.064 1.116.634.69.954 1.53.954 3.062v6.174c0 1.251-.322 2.134-.954 2.822-.627.684-1.587 1.114-3.064 1.114H5.359c-1.477 0-2.437-.43-3.064-1.114-.625-.682-.973-1.675-.973-2.822V5.26c0-1.148.348-2.14.973-2.822.627-.684 1.587-1.116 3.064-1.116" opacity=".5"/></g><rect width="18" height="35" x="18" y="11" fill="url(#f)" rx="3.629" ry="3.629" style="paint-order:fill markers stroke"/><path d="M21.629 11A3.62 3.62 0 0 0 18 14.629V42.37A3.62 3.62 0 0 0 21.63 46h10.742A3.62 3.62 0 0 0 36 42.37V14.63A3.62 3.62 0 0 0 32.37 11zm0 .5h10.742a3.11 3.11 0 0 1 3.129 3.129V42.37A3.11 3.11 0 0 1 32.37 45.5H21.629a3.11 3.11 0 0 1-3.129-3.13V14.63A3.11 3.11 0 0 1 21.63 11.5" opacity=".5" style="paint-order:fill markers stroke"/><path fill="url(#g)" d="M21.629 11.5a3.11 3.11 0 0 0-3.129 3.129V42.37A3.11 3.11 0 0 0 21.63 45.5h10.742a3.11 3.11 0 0 0 3.129-3.13V14.63A3.11 3.11 0 0 0 32.37 11.5zm0 .5h10.742A2.6 2.6 0 0 1 35 14.629V42.37A2.6 2.6 0 0 1 32.37 45H21.629A2.6 2.6 0 0 1 19 42.37V14.63A2.6 2.6 0 0 1 21.63 12" style="mix-blend-mode:overlay;paint-order:fill markers stroke"/><rect width="18" height="35" x="28" y="18" fill="url(#h)" rx="3.629" ry="3.629" style="paint-order:fill markers stroke"/><path fill="#fff" d="M31.629 18A3.62 3.62 0 0 0 28 21.629V49.37A3.62 3.62 0 0 0 31.63 53h10.742A3.62 3.62 0 0 0 46 49.37V21.63A3.62 3.62 0 0 0 42.37 18zm0 .8h10.742a2.804 2.804 0 0 1 2.828 2.829V49.37a2.804 2.804 0 0 1-2.828 2.828H31.629a2.804 2.804 0 0 1-2.828-2.828V21.629a2.804 2.804 0 0 1 2.828-2.828" filter="url(#i)" opacity=".5" style="paint-order:fill markers stroke"/><path fill="url(#j)" d="M31.629 18A3.62 3.62 0 0 0 28 21.629v24.37h4.371a3.62 3.62 0 0 0 3.63-3.628V18z" filter="url(#k)" opacity=".25" style="paint-order:fill markers stroke"/><path d="M31.232 20.781a.67.67 0 0 0-.672.67v2.158c0 .372.3.672.672.672h2.158c.372 0 .67-.3.67-.672v-2.158a.67.67 0 0 0-.67-.67zm4.69 0a.67.67 0 0 0-.672.67v2.158c0 .372.3.672.672.672h2.158c.371 0 .67-.3.67-.672v-2.158a.67.67 0 0 0-.67-.67zm4.689 0a.67.67 0 0 0-.672.67v2.158c0 .372.3.672.672.672h2.156c.372 0 .672-.3.672-.672v-2.158a.67.67 0 0 0-.672-.67zm-9.379 4.762c-.372 0-.672.3-.672.672v2.158c0 .372.3.67.672.67h2.158c.372 0 .67-.298.67-.67v-2.158a.67.67 0 0 0-.67-.672zm4.69 0c-.372 0-.672.3-.672.672v2.158c0 .372.3.67.672.67h2.158c.372 0 .67-.298.67-.67v-2.158a.67.67 0 0 0-.67-.672zm4.69 0c-.373 0-.673.3-.673.672v2.158c0 .372.3.67.672.67h2.156a.67.67 0 0 0 .672-.67v-2.158c0-.372-.3-.672-.672-.672zm-9.38 4.763c-.372 0-.672.3-.672.672v2.156c0 .372.3.672.672.672h2.158c.372 0 .67-.3.67-.672v-2.156a.67.67 0 0 0-.67-.672zm4.69 0c-.372 0-.672.3-.672.672v2.156c0 .372.3.672.672.672h2.158c.372 0 .67-.3.67-.672v-2.156a.67.67 0 0 0-.67-.672zm-4.69 16.412c-.372 0-.672.3-.672.672v2.158c0 .372.3.67.672.67h2.158c.372 0 .67-.298.67-.67V47.39a.67.67 0 0 0-.67-.672zm4.69 0c-.372 0-.672.3-.672.672v2.158c0 .372.3.67.672.67h2.158c.372 0 .67-.298.67-.67V47.39a.67.67 0 0 0-.67-.672zm4.69 0c-.373 0-.673.3-.673.672v2.158c0 .372.3.67.672.67h2.156a.67.67 0 0 0 .672-.67V47.39c0-.371-.3-.672-.672-.672z" opacity=".15" style="paint-order:fill markers stroke"/></svg>