<svg xmlns="http://www.w3.org/2000/svg" width="64" height="64"><defs><linearGradient id="a" x1="8.466" x2="8.466" y1="1.058" y2="15.875" gradientTransform="scale(3.7796)" gradientUnits="userSpaceOnUse"><stop offset="0" stop-color="#fff"/><stop offset="1" stop-color="#ececec"/></linearGradient><filter id="b" width="1.024" height="1.024" x="-.012" y="-.012" color-interpolation-filters="sRGB"><feGaussianBlur stdDeviation=".074"/></filter></defs><path fill="url(#a)" d="M20.26 4c-5.782 0-9.743 1.725-12.321 4.535C5.374 11.331 4 15.34 4 19.876v24.248c0 4.538 1.374 8.545 3.939 11.341C10.517 58.275 14.479 60 20.26 60h23.549c5.782 0 9.743-1.724 12.321-4.535C58.695 52.67 60 49.03 60 44.125V20.786c0-5.935-1.305-9.456-3.87-12.252C53.552 5.725 49.59 4 43.809 4H25.494z"/><path fill="#fff" d="M5.36 1.058c-1.53 0-2.577.457-3.26 1.2-.678.74-1.042 1.8-1.042 3.001v6.415c0 1.2.364 2.26 1.043 3 .682.744 1.73 1.2 3.26 1.2h6.23c1.53 0 2.577-.456 3.26-1.2.678-.739 1.024-1.702 1.024-3V5.5c0-1.57-.346-2.502-1.024-3.242-.683-.743-1.73-1.2-3.26-1.2H6.745zm0 .264h6.232c1.477 0 2.437.432 3.064 1.116.634.69.954 1.53.954 3.062v6.174c0 1.251-.322 2.134-.954 2.822-.627.684-1.587 1.114-3.064 1.114H5.359c-1.477 0-2.437-.43-3.064-1.114-.625-.682-.973-1.675-.973-2.822V5.26c0-1.148.348-2.14.973-2.822.627-.684 1.587-1.116 3.064-1.116" filter="url(#b)" transform="scale(3.7796)"/><g fill="none" stroke="#000" stroke-linecap="round" stroke-linejoin="round" opacity=".75"><path d="M32 7v5.25M41.875 14.896l4.543-7.871M22.125 14.896l-4.543-7.871M7.025 46.418l7.872-4.543m34.207-19.75 7.87-4.543M32 51.75V57M57 32h-5.25M12.25 32H7M41.875 49.104l4.543 7.871M22.125 49.104l-4.543 7.871M56.975 46.418l-7.871-4.543m-34.207-19.75-7.871-4.543" opacity="1" style="paint-order:fill markers stroke"/></g><g stroke="#000" stroke-linecap="round" stroke-linejoin="round" stroke-width=".6" opacity=".2"><path d="m57 34.629-3.75-.395m-42.5-4.468L7 29.37M57 37.312l-3.75-.797m-42.5-9.031L7 26.687M57 40.123l-3.75-1.219m-42.5-13.809L7 23.876M57 43.131l-3.75-1.67M10.75 22.54 7 20.87M56.281 49.641l-3.242-2.355M10.96 16.716 7.719 14.36M54.732 52.469l-2.855-2.572M12.123 14.104 9.267 11.53M52.469 54.732l-2.572-2.855M14.104 12.123 11.53 9.267M14.359 7.719l2.356 3.242m30.57 42.078 2.355 3.242M20.869 7l1.67 3.75m18.922 42.5L43.13 57M23.877 7l1.219 3.75m13.809 42.5L40.124 57M26.688 7l.797 3.75m9.031 42.5.797 3.75M29.371 7l.395 3.75m4.468 42.5L34.63 57M34.629 7l-.395 3.75m-4.468 42.5L29.37 57M37.312 7l-.797 3.75m-9.031 42.5L26.687 57M40.123 7l-1.219 3.75m-13.809 42.5L23.876 57M43.131 7l-1.67 3.75M22.54 53.25 20.87 57M49.641 7.719l-2.355 3.242m-30.57 42.078-2.356 3.242M11.531 54.732l2.572-2.855m35.793-39.754 2.573-2.856M9.268 52.469l2.855-2.572m39.754-35.793 2.856-2.573M7.719 49.641l3.242-2.355m42.078-30.57 3.242-2.356M7 43.131l3.75-1.67m42.5-18.922L57 20.87M7 40.123l3.75-1.219m42.5-13.809L57 23.876M7 37.312l3.75-.797m42.5-9.031 3.75-.797M7 34.629l3.75-.395m42.5-4.468L57 29.37" opacity="1" style="paint-order:fill markers stroke"/></g><path fill="#474746" stroke="#474746" stroke-linecap="round" stroke-linejoin="round" stroke-width=".3" d="M33.57 14.107a1.7 1.7 0 0 0-.832.201 1.5 1.5 0 0 0-.578.553q-.21.352-.21.807v.005l.005.006.004.006.002.002.002.002.005.002h.506l.006-.004h.002l.006-.008.002-.002.002-.006v-.003q0-.465.289-.764.29-.3.773-.299.462 0 .766.275c.202.182.303.419.303.72q0 .247-.096.478a2.3 2.3 0 0 1-.305.498q-.21.27-.54.644h.001l-1.767 1.973-.002.002-.002.002-.002.006v.386l.004.006v.002l.008.006.001.002.006.002H35.3l.006-.002.006-.002.002-.002.002-.002.004-.006.002-.005v-.469l-.004-.006-.004-.006-.002-.002-.002-.002-.006-.002h-2.629v-.004l1.31-1.455q.45-.498.704-.844.258-.347.361-.627.106-.277.106-.578a1.43 1.43 0 0 0-.77-1.289 1.65 1.65 0 0 0-.816-.197m-3.594.072-.002.002-.006.002-1.15.856-.002.002-.002.002-.004.005-.002.006v.561l.002.006.002.006.002.001.004.004.006.004h.016l.005-.004 1.243-.923h.005v4.88l.004.006v.002l.008.006.002.002.006.002h.516l.005-.004h.002l.006-.008.002-.002.002-.006v-5.39l-.004-.006v-.002l-.008-.006-.002-.002-.005-.002h-.651M16.074 29.32a1.66 1.66 0 0 0-.918.239 1.67 1.67 0 0 0-.607.648q-.216.406-.217.896 0 .51.223.915h.002q.226.398.603.628.38.228.838.229.443 0 .807-.217.356-.216.543-.57c-.004.734-.12 1.305-.354 1.701-.238.402-.567.6-.996.6q-.45 0-.717-.272-.269-.272-.336-.687l-.002-.006-.002-.002-.005-.008-.002-.002h-.002l-.006-.002h-.518l-.006.004-.006.004-.001.002-.002.006-.002.006v.004q.08.646.507 1.054h.002q.433.404 1.098.403.633 0 1.053-.39.417-.387.625-1.067a5.4 5.4 0 0 0 .207-1.561q-.001-.705-.154-1.193v-.002q-.149-.486-.409-.784-.255-.3-.582-.437h-.002a1.8 1.8 0 0 0-.662-.139m31.826 0q-.46 0-.838.184a1.54 1.54 0 0 0-.603.51h-.002q-.224.326-.235.752v.005l.002.006.004.006.002.002.006.004.006.002h.508l.006-.004h.002l.005-.008.002-.002.002-.006v-.003a.87.87 0 0 1 .159-.5 1 1 0 0 1 .406-.333q.255-.117.56-.117.473 0 .758.272.285.27.285.703a.89.89 0 0 1-.328.723q-.325.268-.834.267h-.318l-.006.002-.006.002-.002.002-.002.002-.004.006-.002.006v.465l.004.005.004.006.002.002.002.002.006.002h.322q.622 0 .979.299.36.296.36.77 0 .3-.155.53-.156.235-.436.37-.276.135-.638.135-.336 0-.606-.118a1.07 1.07 0 0 1-.431-.33.9.9 0 0 1-.176-.5l-.002-.006-.002-.005-.002-.002-.002-.002-.006-.004-.006-.002h-.525l-.006.004h-.002l-.006.008-.002.002-.002.005v.004q.012.43.242.758.236.327.635.51t.905.182q.514 0 .914-.202.401-.2.632-.545.233-.349.233-.789 0-.517-.303-.879c-.197-.235-.469-.382-.807-.453v-.011c.28-.087.505-.234.67-.45q.256-.33.256-.796 0-.394-.195-.721a1.43 1.43 0 0 0-.55-.528 1.7 1.7 0 0 0-.839-.199m-31.832.506q.325 0 .582.162.26.159.42.444.164.28.192.636.024.347-.131.645-.156.294-.438.478-.274.181-.625.182-.34 0-.61-.166a1.2 1.2 0 0 1-.421-.457q-.156-.291-.156-.647c0-.356.052-.45.156-.642a1.2 1.2 0 0 1 .422-.461 1.1 1.1 0 0 1 .61-.174M32.443 44.32q-.63 0-1.05.389-.421.388-.63 1.068-.207.675-.207 1.553 0 .706.15 1.2.154.49.413.792.26.3.584.436.325.135.67.134.522 0 .914-.242.39-.245.603-.65.216-.406.217-.897 0-.51-.226-.91a1.66 1.66 0 0 0-.602-.629 1.57 1.57 0 0 0-.832-.232q-.442 0-.809.217c-.235.14-.414.334-.54.57.003-.73.115-1.3.347-1.695.238-.402.567-.598.998-.598q.451 0 .715.268.269.269.34.677l.002.006.002.002.006.008.002.002h.002l.005.002h.514l.006-.004.008-.006.002-.002.002-.006v-.01q-.08-.638-.512-1.039-.43-.404-1.094-.404m-.07 2.514q.34 0 .607.17.27.165.426.457.156.286.156.642t-.156.65a1.24 1.24 0 0 1-.426.466q-.267.17-.607.17-.322 0-.58-.165a1.2 1.2 0 0 1-.42-.445 1.55 1.55 0 0 1-.188-.648 1.17 1.17 0 0 1 .127-.637v-.002q.153-.298.434-.478.279-.18.627-.18" style="paint-order:fill markers stroke"/><path fill="#0c0c0c" d="M20.123 25.918c-.46.016-.9.316-1.096.797-.262.641.01 1.354.61 1.6l8.017 3.273c.446.182.944.054 1.278-.287l1.326.54a2 2 0 0 0-.008.159 2 2 0 0 0 .012.205l-1.323.56c-.338-.337-.836-.46-1.279-.273l-15.268 6.514c-.597.252-.86.97-.59 1.607.27.638.968.948 1.565.696l15.268-6.514c.443-.188.702-.632.695-1.11l1.328-.562A1.75 1.75 0 0 0 32 33.75 1.75 1.75 0 0 0 33.75 32 1.75 1.75 0 0 0 32 30.25a1.75 1.75 0 0 0-1.371.662l-1.32-.537c0-.477-.264-.92-.71-1.102L20.583 26a1.1 1.1 0 0 0-.459-.082" style="paint-order:fill markers stroke"/><path fill="#fe890c" d="M32 28.256c-.332 0-.6.267-.6.6v1.25a.6.6 0 0 0 .2.449v.527A1 1 0 0 0 31 32a1 1 0 0 0 .6.916v.621a.6.6 0 0 0-.2.45V53.35c0 .333.268.6.6.6s.6-.267.6-.6V33.986a.6.6 0 0 0-.2-.449v-.62A1 1 0 0 0 33 32a1 1 0 0 0-.6-.918v-.527a.6.6 0 0 0 .2-.45v-1.25c0-.332-.268-.599-.6-.599" style="paint-order:fill markers stroke"/><circle cx="32" cy="32" r=".5" fill="#fff" style="paint-order:fill markers stroke"/></svg>