<svg xmlns="http://www.w3.org/2000/svg" xmlns:xlink="http://www.w3.org/1999/xlink" width="64" height="64" viewBox="0 0 16.933 16.933"><defs><linearGradient id="a"><stop offset="0" stop-color="#fff" stop-opacity=".5"/><stop offset="1" stop-color="#fff" stop-opacity=".15"/></linearGradient><linearGradient id="b" x1="8.466" x2="8.466" y1="1.058" y2="15.875" gradientUnits="userSpaceOnUse"><stop offset="0" stop-color="#fff"/><stop offset="1" stop-color="#ececec"/></linearGradient><linearGradient xlink:href="#a" id="d" x1="6.902" x2="9.525" y1="5.093" y2="6.085" gradientUnits="userSpaceOnUse"/><linearGradient xlink:href="#a" id="f" x1="6.902" x2="9.525" y1="5.093" y2="6.085" gradientTransform="translate(0 6.747)" gradientUnits="userSpaceOnUse"/><filter id="c" width="1.024" height="1.024" x="-.012" y="-.012" color-interpolation-filters="sRGB"><feGaussianBlur stdDeviation=".074"/></filter><filter id="e" width="1.031" height="1.02" x="-.015" y="-.01" color-interpolation-filters="sRGB"><feGaussianBlur stdDeviation=".02"/></filter></defs><path fill="url(#b)" d="M5.36 1.058c-1.53 0-2.577.457-3.26 1.2-.678.74-1.042 1.8-1.042 3v6.416c0 1.2.364 2.261 1.042 3.001.683.744 1.73 1.2 3.26 1.2h6.23c1.53 0 2.579-.456 3.26-1.2.68-.74 1.025-1.703 1.025-3V5.5c0-1.57-.345-2.502-1.024-3.242-.682-.743-1.73-1.2-3.26-1.2H6.745z"/><path fill="#fff" d="M5.36 1.058c-1.53 0-2.577.457-3.26 1.2-.678.74-1.042 1.8-1.042 3.001v6.415c0 1.2.364 2.26 1.043 3 .682.744 1.73 1.2 3.26 1.2h6.23c1.53 0 2.577-.456 3.26-1.2.678-.739 1.024-1.702 1.024-3V5.5c0-1.57-.346-2.502-1.024-3.242-.683-.743-1.73-1.2-3.26-1.2H6.745zm0 .264h6.232c1.477 0 2.437.432 3.064 1.116.634.69.954 1.53.954 3.062v6.174c0 1.251-.322 2.134-.954 2.822-.627.684-1.587 1.114-3.064 1.114H5.359c-1.477 0-2.437-.43-3.064-1.114-.625-.682-.973-1.675-.973-2.822V5.26c0-1.148.348-2.14.973-2.822.627-.684 1.587-1.116 3.064-1.116" filter="url(#c)"/><rect width="3.307" height="5.027" x="10.327" y="-5.894" fill="#fdd300" rx="1.654" ry="1.654" style="paint-order:fill markers stroke" transform="rotate(45)"/><rect width="3.307" height="5.027" x="10.327" y=".852" fill="#b09af8" rx="1.654" ry="1.654" style="paint-order:fill markers stroke" transform="rotate(45)"/><rect width="3.307" height="5.027" x="6.813" y="-14.364" fill="#a3d900" rx="1.654" ry="1.654" style="paint-order:fill markers stroke" transform="rotate(90)"/><rect width="3.307" height="5.027" x="6.813" y="-7.617" fill="#ff76b6" rx="1.654" ry="1.654" style="paint-order:fill markers stroke" transform="rotate(90)"/><rect width="3.307" height="5.027" x="-1.661" y="-17.868" fill="#0ed899" rx="1.654" ry="1.654" style="paint-order:fill markers stroke" transform="rotate(135)"/><rect width="3.307" height="5.027" x="-1.661" y="-11.121" fill="#ff6e6f" rx="1.654" ry="1.654" style="paint-order:fill markers stroke" transform="rotate(135)"/><rect width="3.307" height="5.027" x="-10.131" y="-14.353" fill="#18c0f4" rx="1.654" ry="1.654" style="paint-order:fill markers stroke" transform="scale(-1)"/><rect width="3.307" height="5.027" x="-10.131" y="-7.607" fill="#fe9b00" rx="1.654" ry="1.654" style="paint-order:fill markers stroke" transform="scale(-1)"/><path fill="#ff7606" d="M10.328-4v1.479a1.65 1.65 0 0 0 1.28 1.611 1.65 1.65 0 0 0-.235-2.044z" style="mix-blend-mode:normal;paint-order:fill markers stroke" transform="rotate(45)"/><path fill="#ef4d00" d="M6.824 4.475 7.869 5.52a1.65 1.65 0 0 1 .235 2.045 1.65 1.65 0 0 1-1.28-1.612z" style="mix-blend-mode:normal;paint-order:fill markers stroke"/><path fill="#048bae" d="m10.131 12.459-1.045-1.045a1.65 1.65 0 0 1-.235-2.045 1.65 1.65 0 0 1 1.28 1.612z" style="mix-blend-mode:normal;paint-order:fill markers stroke"/><path fill="#0486d7" d="m6.824 12.459 1.045-1.045a1.65 1.65 0 0 0 .235-2.045 1.65 1.65 0 0 0-1.28 1.612z" style="mix-blend-mode:normal;paint-order:fill markers stroke"/><path fill="#01b40c" d="m12.469 10.12-1.045-1.045a1.65 1.65 0 0 0-2.045-.235 1.65 1.65 0 0 0 1.612 1.28z" style="mix-blend-mode:normal;paint-order:fill markers stroke"/><path fill="#91ae06" d="m12.469 6.813-1.045 1.045a1.65 1.65 0 0 1-2.045.235 1.65 1.65 0 0 1 1.612-1.28z" style="mix-blend-mode:normal;paint-order:fill markers stroke"/><path fill="#b65ace" d="m4.485 10.12 1.046-1.045a1.65 1.65 0 0 1 2.044-.235 1.65 1.65 0 0 1-1.611 1.28z" style="mix-blend-mode:normal;paint-order:fill markers stroke"/><path fill="#ee3a5e" d="m4.485 6.813 1.046 1.045a1.65 1.65 0 0 0 2.044.235 1.65 1.65 0 0 0-1.611-1.28z" style="mix-blend-mode:normal;paint-order:fill markers stroke"/><path fill="url(#d)" d="M8.476 2.658c-.873 0-1.574.7-1.574 1.574v1.721c0 .873.7 1.574 1.574 1.574s1.575-.7 1.575-1.574v-1.72a1.57 1.57 0 0 0-1.575-1.575m0 .106c.817 0 1.47.651 1.47 1.468v1.721c0 .817-.653 1.469-1.47 1.469S7.008 6.77 7.008 5.953v-1.72c0-.818.651-1.47 1.468-1.47" filter="url(#e)" style="mix-blend-mode:overlay;paint-order:fill markers stroke"/><path fill="url(#f)" d="M8.476 9.405c-.873 0-1.574.7-1.574 1.574v1.72c0 .874.7 1.575 1.574 1.575s1.575-.7 1.575-1.574v-1.721a1.57 1.57 0 0 0-1.575-1.574m0 .105c.817 0 1.47.652 1.47 1.469v1.72c0 .818-.653 1.47-1.47 1.47s-1.468-.652-1.468-1.47v-1.72c0-.817.651-1.469 1.468-1.469" filter="url(#e)" style="mix-blend-mode:overlay;paint-order:fill markers stroke"/><path fill="url(#d)" d="M8.476 2.658c-.873 0-1.574.7-1.574 1.574v1.721c0 .873.7 1.574 1.574 1.574s1.575-.7 1.575-1.574v-1.72a1.57 1.57 0 0 0-1.575-1.575m0 .106c.817 0 1.47.651 1.47 1.468v1.721c0 .817-.653 1.469-1.47 1.469S7.008 6.77 7.008 5.953v-1.72c0-.818.651-1.47 1.468-1.47" filter="url(#e)" style="mix-blend-mode:overlay;paint-order:fill markers stroke" transform="rotate(45 8.477 8.466)"/><path fill="url(#f)" d="M8.476 9.405c-.873 0-1.574.7-1.574 1.574v1.72c0 .874.7 1.575 1.574 1.575s1.575-.7 1.575-1.574v-1.721a1.57 1.57 0 0 0-1.575-1.574m0 .105c.817 0 1.47.652 1.47 1.469v1.72c0 .818-.653 1.47-1.47 1.47s-1.468-.652-1.468-1.47v-1.72c0-.817.651-1.469 1.468-1.469" filter="url(#e)" style="mix-blend-mode:overlay;paint-order:fill markers stroke" transform="rotate(45 8.477 8.466)"/><path fill="url(#d)" d="M8.476 2.658c-.873 0-1.574.7-1.574 1.574v1.721c0 .873.7 1.574 1.574 1.574s1.575-.7 1.575-1.574v-1.72a1.57 1.57 0 0 0-1.575-1.575m0 .106c.817 0 1.47.651 1.47 1.468v1.721c0 .817-.653 1.469-1.47 1.469S7.008 6.77 7.008 5.953v-1.72c0-.818.651-1.47 1.468-1.47" filter="url(#e)" style="mix-blend-mode:overlay;paint-order:fill markers stroke" transform="rotate(90 8.477 8.466)"/><path fill="url(#f)" d="M8.476 9.405c-.873 0-1.574.7-1.574 1.574v1.72c0 .874.7 1.575 1.574 1.575s1.575-.7 1.575-1.574v-1.721a1.57 1.57 0 0 0-1.575-1.574m0 .105c.817 0 1.47.652 1.47 1.469v1.72c0 .818-.653 1.47-1.47 1.47s-1.468-.652-1.468-1.47v-1.72c0-.817.651-1.469 1.468-1.469" filter="url(#e)" style="mix-blend-mode:overlay;paint-order:fill markers stroke" transform="rotate(90 8.477 8.466)"/><path fill="url(#d)" d="M8.476 2.658c-.873 0-1.574.7-1.574 1.574v1.721c0 .873.7 1.574 1.574 1.574s1.575-.7 1.575-1.574v-1.72a1.57 1.57 0 0 0-1.575-1.575m0 .106c.817 0 1.47.651 1.47 1.468v1.721c0 .817-.653 1.469-1.47 1.469S7.008 6.77 7.008 5.953v-1.72c0-.818.651-1.47 1.468-1.47" filter="url(#e)" style="mix-blend-mode:overlay;paint-order:fill markers stroke" transform="rotate(135 8.477 8.466)"/><path fill="url(#f)" d="M8.476 9.405c-.873 0-1.574.7-1.574 1.574v1.72c0 .874.7 1.575 1.574 1.575s1.575-.7 1.575-1.574v-1.721a1.57 1.57 0 0 0-1.575-1.574m0 .105c.817 0 1.47.652 1.47 1.469v1.72c0 .818-.653 1.47-1.47 1.47s-1.468-.652-1.468-1.47v-1.72c0-.817.651-1.469 1.468-1.469" filter="url(#e)" style="mix-blend-mode:overlay;paint-order:fill markers stroke" transform="rotate(135 8.477 8.466)"/></svg>