<svg xmlns="http://www.w3.org/2000/svg" xmlns:xlink="http://www.w3.org/1999/xlink" width="64" height="64" viewBox="0 0 16.933 16.933"><defs><linearGradient id="b"><stop offset="0" stop-color="#20a0ef"/><stop offset="1" stop-color="#2b66e1"/></linearGradient><linearGradient id="a"><stop offset="0" stop-color="#2cecff"/><stop offset="1" stop-color="#347ff3"/></linearGradient><linearGradient id="c" x1="8.466" x2="8.466" y1="1.058" y2="15.875" gradientUnits="userSpaceOnUse"><stop offset="0" stop-color="#fff"/><stop offset="1" stop-color="#ececec"/></linearGradient><linearGradient xlink:href="#a" id="e" x1="8.466" x2="8.466" y1="2.514" y2="13.344" gradientUnits="userSpaceOnUse"/><linearGradient xlink:href="#b" id="f" x1="8.205" x2="13.746" y1="7.833" y2="13.373" gradientUnits="userSpaceOnUse"/><linearGradient id="h" x1="8.467" x2="8.467" y1="2.594" y2="14.34" gradientUnits="userSpaceOnUse"><stop offset="0" stop-color="#fff"/><stop offset="1" stop-color="#fff" stop-opacity="0"/></linearGradient><linearGradient id="j" x1="10.686" x2="10.686" y1="7.416" y2="13.906" gradientUnits="userSpaceOnUse"><stop offset="0" stop-color="#fff"/><stop offset="1" stop-color="#fff" stop-opacity="0"/></linearGradient><filter id="g" width="1.024" height="1.024" x="-.012" y="-.012" color-interpolation-filters="sRGB"><feGaussianBlur stdDeviation=".074"/></filter><filter id="i" width="1.024" height="1.024" x="-.012" y="-.012" color-interpolation-filters="sRGB"><feGaussianBlur stdDeviation=".059"/></filter><filter id="k" width="1.024" height="1.024" x="-.012" y="-.012" color-interpolation-filters="sRGB"><feGaussianBlur stdDeviation=".032"/></filter><filter id="l" width="1.554" height="1.552" x="-.277" y="-.276" color-interpolation-filters="sRGB"><feGaussianBlur stdDeviation=".372"/></filter><filter id="d" width="1.15" height="1.15" x="-.075" y="-.075" color-interpolation-filters="sRGB"><feGaussianBlur stdDeviation=".372"/></filter></defs><path fill="url(#c)" d="M5.36 1.058c-1.53 0-2.577.457-3.26 1.2-.678.74-1.042 1.8-1.042 3v6.416c0 1.2.364 2.261 1.042 3.001.683.744 1.73 1.2 3.26 1.2h6.23c1.53 0 2.579-.456 3.26-1.2.68-.74 1.025-1.703 1.025-3V5.5c0-1.57-.345-2.502-1.024-3.242-.682-.743-1.73-1.2-3.26-1.2H6.745z"/><g filter="url(#d)" opacity=".5" transform="translate(0 .233)"><path fill="url(#e)" d="M8.467 2.514a5.953 5.953 0 0 0-5.954 5.953 5.953 5.953 0 0 0 5.954 5.953 5.953 5.953 0 0 0 5.953-5.954 5.953 5.953 0 0 0-5.954-5.952m0 2.248a3.704 3.704 0 0 1 3.704 3.705 3.704 3.704 0 0 1-3.704 3.704 3.704 3.704 0 0 1-3.705-3.704 3.704 3.704 0 0 1 3.705-3.705" opacity="1" style="paint-order:fill markers stroke"/><path fill="url(#f)" d="M14.01 13.191v-.795l-4.729-4.73a1.124 1.124 0 1 0-1.59 1.591l4.729 4.73h.795c.795 0 .795 0 .795-.796" opacity="1" style="paint-order:fill markers stroke"/></g><path fill="#fff" d="M5.36 1.058c-1.53 0-2.577.457-3.26 1.2-.678.74-1.042 1.8-1.042 3.001v6.415c0 1.2.364 2.26 1.043 3 .682.744 1.73 1.2 3.26 1.2h6.23c1.53 0 2.577-.456 3.26-1.2.678-.739 1.024-1.702 1.024-3V5.5c0-1.57-.346-2.502-1.024-3.242-.683-.743-1.73-1.2-3.26-1.2H6.745zm0 .264h6.232c1.477 0 2.437.432 3.064 1.116.634.69.954 1.53.954 3.062v6.174c0 1.251-.322 2.134-.954 2.822-.627.684-1.587 1.114-3.064 1.114H5.359c-1.477 0-2.437-.43-3.064-1.114-.625-.682-.973-1.675-.973-2.822V5.26c0-1.148.348-2.14.973-2.822.627-.684 1.587-1.116 3.064-1.116" filter="url(#g)"/><path fill="url(#e)" d="M8.467 2.514a5.953 5.953 0 0 0-5.954 5.953 5.953 5.953 0 0 0 5.954 5.953 5.953 5.953 0 0 0 5.953-5.954 5.953 5.953 0 0 0-5.954-5.952m0 2.248a3.704 3.704 0 0 1 3.704 3.705 3.704 3.704 0 0 1-3.704 3.704 3.704 3.704 0 0 1-3.705-3.704 3.704 3.704 0 0 1 3.705-3.705" style="paint-order:fill markers stroke"/><path fill="url(#h)" d="M8.467 2.594a5.87 5.87 0 0 0-5.873 5.873 5.87 5.87 0 0 0 5.873 5.873 5.87 5.87 0 0 0 5.873-5.873 5.87 5.87 0 0 0-5.873-5.873m0 .105a5.765 5.765 0 0 1 5.768 5.768 5.764 5.764 0 0 1-5.768 5.768 5.765 5.765 0 0 1-5.768-5.768 5.765 5.765 0 0 1 5.768-5.768m0 1.879a3.89 3.89 0 0 0-3.89 3.889 3.89 3.89 0 0 0 3.89 3.889 3.89 3.89 0 0 0 3.889-3.889 3.89 3.89 0 0 0-3.889-3.89m0 .105a3.785 3.785 0 0 1 0 7.567 3.785 3.785 0 0 1 0-7.567" filter="url(#i)" style="mix-blend-mode:overlay;paint-order:fill markers stroke"/><path fill="url(#f)" d="M14.01 13.191v-.795l-4.729-4.73a1.124 1.124 0 1 0-1.59 1.591l4.729 4.73h.795c.795 0 .795 0 .795-.796" style="paint-order:fill markers stroke"/><path fill="url(#j)" d="M8.486 7.416a1.044 1.044 0 0 0-.74 1.785l4.707 4.705h.762c.199 0 .347 0 .451-.012.104-.011.158-.033.19-.064s.05-.085.062-.19q.015-.152.014-.449v-.763L9.227 7.724l-.002-.001a1.04 1.04 0 0 0-.739-.307m0 .105c.24 0 .48.091.664.276l.01.01 4.666 4.666v.718q.001.296-.014.438c-.01.095-.027.123-.03.127-.006.005-.034.023-.128.033q-.14.014-.44.012h-.716L7.82 9.127a.938.938 0 0 1 .666-1.606" filter="url(#k)" opacity=".75" style="mix-blend-mode:overlay;paint-order:fill markers stroke"/><path fill="#002ae4" d="M11.765 10.151a3.7 3.7 0 0 1-1.582 1.598l1.636 1.637a6 6 0 0 0 1.586-1.595z" filter="url(#l)" opacity=".8" style="paint-order:fill markers stroke"/></svg>