<svg xmlns="http://www.w3.org/2000/svg" xmlns:xlink="http://www.w3.org/1999/xlink" width="64" height="64" viewBox="0 0 16.933 16.933"><defs><linearGradient id="u" x1="-1114.8" x2="-1114.8" y1="747.4" y2="1771.4" gradientTransform="translate(21.387 1.758)scale(.00827)" gradientUnits="userSpaceOnUse"><stop offset="0" stop-color="#ff981f"/><stop offset="1" stop-color="#e24305"/></linearGradient><linearGradient id="d" x1="8.466" x2="8.466" y1="1.058" y2="15.875" gradientUnits="userSpaceOnUse"><stop offset="0" stop-color="#22b4fa"/><stop offset="1" stop-color="#1b66f1"/></linearGradient><linearGradient xlink:href="#a" id="h" x1="7.495" x2="16.89" y1="-4.45" y2="-4.391" gradientUnits="userSpaceOnUse"/><linearGradient id="a"><stop offset="0" stop-color="#bceeff"/><stop offset="1" stop-color="#94c6fa"/></linearGradient><linearGradient id="i" x1="9.91" x2="9.91" y1="3.674" y2="13.018" gradientUnits="userSpaceOnUse"><stop offset="0" stop-color="#bbf6ff"/><stop offset="1" stop-color="#bbf6ff" stop-opacity=".35"/></linearGradient><linearGradient id="k" x1="-.982" x2="8.385" y1="10.244" y2="10.251" gradientUnits="userSpaceOnUse"><stop offset="0" stop-color="#d3f9ff"/><stop offset="1" stop-color="#94c6fa"/></linearGradient><linearGradient xlink:href="#a" id="l" x1="-3.759" x2="-13.185" y1="10.253" y2="10.22" gradientTransform="scale(-1 1)" gradientUnits="userSpaceOnUse"/><linearGradient id="q" x1="7.075" x2="9.631" y1="-6.173" y2="-6.173" gradientTransform="scale(1.1173 .89498)" gradientUnits="userSpaceOnUse"><stop offset="0" stop-color="#bceeff"/><stop offset="1" stop-color="#94c6fa"/></linearGradient><linearGradient id="m" x1="12.181" x2="9.149" y1="10.027" y2="11.474" gradientTransform="rotate(240 8.476 8.767)" gradientUnits="userSpaceOnUse"><stop offset="0" stop-color="#59a4ff" stop-opacity="0"/><stop offset=".5" stop-color="#3390ff"/><stop offset="1" stop-color="#59a4ff" stop-opacity="0"/></linearGradient><linearGradient xlink:href="#b" id="n" x1="12.151" x2="8.888" y1="9.184" y2="10.947" gradientTransform="rotate(-60 8.477 14.576)" gradientUnits="userSpaceOnUse"/><linearGradient id="b"><stop offset="0" stop-color="#59a4ff" stop-opacity="0"/><stop offset=".569" stop-color="#3390ff"/><stop offset="1" stop-color="#59a4ff" stop-opacity="0"/></linearGradient><linearGradient xlink:href="#c" id="o" x1="9.606" x2="9.756" y1="-5.261" y2="-3.61" gradientUnits="userSpaceOnUse"/><linearGradient id="c"><stop offset="0" stop-color="#fff" stop-opacity="0"/><stop offset=".191" stop-color="#fff" stop-opacity=".9"/><stop offset=".5" stop-color="#fff"/><stop offset=".742" stop-color="#fff" stop-opacity=".9"/><stop offset="1" stop-color="#fff" stop-opacity="0"/></linearGradient><linearGradient xlink:href="#c" id="r" x1="9.606" x2="9.606" y1="-5.261" y2="-3.559" gradientUnits="userSpaceOnUse"/><linearGradient xlink:href="#b" id="s" x1="12.151" x2="8.888" y1="9.184" y2="10.947" gradientUnits="userSpaceOnUse"/><linearGradient id="f" x1="15.081" x2="12.7" y1="14.816" y2="12.171" gradientUnits="userSpaceOnUse"><stop offset="0" stop-color="#2dacfa"/><stop offset="1" stop-color="#2dacfa" stop-opacity="0"/></linearGradient><linearGradient id="g" x1="6.745" x2="10.583" y1="1.058" y2="11.312" gradientUnits="userSpaceOnUse"><stop offset="0" stop-color="#3ae7fd"/><stop offset="1" stop-color="#3ae7fd" stop-opacity="0"/></linearGradient><filter id="v" width="1.035" height="1.035" x="-.017" y="-.017" color-interpolation-filters="sRGB"><feGaussianBlur stdDeviation=".059"/></filter><filter id="j" width="1.031" height="1.02" x="-.015" y="-.01" color-interpolation-filters="sRGB"><feGaussianBlur stdDeviation=".038"/></filter><filter id="p" width="1.006" height="1.008" x="-.003" y="-.004" color-interpolation-filters="sRGB"><feGaussianBlur stdDeviation=".004"/></filter><filter id="e" width="1.024" height="1.024" x="-.012" y="-.012" color-interpolation-filters="sRGB"><feGaussianBlur stdDeviation=".074"/></filter><radialGradient id="t" cx="12.17" cy="12.17" r="4.763" gradientUnits="userSpaceOnUse"><stop offset="0"/><stop offset="1" stop-opacity="0"/></radialGradient></defs><path fill="url(#d)" d="M5.36 1.058c-1.53 0-2.577.457-3.26 1.2-.678.74-1.042 1.8-1.042 3v6.416c0 1.2.364 2.261 1.042 3.001.683.744 1.73 1.2 3.26 1.2h6.23c1.53 0 2.579-.456 3.26-1.2.68-.74 1.025-1.703 1.025-3V5.5c0-1.57-.345-2.502-1.024-3.242-.682-.743-1.73-1.2-3.26-1.2H6.745z"/><g filter="url(#e)" opacity=".75" style="mix-blend-mode:normal"><path fill="url(#f)" d="M5.36 1.058c-1.53 0-2.577.457-3.26 1.2-.678.74-1.042 1.8-1.042 3.001v6.415c0 1.2.364 2.26 1.043 3 .682.744 1.73 1.2 3.26 1.2h6.23c1.53 0 2.577-.456 3.26-1.2.678-.739 1.024-1.702 1.024-3V5.5c0-1.57-.346-2.502-1.024-3.242-.683-.743-1.73-1.2-3.26-1.2H6.745zm0 .264h6.232c1.477 0 2.437.432 3.064 1.116.634.69.954 1.53.954 3.062v6.174c0 1.251-.322 2.134-.954 2.822-.627.684-1.587 1.114-3.064 1.114H5.359c-1.477 0-2.437-.43-3.064-1.114-.625-.682-.973-1.675-.973-2.822V5.26c0-1.148.348-2.14.973-2.822.627-.684 1.587-1.116 3.064-1.116" opacity="1"/><path fill="url(#g)" d="M5.36 1.058c-1.53 0-2.577.457-3.26 1.2-.678.74-1.042 1.8-1.042 3.001v6.415c0 1.2.364 2.26 1.043 3 .682.744 1.73 1.2 3.26 1.2h6.23c1.53 0 2.577-.456 3.26-1.2.678-.739 1.024-1.702 1.024-3V5.5c0-1.57-.346-2.502-1.024-3.242-.683-.743-1.73-1.2-3.26-1.2H6.745zm0 .264h6.232c1.477 0 2.437.432 3.064 1.116.634.69.954 1.53.954 3.062v6.174c0 1.251-.322 2.134-.954 2.822-.627.684-1.587 1.114-3.064 1.114H5.359c-1.477 0-2.437-.43-3.064-1.114-.625-.682-.973-1.675-.973-2.822V5.26c0-1.148.348-2.14.973-2.822.627-.684 1.587-1.116 3.064-1.116" opacity="1"/></g><rect width="10.583" height="1.323" x="6.891" y="-5.071" fill="url(#h)" rx=".661" ry=".661" style="paint-order:fill markers stroke" transform="rotate(60)"/><path fill="url(#i)" d="M7.577 3.674a.66.66 0 0 0-.555.993l4.63 8.02c.184.317.586.425.904.242s.425-.587.242-.904l-4.63-8.02a.66.66 0 0 0-.59-.33m.008.21a.44.44 0 0 1 .4.227l4.63 8.02c.126.218.054.487-.165.613s-.489.055-.615-.164l-4.63-8.019a.445.445 0 0 1 .166-.614.46.46 0 0 1 .214-.062" filter="url(#j)" style="mix-blend-mode:overlay;paint-order:fill markers stroke"/><rect width="10.583" height="1.323" x="-1.586" y="9.611" fill="url(#k)" rx=".661" ry=".661" style="paint-order:fill markers stroke" transform="rotate(120)scale(1 -1)"/><path fill="url(#i)" d="M7.577 3.674a.66.66 0 0 0-.555.993l4.63 8.02c.184.317.586.425.904.242s.425-.587.242-.904l-4.63-8.02a.66.66 0 0 0-.59-.33m.008.21a.44.44 0 0 1 .4.227l4.63 8.02c.126.218.054.487-.165.613s-.489.055-.615-.164l-4.63-8.019a.445.445 0 0 1 .166-.614.46.46 0 0 1 .214-.062" filter="url(#j)" style="mix-blend-mode:overlay;paint-order:fill markers stroke" transform="matrix(-1 0 0 1 16.943 0)"/><path fill="url(#l)" d="M3.836 9.558a.66.66 0 0 0-.661.662.66.66 0 0 0 .661.661h6.774l-.764-1.323zm7.538 0 .764 1.323h.959a.66.66 0 1 0 0-1.323z" style="paint-order:fill markers stroke"/><path fill="url(#m)" d="m9.337 8.677 1.146-.662-1.244-2.153-.763 1.323zM7.712 5.862l.764-1.323-.48-.83-1.146.66z" style="paint-order:fill markers stroke"/><path fill="url(#n)" d="m3.955 12.373 1.145.661 1.244-2.153H4.816zM5.58 9.558h1.527l.48-.83-1.146-.662z" style="paint-order:fill markers stroke"/><path fill="url(#o)" d="m7.914-5.515 1.31 2.269h1.528c-.438-.757-1.026-1.735-1.31-2.27z" filter="url(#p)" opacity=".5" style="mix-blend-mode:overlay" transform="rotate(60)"/><path fill="url(#q)" d="m7.914-5.515 1.31 2.269h1.528c-.438-.757-1.026-1.735-1.31-2.27z" filter="url(#p)" opacity=".5" style="mix-blend-mode:overlay" transform="rotate(180 10.151 2.91)"/><path fill="url(#i)" d="M12.798 12.025a.66.66 0 0 1-.242.904.66.66 0 0 1-.904-.243L8.266 6.822h.244l3.325 5.759c.126.219.396.29.615.163s.291-.395.165-.614L9.55 6.822h.244zM9.03 5.499h-.244l-.8-1.387a.444.444 0 0 0-.615-.165.444.444 0 0 0-.166.614l.542.938h-.244l-.48-.832a.66.66 0 0 1 .555-.993.66.66 0 0 1 .59.331z" filter="url(#j)" style="mix-blend-mode:overlay;paint-order:fill markers stroke" transform="rotate(60 -2.342 25.196)scale(-1 1)"/><path fill="url(#r)" d="m7.914-5.515 1.31 2.269h1.528c-.438-.757-1.026-1.735-1.31-2.27z" filter="url(#p)" opacity=".5" style="mix-blend-mode:overlay" transform="rotate(120 3.415 1.94)"/><path fill="url(#s)" d="M8.123 9.558v1.323h2.487l-.764-1.323zm3.25 0 .765 1.323h.959V9.558z" style="paint-order:fill markers stroke"/><circle cx="12.17" cy="12.17" r="4.763" fill="url(#t)"/><circle cx="12.17" cy="12.17" r="4.233" fill="url(#u)"/><path fill="#fff" d="M13.569 9.525a.567.567 0 0 0-.567.567.567.567 0 0 0 .567.567.567.567 0 0 0 .567-.567.567.567 0 0 0-.567-.567m-1.323.378c-.3 0-.587.066-.853.175l.383.663c.149-.049.305-.082.47-.082.835 0 1.512.677 1.512 1.512h.756c0-.53-.186-1.044-.526-1.452a.75.75 0 0 1-.419.129.76.76 0 0 1-.756-.756q.001-.058.012-.113a2.3 2.3 0 0 0-.579-.076m-1.19.347a2.26 2.26 0 0 0-.966 1.228.76.76 0 0 1 .455.693.76.76 0 0 1-.457.693c.135.422.39.778.716 1.048l.383-.664a1.506 1.506 0 0 1 .244-2.347zm-1.267 1.354a.567.567 0 0 0-.567.567.567.567 0 0 0 .567.567.567.567 0 0 0 .567-.567.567.567 0 0 0-.567-.567m3.915.945a1.51 1.51 0 0 1-1.458 1.133c-.276 0-.53-.079-.753-.208l-.378.655c.337.195.723.31 1.13.31q.295-.002.579-.078a1 1 0 0 1-.011-.112.753.753 0 0 1 1.174-.628c.258-.31.427-.68.494-1.072zm-.135 1.133a.567.567 0 0 0-.567.567.567.567 0 0 0 .567.567.567.567 0 0 0 .567-.567.567.567 0 0 0-.567-.567" style="paint-order:normal"/><path fill="#fff" d="M12.171 8.07a4.1 4.1 0 0 0-4.101 4.1 4.1 4.1 0 0 0 4.101 4.102 4.1 4.1 0 0 0 4.101-4.101 4.1 4.1 0 0 0-4.101-4.101m0 .132a3.97 3.97 0 0 1 3.969 3.969 3.97 3.97 0 0 1-3.969 3.968 3.97 3.97 0 0 1-3.969-3.968 3.97 3.97 0 0 1 3.969-3.97" filter="url(#v)" style="mix-blend-mode:overlay"/></svg>