<svg xmlns="http://www.w3.org/2000/svg" xmlns:xlink="http://www.w3.org/1999/xlink" width="64" height="64" viewBox="0 0 16.933 16.933"><defs><linearGradient id="a" x1="499.95" x2="499.95" y1="2.008" y2="1026" gradientTransform="translate(2 2)scale(.99609)" gradientUnits="userSpaceOnUse"><stop offset="0" stop-color="#fff"/><stop offset="1" stop-color="#d7d7d7"/></linearGradient><linearGradient xlink:href="#a" id="u" x1="512" x2="512" y1="53" y2="925.69" gradientUnits="userSpaceOnUse"/><linearGradient xlink:href="#b" id="s" x1="12.151" x2="8.888" y1="9.184" y2="10.947" gradientUnits="userSpaceOnUse"/><linearGradient id="b"><stop offset="0" stop-color="#59a4ff" stop-opacity="0"/><stop offset=".569" stop-color="#3390ff"/><stop offset="1" stop-color="#59a4ff" stop-opacity="0"/></linearGradient><linearGradient xlink:href="#c" id="r" x1="9.606" x2="9.606" y1="-5.261" y2="-3.559" gradientUnits="userSpaceOnUse"/><linearGradient id="c"><stop offset="0" stop-color="#fff" stop-opacity="0"/><stop offset=".191" stop-color="#fff" stop-opacity=".9"/><stop offset=".5" stop-color="#fff"/><stop offset=".742" stop-color="#fff" stop-opacity=".9"/><stop offset="1" stop-color="#fff" stop-opacity="0"/></linearGradient><linearGradient xlink:href="#c" id="p" x1="9.606" x2="9.756" y1="-5.261" y2="-3.61" gradientUnits="userSpaceOnUse"/><linearGradient xlink:href="#b" id="o" x1="12.151" x2="8.888" y1="9.184" y2="10.947" gradientTransform="rotate(-60 8.477 14.576)" gradientUnits="userSpaceOnUse"/><linearGradient id="n" x1="12.181" x2="9.149" y1="10.027" y2="11.474" gradientTransform="rotate(240 8.476 8.767)" gradientUnits="userSpaceOnUse"><stop offset="0" stop-color="#59a4ff" stop-opacity="0"/><stop offset=".5" stop-color="#3390ff"/><stop offset="1" stop-color="#59a4ff" stop-opacity="0"/></linearGradient><linearGradient xlink:href="#d" id="m" x1="-3.759" x2="-13.185" y1="10.253" y2="10.22" gradientTransform="scale(-1 1)" gradientUnits="userSpaceOnUse"/><linearGradient id="d"><stop offset="0" stop-color="#bceeff"/><stop offset="1" stop-color="#94c6fa"/></linearGradient><linearGradient id="l" x1="-.982" x2="8.385" y1="10.244" y2="10.251" gradientUnits="userSpaceOnUse"><stop offset="0" stop-color="#d3f9ff"/><stop offset="1" stop-color="#94c6fa"/></linearGradient><linearGradient xlink:href="#d" id="f" x1="7.495" x2="16.89" y1="-4.45" y2="-4.391" gradientUnits="userSpaceOnUse"/><linearGradient id="e" x1="8.466" x2="8.466" y1="1.058" y2="15.875" gradientUnits="userSpaceOnUse"><stop offset="0" stop-color="#22b4fa"/><stop offset="1" stop-color="#1b66f1"/></linearGradient><linearGradient id="g" x1="9.91" x2="9.91" y1="3.674" y2="13.018" gradientUnits="userSpaceOnUse"><stop offset="0" stop-color="#bbf6ff"/><stop offset="1" stop-color="#bbf6ff" stop-opacity=".35"/></linearGradient><linearGradient id="j" x1="15.081" x2="12.7" y1="14.816" y2="12.171" gradientUnits="userSpaceOnUse"><stop offset="0" stop-color="#2dacfa"/><stop offset="1" stop-color="#2dacfa" stop-opacity="0"/></linearGradient><linearGradient id="k" x1="6.745" x2="10.583" y1="1.058" y2="11.312" gradientUnits="userSpaceOnUse"><stop offset="0" stop-color="#3ae7fd"/><stop offset="1" stop-color="#3ae7fd" stop-opacity="0"/></linearGradient><filter id="t" width="1.15" height="1.15" x="-.075" y="-.075" color-interpolation-filters="sRGB"><feGaussianBlur stdDeviation="31.874"/></filter><filter id="q" width="1.006" height="1.008" x="-.003" y="-.004" color-interpolation-filters="sRGB"><feGaussianBlur stdDeviation=".004"/></filter><filter id="h" width="1.031" height="1.02" x="-.015" y="-.01" color-interpolation-filters="sRGB"><feGaussianBlur stdDeviation=".038"/></filter><filter id="i" width="1.024" height="1.024" x="-.012" y="-.012" color-interpolation-filters="sRGB"><feGaussianBlur stdDeviation=".074"/></filter></defs><path fill="url(#e)" d="M5.36 1.058c-1.53 0-2.577.457-3.26 1.2-.678.74-1.042 1.8-1.042 3v6.416c0 1.2.364 2.261 1.042 3.001.683.744 1.73 1.2 3.26 1.2h6.23c1.53 0 2.579-.456 3.26-1.2.68-.74 1.025-1.703 1.025-3V5.5c0-1.57-.345-2.502-1.024-3.242-.682-.743-1.73-1.2-3.26-1.2H6.745z"/><rect width="10.583" height="1.323" x="6.891" y="-5.071" fill="url(#f)" rx=".661" ry=".661" style="paint-order:fill markers stroke" transform="rotate(60)"/><path fill="url(#g)" d="M7.577 3.674a.66.66 0 0 0-.555.993l4.63 8.02c.184.317.586.425.904.242s.425-.587.242-.904l-4.63-8.02a.66.66 0 0 0-.59-.33m.008.21a.44.44 0 0 1 .4.227l4.63 8.02c.126.218.054.487-.165.613s-.489.055-.615-.164l-4.63-8.019a.445.445 0 0 1 .166-.614.46.46 0 0 1 .214-.062" filter="url(#h)" style="mix-blend-mode:overlay;paint-order:fill markers stroke"/><g filter="url(#i)" opacity=".75" style="mix-blend-mode:normal"><path fill="url(#j)" d="M5.36 1.058c-1.53 0-2.577.457-3.26 1.2-.678.74-1.042 1.8-1.042 3.001v6.415c0 1.2.364 2.26 1.043 3 .682.744 1.73 1.2 3.26 1.2h6.23c1.53 0 2.577-.456 3.26-1.2.678-.739 1.024-1.702 1.024-3V5.5c0-1.57-.346-2.502-1.024-3.242-.683-.743-1.73-1.2-3.26-1.2H6.745zm0 .264h6.232c1.477 0 2.437.432 3.064 1.116.634.69.954 1.53.954 3.062v6.174c0 1.251-.322 2.134-.954 2.822-.627.684-1.587 1.114-3.064 1.114H5.359c-1.477 0-2.437-.43-3.064-1.114-.625-.682-.973-1.675-.973-2.822V5.26c0-1.148.348-2.14.973-2.822.627-.684 1.587-1.116 3.064-1.116" opacity="1"/><path fill="url(#k)" d="M5.36 1.058c-1.53 0-2.577.457-3.26 1.2-.678.74-1.042 1.8-1.042 3.001v6.415c0 1.2.364 2.26 1.043 3 .682.744 1.73 1.2 3.26 1.2h6.23c1.53 0 2.577-.456 3.26-1.2.678-.739 1.024-1.702 1.024-3V5.5c0-1.57-.346-2.502-1.024-3.242-.683-.743-1.73-1.2-3.26-1.2H6.745zm0 .264h6.232c1.477 0 2.437.432 3.064 1.116.634.69.954 1.53.954 3.062v6.174c0 1.251-.322 2.134-.954 2.822-.627.684-1.587 1.114-3.064 1.114H5.359c-1.477 0-2.437-.43-3.064-1.114-.625-.682-.973-1.675-.973-2.822V5.26c0-1.148.348-2.14.973-2.822.627-.684 1.587-1.116 3.064-1.116" opacity="1"/></g><rect width="10.583" height="1.323" x="-1.586" y="9.611" fill="url(#l)" rx=".661" ry=".661" style="paint-order:fill markers stroke" transform="rotate(120)scale(1 -1)"/><path fill="url(#g)" d="M7.577 3.674a.66.66 0 0 0-.555.993l4.63 8.02c.184.317.586.425.904.242s.425-.587.242-.904l-4.63-8.02a.66.66 0 0 0-.59-.33m.008.21a.44.44 0 0 1 .4.227l4.63 8.02c.126.218.054.487-.165.613s-.489.055-.615-.164l-4.63-8.019a.445.445 0 0 1 .166-.614.46.46 0 0 1 .214-.062" filter="url(#h)" style="mix-blend-mode:overlay;paint-order:fill markers stroke" transform="matrix(-1 0 0 1 16.943 0)"/><path fill="url(#m)" d="M3.836 9.558a.66.66 0 0 0-.661.662.66.66 0 0 0 .661.661h6.774l-.764-1.323zm7.538 0 .764 1.323h.959a.66.66 0 1 0 0-1.323z" style="paint-order:fill markers stroke"/><path fill="url(#n)" d="m9.337 8.677 1.146-.662-1.244-2.153-.763 1.323zM7.712 5.862l.764-1.323-.48-.83-1.146.66z" style="paint-order:fill markers stroke"/><path fill="url(#o)" d="m3.955 12.373 1.145.661 1.244-2.153H4.816zM5.58 9.558h1.527l.48-.83-1.146-.662z" style="paint-order:fill markers stroke"/><path fill="url(#p)" d="m7.914-5.515 1.31 2.269h1.528c-.438-.757-1.026-1.735-1.31-2.27z" filter="url(#q)" opacity=".5" style="mix-blend-mode:overlay" transform="rotate(60)"/><path fill="url(#r)" d="m7.914-5.515 1.31 2.269h1.528c-.438-.757-1.026-1.735-1.31-2.27z" filter="url(#q)" opacity=".5" style="mix-blend-mode:overlay" transform="rotate(180 10.151 2.91)"/><path fill="url(#g)" d="M12.798 12.025a.66.66 0 0 1-.242.904.66.66 0 0 1-.904-.243L8.266 6.822h.244l3.325 5.759c.126.219.396.29.615.163s.291-.395.165-.614L9.55 6.822h.244zM9.03 5.499h-.244l-.8-1.387a.444.444 0 0 0-.615-.165.444.444 0 0 0-.166.614l.542.938h-.244l-.48-.832a.66.66 0 0 1 .555-.993.66.66 0 0 1 .59.331z" filter="url(#h)" style="mix-blend-mode:overlay;paint-order:fill markers stroke" transform="rotate(60 -2.342 25.196)scale(-1 1)"/><path fill="url(#r)" d="m7.914-5.515 1.31 2.269h1.528c-.438-.757-1.026-1.735-1.31-2.27z" filter="url(#q)" opacity=".5" style="mix-blend-mode:overlay" transform="rotate(120 3.415 1.94)"/><path fill="url(#s)" d="M8.123 9.558v1.323h2.487l-.764-1.323zm3.25 0 .765 1.323h.959V9.558z" style="paint-order:fill markers stroke"/><g image-rendering="optimizeSpeed" transform="translate(7.92 7.92)scale(.0083)"><path d="M984.88 348.72q-9.292-22.529-20.962-44.139a452 452 0 0 0-13.938-24.203c-21.124-34.252-46.894-66.614-77.311-97.029-99.568-99.568-219.83-149.38-360.67-149.38-140.85 0-261.05 49.811-360.61 149.38-99.569 99.572-149.38 219.78-149.38 360.61s49.811 261.11 149.38 360.67c99.568 99.568 219.78 149.32 360.61 149.32 140.84 0 261.11-49.758 360.67-149.32 54.836-54.89 94.598-116.04 119.23-183.42 20.043-54.943 30.092-113.99 30.092-177.25 0-48.515-5.889-94.598-17.72-138.25a657 657 0 0 0-4.214-14.695 498 498 0 0 0-15.18-42.302z" filter="url(#t)" opacity=".15"/><path fill="url(#a)" d="M984.88 316.75q-9.292-22.529-20.962-44.139a452 452 0 0 0-13.938-24.203c-21.124-34.252-46.894-66.614-77.311-97.029-99.568-99.568-219.83-149.38-360.67-149.38-140.85 0-261.05 49.811-360.61 149.38-99.569 99.572-149.38 219.78-149.38 360.61s49.811 261.11 149.38 360.67c99.568 99.568 219.78 149.32 360.61 149.32 140.84 0 261.11-49.758 360.67-149.32 54.836-54.89 94.598-116.04 119.23-183.42 20.043-54.943 30.092-113.99 30.092-177.25 0-48.515-5.889-94.598-17.72-138.25a657 657 0 0 0-4.214-14.695 498 498 0 0 0-15.18-42.302z"/><circle cx="512" cy="511.99" r="458.99" fill="#333"/><path fill="url(#u)" d="M731.1 171.44c-5.247 17.051-14.755 33.29-17.3 50.856 10.213 11.324 27.841 29.648 41.722 12.95 13.171-6.136 24.275-24.735 39.294-20.981 12.309 9.766 25.955 23.871 9.352 36.962-5.879 13.095-26.171 24.632-18.793 39.704 8.31 15.044 21.742 27.382 38.347 15.241 13.406-1.902 31.878-20.441 41.33-4.437 13.075 13.352 10.392 28.97-6.473 37.028-9.127 10.435-33.223 17.758-23.097 34.849 2.75 19.409 18.444 25.34 35.943 19.875 13.656-.079 36.855-10.061 37.704 11.351 10.983 17.786-6.255 26.752-21.292 31.517-13.468 5.942-34.633 11.15-26.498 30.397-3.116 21.089 17.728 23.041 33.6 24.626 15.677.706 34.731 4.415 28.86 24.605 4.988 20.56-20.006 17.861-33.313 21.035-17.01-.414-31.994 7.159-29.37 26.329-7.03 19.993 18.398 22.392 30.907 29.836 18.401 3.178 24.921 17.594 16.02 33.794-4.445 18.063-27.735 5.293-41.069 6.764-18.044-7.084-28.754 6.114-32.39 22.584-6.476 17.348 18.202 24.12 27.503 35.454 19.257 8.04 10.15 25.38.831 37.906-13.311 7.802-29.136-7.075-43.455-9.763-16.508-12.167-26.873 6.837-35.53 18.67-2.012 16.065 15.814 27.66 22.879 41.574 15.293 13.063-5.217 28.014-16.312 35.215-17.981-6.947-31.13-24.065-49.129-31.044-13.574 6.933-35.915 19.17-23.364 36.913 2.519 14.303 17.62 29.833 10.107 43.363-12.614 9.374-29.756 18.87-38.101-.546-11.134-9.082-17.041-31.658-33.505-28.474-16.685 4.116-32.058 13.916-24.632 33.085-1.628 13.463 11.5 36.124-6.4 41.138-16.285 9.16-30.667 2.527-34.087-15.847-7.724-11.527-8.566-36.725-27.708-31.35-19.471-2.354-29.212 11.31-28.48 29.614-3.454 13.2.178 38.168-20.711 33.455-20.022 6.015-24.217-12.961-24.928-28.716-2.237-14.525-1.812-36.256-22.475-33.363-19.566-8.455-26.893 11.118-32.526 26.062-4.727 14.955-13.264 32.338-31.223 21.465-21.158-.498-12.096-23.955-11.715-37.635 4.802-16.333 1.352-32.765-17.833-35.238-17.475-12.006-26.368 11.972-36.795 22.117-7.855 16.962-23.461 19.594-36.833 6.758-16.29-8.98 2.062-28.161 4.094-41.422 11.502-15.608 1.603-29.402-13.435-37.137-15.105-10.69-28.021 11.356-41.383 17.413-12.746 16.513-27.122 3.184-36.806-9.03-4.146-14.865 14.367-26.312 20.664-39.445 16.012-12.785.262-27.717-8.862-39.15-14.977-6.127-30.794 8.119-46.05 11.338-16.557 11.387-25.69-12.277-29.77-24.846 11.388-15.578 31.33-23.871 42.75-39.46-3.179-14.9-9.216-39.617-29.593-32.087-14.494-1.257-33.412 9.294-44.572-1.448-5.778-14.616-10.513-33.626 10.401-36.66 11.664-8.409 35.023-8.278 36.2-25.017.333-17.196-5.198-34.536-25.627-32.334-12.57-5.055-37.835 1.758-38.05-16.816-4.644-18.103 5.488-30.274 24.12-28.822 13.101-4.468 37.62 1.239 37.354-18.62 7.286-18.193-3.322-31.193-21.216-35.218-11.845-6.745-36.857-9.71-26.909-28.652-.635-20.9 18.796-20.055 34.202-16.663 14.624 1.603 35.491 7.62 38.088-13.08 13.28-16.696-3.759-28.827-16.732-38.137-13.234-8.459-27.873-21.205-12.686-35.76 5.969-20.296 26.274-5.484 39.39-1.574 14.538 8.842 31.351 9.853 38.667-8.102 16.066-13.803-4.774-28.587-11.874-41.29-14.353-11.974-12.807-27.715 3.027-37.304 12.881-13.452 26.667 9.26 38.95 14.66 12.08 15.164 27.96 9.07 39.327-3.381 14.29-11.793-3.697-29.992-6.089-44.458-12.66-16.578 3.954-27.003 18.243-33.2 15.416-.103 21.683 20.698 32.733 30.184 8.203 18.777 26.685 7.522 40.106 1.639 9.808-12.885.132-31.85.97-47.424-6.747-18.978 18.459-21.71 31.699-22.383 12.088 15.053 14.96 36.449 27.049 51.536 15.232.785 40.655 1.307 38.65-20.328 4.966-13.664-.329-34.642 12.923-42.648 15.612-1.807 35.198-1.464 32.715 19.524 5.102 13.406-1.083 35.91 14.767 41.346 16.517 4.742 34.742 3.941 37.906-16.372 8.133-10.818 8.09-36.955 26.08-32.354 18.694.19 27.838 13.143 21.614 30.768.922 13.828-10.922 36.023 8.33 40.937 15.671 11.792 30.956 4.898 39.476-11.346 9.6-9.712 18.948-33.153 34.686-18.614 5.38 4.4 17.585 6.145 15.41 15.538zm-78.338 97.95c-66.223-38.247-149.7-49.824-222.43-24.741-36.187 30.905 14.938 71.477 25.188 103.76 20.88 33.949 35.191 72.507 60.436 103.43 33.188 34.934 83.547 21.805 126.03 22.879 38.02-1.322 97.609-1.003 121.47-3.236 45.215-20.914 1.92-76.687-11.978-106.67-24.338-39.328-58.612-72.408-98.713-95.424zm-4.616 491.4c66.888-37.081 119.79-102.68 135.76-177.94-7.857-46.929-68.954-24.021-101.9-31.852-39.849.412-80.265-7.18-119.77-1.479-47.044 10.447-61.728 60.38-84.524 96.24-18.446 33.273-49.423 84.197-59.799 105.79-4.615 47.808 46.286 37.823 84.151 44.55 50.716 1.787 101.77-10.61 146.08-35.315zm-334.03-44.959c45.894 24.287 49.811-29.754 74.046-60.786 21.746-39.924 48.048-77.675 67.009-118.94 12.68-36.495-7.67-71.273-28.377-99.901-25.482-39.364-49.257-79.931-75.733-118.6-41.061-29.058-68.497 35.269-87.484 62.841-59.759 107.5-38.288 250.32 50.537 335.38z" class="shp86"/></g></svg>