<svg xmlns="http://www.w3.org/2000/svg" xmlns:xlink="http://www.w3.org/1999/xlink" width="64" height="64" viewBox="0 0 16.933 16.933"><defs><linearGradient xlink:href="#a" id="d" x1="2.598" x2="10.583" y1="2.836" y2="11.312" gradientUnits="userSpaceOnUse"/><linearGradient id="a"><stop offset="0" stop-color="#fff"/><stop offset="1" stop-color="#fff" stop-opacity="0"/></linearGradient><linearGradient xlink:href="#a" id="e" x1="15.081" x2="12.7" y1="14.816" y2="12.171" gradientUnits="userSpaceOnUse"/><linearGradient id="b" x1="8.466" x2="8.466" y1="1.058" y2="15.875" gradientUnits="userSpaceOnUse"><stop offset="0" stop-color="#323131"/><stop offset="1" stop-color="#141414"/></linearGradient><linearGradient id="g" x1="8.547" x2="8.547" y1="8.202" y2="8.731" gradientUnits="userSpaceOnUse"><stop offset="0" stop-color="#fff"/><stop offset="1" stop-color="#fff" stop-opacity="0"/></linearGradient><linearGradient id="f" x1="5.207" x2="5.207" y1="4.109" y2="7.552" gradientUnits="userSpaceOnUse"><stop offset="0" stop-color="#f9f9f9"/><stop offset="1" stop-color="#c6c6c6"/></linearGradient><filter id="c" width="1.024" height="1.024" x="-.012" y="-.012" color-interpolation-filters="sRGB"><feGaussianBlur stdDeviation=".074"/></filter><filter id="h" width="1.056" height="1.336" x="-.028" y="-.168" color-interpolation-filters="sRGB"><feGaussianBlur stdDeviation=".037"/></filter><filter id="i" width="1.102" height="1.091" x="-.051" y="-.045" color-interpolation-filters="sRGB"><feGaussianBlur stdDeviation=".058"/></filter></defs><path fill="url(#b)" d="M5.36 1.058c-1.53 0-2.577.457-3.26 1.2-.678.74-1.042 1.8-1.042 3v6.416c0 1.2.364 2.261 1.043 3 .682.744 1.73 1.2 3.26 1.2h6.23c1.53 0 2.578-.456 3.26-1.2.679-.739 1.024-1.702 1.024-3V5.5c0-1.57-.345-2.502-1.024-3.242-.682-.743-1.73-1.2-3.26-1.2H6.745z"/><g filter="url(#c)" opacity=".35"><path fill="url(#d)" d="M5.36 1.058c-1.53 0-2.577.457-3.26 1.2-.678.74-1.042 1.8-1.042 3.001v6.415c0 1.2.364 2.26 1.043 3 .682.744 1.73 1.2 3.26 1.2h6.23c1.53 0 2.577-.456 3.26-1.2.678-.739 1.024-1.702 1.024-3V5.5c0-1.57-.346-2.502-1.024-3.242-.683-.743-1.73-1.2-3.26-1.2H6.745zm0 .264h6.232c1.477 0 2.437.432 3.064 1.116.634.69.954 1.53.954 3.062v6.174c0 1.251-.322 2.134-.954 2.822-.627.684-1.587 1.114-3.064 1.114H5.359c-1.477 0-2.437-.43-3.064-1.114-.625-.682-.973-1.675-.973-2.822V5.26c0-1.148.348-2.14.973-2.822.627-.684 1.587-1.116 3.064-1.116"/><path fill="url(#e)" d="M5.36 1.058c-1.53 0-2.577.457-3.26 1.2-.678.74-1.042 1.8-1.042 3.001v6.415c0 1.2.364 2.26 1.043 3 .682.744 1.73 1.2 3.26 1.2h6.23c1.53 0 2.577-.456 3.26-1.2.678-.739 1.024-1.702 1.024-3V5.5c0-1.57-.346-2.502-1.024-3.242-.683-.743-1.73-1.2-3.26-1.2H6.745zm0 .264h6.232c1.477 0 2.437.432 3.064 1.116.634.69.954 1.53.954 3.062v6.174c0 1.251-.322 2.134-.954 2.822-.627.684-1.587 1.114-3.064 1.114H5.359c-1.477 0-2.437-.43-3.064-1.114-.625-.682-.973-1.675-.973-2.822V5.26c0-1.148.348-2.14.973-2.822.627-.684 1.587-1.116 3.064-1.116"/></g><path fill="url(#f)" d="M3.95 4.109a.106.106 0 0 0-.1.104v.447a.11.11 0 0 0 .056.094l2.018 1.078L3.906 6.91a.11.11 0 0 0-.056.094v.443a.106.106 0 0 0 .156.092L6.51 6.168a.11.11 0 0 0 .054-.092v-.494a.11.11 0 0 0-.054-.094L4.006 4.121a.1.1 0 0 0-.056-.012" style="paint-order:stroke markers fill"/><path fill="#666" d="M7.116 8.202h2.861c.087 0 .157.07.157.157v.215c0 .087-.07.157-.157.157H7.116a.156.156 0 0 1-.157-.157V8.36c0-.087.07-.157.157-.157"/><path fill="url(#g)" d="M7.116 8.202a.156.156 0 0 0-.157.156v.216c0 .087.07.157.157.157h2.861c.087 0 .157-.07.157-.157v-.216a.157.157 0 0 0-.157-.156zm-.007.132h2.867q.025.001.026.026v.214q-.001.025-.026.026h-2.86q-.025-.001-.024-.026V8.36q0-.022.017-.026" filter="url(#h)" opacity=".5"/><path fill="#fff" d="M3.95 4.109a.106.106 0 0 0-.1.104v.447a.11.11 0 0 0 .056.094l2.018 1.078L3.906 6.91a.11.11 0 0 0-.056.094v.443a.106.106 0 0 0 .156.092L6.51 6.168a.11.11 0 0 0 .054-.092v-.494a.11.11 0 0 0-.054-.094L4.006 4.121a.1.1 0 0 0-.056-.012m-.007.127.003.002h-.003zm.04.022 2.449 1.34v.462l-2.45 1.342V7.02l2.004-1.07a.132.132 0 0 0 0-.235l-2.003-1.07z" opacity=".35"/><path fill="#fff" d="M3.95 4.109a.106.106 0 0 0-.1.104v.15a.106.106 0 0 1 .1-.104.1.1 0 0 1 .056.012L6.51 5.64a.11.11 0 0 1 .054.092v-.15a.11.11 0 0 0-.054-.093L4.006 4.121a.1.1 0 0 0-.056-.012m1.833 1.798L3.907 6.91a.11.11 0 0 0-.056.094v.15a.11.11 0 0 1 .056-.094l2.018-1.078z" filter="url(#i)" style="paint-order:stroke markers fill"/></svg>