<svg xmlns="http://www.w3.org/2000/svg" xmlns:xlink="http://www.w3.org/1999/xlink" width="64" height="64" viewBox="0 0 16.933 16.933"><defs><linearGradient id="a"><stop offset="0" stop-color="#0e93ff"/><stop offset="1" stop-color="#3aaafe"/></linearGradient><linearGradient id="b" x1="8.466" x2="8.466" y1="1.058" y2="15.875" gradientUnits="userSpaceOnUse"><stop offset="0" stop-color="#fff"/><stop offset="1" stop-color="#ececec"/></linearGradient><linearGradient xlink:href="#a" id="f" x1="8.456" x2="8.456" y1="3.667" y2="9.488" gradientUnits="userSpaceOnUse"/><linearGradient xlink:href="#a" id="c" x1="8.456" x2="8.456" y1="3.667" y2="9.488" gradientTransform="translate(.21 .21)" gradientUnits="userSpaceOnUse"/><filter id="e" width="1.024" height="1.024" x="-.012" y="-.012" color-interpolation-filters="sRGB"><feGaussianBlur stdDeviation=".074"/></filter><filter id="g" width="1.306" height="1.027" x="-.153" y="-.014" color-interpolation-filters="sRGB"><feGaussianBlur stdDeviation=".015"/></filter><filter id="h" width="1.554" height="1.028" x="-.277" y="-.014" color-interpolation-filters="sRGB"><feGaussianBlur stdDeviation=".033"/></filter><filter id="d" width="2.441" height="1.164" x="-.72" y="-.082" color-interpolation-filters="sRGB"><feGaussianBlur stdDeviation=".199"/></filter></defs><path fill="url(#b)" d="M5.36 1.058c-1.53 0-2.577.457-3.26 1.2-.678.74-1.042 1.8-1.042 3v6.416c0 1.2.364 2.261 1.042 3.001.683.744 1.73 1.2 3.26 1.2h6.23c1.53 0 2.579-.456 3.26-1.2.68-.74 1.025-1.703 1.025-3V5.5c0-1.57-.345-2.502-1.024-3.242-.682-.743-1.73-1.2-3.26-1.2H6.745z"/><rect width=".661" height="5.821" x="8.334" y="3.878" fill="url(#c)" filter="url(#d)" opacity=".35" rx=".331" ry=".331" style="paint-order:fill markers stroke"/><path fill="#fff" d="M5.36 1.058c-1.53 0-2.577.457-3.26 1.2-.678.74-1.042 1.8-1.042 3.001v6.415c0 1.2.364 2.26 1.043 3 .682.744 1.73 1.2 3.26 1.2h6.23c1.53 0 2.577-.456 3.26-1.2.678-.739 1.024-1.702 1.024-3V5.5c0-1.57-.346-2.502-1.024-3.242-.683-.743-1.73-1.2-3.26-1.2H6.745zm0 .264h6.232c1.477 0 2.437.432 3.064 1.116.634.69.954 1.53.954 3.062v6.174c0 1.251-.322 2.134-.954 2.822-.627.684-1.587 1.114-3.064 1.114H5.359c-1.477 0-2.437-.43-3.064-1.114-.625-.682-.973-1.675-.973-2.822V5.26c0-1.148.348-2.14.973-2.822.627-.684 1.587-1.116 3.064-1.116" filter="url(#e)"/><path d="M4.192 4.367a.13.13 0 0 0-.13.13v.268c0 .073.058.13.13.13h1.192V8.6c0 .072.059.131.132.131h.398a.13.13 0 0 0 .131-.131V4.896h1.193a.13.13 0 0 0 .13-.131v-.267a.13.13 0 0 0-.13-.131z" style="paint-order:fill markers stroke"/><rect width=".661" height="5.821" x="8.125" y="3.667" fill="url(#f)" rx=".331" ry=".331" style="paint-order:fill markers stroke"/><path fill="none" stroke="#fff" stroke-linecap="round" stroke-linejoin="round" stroke-width=".079" d="M8.455 3.746c-.14 0-.25.112-.25.252v5.158c0 .141.11.252.25.252s.252-.111.252-.252V3.998a.25.25 0 0 0-.252-.252" filter="url(#g)" opacity=".15" style="mix-blend-mode:overlay;paint-order:fill markers stroke"/><path fill="#fff" d="M8.455 3.746c-.14 0-.25.112-.25.252v5.158a.248.248 0 0 0 .29.249.25.25 0 0 1-.21-.249V3.998c0-.127.089-.23.21-.249z" filter="url(#h)" opacity=".5" style="mix-blend-mode:overlay;paint-order:fill markers stroke"/></svg>