<svg xmlns="http://www.w3.org/2000/svg" width="64" height="64" viewBox="0 0 16.933 16.933"><defs><linearGradient id="a" x1="8.466" x2="8.466" y1="1.058" y2="15.875" gradientUnits="userSpaceOnUse"><stop offset="0" stop-color="#fff"/><stop offset="1" stop-color="#ececec"/></linearGradient><linearGradient id="d" x1="8.466" x2="8.466" y1="4.762" y2="6.085" gradientUnits="userSpaceOnUse"><stop offset="0" stop-color="#ffd52e"/><stop offset="1" stop-color="#fff" stop-opacity="0"/></linearGradient><filter id="b" width="1.024" height="1.024" x="-.012" y="-.012" color-interpolation-filters="sRGB"><feGaussianBlur stdDeviation=".074"/></filter><filter id="c" width="1.096" height="1.096" x="-.048" y="-.048" color-interpolation-filters="sRGB"><feGaussianBlur stdDeviation=".011"/></filter></defs><path fill="url(#a)" d="M5.36 1.058c-1.53 0-2.577.457-3.26 1.2-.678.74-1.042 1.8-1.042 3v6.416c0 1.2.364 2.261 1.042 3.001.683.744 1.73 1.2 3.26 1.2h6.23c1.53 0 2.579-.456 3.26-1.2.68-.74 1.025-1.703 1.025-3V5.5c0-1.57-.345-2.502-1.024-3.242-.682-.743-1.73-1.2-3.26-1.2H6.745z"/><path fill="#ffd52e" d="M5.36 1.058c-1.53 0-2.577.457-3.26 1.2-.583.636-.934 1.51-1.02 2.504h14.766c-.097-1.14-.43-1.888-.995-2.504-.682-.743-1.73-1.2-3.26-1.2H5.36z" style="paint-order:fill markers stroke"/><path fill="#fff" d="M5.36 1.058c-1.53 0-2.577.457-3.26 1.2-.678.74-1.042 1.8-1.042 3.001v6.415c0 1.2.364 2.26 1.043 3 .682.744 1.73 1.2 3.26 1.2h6.23c1.53 0 2.577-.456 3.26-1.2.678-.739 1.024-1.702 1.024-3V5.5c0-1.57-.346-2.502-1.024-3.242-.683-.743-1.73-1.2-3.26-1.2H6.745zm0 .264h6.232c1.477 0 2.437.432 3.064 1.116.634.69.954 1.53.954 3.062v6.174c0 1.251-.322 2.134-.954 2.822-.627.684-1.587 1.114-3.064 1.114H5.359c-1.477 0-2.437-.43-3.064-1.114-.625-.682-.973-1.675-.973-2.822V5.26c0-1.148.348-2.14.973-2.822.627-.684 1.587-1.116 3.064-1.116" filter="url(#b)" style="mix-blend-mode:overlay"/><rect width="11.112" height=".265" x="2.91" y="8.334" fill="#c1c1c1" rx=".132" ry=".132" style="paint-order:fill markers stroke"/><path fill="#b8b8b8" d="M3.043 8.334a.132.132 0 1 0 0 .265H13.89a.132.132 0 1 0 0-.265zm-.006.08h10.854c.03 0 .053.022.053.053s-.022.053-.053.053H3.043a.05.05 0 0 1-.053-.053c0-.029.02-.05.047-.053" style="paint-order:fill markers stroke"/><rect width="11.112" height=".265" x="2.91" y="12.038" fill="#c1c1c1" rx=".132" ry=".132" style="paint-order:fill markers stroke"/><path fill="#b8b8b8" d="M3.043 12.038a.132.132 0 1 0 0 .265H13.89a.132.132 0 1 0 0-.265zm-.006.08h10.854c.03 0 .053.022.053.053s-.022.053-.053.053H3.043a.05.05 0 0 1-.053-.053c0-.029.02-.05.047-.053" style="paint-order:fill markers stroke"/><circle cx="1.986" cy="5.225" r=".265" fill="#fff" filter="url(#c)" opacity=".35" style="paint-order:fill markers stroke"/><circle cx="1.986" cy="5.225" r=".198" fill="#c2bda8" style="paint-order:fill markers stroke"/><path fill="#b7b096" d="M1.986 5.027a.2.2 0 0 0-.198.198.2.2 0 0 0 .198.199.2.2 0 0 0 .199-.199.2.2 0 0 0-.199-.198m0 .079c.067 0 .12.052.12.118 0 .067-.053.12-.12.12a.12.12 0 0 1-.119-.12c0-.066.053-.118.12-.118" style="paint-order:fill markers stroke"/><g transform="translate(.926)"><circle cx="1.986" cy="5.225" r=".265" fill="#fff" filter="url(#c)" opacity=".35" style="paint-order:fill markers stroke"/><circle cx="1.986" cy="5.225" r=".198" fill="#c2bda8" style="paint-order:fill markers stroke"/><path fill="#b7b096" d="M1.986 5.027a.2.2 0 0 0-.198.198.2.2 0 0 0 .198.199.2.2 0 0 0 .199-.199.2.2 0 0 0-.199-.198m0 .079c.067 0 .12.052.12.118 0 .067-.053.12-.12.12a.12.12 0 0 1-.119-.12c0-.066.053-.118.12-.118" style="paint-order:fill markers stroke"/></g><g transform="translate(1.852)"><circle cx="1.986" cy="5.225" r=".265" fill="#fff" filter="url(#c)" opacity=".35" style="paint-order:fill markers stroke"/><circle cx="1.986" cy="5.225" r=".198" fill="#c2bda8" style="paint-order:fill markers stroke"/><path fill="#b7b096" d="M1.986 5.027a.2.2 0 0 0-.198.198.2.2 0 0 0 .198.199.2.2 0 0 0 .199-.199.2.2 0 0 0-.199-.198m0 .079c.067 0 .12.052.12.118 0 .067-.053.12-.12.12a.12.12 0 0 1-.119-.12c0-.066.053-.118.12-.118" style="paint-order:fill markers stroke"/></g><g transform="translate(2.778)"><circle cx="1.986" cy="5.225" r=".265" fill="#fff" filter="url(#c)" opacity=".35" style="paint-order:fill markers stroke"/><circle cx="1.986" cy="5.225" r=".198" fill="#c2bda8" style="paint-order:fill markers stroke"/><path fill="#b7b096" d="M1.986 5.027a.2.2 0 0 0-.198.198.2.2 0 0 0 .198.199.2.2 0 0 0 .199-.199.2.2 0 0 0-.199-.198m0 .079c.067 0 .12.052.12.118 0 .067-.053.12-.12.12a.12.12 0 0 1-.119-.12c0-.066.053-.118.12-.118" style="paint-order:fill markers stroke"/></g><g transform="translate(3.704)"><circle cx="1.986" cy="5.225" r=".265" fill="#fff" filter="url(#c)" opacity=".35" style="paint-order:fill markers stroke"/><circle cx="1.986" cy="5.225" r=".198" fill="#c2bda8" style="paint-order:fill markers stroke"/><path fill="#b7b096" d="M1.986 5.027a.2.2 0 0 0-.198.198.2.2 0 0 0 .198.199.2.2 0 0 0 .199-.199.2.2 0 0 0-.199-.198m0 .079c.067 0 .12.052.12.118 0 .067-.053.12-.12.12a.12.12 0 0 1-.119-.12c0-.066.053-.118.12-.118" style="paint-order:fill markers stroke"/></g><g transform="translate(4.63)"><circle cx="1.986" cy="5.225" r=".265" fill="#fff" filter="url(#c)" opacity=".35" style="paint-order:fill markers stroke"/><circle cx="1.986" cy="5.225" r=".198" fill="#c2bda8" style="paint-order:fill markers stroke"/><path fill="#b7b096" d="M1.986 5.027a.2.2 0 0 0-.198.198.2.2 0 0 0 .198.199.2.2 0 0 0 .199-.199.2.2 0 0 0-.199-.198m0 .079c.067 0 .12.052.12.118 0 .067-.053.12-.12.12a.12.12 0 0 1-.119-.12c0-.066.053-.118.12-.118" style="paint-order:fill markers stroke"/></g><g transform="translate(5.556)"><circle cx="1.986" cy="5.225" r=".265" fill="#fff" filter="url(#c)" opacity=".35" style="paint-order:fill markers stroke"/><circle cx="1.986" cy="5.225" r=".198" fill="#c2bda8" style="paint-order:fill markers stroke"/><path fill="#b7b096" d="M1.986 5.027a.2.2 0 0 0-.198.198.2.2 0 0 0 .198.199.2.2 0 0 0 .199-.199.2.2 0 0 0-.199-.198m0 .079c.067 0 .12.052.12.118 0 .067-.053.12-.12.12a.12.12 0 0 1-.119-.12c0-.066.053-.118.12-.118" style="paint-order:fill markers stroke"/></g><g transform="translate(6.482)"><circle cx="1.986" cy="5.225" r=".265" fill="#fff" filter="url(#c)" opacity=".35" style="paint-order:fill markers stroke"/><circle cx="1.986" cy="5.225" r=".198" fill="#c2bda8" style="paint-order:fill markers stroke"/><path fill="#b7b096" d="M1.986 5.027a.2.2 0 0 0-.198.198.2.2 0 0 0 .198.199.2.2 0 0 0 .199-.199.2.2 0 0 0-.199-.198m0 .079c.067 0 .12.052.12.118 0 .067-.053.12-.12.12a.12.12 0 0 1-.119-.12c0-.066.053-.118.12-.118" style="paint-order:fill markers stroke"/></g><g transform="translate(7.408)"><circle cx="1.986" cy="5.225" r=".265" fill="#fff" filter="url(#c)" opacity=".35" style="paint-order:fill markers stroke"/><circle cx="1.986" cy="5.225" r=".198" fill="#c2bda8" style="paint-order:fill markers stroke"/><path fill="#b7b096" d="M1.986 5.027a.2.2 0 0 0-.198.198.2.2 0 0 0 .198.199.2.2 0 0 0 .199-.199.2.2 0 0 0-.199-.198m0 .079c.067 0 .12.052.12.118 0 .067-.053.12-.12.12a.12.12 0 0 1-.119-.12c0-.066.053-.118.12-.118" style="paint-order:fill markers stroke"/></g><g transform="translate(8.334)"><circle cx="1.986" cy="5.225" r=".265" fill="#fff" filter="url(#c)" opacity=".35" style="paint-order:fill markers stroke"/><circle cx="1.986" cy="5.225" r=".198" fill="#c2bda8" style="paint-order:fill markers stroke"/><path fill="#b7b096" d="M1.986 5.027a.2.2 0 0 0-.198.198.2.2 0 0 0 .198.199.2.2 0 0 0 .199-.199.2.2 0 0 0-.199-.198m0 .079c.067 0 .12.052.12.118 0 .067-.053.12-.12.12a.12.12 0 0 1-.119-.12c0-.066.053-.118.12-.118" style="paint-order:fill markers stroke"/></g><g transform="translate(9.26)"><circle cx="1.986" cy="5.225" r=".265" fill="#fff" filter="url(#c)" opacity=".35" style="paint-order:fill markers stroke"/><circle cx="1.986" cy="5.225" r=".198" fill="#c2bda8" style="paint-order:fill markers stroke"/><path fill="#b7b096" d="M1.986 5.027a.2.2 0 0 0-.198.198.2.2 0 0 0 .198.199.2.2 0 0 0 .199-.199.2.2 0 0 0-.199-.198m0 .079c.067 0 .12.052.12.118 0 .067-.053.12-.12.12a.12.12 0 0 1-.119-.12c0-.066.053-.118.12-.118" style="paint-order:fill markers stroke"/></g><g transform="translate(10.185)"><circle cx="1.986" cy="5.225" r=".265" fill="#fff" filter="url(#c)" opacity=".35" style="paint-order:fill markers stroke"/><circle cx="1.986" cy="5.225" r=".198" fill="#c2bda8" style="paint-order:fill markers stroke"/><path fill="#b7b096" d="M1.986 5.027a.2.2 0 0 0-.198.198.2.2 0 0 0 .198.199.2.2 0 0 0 .199-.199.2.2 0 0 0-.199-.198m0 .079c.067 0 .12.052.12.118 0 .067-.053.12-.12.12a.12.12 0 0 1-.119-.12c0-.066.053-.118.12-.118" style="paint-order:fill markers stroke"/></g><g transform="translate(11.111)"><circle cx="1.986" cy="5.225" r=".265" fill="#fff" filter="url(#c)" opacity=".35" style="paint-order:fill markers stroke"/><circle cx="1.986" cy="5.225" r=".198" fill="#c2bda8" style="paint-order:fill markers stroke"/><path fill="#b7b096" d="M1.986 5.027a.2.2 0 0 0-.198.198.2.2 0 0 0 .198.199.2.2 0 0 0 .199-.199.2.2 0 0 0-.199-.198m0 .079c.067 0 .12.052.12.118 0 .067-.053.12-.12.12a.12.12 0 0 1-.119-.12c0-.066.053-.118.12-.118" style="paint-order:fill markers stroke"/></g><g transform="translate(12.037)"><circle cx="1.986" cy="5.225" r=".265" fill="#fff" filter="url(#c)" opacity=".35" style="paint-order:fill markers stroke"/><circle cx="1.986" cy="5.225" r=".198" fill="#c2bda8" style="paint-order:fill markers stroke"/><path fill="#b7b096" d="M1.986 5.027a.2.2 0 0 0-.198.198.2.2 0 0 0 .198.199.2.2 0 0 0 .199-.199.2.2 0 0 0-.199-.198m0 .079c.067 0 .12.052.12.118 0 .067-.053.12-.12.12a.12.12 0 0 1-.119-.12c0-.066.053-.118.12-.118" style="paint-order:fill markers stroke"/></g><g transform="translate(12.963)"><circle cx="1.986" cy="5.225" r=".265" fill="#fff" filter="url(#c)" opacity=".35" style="paint-order:fill markers stroke"/><circle cx="1.986" cy="5.225" r=".198" fill="#c2bda8" style="paint-order:fill markers stroke"/><path fill="#b7b096" d="M1.986 5.027a.2.2 0 0 0-.198.198.2.2 0 0 0 .198.199.2.2 0 0 0 .199-.199.2.2 0 0 0-.199-.198m0 .079c.067 0 .12.052.12.118 0 .067-.053.12-.12.12a.12.12 0 0 1-.119-.12c0-.066.053-.118.12-.118" style="paint-order:fill markers stroke"/></g><path fill="url(#d)" d="M1.323 4.762H15.61v1.323H1.323z" opacity=".35" style="paint-order:fill markers stroke"/></svg>