<svg xmlns="http://www.w3.org/2000/svg" xmlns:xlink="http://www.w3.org/1999/xlink" width="64" height="64" viewBox="0 0 16.933 16.933"><defs><linearGradient xlink:href="#a" id="f" x1="2.598" x2="10.583" y1="2.836" y2="11.312" gradientUnits="userSpaceOnUse"/><linearGradient id="a"><stop offset="0" stop-color="#fff"/><stop offset="1" stop-color="#fff" stop-opacity="0"/></linearGradient><linearGradient xlink:href="#a" id="g" x1="15.081" x2="12.7" y1="14.816" y2="12.171" gradientUnits="userSpaceOnUse"/><linearGradient id="b" x1="8.466" x2="8.466" y1="1.058" y2="15.875" gradientUnits="userSpaceOnUse"><stop offset="0" stop-color="#2b2b2b"/><stop offset="1" stop-color="#121212"/></linearGradient><linearGradient id="h" x1="14.219" x2="13.19" y1="10.042" y2="9.968" gradientUnits="userSpaceOnUse"><stop offset="0" stop-color="#b5b9b8"/><stop offset="1" stop-color="#469e70"/></linearGradient><linearGradient id="i" x1="13.524" x2="13.507" y1="9.771" y2="10.222" gradientTransform="translate(4.487 3.235)scale(.67645)" gradientUnits="userSpaceOnUse"><stop offset="0" stop-color="#daeee5"/><stop offset="1" stop-color="#b1bfb9"/></linearGradient><linearGradient id="j" x1="13.304" x2="13.668" y1="10.006" y2="10.035" gradientUnits="userSpaceOnUse"><stop offset="0" stop-color="#5dcc93"/><stop offset="1" stop-color="#5dcc93" stop-opacity="0"/></linearGradient><linearGradient id="c" x1="7.399" x2="7.399" y1="3.059" y2="13.262" gradientUnits="userSpaceOnUse"><stop offset="0" stop-color="#349665"/><stop offset="1" stop-color="#4c9f74"/></linearGradient><filter id="e" width="1.024" height="1.024" x="-.012" y="-.012" color-interpolation-filters="sRGB"><feGaussianBlur stdDeviation=".074"/></filter><filter id="d" width="1.133" height="1.171" x="-.067" y="-.086" color-interpolation-filters="sRGB"><feGaussianBlur stdDeviation=".364"/></filter></defs><path fill="url(#b)" d="M5.36 1.058c-1.53 0-2.577.457-3.26 1.2-.678.74-1.042 1.8-1.042 3v6.416c0 1.2.364 2.261 1.043 3 .682.744 1.73 1.2 3.26 1.2h6.23c1.53 0 2.578-.456 3.26-1.2.679-.739 1.024-1.702 1.024-3V5.5c0-1.57-.345-2.502-1.024-3.242-.682-.743-1.73-1.2-3.26-1.2H6.745z"/><path fill="#24302b" d="M6.768 1.323v2.494H3.952V1.514q-.137.038-.265.084v2.219H1.561a4 4 0 0 0-.078.264h2.204v2.817H1.323v.265h2.364v2.816H1.323v.265h2.364v2.816H1.543q.042.135.093.265h2.051v2.01q.129.046.265.084v-2.094h2.816v2.285h.265v-2.285H9.85v2.285h.265v-2.285h2.817v2.113q.136-.036.264-.08v-2.033h2.124q.05-.129.09-.265h-2.214v-2.816h2.415v-.265h-2.415V7.163h2.415v-.265h-2.415V4.081h2.262a4 4 0 0 0-.072-.264h-2.19V1.574a4 4 0 0 0-.264-.079v2.322h-2.817V1.323h-.265v2.494H7.033V1.323zM3.952 4.08h2.816v2.817H3.952zm3.081 0h2.816v2.817H7.033zm3.08 0h2.818v2.817h-2.817zM3.953 7.163h2.816v2.816H3.952zm3.081 0h2.816v2.816H7.033zm3.08 0h2.818v2.816h-2.817zm-6.161 3.08h2.816v2.817H3.952zm3.081 0h2.816v2.817H7.033zm3.08 0h2.818v2.817h-2.817z" style="paint-order:fill markers stroke"/><path fill="url(#c)" d="M3.736 3.059a.26.26 0 0 0-.183.078.3.3 0 0 0-.069.11c-.03.07-.05.15-.07.25-.04.201-.077.478-.111.81a64 64 0 0 0-.182 2.45c-.054.9-.102 1.81-.148 2.513-.023.35-.045.65-.067.869q-.015.146-.03.236c-.027-.022-.032-.023-.07-.058-.166-.155-.416-.403-.79-.512-.415-.121-.666-.288-.813-.418a1 1 0 0 1-.145-.15v.545c.192.143.466.293.846.404.263.076.463.263.633.421.086.08.154.154.274.204.06.024.148.04.23.007a.34.34 0 0 0 .168-.156c.05-.088.044-.126.056-.2s.025-.171.036-.285c.023-.226.045-.527.068-.88.046-.707.094-1.618.149-2.516.052-.869.109-1.712.173-2.357.013.142.025.23.037.394.072.916.15 2.137.229 3.358.079 1.22.158 2.44.236 3.361.04.46.08.846.118 1.123q.027.207.058.336c.01.043.022.08.04.12.008.02.018.04.04.066a.2.2 0 0 0 .135.08l.101-.012.038-.017.027-.02c.03-.026.04-.045.049-.06.016-.03.021-.048.027-.067q.016-.057.027-.129.025-.148.057-.388c.044-.32.1-.746.178-1.172.078-.427.18-.857.304-1.175.063-.158.132-.287.198-.37.065-.085.121-.117.16-.124.027-.005.076.005.16.053s.19.129.309.211c.238.164.576.347.963.213.242-.084.383-.297.523-.54s.27-.53.404-.804.275-.536.416-.713.263-.25.38-.248c.134.004.27.1.417.297s.287.48.424.77.27.584.424.822c.077.119.16.226.262.309s.232.142.375.14a1.06 1.06 0 0 0 .656-.217c.16-.127.263-.287.344-.429s.142-.27.195-.34.061-.078.115-.074c.074.004.103.025.149.076.045.05.092.137.142.242s.104.226.186.342.199.228.363.281c.515.166 1.025.086 1.025.086a.2.2 0 0 0 .168-.224.2.2 0 0 0-.226-.168s-.442.06-.846-.07c-.066-.022-.11-.062-.16-.133s-.098-.173-.15-.284-.11-.23-.206-.338a.62.62 0 0 0-.42-.207c-.195-.012-.36.107-.455.23s-.155.26-.226.386-.147.235-.244.312a.63.63 0 0 1-.414.133c-.033 0-.069-.01-.121-.053a1 1 0 0 1-.18-.215c-.128-.196-.258-.482-.396-.775s-.284-.596-.466-.84-.416-.447-.724-.455c-.29-.008-.523.175-.701.398s-.323.504-.461.786c-.138.281-.268.564-.393.779s-.254.344-.308.363c-.221.077-.395-.019-.61-.166-.107-.074-.215-.158-.336-.226s-.265-.13-.43-.1c-.167.03-.298.14-.4.27s-.182.29-.254.47c-.142.362-.245.809-.326 1.248-.033.183-.048.322-.074.494-.011-.118-.022-.185-.033-.316-.078-.915-.158-2.135-.236-3.356s-.157-2.44-.229-3.36c-.036-.461-.072-.846-.106-1.122a4 4 0 0 0-.05-.332 1 1 0 0 0-.031-.115.3.3 0 0 0-.034-.065c-.01-.013-.02-.03-.04-.047a.22.22 0 0 0-.128-.048" filter="url(#d)"/><g filter="url(#e)" opacity=".35" style="mix-blend-mode:normal"><path fill="url(#f)" d="M5.36 1.058c-1.53 0-2.577.457-3.26 1.2-.678.74-1.042 1.8-1.042 3.001v6.415c0 1.2.364 2.26 1.043 3 .682.744 1.73 1.2 3.26 1.2h6.23c1.53 0 2.577-.456 3.26-1.2.678-.739 1.024-1.702 1.024-3V5.5c0-1.57-.346-2.502-1.024-3.242-.683-.743-1.73-1.2-3.26-1.2H6.745zm0 .264h6.232c1.477 0 2.437.432 3.064 1.116.634.69.954 1.53.954 3.062v6.174c0 1.251-.322 2.134-.954 2.822-.627.684-1.587 1.114-3.064 1.114H5.359c-1.477 0-2.437-.43-3.064-1.114-.625-.682-.973-1.675-.973-2.822V5.26c0-1.148.348-2.14.973-2.822.627-.684 1.587-1.116 3.064-1.116"/><path fill="url(#g)" d="M5.36 1.058c-1.53 0-2.577.457-3.26 1.2-.678.74-1.042 1.8-1.042 3.001v6.415c0 1.2.364 2.26 1.043 3 .682.744 1.73 1.2 3.26 1.2h6.23c1.53 0 2.577-.456 3.26-1.2.678-.739 1.024-1.702 1.024-3V5.5c0-1.57-.346-2.502-1.024-3.242-.683-.743-1.73-1.2-3.26-1.2H6.745zm0 .264h6.232c1.477 0 2.437.432 3.064 1.116.634.69.954 1.53.954 3.062v6.174c0 1.251-.322 2.134-.954 2.822-.627.684-1.587 1.114-3.064 1.114H5.359c-1.477 0-2.437-.43-3.064-1.114-.625-.682-.973-1.675-.973-2.822V5.26c0-1.148.348-2.14.973-2.822.627-.684 1.587-1.116 3.064-1.116"/></g><path fill="url(#c)" d="M3.736 3.059a.26.26 0 0 0-.183.078.3.3 0 0 0-.069.11c-.03.07-.05.15-.07.25-.04.201-.077.478-.111.81a64 64 0 0 0-.182 2.45c-.054.9-.102 1.81-.148 2.513-.023.35-.045.65-.067.869q-.015.146-.03.236c-.027-.022-.032-.023-.07-.058-.166-.155-.416-.403-.79-.512-.415-.121-.666-.288-.813-.418a1 1 0 0 1-.145-.15v.545c.192.143.466.293.846.404.263.076.463.263.633.421.086.08.154.154.274.204.06.024.148.04.23.007a.34.34 0 0 0 .168-.156c.05-.088.044-.126.056-.2s.025-.171.036-.285c.023-.226.045-.527.068-.88.046-.707.094-1.618.149-2.516.052-.869.109-1.712.173-2.357.013.142.025.23.037.394.072.916.15 2.137.229 3.358.079 1.22.158 2.44.236 3.361.04.46.08.846.118 1.123q.027.207.058.336c.01.043.022.08.04.12.008.02.018.04.04.066a.2.2 0 0 0 .135.08l.101-.012.038-.017.027-.02c.03-.026.04-.045.049-.06.016-.03.021-.048.027-.067q.016-.057.027-.129.025-.148.057-.388c.044-.32.1-.746.178-1.172.078-.427.18-.857.304-1.175.063-.158.132-.287.198-.37.065-.085.121-.117.16-.124.027-.005.076.005.16.053s.19.129.309.211c.238.164.576.347.963.213.242-.084.383-.297.523-.54s.27-.53.404-.804.275-.536.416-.713.263-.25.38-.248c.134.004.27.1.417.297s.287.48.424.77.27.584.424.822c.077.119.16.226.262.309s.232.142.375.14a1.06 1.06 0 0 0 .656-.217c.16-.127.263-.287.344-.429s.142-.27.195-.34.061-.078.115-.074c.074.004.103.025.149.076.045.05.092.137.142.242s.104.226.186.342.199.228.363.281c.515.166 1.025.086 1.025.086a.2.2 0 0 0 .168-.224.2.2 0 0 0-.226-.168s-.442.06-.846-.07c-.066-.022-.11-.062-.16-.133s-.098-.173-.15-.284-.11-.23-.206-.338a.62.62 0 0 0-.42-.207c-.195-.012-.36.107-.455.23s-.155.26-.226.386-.147.235-.244.312a.63.63 0 0 1-.414.133c-.033 0-.069-.01-.121-.053a1 1 0 0 1-.18-.215c-.128-.196-.258-.482-.396-.775s-.284-.596-.466-.84-.416-.447-.724-.455c-.29-.008-.523.175-.701.398s-.323.504-.461.786c-.138.281-.268.564-.393.779s-.254.344-.308.363c-.221.077-.395-.019-.61-.166-.107-.074-.215-.158-.336-.226s-.265-.13-.43-.1c-.167.03-.298.14-.4.27s-.182.29-.254.47c-.142.362-.245.809-.326 1.248-.033.183-.048.322-.074.494-.011-.118-.022-.185-.033-.316-.078-.915-.158-2.135-.236-3.356s-.157-2.44-.229-3.36c-.036-.461-.072-.846-.106-1.122a4 4 0 0 0-.05-.332 1 1 0 0 0-.031-.115.3.3 0 0 0-.034-.065c-.01-.013-.02-.03-.04-.047a.22.22 0 0 0-.128-.048"/><path fill="url(#h)" d="M13.142 9.784s.256.073.595-.057c.425-.162.55.169.511.366-.029.173-.204.264-.375.237-.17-.028-.078-.068-.36-.112s-.303-.033-.404-.063c-.11-.033.033-.37.033-.37" style="paint-order:fill markers stroke"/><path fill="#5dcc93" d="M3.723 3.216a.1.1 0 0 0-.055.028.2.2 0 0 0-.037.065 1.2 1.2 0 0 0-.06.22 9 9 0 0 0-.11.793c-.068.66-.128 1.547-.182 2.445-.054.9-.102 1.81-.148 2.514-.023.353-.045.652-.067.873q-.016.168-.033.27a1 1 0 0 1-.027.119c-.019.033-.037.047-.05.053-.015.005-.03.006-.053-.004a1 1 0 0 1-.202-.158c-.168-.156-.399-.38-.728-.477-.436-.127-.71-.306-.873-.451l-.04-.036v.108c.174.15.456.328.891.455.307.09.527.302.696.46a.9.9 0 0 0 .226.171c.036.015.075.02.111.006a.2.2 0 0 0 .09-.088.5.5 0 0 0 .037-.147q.016-.105.033-.273c.023-.223.046-.524.07-.877.045-.705.093-1.615.147-2.513a64 64 0 0 1 .182-2.442c.033-.328.068-.598.106-.783.018-.092.038-.164.056-.207l.014-.028a1 1 0 0 1 .02.07q.022.109.046.311c.033.27.067.655.103 1.114.073.918.15 2.137.23 3.357.078 1.22.158 2.441.236 3.36.039.459.077.843.115 1.115q.029.204.057.318a1 1 0 0 0 .029.092q.007.018.017.031.012.017.04.023l.02-.002.015-.007q.01-.01.013-.018a.2.2 0 0 0 .014-.035q.013-.041.025-.111c.017-.093.033-.224.055-.383.043-.319.1-.746.18-1.178s.182-.868.314-1.203c.066-.167.138-.31.219-.412s.165-.165.255-.182c.083-.015.172.016.27.073s.204.138.319.216c.229.158.5.304.822.194.167-.058.303-.238.437-.47.134-.23.263-.517.399-.794s.28-.545.435-.74c.156-.195.32-.314.506-.309.205.005.38.143.541.36s.304.508.442.799c.137.29.268.581.412.802.071.11.148.205.23.271a.42.42 0 0 0 .272.106.9.9 0 0 0 .558-.184c.136-.107.228-.247.305-.382.076-.136.14-.268.209-.36.07-.091.14-.141.25-.135a.36.36 0 0 1 .257.13c.066.073.118.174.169.28.05.108.1.221.17.32s.158.18.283.22c.47.151.953.08.953.08a.04.04 0 0 0 .033-.045.04.04 0 0 0-.045-.033s-.469.066-.918-.078a.47.47 0 0 1-.242-.192c-.063-.09-.11-.198-.162-.306s-.106-.216-.182-.301a.44.44 0 0 0-.312-.153c-.14-.008-.24.064-.319.166s-.138.236-.212.368-.163.262-.286.359a.8.8 0 0 1-.511.166.34.34 0 0 1-.221-.088 1.1 1.1 0 0 1-.213-.252c-.138-.213-.268-.503-.406-.795-.138-.291-.282-.585-.45-.81s-.364-.387-.603-.393c-.22-.006-.407.133-.57.338s-.307.477-.444.756-.265.563-.396.789-.267.389-.397.434c-.287.099-.525-.03-.75-.184-.112-.077-.218-.16-.324-.22-.105-.061-.212-.1-.322-.08a.52.52 0 0 0-.305.21c-.087.112-.163.26-.23.432-.136.343-.239.782-.319 1.217-.08.434-.136.862-.179 1.181-.022.16-.039.291-.055.381-.004.022-.008.032-.012.049-.002-.01-.005-.014-.007-.025a3 3 0 0 1-.055-.313 23 23 0 0 1-.113-1.11c-.078-.917-.158-2.136-.237-3.357-.078-1.22-.156-2.443-.228-3.361-.037-.46-.073-.842-.106-1.114a4 4 0 0 0-.046-.32 1 1 0 0 0-.026-.09.1.1 0 0 0-.016-.03q-.004-.01-.011-.016l-.01-.007-.014-.005z" style="paint-order:fill markers stroke"/><path fill="url(#i)" d="M13.35 9.961s.21.02.411-.103c.263-.16.39.07.364.204-.02.117-.138.179-.254.16s-.057-.003-.243-.076a1.3 1.3 0 0 0-.317-.105c-.032-.007-.01-.084-.01-.084z" style="paint-order:fill markers stroke"/><path fill="url(#j)" d="M12.431 9.08v.128c.045.064.084.141.122.222.05.107.1.22.17.318s.158.18.283.22a2 2 0 0 0 .306.073c.07.013.163.036.316.105.186.073.128.057.243.076.116.019.234-.043.254-.16.026-.134-.1-.363-.363-.203-.202.122-.412.102-.412.102l-.05-.004a2 2 0 0 1-.27-.064.47.47 0 0 1-.243-.192c-.063-.09-.11-.198-.162-.306a1.3 1.3 0 0 0-.194-.315" style="paint-order:fill markers stroke"/></svg>