<svg xmlns="http://www.w3.org/2000/svg" xmlns:xlink="http://www.w3.org/1999/xlink" width="64" height="64" viewBox="0 0 16.933 16.933"><defs><linearGradient id="i"><stop offset="0" stop-color="#b4b4af" stop-opacity="0"/><stop offset="1" stop-color="#dededf"/></linearGradient><linearGradient id="h"><stop offset="0" stop-color="#d0d0d1" stop-opacity="0"/><stop offset="1" stop-color="#d0d0d1"/></linearGradient><linearGradient id="g"><stop offset="0" stop-color="#fefeff"/><stop offset="1" stop-color="#e1e1e2"/></linearGradient><linearGradient id="f"><stop offset="0" stop-color="#d2d2d4"/><stop offset="1" stop-color="#999995"/></linearGradient><linearGradient id="d"><stop offset="0" stop-color="#f67dd5"/><stop offset="1" stop-color="#a6a0fd"/></linearGradient><linearGradient id="c"><stop offset="0" stop-color="#baff4d"/><stop offset=".5" stop-color="#69ff5a"/><stop offset="1" stop-color="#6befe2"/></linearGradient><linearGradient id="b"><stop offset="0" stop-color="#66f8df"/><stop offset=".423" stop-color="#6cc8fb"/><stop offset="1" stop-color="#99a3ff"/></linearGradient><linearGradient xlink:href="#a" id="I" x1="6.745" x2="10.583" y1="1.058" y2="11.312" gradientUnits="userSpaceOnUse"/><linearGradient id="a"><stop offset="0" stop-color="#fff"/><stop offset="1" stop-color="#fff" stop-opacity="0"/></linearGradient><linearGradient xlink:href="#a" id="J" x1="15.081" x2="12.7" y1="14.816" y2="12.171" gradientUnits="userSpaceOnUse"/><linearGradient id="k" x1="4.233" x2="11.641" y1="8.334" y2="8.334" gradientTransform="matrix(1 0 0 1.2941 .53 -1.79)" gradientUnits="userSpaceOnUse"><stop offset="0" stop-color="#fef93e"/><stop offset="1" stop-color="#fe4c40"/></linearGradient><linearGradient xlink:href="#b" id="l" x1="5.36" x2="12.706" y1="15.875" y2="15.875" gradientUnits="userSpaceOnUse"/><linearGradient xlink:href="#c" id="n" x1="2.646" x2="6.323" y1="11.906" y2="15.3" gradientUnits="userSpaceOnUse"/><linearGradient xlink:href="#d" id="m" x1="12.435" x2="10.98" y1="11.906" y2="14.287" gradientUnits="userSpaceOnUse"/><linearGradient id="e" x1="8.466" x2="8.466" y1="1.058" y2="15.875" gradientUnits="userSpaceOnUse"><stop offset="0" stop-color="#02c5fd"/><stop offset="1" stop-color="#2f71f9"/></linearGradient><linearGradient id="q" x1="8.466" x2="8.466" y1="1.058" y2="6.085" gradientUnits="userSpaceOnUse"><stop offset="0" stop-color="#323231"/><stop offset="1" stop-color="#25210e"/></linearGradient><linearGradient id="j" x1="12.171" x2="12.171" y1="10.458" y2="11.906" gradientUnits="userSpaceOnUse"><stop offset="0" stop-color="#fe4c40"/><stop offset="1" stop-color="#f67dd5"/></linearGradient><linearGradient xlink:href="#f" id="r" x1="-10.226" x2="-10.226" y1="3.525" y2="5.977" gradientUnits="userSpaceOnUse"/><linearGradient xlink:href="#g" id="s" x1="-10.226" x2="-10.226" y1="1.063" y2="3.515" gradientUnits="userSpaceOnUse"/><linearGradient xlink:href="#g" id="u" x1="-5.338" x2="-5.338" y1="1.063" y2="3.515" gradientUnits="userSpaceOnUse"/><linearGradient xlink:href="#g" id="w" x1="-.585" x2="-.585" y1="1.063" y2="3.515" gradientUnits="userSpaceOnUse"/><linearGradient xlink:href="#f" id="t" x1="-5.338" x2="-5.338" y1="3.525" y2="5.977" gradientUnits="userSpaceOnUse"/><linearGradient xlink:href="#f" id="v" x1="-.585" x2="-.585" y1="3.525" y2="5.977" gradientUnits="userSpaceOnUse"/><linearGradient xlink:href="#f" id="x" x1="-15.058" x2="-15.058" y1="3.525" y2="5.977" gradientUnits="userSpaceOnUse"/><linearGradient xlink:href="#g" id="y" x1="-15.058" x2="-15.058" y1="1.063" y2="3.515" gradientUnits="userSpaceOnUse"/><linearGradient xlink:href="#h" id="z" x1="-10.226" x2="-10.226" y1="1.063" y2="3.515" gradientUnits="userSpaceOnUse"/><linearGradient xlink:href="#i" id="A" x1="-9.445" x2="-10.93" y1="2.049" y2="2.663" gradientTransform="matrix(1 0 0 -1 0 7.04)" gradientUnits="userSpaceOnUse"/><linearGradient xlink:href="#i" id="C" x1="-9.445" x2="-10.93" y1="2.049" y2="2.663" gradientTransform="matrix(1 0 0 -1 4.888 7.04)" gradientUnits="userSpaceOnUse"/><linearGradient xlink:href="#h" id="B" x1="-10.226" x2="-10.226" y1="1.063" y2="3.515" gradientTransform="translate(4.888)" gradientUnits="userSpaceOnUse"/><linearGradient xlink:href="#i" id="E" x1="-9.445" x2="-10.93" y1="2.049" y2="2.663" gradientTransform="matrix(1 0 0 -1 9.64 7.04)" gradientUnits="userSpaceOnUse"/><linearGradient xlink:href="#h" id="D" x1="-10.226" x2="-10.226" y1="1.063" y2="3.515" gradientTransform="translate(9.64)" gradientUnits="userSpaceOnUse"/><linearGradient xlink:href="#i" id="G" x1="-9.445" x2="-10.93" y1="2.049" y2="2.663" gradientTransform="matrix(1 0 0 -1 -4.832 7.04)" gradientUnits="userSpaceOnUse"/><linearGradient xlink:href="#h" id="F" x1="-10.226" x2="-10.226" y1="1.063" y2="3.515" gradientTransform="translate(-4.832)" gradientUnits="userSpaceOnUse"/><linearGradient id="K" x1="8.466" x2="8.466" y1="6.085" y2="6.999" gradientUnits="userSpaceOnUse"><stop offset="0"/><stop offset="1" stop-color="#fff" stop-opacity="0"/></linearGradient><filter id="H" width="1.024" height="1.024" x="-.012" y="-.012" color-interpolation-filters="sRGB"><feGaussianBlur stdDeviation=".074"/></filter><filter id="p" width="1.498" height="1.754" x="-.249" y="-.377" color-interpolation-filters="sRGB"><feGaussianBlur stdDeviation="1.538"/></filter><clipPath id="o"><path fill="url(#e)" d="M5.36 1.058c-1.53 0-2.577.457-3.26 1.2-.678.74-1.042 1.8-1.042 3v6.416c0 1.2.364 2.261 1.042 3.001.683.744 1.73 1.2 3.26 1.2h6.23c1.53 0 2.579-.456 3.26-1.2.68-.74 1.025-1.703 1.025-3V5.5c0-1.57-.345-2.502-1.024-3.242-.682-.743-1.73-1.2-3.26-1.2H6.745z"/></clipPath></defs><g stroke-linecap="round" stroke-linejoin="round"><path fill="#fef93e" d="M1.058 6.085h7.408v5.821H1.058z" style="paint-order:fill markers stroke"/><path fill="url(#j)" d="M8.466 6.085h7.408v5.821H8.466z" style="paint-order:fill markers stroke"/><path fill="url(#k)" d="M4.762 6.085h7.408v5.821H4.762z" style="paint-order:fill markers stroke"/><path fill="url(#l)" d="M8.467 11.906 5.96 15.875h5.63q.533 0 .99-.072z" style="paint-order:fill markers stroke"/><path fill="url(#m)" d="m8.467 11.906 4.113 3.897c1.007-.156 1.747-.557 2.271-1.128.638-.695.98-1.587 1.02-2.77z" style="paint-order:fill markers stroke"/><path fill="url(#n)" d="M1.063 11.906c.044 1.105.403 2.077 1.038 2.769.682.743 1.73 1.2 3.26 1.2h.599l2.507-3.969z" style="paint-order:fill markers stroke"/></g><g stroke-linecap="round" stroke-linejoin="round" clip-path="url(#o)" filter="url(#p)"><path fill="#fef93e" d="M1.058 6.085h7.408v5.821H1.058z" style="paint-order:fill markers stroke"/><path fill="#fe4c40" d="M8.466 6.085h7.408v5.821H8.466z" style="paint-order:fill markers stroke"/><path fill="url(#l)" d="M8.467 11.906 5.96 15.875h5.63q.533 0 .99-.072z" style="paint-order:fill markers stroke"/><path fill="url(#m)" d="m8.467 11.906 4.113 3.897c1.007-.156 1.747-.557 2.271-1.128.638-.695.98-1.587 1.02-2.77z" style="paint-order:fill markers stroke"/><path fill="url(#n)" d="M1.063 11.906c.044 1.105.403 2.077 1.038 2.769.682.743 1.73 1.2 3.26 1.2h.599l2.507-3.969z" style="paint-order:fill markers stroke"/><path fill="url(#k)" d="M4.762 6.085h7.408v5.821H4.762z" style="paint-order:fill markers stroke"/></g><path fill="url(#q)" d="M5.36 1.058c-1.53 0-2.577.457-3.26 1.2-.678.74-1.042 1.8-1.042 3.001v.826h14.816V5.5c0-1.57-.345-2.502-1.023-3.242-.683-.743-1.73-1.2-3.26-1.2H5.36z" style="paint-order:fill markers stroke"/><g stroke-linecap="round" stroke-linejoin="round"><path fill="url(#r)" d="M-10.447 3.525h2.304l-1.9 2.452h-2.265z" style="paint-order:fill markers stroke" transform="matrix(1 0 0 1.0231 16.15 -.03)"/><path fill="url(#s)" d="M-10.447 3.515h2.304l-1.9-2.452h-2.265z" style="paint-order:fill markers stroke" transform="matrix(1 0 0 1.0231 16.15 -.03)"/><path fill="url(#t)" d="M-5.56 3.525h2.305l-1.9 2.452H-7.42z" style="paint-order:fill markers stroke" transform="matrix(1 0 0 1.0231 16.15 -.03)"/><path fill="url(#u)" d="M-5.56 3.515h2.305l-1.9-2.452H-7.42z" style="paint-order:fill markers stroke" transform="matrix(1 0 0 1.0231 16.15 -.03)"/><path fill="url(#v)" d="m-.807 3.525-1.86 2.452h2.264l.128-.164v-.408c0-.763-.086-1.372-.255-1.88z" style="paint-order:fill markers stroke" transform="matrix(1 0 0 1.0231 16.15 -.03)"/><path fill="url(#w)" d="m-2.344 1.489 1.537 2.026h.274A3.4 3.4 0 0 0-2.344 1.49" style="paint-order:fill markers stroke" transform="matrix(1 0 0 1.0231 16.15 -.03)"/><path fill="url(#x)" d="M-14.822 3.525a4.9 4.9 0 0 0-.27 1.644v.808h.216l1.9-2.452z" style="paint-order:fill markers stroke" transform="matrix(1 0 0 1.0231 16.15 -.03)"/><path fill="url(#y)" d="m-14.004 2.188-.046.048c-.335.357-.593.79-.769 1.28h1.843z" style="paint-order:fill markers stroke" transform="matrix(1 0 0 1.0231 16.15 -.03)"/><path fill="url(#z)" d="m-12.308 1.063 1.86 2.452h2.305l-1.9-2.452zm.263.13h1.938l1.697 2.192h-1.973z" style="paint-order:fill markers stroke" transform="matrix(1 0 0 1.0231 16.15 -.03)"/><path fill="url(#A)" d="m-12.308 5.977 1.86-2.452h2.305l-1.9 2.452zm.263-.13h1.938l1.697-2.192h-1.973z" style="paint-order:fill markers stroke" transform="matrix(1 0 0 1.0231 16.15 -.03)"/><path fill="url(#B)" d="m-7.42 1.063 1.86 2.452h2.305l-1.9-2.452zm.263.13h1.938l1.697 2.192h-1.973z" style="paint-order:fill markers stroke" transform="matrix(1 0 0 1.0231 16.15 -.03)"/><path fill="url(#C)" d="m-7.42 5.977 1.86-2.452h2.305l-1.9 2.452zm.263-.13h1.938l1.697-2.192h-1.973z" style="paint-order:fill markers stroke" transform="matrix(1 0 0 1.0231 16.15 -.03)"/><path fill="url(#D)" d="m-2.344 1.49 1.537 2.025h.274l-.046-.13h-.163l-1.333-1.757a4 4 0 0 0-.269-.139" style="paint-order:fill markers stroke" transform="matrix(1 0 0 1.0231 16.15 -.03)"/><path fill="url(#E)" d="m-.807 3.525-1.86 2.452h2.264l.128-.165V5.6l-.192.247h-1.937l1.662-2.191h.253l-.04-.13z" style="paint-order:fill markers stroke" transform="matrix(1 0 0 1.0231 16.15 -.03)"/><path fill="url(#F)" d="m-14.004 2.188-.09.097.851 1.1h-1.527l-.049.13h1.843z" style="paint-order:fill markers stroke" transform="matrix(1 0 0 1.0231 16.15 -.03)"/><path fill="url(#G)" d="m-14.822 3.525-.044.13h1.624l-1.697 2.192h-.153v.13h.216l1.9-2.452z" style="paint-order:fill markers stroke" transform="matrix(1 0 0 1.0231 16.15 -.03)"/></g><g filter="url(#H)" style="mix-blend-mode:normal"><path fill="url(#I)" d="M5.36 1.058c-1.53 0-2.577.457-3.26 1.2-.678.74-1.042 1.8-1.042 3.001v6.415c0 1.2.364 2.26 1.043 3 .682.744 1.73 1.2 3.26 1.2h6.23c1.53 0 2.577-.456 3.26-1.2.678-.739 1.024-1.702 1.024-3V5.5c0-1.57-.346-2.502-1.024-3.242-.683-.743-1.73-1.2-3.26-1.2H6.745zm0 .264h6.232c1.477 0 2.437.432 3.064 1.116.634.69.954 1.53.954 3.062v6.174c0 1.251-.322 2.134-.954 2.822-.627.684-1.587 1.114-3.064 1.114H5.359c-1.477 0-2.437-.43-3.064-1.114-.625-.682-.973-1.675-.973-2.822V5.26c0-1.148.348-2.14.973-2.822.627-.684 1.587-1.116 3.064-1.116"/><path fill="url(#J)" d="M5.36 1.058c-1.53 0-2.577.457-3.26 1.2-.678.74-1.042 1.8-1.042 3.001v6.415c0 1.2.364 2.26 1.043 3 .682.744 1.73 1.2 3.26 1.2h6.23c1.53 0 2.577-.456 3.26-1.2.678-.739 1.024-1.702 1.024-3V5.5c0-1.57-.346-2.502-1.024-3.242-.683-.743-1.73-1.2-3.26-1.2H6.745zm0 .264h6.232c1.477 0 2.437.432 3.064 1.116.634.69.954 1.53.954 3.062v6.174c0 1.251-.322 2.134-.954 2.822-.627.684-1.587 1.114-3.064 1.114H5.359c-1.477 0-2.437-.43-3.064-1.114-.625-.682-.973-1.675-.973-2.822V5.26c0-1.148.348-2.14.973-2.822.627-.684 1.587-1.116 3.064-1.116"/></g><path fill="url(#K)" d="M1.058 6.085h14.816v2.502H1.058z" opacity=".35" style="mix-blend-mode:darken;paint-order:fill markers stroke"/></svg>