<svg width="64" height="64" version="1.1" xmlns="http://www.w3.org/2000/svg" xmlns:xlink="http://www.w3.org/1999/xlink">
 <defs>
  <linearGradient id="linearGradient69" x1="32" x2="32" y1="15" y2="25" gradientUnits="userSpaceOnUse">
   <stop stop-color="#b6b6b6" offset="0"/>
   <stop stop-color="#d1d1d1" offset="1"/>
  </linearGradient>
  <linearGradient id="linearGradient71" x1="32" x2="32" y1="15" y2="27.048" gradientUnits="userSpaceOnUse">
   <stop stop-color="#f9f9f9" offset="0"/>
   <stop stop-color="#f9f9f9" stop-opacity="0" offset="1"/>
  </linearGradient>
  <filter id="filter71" x="-.010914" y="-.041472" width="1.0218" height="1.0829" color-interpolation-filters="sRGB">
   <feGaussianBlur stdDeviation="0.1728"/>
  </filter>
  <linearGradient id="linearGradient94" x1="16" x2="21" y1="30" y2="35" gradientUnits="userSpaceOnUse">
   <stop stop-color="#fee0a0" offset="0"/>
   <stop stop-color="#fee0a0" stop-opacity="0" offset="1"/>
  </linearGradient>
  <filter id="filter95" x="-.03888" y="-.03888" width="1.0778" height="1.0778" color-interpolation-filters="sRGB">
   <feGaussianBlur stdDeviation="0.1296"/>
  </filter>
  <linearGradient id="linearGradient108" x1="16" x2="21" y1="30" y2="35" gradientTransform="translate(0,12)" gradientUnits="userSpaceOnUse">
   <stop stop-color="#fbecff" offset="0"/>
   <stop stop-color="#f8d6ff" stop-opacity="0" offset="1"/>
  </linearGradient>
  <linearGradient id="linearGradient110" x1="15" x2="21" y1="29" y2="35" gradientTransform="translate(13)" gradientUnits="userSpaceOnUse">
   <stop stop-color="#feb9ee" offset="0"/>
   <stop stop-color="#feb9ee" stop-opacity="0" offset="1"/>
  </linearGradient>
  <linearGradient id="linearGradient112" x1="16" x2="21" y1="30" y2="35" gradientTransform="translate(26)" gradientUnits="userSpaceOnUse">
   <stop stop-color="#c4fdf8" offset="0"/>
   <stop stop-color="#c4fdf8" stop-opacity="0" offset="1"/>
  </linearGradient>
  <linearGradient id="linearGradient116" x1="16" x2="21" y1="30" y2="35" gradientTransform="translate(13,12)" gradientUnits="userSpaceOnUse">
   <stop stop-color="#b8f3ff" offset="0"/>
   <stop stop-color="#b8f3ff" stop-opacity="0" offset="1"/>
  </linearGradient>
  <linearGradient id="linearGradient118" x1="16" x2="21" y1="30" y2="35" gradientTransform="translate(26,12)" gradientUnits="userSpaceOnUse">
   <stop stop-color="#f6f7f6" offset="0"/>
   <stop stop-color="#f6f7f6" stop-opacity="0" offset="1"/>
  </linearGradient>
  <filter id="filter124" x="-.06" width="1.12" color-interpolation-filters="sRGB">
   <feGaussianBlur stdDeviation="0.875"/>
  </filter>
  <filter id="filter9" x="-.012" y="-.012" width="1.024" height="1.024" color-interpolation-filters="sRGB">
   <feGaussianBlur stdDeviation="0.074082"/>
  </filter>
  <linearGradient id="linearGradient3" x1="8.4665" x2="8.4665" y1="1.0583" y2="15.875" gradientTransform="scale(3.7796)" gradientUnits="userSpaceOnUse">
   <stop stop-color="#fff" offset="0"/>
   <stop stop-color="#ececec" offset="1"/>
  </linearGradient>
  <style id="current-color-scheme" type="text/css">.ColorScheme-Text { color:#f2f2f2; } .ColorScheme-Highlight { color:#4285f4; }</style>
 </defs>
 <path d="m20.26 4.0003c-5.782 0-9.7427 1.7243-12.321 4.5348-2.5651 2.7962-3.9387 6.8037-3.9387 11.341v24.248c0 4.5378 1.3734 8.5453 3.9387 11.341 2.5784 2.8103 6.5391 4.5348 12.321 4.5348h23.549c5.782 0 9.7427-1.7243 12.321-4.5348 2.5651-2.7962 3.8703-6.4352 3.8703-11.341v-23.337c0-5.9351-1.305-9.4562-3.8703-12.252-2.5784-2.8103-6.5391-4.5348-12.321-4.5348h-18.315z" fill="url(#linearGradient3)" stroke-width="3.7796"/>
 <path transform="scale(3.7796)" d="m5.3603 1.0583c-1.5298 0-2.5775 0.45637-3.2597 1.1999-0.67868 0.73981-1.0423 1.8002-1.0423 3.0008v6.415c0 1.2006 0.36361 2.2609 1.0423 3.0008 0.68219 0.74355 1.7299 1.1999 3.2597 1.1999h6.2305c1.5298 0 2.5775-0.45637 3.2597-1.1999 0.67868-0.73981 1.0242-1.7027 1.0242-3.0008v-6.1742c0-1.5703-0.34552-2.5018-1.0242-3.2416-0.68219-0.74355-1.7299-1.1999-3.2597-1.1999h-4.8456zm-0.00103 0.26406h6.2326c1.4772 0 2.437 0.43133 3.0644 1.1152 0.63411 0.69126 0.95341 1.5307 0.95341 3.0623v6.1742c0 1.2512-0.32181 2.1335-0.95341 2.822-0.6274 0.68381-1.5871 1.1136-3.0644 1.1136h-6.2326c-1.4772 0-2.437-0.42978-3.0644-1.1136-0.62537-0.68172-0.97253-1.6747-0.97253-2.822v-6.4145c0-1.1472 0.34717-2.1403 0.97253-2.822 0.6274-0.68381 1.5871-1.1152 3.0644-1.1152z" fill="#fff" filter="url(#filter9)"/>
 <g transform="translate(.53711 .5)" filter="url(#filter124)" opacity=".5" stroke-linecap="round" stroke-linejoin="round" style="mix-blend-mode:normal">
  <path d="m16.537 28.5c-1.1201 0-2.0371 0.91698-2.0371 2.0371v4.9258c0 1.1201 0.91698 2.0371 2.0371 2.0371h4.9258c1.1201 0 2.0371-0.91698 2.0371-2.0371v-4.9258c0-1.1201-0.91698-2.0371-2.0371-2.0371z" fill="#ff8e26" stop-color="#000000"/>
  <path d="m29.537 28.5c-1.1201 0-2.0371 0.91698-2.0371 2.0371v4.9258c0 1.1201 0.91698 2.0371 2.0371 2.0371h4.9258c1.1201 0 2.0371-0.91698 2.0371-2.0371v-4.9258c0-1.1201-0.91698-2.0371-2.0371-2.0371z" fill="#ff53ab" stop-color="#000000"/>
  <path d="m42.537 28.5c-1.1201 0-2.0371 0.91698-2.0371 2.0371v4.9258c0 1.1201 0.91698 2.0371 2.0371 2.0371h4.9258c1.1201 0 2.0371-0.91698 2.0371-2.0371v-4.9258c0-1.1201-0.91698-2.0371-2.0371-2.0371z" fill="#62eacb" stop-color="#000000"/>
  <path d="m16.537 40.5c-1.1201 0-2.0371 0.91698-2.0371 2.0371v4.9258c0 1.1201 0.91698 2.0371 2.0371 2.0371h4.9258c1.1201 0 2.0371-0.91698 2.0371-2.0371v-4.9258c0-1.1201-0.91698-2.0371-2.0371-2.0371z" fill="#d69ffc" stop-color="#000000"/>
  <path d="m29.537 40.5c-1.1201 0-2.0371 0.91698-2.0371 2.0371v4.9258c0 1.1201 0.91698 2.0371 2.0371 2.0371h4.9258c1.1201 0 2.0371-0.91698 2.0371-2.0371v-4.9258c0-1.1201-0.91698-2.0371-2.0371-2.0371z" fill="#68c3fd" stop-color="#000000"/>
  <path d="m42.537 40.5c-1.1201 0-2.0371 0.91698-2.0371 2.0371v4.9258c0 1.1201 0.91698 2.0371 2.0371 2.0371h4.9258c1.1201 0 2.0371-0.91698 2.0371-2.0371v-4.9258c0-1.1201-0.91698-2.0371-2.0371-2.0371z" fill="#cacbca" stop-color="#000000"/>
 </g>
 <rect x="13" y="15" width="38" height="10" rx="5" ry="5" fill="url(#linearGradient69)"/>
 <path d="m18 15c-2.77 0-5 2.23-5 5s2.23 5 5 5h28c2.77 0 5-2.23 5-5s-2.23-5-5-5h-28zm0 0.5h28c2.5016 0 4.5 1.9984 4.5 4.5s-1.9984 4.5-4.5 4.5h-28c-2.5016 0-4.5-1.9984-4.5-4.5s1.9984-4.5 4.5-4.5z" fill="url(#linearGradient71)" filter="url(#filter71)" stop-color="#000000" stroke-linecap="round" stroke-linejoin="round"/>
 <g stroke-linecap="round" stroke-linejoin="round">
  <path d="m16.537 28.5c-1.1201 0-2.0371 0.91698-2.0371 2.0371v4.9258c0 1.1201 0.91698 2.0371 2.0371 2.0371h4.9258c1.1201 0 2.0371-0.91698 2.0371-2.0371v-4.9258c0-1.1201-0.91698-2.0371-2.0371-2.0371z" fill="#ff8e26" stop-color="#000000"/>
  <path d="m16.537 29c-0.85178 0-1.5371 0.68533-1.5371 1.5371v4.9258c0 0.85178 0.68533 1.5371 1.5371 1.5371h4.9258c0.85178 0 1.5371-0.68533 1.5371-1.5371v-4.9258c0-0.85178-0.68533-1.5371-1.5371-1.5371zm0 0.5h4.9258c0.58342 0 1.0371 0.45368 1.0371 1.0371v4.9258c0 0.58342-0.45368 1.0371-1.0371 1.0371h-4.9258c-0.58342 0-1.0371-0.45368-1.0371-1.0371v-4.9258c0-0.58342 0.45368-1.0371 1.0371-1.0371z" fill="url(#linearGradient94)" filter="url(#filter95)" stop-color="#000000"/>
  <path d="m29.537 28.5c-1.1201 0-2.0371 0.91698-2.0371 2.0371v4.9258c0 1.1201 0.91698 2.0371 2.0371 2.0371h4.9258c1.1201 0 2.0371-0.91698 2.0371-2.0371v-4.9258c0-1.1201-0.91698-2.0371-2.0371-2.0371z" fill="#ff53ab" stop-color="#000000"/>
  <path d="m29.537 29c-0.85178 0-1.5371 0.68533-1.5371 1.5371v4.9258c0 0.85178 0.68533 1.5371 1.5371 1.5371h4.9258c0.85178 0 1.5371-0.68533 1.5371-1.5371v-4.9258c0-0.85178-0.68533-1.5371-1.5371-1.5371zm0 0.5h4.9258c0.58342 0 1.0371 0.45368 1.0371 1.0371v4.9258c0 0.58342-0.45368 1.0371-1.0371 1.0371h-4.9258c-0.58342 0-1.0371-0.45368-1.0371-1.0371v-4.9258c0-0.58342 0.45368-1.0371 1.0371-1.0371z" fill="url(#linearGradient110)" filter="url(#filter95)" stop-color="#000000"/>
  <path d="m42.537 28.5c-1.1201 0-2.0371 0.91698-2.0371 2.0371v4.9258c0 1.1201 0.91698 2.0371 2.0371 2.0371h4.9258c1.1201 0 2.0371-0.91698 2.0371-2.0371v-4.9258c0-1.1201-0.91698-2.0371-2.0371-2.0371z" fill="#62eacb" stop-color="#000000"/>
  <path d="m42.537 29c-0.85178 0-1.5371 0.68533-1.5371 1.5371v4.9258c0 0.85178 0.68533 1.5371 1.5371 1.5371h4.9258c0.85178 0 1.5371-0.68533 1.5371-1.5371v-4.9258c0-0.85178-0.68533-1.5371-1.5371-1.5371zm0 0.5h4.9258c0.58342 0 1.0371 0.45368 1.0371 1.0371v4.9258c0 0.58342-0.45368 1.0371-1.0371 1.0371h-4.9258c-0.58342 0-1.0371-0.45368-1.0371-1.0371v-4.9258c0-0.58342 0.45368-1.0371 1.0371-1.0371z" fill="url(#linearGradient112)" filter="url(#filter95)" stop-color="#000000"/>
  <path d="m16.537 40.5c-1.1201 0-2.0371 0.91698-2.0371 2.0371v4.9258c0 1.1201 0.91698 2.0371 2.0371 2.0371h4.9258c1.1201 0 2.0371-0.91698 2.0371-2.0371v-4.9258c0-1.1201-0.91698-2.0371-2.0371-2.0371z" fill="#d69ffc" stop-color="#000000"/>
  <path d="m16.537 41c-0.85178 0-1.5371 0.68533-1.5371 1.5371v4.9258c0 0.85178 0.68533 1.5371 1.5371 1.5371h4.9258c0.85178 0 1.5371-0.68533 1.5371-1.5371v-4.9258c0-0.85178-0.68533-1.5371-1.5371-1.5371zm0 0.5h4.9258c0.58342 0 1.0371 0.45368 1.0371 1.0371v4.9258c0 0.58342-0.45368 1.0371-1.0371 1.0371h-4.9258c-0.58342 0-1.0371-0.45368-1.0371-1.0371v-4.9258c0-0.58342 0.45368-1.0371 1.0371-1.0371z" fill="url(#linearGradient108)" filter="url(#filter95)" stop-color="#000000"/>
  <path d="m29.537 40.5c-1.1201 0-2.0371 0.91698-2.0371 2.0371v4.9258c0 1.1201 0.91698 2.0371 2.0371 2.0371h4.9258c1.1201 0 2.0371-0.91698 2.0371-2.0371v-4.9258c0-1.1201-0.91698-2.0371-2.0371-2.0371z" fill="#68c3fd" stop-color="#000000"/>
  <path d="m29.537 41c-0.85178 0-1.5371 0.68533-1.5371 1.5371v4.9258c0 0.85178 0.68533 1.5371 1.5371 1.5371h4.9258c0.85178 0 1.5371-0.68533 1.5371-1.5371v-4.9258c0-0.85178-0.68533-1.5371-1.5371-1.5371zm0 0.5h4.9258c0.58342 0 1.0371 0.45368 1.0371 1.0371v4.9258c0 0.58342-0.45368 1.0371-1.0371 1.0371h-4.9258c-0.58342 0-1.0371-0.45368-1.0371-1.0371v-4.9258c0-0.58342 0.45368-1.0371 1.0371-1.0371z" fill="url(#linearGradient116)" filter="url(#filter95)" stop-color="#000000"/>
  <path d="m42.537 40.5c-1.1201 0-2.0371 0.91698-2.0371 2.0371v4.9258c0 1.1201 0.91698 2.0371 2.0371 2.0371h4.9258c1.1201 0 2.0371-0.91698 2.0371-2.0371v-4.9258c0-1.1201-0.91698-2.0371-2.0371-2.0371z" fill="#cacbca" stop-color="#000000"/>
  <path d="m42.537 41c-0.85178 0-1.5371 0.68533-1.5371 1.5371v4.9258c0 0.85178 0.68533 1.5371 1.5371 1.5371h4.9258c0.85178 0 1.5371-0.68533 1.5371-1.5371v-4.9258c0-0.85178-0.68533-1.5371-1.5371-1.5371zm0 0.5h4.9258c0.58342 0 1.0371 0.45368 1.0371 1.0371v4.9258c0 0.58342-0.45368 1.0371-1.0371 1.0371h-4.9258c-0.58342 0-1.0371-0.45368-1.0371-1.0371v-4.9258c0-0.58342 0.45368-1.0371 1.0371-1.0371z" fill="url(#linearGradient118)" filter="url(#filter95)" stop-color="#000000"/>
 </g>
 <path class="ColorScheme-Text" d="m18 17c1.5188 0 2.75 1.2312 2.75 2.75 0 0.6694-0.23915 1.283-0.6367 1.7598l1.6419 1.6418c0.0976 0.09765 0.0976 0.25595 0 0.3536-0.0868 0.08675-0.2215 0.0964-0.31895 0.0289l-0.03468-0.02888-1.6418-1.6419c-0.47685 0.39755-1.0904 0.6367-1.7598 0.6367-1.5188 0-2.75-1.2312-2.75-2.75 0-1.5188 1.2312-2.75 2.75-2.75zm1e-6 0.5c-1.2427-1e-6 -2.25 1.0074-2.25 2.25 0 1.2427 1.0074 2.25 2.25 2.25s2.25-1.0074 2.25-2.25c-1e-6 -1.2426-1.0074-2.25-2.25-2.25z" color="#363636" fill="#f2f2f2" stroke-width=".5"/>
</svg>
