<svg width="64" height="64" version="1.1" viewBox="0 0 64 64" xmlns="http://www.w3.org/2000/svg">
 <defs>
  <filter id="filter9" x="-.012" y="-.012" width="1.024" height="1.024" color-interpolation-filters="sRGB">
   <feGaussianBlur stdDeviation="0.074082"/>
  </filter>
  <linearGradient id="linearGradient3" x1="8.4665" x2="8.4665" y1="1.0583" y2="15.875" gradientTransform="scale(3.7796)" gradientUnits="userSpaceOnUse">
   <stop stop-color="#fff" offset="0"/>
   <stop stop-color="#ececec" offset="1"/>
  </linearGradient>
  <filter id="filter12" x="-.085495" y="-.078001" width="1.171" height="1.156" color-interpolation-filters="sRGB">
   <feGaussianBlur stdDeviation="0.52001"/>
  </filter>
  <filter id="filter13" x="-.15509" y="-.156" width="1.3102" height="1.312" color-interpolation-filters="sRGB">
   <feGaussianBlur stdDeviation="0.52001"/>
  </filter>
  <filter id="filter14" x="-.048001" y="-.047999" width="1.096" height="1.096" color-interpolation-filters="sRGB">
   <feGaussianBlur stdDeviation="0.52001"/>
  </filter>
 </defs>
 <path d="m20.26 4.0003c-5.782 0-9.7427 1.7243-12.321 4.5348-2.5651 2.7962-3.9387 6.8037-3.9387 11.341v24.248c0 4.5378 1.3734 8.5453 3.9387 11.341 2.5784 2.8103 6.5391 4.5348 12.321 4.5348h23.549c5.782 0 9.7427-1.7243 12.321-4.5348 2.5651-2.7962 3.8703-6.4352 3.8703-11.341v-23.337c0-5.9351-1.305-9.4562-3.8703-12.252-2.5784-2.8103-6.5391-4.5348-12.321-4.5348h-18.315z" fill="url(#linearGradient3)" stroke-width="3.7796"/>
 <path transform="scale(3.7796)" d="m5.3603 1.0583c-1.5298 0-2.5775 0.45637-3.2597 1.1999-0.67868 0.73981-1.0423 1.8002-1.0423 3.0008v6.415c0 1.2006 0.36361 2.2609 1.0423 3.0008 0.68219 0.74355 1.7299 1.1999 3.2597 1.1999h6.2305c1.5298 0 2.5775-0.45637 3.2597-1.1999 0.67868-0.73981 1.0242-1.7027 1.0242-3.0008v-6.1742c0-1.5703-0.34552-2.5018-1.0242-3.2416-0.68219-0.74355-1.7299-1.1999-3.2597-1.1999h-4.8456zm-0.00103 0.26406h6.2326c1.4772 0 2.437 0.43133 3.0644 1.1152 0.63411 0.69126 0.95341 1.5307 0.95341 3.0623v6.1742c0 1.2512-0.32181 2.1335-0.95341 2.822-0.6274 0.68381-1.5871 1.1136-3.0644 1.1136h-6.2326c-1.4772 0-2.437-0.42978-3.0644-1.1136-0.62537-0.68172-0.97253-1.6747-0.97253-2.822v-6.4145c0-1.1472 0.34717-2.1403 0.97253-2.822 0.6274-0.68381 1.5871-1.1152 3.0644-1.1152z" fill="#fff" filter="url(#filter9)"/>
 <g transform="matrix(1.6377 0 0 1.6377 -8.2401 -8.2319)">
  <g transform="translate(1,1)">
   <g opacity=".1">
    <path transform="translate(-1,-1)" d="m25.844 11.996c-2.43 7.797-3.57 5.668-8.77 1.945 1.123 2.808 1.767 4.417 1.848 5.318-0.163-0.091-0.307-0.167-0.477-0.264 0.152 0.296 0.284 0.575 0.408 0.846-0.35 0.808-1.994 0.339-5.279 0.096 5.285 3.996 4.344 5.355-1.574 8.324 1.194 8e-3 2.188 5e-3 3.07 0.025-0.026 0.017-0.048 0.031-0.074 0.049 0.501-5e-3 0.912 4e-3 1.346 8e-3 2.577 0.234 3.073 1.197 1.166 5.223 3.03-1.54 4.206-2.236 4.926-1.381 0.17 0.776 0.312 1.697 0.449 2.811 0.127-0.253 0.234-0.454 0.354-0.689 0.23 0.937 0.477 2.113 0.838 3.689 2.699-7.316 2.602-6.566 8.262-3.055-1.186-3.261-1.743-4.77-0.822-5.223 0.169 0.042 0.304 0.061 0.482 0.109-0.069-0.073-0.119-0.134-0.186-0.205 0.871-0.191 2.552 0.136 5.4 0.736-6.05-5.105-4.762-5.469 0.789-9.01-7.855 0.285-6.914-0.273-4.684-6.605-6.425 4.94-5.93 3.363-7.473-2.748z" filter="url(#filter14)"/>
   </g>
  </g>
  <path d="m24.844 10.996c-2.43 7.797-3.57 5.668-8.77 1.945 3.09 7.727 2.609 6.449-3.5 5.996 5.285 3.996 4.344 5.355-1.574 8.324 6.094 0.043 8.219-0.418 5.508 5.305 5.551-2.824 4.898-2.852 6.566 4.43 2.699-7.316 2.602-6.566 8.262-3.055-2.156-5.926-2.262-6.086 4.875-4.582-6.05-5.105-4.762-5.469 0.789-9.01-7.855 0.285-6.914-0.273-4.684-6.605-6.426 4.941-5.93 3.363-7.473-2.75" fill="#ec4c45"/>
  <path d="m18.449 19c2.4374 4.7586 1.2229 6.1864-2.166 8.4844 0.65687 0.15609 1.086 0.42484 1.2734 0.88867 3.9711 0.18872 4.6739 1.3156 5.3301 6.627 2.3239-4.6278 3.231-6.2647 7.1738-5.6035 0.0524-0.45636 0.30646-0.70617 0.82031-0.79492-1.2423-1.4228-1.993-2.5615-2.2715-3.8418 0.12464-0.05522 0.25147-0.11277 0.39258-0.17383-0.17102-0.06349-0.30387-0.11329-0.45508-0.16992-0.19696-1.3226 0.08707-2.8272 0.83984-4.9551-1.834 1.1881-3.2518 1.751-4.6016 1.8242-0.06241-0.09899-0.11411-0.17742-0.18164-0.28516h-2e-3c-0.04463 0.10427-0.08629 0.19671-0.12891 0.29297-1.8003-0.0031-3.5273-0.87131-6.0234-2.293z" filter="url(#filter12)" opacity=".1"/>
  <path d="m17.445 17.996c2.727 5.324 0.902 6.469-3.449 9.34 6.285-0.059 7.109 0.363 7.887 6.66 2.664-5.305 3.465-6.68 9.113-5.168-3.582-3.816-4.379-5.379-2.613-10.371-4.438 2.875-6.438 2.102-10.938-0.461" fill="#ff6f7f"/>
  <path d="m24.602 21c-1.157 2.703-1.5716 2.6598-4.6016 2.7578 2.528 1.945 2.7266 2.1052 1.5586 5.2422 2.2184-1.6102 3.0008-1.9754 4.8184-0.60938 0.15636-0.04029 0.31989-0.07133 0.49024-0.09375-0.16719-2.1766-0.35898-2.5328 1.1797-3.2793-0.1504-0.30933-0.27306-0.61783-0.36328-0.93359-1.74e-4 -6.07e-4 1.73e-4 -0.0013 0-2e-3 -1.4944-0.61459-1.7956-1.0329-3.0801-3.082h-2e-3z" filter="url(#filter13)" opacity=".1"/>
  <path d="m23.605 19.996c1.594 2.543 1.672 2.574 4.398 3.586-2.727 1.18-2.289 1.16-2.098 4.219-2.215-1.844-2.922-1.563-5.344 0.195 1.168-3.137 0.969-3.297-1.559-5.242 3.03-0.098 3.445-0.055 4.602-2.758" fill="#ffb2cd"/>
 </g>
</svg>
