<svg xmlns="http://www.w3.org/2000/svg" width="64" height="64" viewBox="0 0 16.933 16.933"><defs><linearGradient id="b" x1="445.28" x2="445.28" y1="179.28" y2="200.07" gradientTransform="matrix(.38956 0 0 .38184 -193.816 -63.44)" gradientUnits="userSpaceOnUse"><stop offset="0" stop-color="#60c0f0"/><stop offset="1" stop-color="#83d4fb"/></linearGradient><linearGradient id="a" x1="8.467" x2="8.467" y1="2.381" y2="6.743" gradientUnits="userSpaceOnUse"><stop offset="0" stop-color="#7cc1ea"/><stop offset="1" stop-color="#56a1d3"/></linearGradient><linearGradient id="c" x1="445.28" x2="445.28" y1="179.28" y2="200.07" gradientTransform="matrix(.38956 0 0 .38184 -165.78 -63.432)" gradientUnits="userSpaceOnUse"><stop offset="0" stop-color="#88ccf2"/><stop offset="1" stop-color="#67b1de"/></linearGradient></defs><path fill="url(#a)" d="M1.945 2.381H4.91c.75 0 .904.084 1.27.63.297.441.84.429 1.756.429h7.05a1.146 1.146 0 0 1 1.152 1.152v6.956a1.15 1.15 0 0 1-1.152 1.152H1.944a1.15 1.15 0 0 1-1.15-1.152V3.533a1.15 1.15 0 0 1 1.15-1.152z" style="fill:url(#a)"/><rect width="15.346" height="7.937" x=".794" y="6.614" fill="url(#b)" rx="1.058" ry="1.058" style="fill:url(#c)"/><path d="M.794 13.365v.128c0 .586.472 1.058 1.058 1.058h13.229c.586 0 1.058-.472 1.058-1.058v-.128c0 .586-.472 1.058-1.058 1.058H1.852a1.056 1.056 0 0 1-1.058-1.058" opacity=".1"/><path fill="#fff" d="M.794 7.8v-.127c0-.587.472-1.059 1.058-1.059h13.229c.586 0 1.058.472 1.058 1.059V7.8c0-.586-.472-1.058-1.058-1.058H1.852c-.586 0-1.058.472-1.058 1.058" opacity=".2"/></svg>