<svg xmlns="http://www.w3.org/2000/svg" width="64" height="64" viewBox="0 0 16.933 16.933"><defs><filter id="d" width="1.013" height="1.151" x="-.007" y="-.076" color-interpolation-filters="sRGB"><feGaussianBlur stdDeviation=".042"/></filter><filter id="e" width="1.014" height="1.087" x="-.007" y="-.043" color-interpolation-filters="sRGB"><feGaussianBlur stdDeviation=".045"/></filter><filter id="b" width="1.065" height="1.092" x="-.032" y="-.046" color-interpolation-filters="sRGB"><feGaussianBlur stdDeviation=".137"/></filter><linearGradient id="a" x1="8.466" x2="8.466" y1="12.7" y2="2.381" gradientUnits="userSpaceOnUse"><stop offset="0"/><stop offset="1" stop-opacity="0"/></linearGradient><linearGradient id="c" x1="8.467" x2="8.467" y1="4.498" y2="14.552" gradientUnits="userSpaceOnUse"><stop offset="0" stop-color="#fff"/><stop offset="1"/></linearGradient></defs><path fill="#fe342c" d="M1.945 2.381H4.91c.75 0 .904.084 1.27.63.297.441.84.429 1.756.429h7.05a1.146 1.146 0 0 1 1.152 1.152v6.956a1.15 1.15 0 0 1-1.152 1.152H1.944a1.15 1.15 0 0 1-1.15-1.152V3.533a1.15 1.15 0 0 1 1.15-1.152z"/><path fill="url(#a)" d="M1.945 2.381H4.91c.75 0 .904.084 1.27.63.297.441.84.429 1.756.429h7.05a1.146 1.146 0 0 1 1.152 1.152v6.956a1.15 1.15 0 0 1-1.152 1.152H1.944a1.15 1.15 0 0 1-1.15-1.152V3.533a1.15 1.15 0 0 1 1.15-1.152z"/><rect width="14.287" height="10.054" x="1.323" y="3.969" fill="none" stroke="#000" stroke-width=".265" filter="url(#b)" opacity=".1" rx=".529" ry=".529"/><rect width="14.287" height="10.054" x="1.323" y="3.969" fill="#fff" rx=".529" ry=".529"/><rect width="15.346" height="10.054" x=".794" y="4.498" fill="#fe342c" rx="1.058" ry="1.058"/><rect width="15.346" height="10.054" x=".793" y="4.498" fill="url(#c)" opacity=".15" rx="1.058" ry="1.058"/><path fill="#fff" d="M1.852 4.498c-.586 0-1.058.472-1.058 1.058v.265c0-.587.472-1.059 1.058-1.059h13.229c.586 0 1.058.472 1.058 1.059v-.265c0-.586-.472-1.058-1.058-1.058z" filter="url(#d)" opacity=".15"/><path d="M1.852 4.498c-.586 0-1.058.472-1.058 1.058v.265c0-.587.472-1.059 1.058-1.059h13.229c.586 0 1.058.472 1.058 1.059v-.265c0-.586-.472-1.058-1.058-1.058z" filter="url(#d)" opacity=".1" transform="matrix(1 0 0 -1 0 19.05)"/><path fill="#fff" d="M1.944 2.381a1.15 1.15 0 0 0-1.15 1.152v.26a1.15 1.15 0 0 1 1.15-1.147h2.967c.75 0 .904.083 1.27.63.297.44.84.428 1.756.428h7.05a1.146 1.146 0 0 1 1.152 1.14v-.253a1.146 1.146 0 0 0-1.152-1.151h-7.05c-.916 0-1.459.012-1.755-.429-.367-.546-.52-.63-1.27-.63z" filter="url(#e)" opacity=".25"/></svg>