<svg xmlns="http://www.w3.org/2000/svg" width="64" height="64"><defs><filter id="c" width="1.225" height="1.251" x="-.113" y="-.125" color-interpolation-filters="sRGB"><feGaussianBlur stdDeviation="1.738"/></filter><filter id="d" width="1.097" height="1.095" x="-.048" y="-.048" color-interpolation-filters="sRGB"><feGaussianBlur stdDeviation=".971"/></filter><filter id="a" width="1.014" height="1.076" x="-.007" y="-.038" color-interpolation-filters="sRGB"><feGaussianBlur stdDeviation=".142"/></filter><linearGradient id="b" x1="31" x2="31" y1="9" y2="48" gradientUnits="userSpaceOnUse"><stop offset="0" stop-color="#fff" stop-opacity=".69"/><stop offset="1" stop-color="#fff" stop-opacity=".1"/></linearGradient></defs><path fill="#343434" fill-opacity=".69" d="M8.008 10A4 4 0 0 0 8 11l5 43c.32 2.752 3.23 5 6 5h26c2.77 0 5.68-2.248 6-5l5-43a4 4 0 0 0-.008-1h-.033q.04.245.041.5c0 2.493-3.002 4.5-6.732 4.5H14.733C11.003 15 8 12.993 8 10.5q0-.255.041-.5z"/><rect width="48" height="9" x="8" y="6" fill="#454545" fill-opacity=".62" rx="6.733" ry="4.5"/><path fill="#b3b3b3" fill-opacity=".976" d="M14.732 6C11.002 6 8 8.007 8 10.5s3.002 4.5 6.732 4.5h34.535c3.73 0 6.732-2.007 6.732-4.5S52.997 6 49.267 6zm0 1h34.535c1.686 0 3.188.464 4.209 1.147 1.02.682 1.523 1.508 1.523 2.353s-.502 1.671-1.523 2.354c-1.02.682-2.523 1.146-4.209 1.146H14.732c-1.686 0-3.188-.464-4.209-1.146C9.503 12.17 9 11.345 9 10.5s.502-1.671 1.523-2.353S13.046 7 14.732 7" filter="url(#a)"/><path fill="url(#b)" fill-opacity=".69" d="m12.473 14.742 3.404 29.277c.255 2.19 2.571 3.98 4.776 3.98h20.695c2.204 0 4.52-1.79 4.775-3.98l3.373-29.021-.228.002H14.733c-.794 0-1.554-.09-2.26-.258z" filter="url(#c)" opacity=".22"/><path fill="#fff" d="M8.008 8.883a4 4 0 0 0-.008 1l5 43c.32 2.751 3.23 5 6 5h26c2.77 0 5.68-2.249 6-5l5-43q.059-.514-.008-1h-.033q.04.245.041.5a3.24 3.24 0 0 1-.469 1.66v.002L51 50.006c-.32 2.751-3.23 5-6 5H19c-2.77 0-5.68-2.249-6-5L8.469 11.045v-.002A3.24 3.24 0 0 1 8 9.383q0-.255.041-.5z" filter="url(#d)" opacity=".15"/></svg>