<svg xmlns="http://www.w3.org/2000/svg" width="64" height="64" viewBox="0 0 16.933 16.933"><defs><filter id="b" width="1.065" height="1.092" x="-.032" y="-.046" color-interpolation-filters="sRGB"><feGaussianBlur stdDeviation=".137"/></filter><filter id="d" width="1.013" height="1.151" x="-.007" y="-.076" color-interpolation-filters="sRGB"><feGaussianBlur stdDeviation=".042"/></filter><filter id="e" width="1.014" height="1.087" x="-.007" y="-.043" color-interpolation-filters="sRGB"><feGaussianBlur stdDeviation=".045"/></filter><linearGradient id="a" x1="8.466" x2="8.466" y1="2.381" y2="5.684" gradientUnits="userSpaceOnUse"><stop offset="0" stop-color="#7cc1ea"/><stop offset="1" stop-color="#56a1d3"/></linearGradient><linearGradient id="c" x1="445.28" x2="445.28" y1="179.28" y2="200.07" gradientTransform="matrix(.38956 0 0 .38184 -165.78 -63.432)" gradientUnits="userSpaceOnUse"><stop offset="0" stop-color="#88ccf2"/><stop offset="1" stop-color="#67b1de"/></linearGradient></defs><path fill="url(#a)" d="M1.945 2.381H4.91c.75 0 .904.084 1.27.63.297.441.84.429 1.756.429h7.05a1.146 1.146 0 0 1 1.152 1.152v6.956a1.15 1.15 0 0 1-1.152 1.152H1.944a1.15 1.15 0 0 1-1.15-1.152V3.533a1.15 1.15 0 0 1 1.15-1.152z"/><rect width="14.287" height="10.054" x="1.323" y="3.969" fill="none" stroke="#000" stroke-width=".265" filter="url(#b)" opacity=".1" rx=".529" ry=".529"/><rect width="14.287" height="10.054" x="1.323" y="3.969" fill="#fff" rx=".529" ry=".529"/><rect width="15.346" height="10.054" x=".794" y="4.498" fill="url(#c)" rx="1.058" ry="1.058"/><path fill="#fff" d="M1.852 4.498c-.586 0-1.058.472-1.058 1.058v.265c0-.587.472-1.059 1.058-1.059h13.229c.586 0 1.058.472 1.058 1.059v-.265c0-.586-.472-1.058-1.058-1.058z" filter="url(#d)" opacity=".15"/><path d="M1.852 4.498c-.586 0-1.058.472-1.058 1.058v.265c0-.587.472-1.059 1.058-1.059h13.229c.586 0 1.058.472 1.058 1.059v-.265c0-.586-.472-1.058-1.058-1.058z" filter="url(#d)" opacity=".1" transform="matrix(1 0 0 -1 0 19.05)"/><path fill="#fff" d="M1.944 2.381a1.15 1.15 0 0 0-1.15 1.152v.26a1.15 1.15 0 0 1 1.15-1.147h2.967c.75 0 .904.083 1.27.63.297.44.84.428 1.756.428h7.05a1.146 1.146 0 0 1 1.152 1.14v-.253a1.146 1.146 0 0 0-1.152-1.151h-7.05c-.916 0-1.459.012-1.755-.429-.367-.546-.52-.63-1.27-.63z" filter="url(#e)" opacity=".25"/><path d="M8.467 5.837a.2.2 0 0 0-.15.062L5.323 8.894a.211.211 0 1 0 .3.3l.303-.304v2.45c0 .47.378.847.847.847h3.388a.845.845 0 0 0 .847-.847V8.89l.303.304a.211.211 0 1 0 .3-.3L8.617 5.9a.2.2 0 0 0-.15-.062zm0 .512 2.117 2.117v2.874a.423.423 0 0 1-.423.423h-.847v-1.27c0-.47-.378-.847-.847-.847s-.847.378-.847.847v1.27h-.847a.423.423 0 0 1-.424-.423V8.467z" opacity=".15"/><path d="M8.467 5.837a.2.2 0 0 0-.15.062L5.323 8.894a.21.21 0 0 0-.05.22.2.2 0 0 1 .05-.08l2.994-2.996a.2.2 0 0 1 .15-.062v.001a.2.2 0 0 1 .15.062l2.994 2.994a.2.2 0 0 1 .05.08.21.21 0 0 0-.05-.22L8.617 5.9a.2.2 0 0 0-.15-.062m0 3.81a.845.845 0 0 0-.847.846v.14c0-.47.378-.848.847-.848s.847.377.847.847v-.139a.845.845 0 0 0-.847-.847M6.349 11.34v.14a.423.423 0 0 0 .424.422h.847v-.14h-.847a.423.423 0 0 1-.424-.422m4.235 0a.423.423 0 0 1-.423.423h-.847v.14h.847a.423.423 0 0 0 .423-.424z" opacity=".15"/><path fill="#fff" d="M8.467 6.349 6.349 8.467v.14l2.118-2.119 2.117 2.117v-.14zM5.927 8.89l-.304.304a.212.212 0 0 1-.35-.08.212.212 0 0 0 .35.22l.303-.305zm5.08 0v.14l.304.304a.212.212 0 0 0 .35-.22.212.212 0 0 1-.35.08zm-5.08 2.45v.14c0 .47.377.847.846.847h3.388a.846.846 0 0 0 .847-.848v-.139a.845.845 0 0 1-.847.847H6.773a.845.845 0 0 1-.847-.847" opacity=".2"/></svg>