<svg xmlns="http://www.w3.org/2000/svg" width="64" height="64" viewBox="0 0 16.933 16.933"><defs><filter id="d" width="1.013" height="1.151" x="-.007" y="-.076" color-interpolation-filters="sRGB"><feGaussianBlur stdDeviation=".042"/></filter><filter id="e" width="1.014" height="1.087" x="-.007" y="-.043" color-interpolation-filters="sRGB"><feGaussianBlur stdDeviation=".045"/></filter><filter id="b" width="1.065" height="1.092" x="-.032" y="-.046" color-interpolation-filters="sRGB"><feGaussianBlur stdDeviation=".137"/></filter><linearGradient id="a" x1="8.466" x2="8.466" y1="12.7" y2="2.381" gradientUnits="userSpaceOnUse"><stop offset="0"/><stop offset="1" stop-opacity="0"/></linearGradient><linearGradient id="c" x1="8.467" x2="8.467" y1="4.498" y2="14.552" gradientUnits="userSpaceOnUse"><stop offset="0" stop-color="#fff"/><stop offset="1"/></linearGradient></defs><path fill="#ffc61d" d="M1.945 2.381H4.91c.75 0 .904.084 1.27.63.297.441.84.429 1.756.429h7.05a1.146 1.146 0 0 1 1.152 1.152v6.956a1.15 1.15 0 0 1-1.152 1.152H1.944a1.15 1.15 0 0 1-1.15-1.152V3.533a1.15 1.15 0 0 1 1.15-1.152z"/><path fill="url(#a)" d="M1.945 2.381H4.91c.75 0 .904.084 1.27.63.297.441.84.429 1.756.429h7.05a1.146 1.146 0 0 1 1.152 1.152v6.956a1.15 1.15 0 0 1-1.152 1.152H1.944a1.15 1.15 0 0 1-1.15-1.152V3.533a1.15 1.15 0 0 1 1.15-1.152z"/><rect width="14.287" height="10.054" x="1.323" y="3.969" fill="none" stroke="#000" stroke-width=".265" filter="url(#b)" opacity=".1" rx=".529" ry=".529"/><rect width="14.287" height="10.054" x="1.323" y="3.969" fill="#fff" rx=".529" ry=".529"/><rect width="15.346" height="10.054" x=".794" y="4.498" fill="#ffc61d" rx="1.058" ry="1.058"/><rect width="15.346" height="10.054" x=".793" y="4.498" fill="url(#c)" opacity=".15" rx="1.058" ry="1.058"/><path fill="#fff" d="M1.852 4.498c-.586 0-1.058.472-1.058 1.058v.265c0-.587.472-1.059 1.058-1.059h13.229c.586 0 1.058.472 1.058 1.059v-.265c0-.586-.472-1.058-1.058-1.058z" filter="url(#d)" opacity=".15"/><path d="M1.852 4.498c-.586 0-1.058.472-1.058 1.058v.265c0-.587.472-1.059 1.058-1.059h13.229c.586 0 1.058.472 1.058 1.059v-.265c0-.586-.472-1.058-1.058-1.058z" filter="url(#d)" opacity=".1" transform="matrix(1 0 0 -1 0 19.05)"/><path fill="#fff" d="M1.944 2.381a1.15 1.15 0 0 0-1.15 1.152v.26a1.15 1.15 0 0 1 1.15-1.147h2.967c.75 0 .904.083 1.27.63.297.44.84.428 1.756.428h7.05a1.146 1.146 0 0 1 1.152 1.14v-.253a1.146 1.146 0 0 0-1.152-1.151h-7.05c-.916 0-1.459.012-1.755-.429-.367-.546-.52-.63-1.27-.63z" filter="url(#e)" opacity=".25"/><path d="M4.27 11.034c0 .699.458 1.137 1.12 1.137.378 0 .719-.163.976-.458l.51-.593c.071-.086.146-.123.235-.123h2.711c.09 0 .164.037.235.123l.51.593c.258.295.598.458.976.458.662 0 1.12-.438 1.12-1.137 0-.3-.066-.641-.178-1.02a16 16 0 0 0-.776-2.007c-.249-.52-.383-.776-1.013-.919-.553-.126-1.309-.209-2.228-.209s-1.678.083-2.23.21c-.628.142-.765.397-1.014.918a16 16 0 0 0-.776 2.008c-.112.378-.178.718-.178 1.019zm.539-.006c0-.174.04-.383.128-.687.192-.661.524-1.515.81-2.145.138-.3.218-.47.556-.55.527-.122 1.263-.206 2.165-.206.899 0 1.638.084 2.165.207.337.08.412.249.552.55.292.63.613 1.483.813 2.144.09.304.126.513.126.687 0 .37-.257.596-.595.596-.206 0-.41-.109-.573-.298l-.575-.653c-.14-.163-.255-.24-.501-.24H7.056c-.249 0-.363.077-.504.24l-.572.653c-.164.19-.37.298-.573.298-.34 0-.599-.226-.599-.596m1.32-2.061c0 .16.1.26.26.26h.481v.467c0 .16.097.263.255.263.155 0 .252-.103.252-.263v-.467h.452c.175 0 .281-.1.281-.26 0-.155-.106-.255-.28-.255h-.453v-.464c0-.16-.097-.264-.252-.264-.158 0-.255.104-.255.264v.464h-.48c-.161 0-.261.1-.261.255m4.126-.026c.24 0 .424-.183.424-.424a.42.42 0 0 0-.424-.427.42.42 0 0 0-.424.427c0 .24.189.424.424.424m-.85.859c.24 0 .423-.183.423-.421a.42.42 0 0 0-.424-.427.42.42 0 0 0-.424.427c0 .238.187.42.424.42" opacity=".15"/><path d="M8.468 6.879c-.92 0-1.678.083-2.23.209-.628.143-.765.398-1.014.92a16 16 0 0 0-.776 2.006c-.112.378-.178.72-.178 1.02q0 .031.002.063a4 4 0 0 1 .176-.946c.177-.593.484-1.392.776-2.007.249-.522.386-.777 1.013-.92.553-.126 1.312-.209 2.231-.209s1.675.083 2.228.21c.63.142.764.397 1.013.919.292.615.599 1.414.776 2.007.103.347.167.663.177.946l.001-.063c0-.3-.066-.642-.178-1.02a16 16 0 0 0-.776-2.007c-.249-.521-.383-.776-1.013-.92-.553-.125-1.309-.208-2.228-.208M7.125 7.984c-.157 0-.255.103-.255.264v.136c0-.16.098-.263.255-.263.155 0 .252.103.252.263v-.136c0-.16-.097-.264-.252-.264m3.13.106a.42.42 0 0 0-.419.495.42.42 0 0 1 .419-.358c.217 0 .388.151.419.358a.418.418 0 0 0-.42-.495m-3.866.621c-.16 0-.26.1-.26.255a.3.3 0 0 0 .007.07c.025-.116.118-.188.253-.188h.481V8.71zm.988 0v.137h.452c.148 0 .247.072.274.188a.3.3 0 0 0 .007-.07c0-.154-.106-.255-.28-.255zm2.028.241a.42.42 0 0 0-.419.495.42.42 0 0 1 .419-.358c.217 0 .387.151.418.358a.418.418 0 0 0-.419-.495m-2.349 1.48c-.249 0-.363.078-.503.241l-.573.653c-.163.189-.37.298-.573.298-.322 0-.57-.202-.596-.536l-.002.076c0 .37.257.596.598.596.203 0 .41-.109.573-.298l.573-.653c.14-.163.254-.24.503-.24H9.88c.246 0 .36.077.5.24l.576.653c.164.19.367.298.573.298.338 0 .596-.226.596-.596l-.003-.077c-.026.334-.274.537-.593.537-.206 0-.41-.11-.573-.298l-.575-.653c-.14-.163-.255-.24-.501-.24z" opacity=".15"/><path fill="#fff" d="M8.468 7.44c-.902 0-1.638.083-2.165.206-.337.08-.418.25-.555.55-.286.63-.619 1.483-.81 2.145-.09.303-.13.512-.13.687l.003.06c.01-.159.05-.35.127-.61.191-.662.524-1.516.81-2.146.137-.3.218-.469.555-.55.527-.122 1.263-.205 2.165-.205.9 0 1.638.083 2.165.206.338.08.412.248.552.55.292.63.613 1.483.814 2.144a2.8 2.8 0 0 1 .123.61l.003-.059c0-.175-.038-.384-.126-.687a18 18 0 0 0-.814-2.145c-.14-.3-.214-.47-.552-.55-.527-.123-1.266-.206-2.165-.206m1.368 1.145a.42.42 0 0 0 .419.492.416.416 0 0 0 .419-.492.415.415 0 0 1-.42.356.42.42 0 0 1-.418-.356m-3.7.45a.3.3 0 0 0-.007.068c0 .16.1.26.26.26h.481v-.136h-.48c-.137 0-.23-.072-.255-.192m1.967 0c-.027.12-.126.192-.274.192h-.452v.136h.452c.175 0 .28-.1.28-.26a.3.3 0 0 0-.006-.068m.883.411a.417.417 0 0 0 .419.49.415.415 0 0 0 .418-.49.414.414 0 0 1-.419.354.42.42 0 0 1-.418-.354m-2.116.248v.136c0 .16.098.263.255.263.155 0 .252-.103.252-.263v-.136c0 .16-.097.263-.252.263-.158 0-.255-.103-.255-.263m.24 1.302c-.088 0-.163.038-.234.123l-.51.593a1.28 1.28 0 0 1-.976.459c-.642 0-1.092-.412-1.119-1.074l-.001.073c0 .699.458 1.136 1.12 1.136.378 0 .719-.163.976-.457l.51-.593c.071-.086.146-.123.234-.123h2.712c.09 0 .163.037.235.123l.51.593c.257.295.598.457.976.457.662 0 1.12-.437 1.12-1.136q0-.036-.002-.073c-.026.662-.477 1.074-1.118 1.074a1.28 1.28 0 0 1-.977-.459l-.51-.593c-.07-.085-.145-.123-.234-.123z" opacity=".2"/></svg>