<svg xmlns="http://www.w3.org/2000/svg" xmlns:xlink="http://www.w3.org/1999/xlink" width="64" height="64" viewBox="0 0 16.933 16.933"><defs><linearGradient xlink:href="#a" id="c" x1="7.937" x2="7.937" y1="15.346" y2="16.933" gradientUnits="userSpaceOnUse"/><linearGradient id="a"><stop offset="0"/><stop offset="1" stop-opacity="0"/></linearGradient><linearGradient xlink:href="#a" id="e" x1="43" x2="46.748" y1="12" y2="8.252" gradientUnits="userSpaceOnUse"/><linearGradient xlink:href="#a" id="g" x1="5.821" x2="5.821" y1="1.058" gradientUnits="userSpaceOnUse"/><linearGradient xlink:href="#a" id="i" x1="13.758" x2="15.081" y1="10.583" y2="10.583" gradientUnits="userSpaceOnUse"/><linearGradient xlink:href="#a" id="j" x1="3.175" x2="1.852" y1="8.466" y2="8.466" gradientUnits="userSpaceOnUse"/><linearGradient xlink:href="#a" id="m" x1="7.937" x2="7.937" y1="15.346" y2="16.668" gradientUnits="userSpaceOnUse"/><linearGradient xlink:href="#a" id="o" x1="43" x2="46.004" y1="12" y2="8.996" gradientUnits="userSpaceOnUse"/><linearGradient xlink:href="#a" id="q" x1="5.821" x2="5.821" y1="1.058" y2=".265" gradientUnits="userSpaceOnUse"/><linearGradient xlink:href="#a" id="s" x1="13.758" x2="14.816" y1="10.583" y2="10.583" gradientUnits="userSpaceOnUse"/><linearGradient xlink:href="#a" id="t" x1="3.175" x2="2.117" y1="8.466" y2="8.466" gradientUnits="userSpaceOnUse"/><linearGradient id="w" x1="21.039" x2="21.039" y1="2" y2="62" gradientTransform="translate(45.221 -.507)scale(.26458)" gradientUnits="userSpaceOnUse"><stop offset="0" stop-color="#42dfff"/><stop offset="1" stop-color="#1f89e6"/></linearGradient><linearGradient xlink:href="#a" id="A" x1="10.583" x2="6.35" y1="3.175" y2="3.175" gradientTransform="matrix(1 0 0 .66667 45.221 1.169)" gradientUnits="userSpaceOnUse"/><linearGradient xlink:href="#a" id="B" x1="10.583" x2="8.731" y1="3.043" y2="3.043" gradientTransform="matrix(1 0 0 .66667 45.221 1.169)" gradientUnits="userSpaceOnUse"/><linearGradient xlink:href="#a" id="E" x1="10.583" x2="6.35" y1="3.175" y2="3.175" gradientTransform="matrix(1 0 0 .66667 -14.574 54.57)" gradientUnits="userSpaceOnUse"/><linearGradient xlink:href="#a" id="F" x1="10.583" x2="8.724" y1="3.043" y2="3.043" gradientTransform="matrix(1 0 0 .66667 -14.574 54.57)" gradientUnits="userSpaceOnUse"/><linearGradient id="H" x1="40" x2="46" y1="17" y2="11" gradientTransform="translate(45.221 -.507)scale(.26458)" gradientUnits="userSpaceOnUse"><stop offset="0" stop-color="#fefefe"/><stop offset="1" stop-color="#e9e9e9"/></linearGradient><linearGradient id="O" x1="372.07" x2="387.12" y1="947" y2="947" gradientUnits="userSpaceOnUse"><stop offset="0" stop-color="#828398"/><stop offset=".05" stop-color="#4f4e50"/><stop offset=".14" stop-color="#e8e5eb"/><stop offset=".232" stop-color="#e9d3d9" stop-opacity=".941"/><stop offset=".762" stop-color="#c4c2c7"/><stop offset=".87" stop-color="#f4f1fa"/><stop offset=".934" stop-color="#b8b8bf"/><stop offset="1" stop-color="#c1bfcc"/></linearGradient><linearGradient id="P" x1="368.21" x2="394.83" y1="1019" y2="1018.6" gradientUnits="userSpaceOnUse"><stop offset="0" stop-color="#130804"/><stop offset=".17" stop-color="#0f0704"/><stop offset=".238" stop-color="#323033"/><stop offset=".718" stop-color="#323033"/><stop offset=".848" stop-color="#141215"/><stop offset="1" stop-color="#00010e"/></linearGradient><linearGradient id="Q" x1="367.85" x2="372.25" y1="904.78" y2="918" gradientUnits="userSpaceOnUse"><stop offset="0" stop-color="#2d2d39"/><stop offset="1" stop-color="#acabb0"/></linearGradient><linearGradient id="R" x1="389.51" x2="414.06" y1="902.21" y2="908.79" gradientUnits="userSpaceOnUse"><stop offset="0" stop-color="#59585d"/><stop offset=".193" stop-color="#010103"/><stop offset=".543" stop-color="#5b5b5d"/><stop offset="1" stop-color="#171719"/></linearGradient><linearGradient id="S" x1="-353.82" x2="-353.82" y1="903.4" y2="883.11" gradientUnits="userSpaceOnUse"><stop offset="0" stop-color="#202024"/><stop offset=".337" stop-color="#919095"/><stop offset=".539" stop-color="#4e4d51"/><stop offset=".695" stop-color="#cfcfd1"/><stop offset="1" stop-color="#69696b"/></linearGradient><linearGradient id="T" x1="338.85" x2="338.85" y1="903.66" y2="883.86" gradientUnits="userSpaceOnUse"><stop offset="0" stop-color="#181820"/><stop offset=".035" stop-color="#86858a"/><stop offset=".141" stop-color="#7a797e"/><stop offset=".196" stop-color="#2f2e33"/><stop offset=".333" stop-color="#414045"/><stop offset=".431" stop-color="#545358"/><stop offset=".561" stop-color="#ebeaf0"/><stop offset=".692" stop-color="#abaaaf"/><stop offset=".86" stop-color="#d7d6dc"/><stop offset="1" stop-color="#66656a"/></linearGradient><linearGradient id="U" x1="367.85" x2="415.57" y1="-67.365" y2="-50.845" gradientUnits="userSpaceOnUse"><stop offset="0" stop-color="#c7c6cb"/><stop offset=".543" stop-color="#fcfcfd"/><stop offset="1" stop-color="#d8d8da"/></linearGradient><linearGradient xlink:href="#b" id="I" x1="23.426" x2="23.066" y1="18.306" y2="18.666" gradientTransform="translate(-3.069 .454)scale(2.779)" gradientUnits="userSpaceOnUse"/><linearGradient id="b"><stop offset="0" stop-color="#fff"/><stop offset="1" stop-color="#fff" stop-opacity="0"/></linearGradient><linearGradient xlink:href="#b" id="J" x1="21.826" x2="15.488" y1="20.094" y2="26.833" gradientTransform="translate(-3.069 .454)scale(2.779)" gradientUnits="userSpaceOnUse"/><linearGradient xlink:href="#b" id="K" x1="22.376" x2="16.038" y1="20.504" y2="27.243" gradientTransform="translate(-3.069 .454)scale(2.779)" gradientUnits="userSpaceOnUse"/><linearGradient xlink:href="#b" id="L" x1="15.464" x2="14.757" y1="28.261" y2="28.072" gradientTransform="translate(-3.069 .454)scale(2.779)" gradientUnits="userSpaceOnUse"/><linearGradient xlink:href="#b" id="M" x1="40.75" x2="30.933" y1="1001.4" y2="1010.3" gradientTransform="rotate(-63.221 -704.144 511.594)scale(1.01012)" gradientUnits="userSpaceOnUse"/><radialGradient xlink:href="#a" id="d" cx="35" cy="4" r="3.728" gradientTransform="matrix(1.696 0 0 1.0731 -24.361 -.292)" gradientUnits="userSpaceOnUse"/><radialGradient xlink:href="#a" id="f" cx="52" cy="22" r="5.206" gradientTransform="matrix(.96042 0 0 1.3331 2.058 -7.328)" gradientUnits="userSpaceOnUse"/><radialGradient xlink:href="#a" id="h" cx="3.175" cy="1.323" r=".794" gradientTransform="matrix(0 -1.3333 1.6667 0 .97 5.292)" gradientUnits="userSpaceOnUse"/><radialGradient xlink:href="#a" id="k" cx="13.758" cy="15.346" r=".794" gradientTransform="matrix(0 2 -1.6667 0 39.334 -12.171)" gradientUnits="userSpaceOnUse"/><radialGradient xlink:href="#a" id="l" cx="3.175" cy="15.346" r=".794" gradientTransform="matrix(-1.6667 0 0 -2 8.466 46.037)" gradientUnits="userSpaceOnUse"/><radialGradient xlink:href="#a" id="n" cx="35" cy="4" r="3.728" gradientTransform="matrix(1.6115 0 0 .80482 -21.403 .78)" gradientUnits="userSpaceOnUse"/><radialGradient xlink:href="#a" id="p" cx="52" cy="22" r="5.206" gradientTransform="matrix(.76834 0 0 1.2272 12.047 -4.999)" gradientUnits="userSpaceOnUse"/><radialGradient xlink:href="#a" id="r" cx="3.175" cy="1.323" r=".794" gradientTransform="matrix(0 -1 1.3333 0 1.411 4.233)" gradientUnits="userSpaceOnUse"/><radialGradient xlink:href="#a" id="u" cx="13.758" cy="15.346" r=".794" gradientTransform="matrix(0 1.6667 -1.3333 0 34.219 -7.585)" gradientUnits="userSpaceOnUse"/><radialGradient xlink:href="#a" id="v" cx="3.175" cy="15.346" r=".794" gradientTransform="matrix(-1.3333 0 0 -1.6667 7.408 40.921)" gradientUnits="userSpaceOnUse"/><radialGradient xlink:href="#a" id="x" cx="40" cy="12" r="8" gradientTransform="matrix(.39687 0 0 -.52916 41.517 10.341)" gradientUnits="userSpaceOnUse"/><radialGradient xlink:href="#a" id="y" cx="10.583" cy="4.233" r="2.117" gradientTransform="matrix(-2 0 0 -2 76.971 12.457)" gradientUnits="userSpaceOnUse"/><radialGradient xlink:href="#a" id="z" cx="40" cy="12" r="8" gradientTransform="matrix(0 -.39687 .52916 0 49.455 18.278)" gradientUnits="userSpaceOnUse"/><radialGradient xlink:href="#a" id="C" cx="10.583" cy="4.233" r="2.117" gradientTransform="matrix(-.875 0 0 -.87849 65.065 7.71)" gradientUnits="userSpaceOnUse"/><radialGradient xlink:href="#a" id="D" cx="40" cy="12" r="8" gradientTransform="matrix(0 -.34601 .23278 0 53.011 16.244)" gradientUnits="userSpaceOnUse"/><radialGradient xlink:href="#a" id="G" cx="40" cy="12" r="8" gradientTransform="matrix(.3793 0 0 -.23243 42.22 6.78)" gradientUnits="userSpaceOnUse"/><filter id="N" width="1.128" height="1.113" x="-.064" y="-.057" color-interpolation-filters="sRGB"><feGaussianBlur stdDeviation="2.175"/></filter><filter id="V" width="1.04" height="1.272" x="-.02" y="-.136" color-interpolation-filters="sRGB"><feGaussianBlur stdDeviation=".198"/></filter></defs><g transform="translate(-45.227 .514)"><g opacity=".15"><path fill="url(#c)" d="M3.175 15.346h10.583v1.587H3.175z" opacity="1" transform="translate(45.221 -.243)"/><path fill="url(#d)" d="M35 0v7l7-7z" opacity="1" transform="translate(45.221 -.243)scale(.26458)"/><path fill="url(#e)" d="m42 0-7 7 14 15 9-9V3.545L54.455 0z" opacity="1" transform="translate(45.221 -.243)scale(.26458)"/><path fill="url(#f)" d="m58 13-9 9h9z" opacity="1" transform="translate(45.221 -.243)scale(.26458)"/><path fill="url(#g)" d="M3.175 0H9.26v1.058H3.175z" opacity="1" transform="translate(45.221 -.243)"/><path fill="url(#h)" d="M1.587 0h1.587v1.058H1.587z" opacity="1" transform="translate(45.221 -.243)"/><path fill="url(#i)" d="M13.758 5.821h1.587v9.525h-1.587z" opacity="1" transform="translate(45.221 -.243)"/><path fill="url(#j)" d="M1.587 1.058h1.587v14.287H1.587z" opacity="1" transform="translate(45.221 -.243)"/><path fill="url(#k)" d="M13.758 15.346h1.587v1.587h-1.587z" opacity="1" transform="translate(45.221 -.243)"/><path fill="url(#l)" d="M1.587 15.346h1.587v1.587H1.587z" opacity="1" transform="translate(45.221 -.243)"/></g><g opacity=".25" transform="translate(45.221 -.243)"><path fill="url(#m)" d="M3.175 15.346h10.583v1.587H3.175z" opacity="1"/><path fill="url(#n)" d="M35 0v7l7-7z" opacity="1" transform="scale(.26458)"/><path fill="url(#o)" d="m42 0-7 7 14 15 9-9V3.545L54.455 0z" opacity="1" transform="scale(.26458)"/><path fill="url(#p)" d="m58 13-9 9h9z" opacity="1" transform="scale(.26458)"/><path fill="url(#q)" d="M3.175 0H9.26v1.058H3.175z" opacity="1"/><rect width="1.587" height="1.058" x="1.587" fill="url(#r)" opacity="1" ry="0"/><path fill="url(#s)" d="M13.758 5.821h1.587v9.525h-1.587z" opacity="1"/><path fill="url(#t)" d="M1.587 1.058h1.587v14.287H1.587z" opacity="1"/><path fill="url(#u)" d="M13.758 15.346h1.587v1.587h-1.587z" opacity="1"/><path fill="url(#v)" d="M1.587 15.346h1.587v1.587H1.587z" opacity="1"/></g><path fill="url(#w)" d="M48.132.022a.53.53 0 0 0-.53.53v14.815c0 .293.237.53.53.53h11.112a.53.53 0 0 0 .53-.53V5.048c0-.264-.162-.69-.53-1.058L55.804.55a1.33 1.33 0 0 0-1.058-.529z"/><path fill="url(#x)" d="M57.392 3.99v4.234h2.381V5.049c0-.035-.007-.08-.01-.12-.04-.263-.202-.621-.519-.938z" opacity=".05"/><path fill="none" d="M53.942-.785h6.636V5.85h-6.636z"/><rect width="4.233" height="4.233" x="51.571" y="3.991" fill="url(#y)" opacity=".05" ry="0"/><path fill="url(#z)" d="M51.571.022v2.381h4.233V.551a1.33 1.33 0 0 0-1.058-.529z" opacity=".05"/><rect width="4.233" height="1.587" x="51.571" y="2.403" fill="url(#A)" opacity=".05" ry="0"/><rect width="2.91" height="1.587" x="52.894" y="2.403" fill="url(#B)" opacity=".2" ry="0"/><rect width="2.91" height="2.91" x="52.894" y="3.991" fill="url(#C)" opacity=".2" ry="0"/><path fill="url(#D)" d="M52.894.022v2.381h2.91V.551a1.4 1.4 0 0 0-.444-.375l-.614-.154z" opacity=".2"/><rect width="4.233" height="1.587" x="-8.224" y="55.804" fill="url(#E)" opacity=".05" ry="0" transform="rotate(-90)"/><rect width="2.91" height="1.587" x="-6.901" y="55.804" fill="url(#F)" opacity=".2" ry="0" transform="rotate(-90)"/><path fill="url(#G)" d="M57.392 3.99v2.911h2.381V5.05l-.116-.466c-.086-.192-.22-.4-.413-.592z" opacity=".2"/><path fill="url(#H)" d="M55.275.133v3.856c0 .293.236.53.53.53h3.826a2 2 0 0 0-.382-.53l-3.44-3.44a1.4 1.4 0 0 0-.529-.416z"/></g><path fill="#fff" d="M3.44 1.058a.53.53 0 0 0-.53.53v13.757c0 .294.236.53.53.53h10.054c.293 0 .529-.236.529-.53V5.026l-.265-.264v10.583a.264.264 0 0 1-.264.264H3.44a.264.264 0 0 1-.265-.264V1.587c0-.147.118-.265.264-.265h6.88l-.265-.264z" opacity=".15" style="paint-order:fill markers stroke"/><g stroke-width="1.836" opacity=".5"><g fill="#fff"><g stroke-width="5.103"><path d="m4.571 9.94-.996 2.762-.041-.014.996-2.763z"/><path d="m5.851 11.082-2.543 1.494-.023-.037 2.543-1.494z"/><path d="M5.348 11.814 3.88 10.77l.025-.036 1.467 1.044zm.203-.248-1.447-1.071.027-.036 1.446 1.073zm-1.146.68-.775-.608.027-.034.775.609z"/></g><g stroke="#fff" stroke-width=".918"><path d="M733.48-664.81h34.427v.465H733.48zm.22-6.08h34.427v.465H733.7z" opacity=".75" transform="matrix(-.11978 .14389 -.14489 -.11895 -.318 -178.496)"/><path d="m24.832 1012.9-3.488 9.533-.43-.121 3.488-9.532z" opacity=".75" transform="matrix(.18799 0 0 .18668 -.318 -178.496)"/><path d="m29.947 1017.3-8.707 5.217-.258-.364 8.707-5.217zm16.783-28.72a2.9 2.9 0 0 0-2.098.85l.322.248a2.5 2.5 0 0 1 1.733-.698 2.507 2.507 0 0 1 2.507 2.507 2.5 2.5 0 0 1-.31 1.207l.321.247a2.91 2.91 0 0 0-.748-3.761 2.9 2.9 0 0 0-1.727-.6z" opacity=".75" transform="matrix(.18799 0 0 .18668 -.318 -178.496)"/></g><path d="M9.046 7.328 7.6 6.256l.026-.035 1.446 1.072z"/></g><path fill="url(#I)" d="M59.475 50.703a2.36 2.36 0 1 1 2.85 3.713z" opacity=".65" transform="matrix(.1861 0 0 .18482 -2.927 -3.07)"/><g fill="#fff"><g stroke-width="5.103"><path d="m4.661 10.857.017.396-.06.01-.017-.396z"/><path d="m5.05 11.186-.382.119-.025-.055.38-.119zm-.385-.29-.382.118-.024-.056.38-.119z"/><path d="m5.073 11.156.018.397-.062.01-.016-.397zm-.76-.554.017.396-.06.01-.018-.396z"/><path d="m3.69 11.396.632-.755.034.028-.633.755zm.927.7.632-.754.033.027-.632.755zm8.817-1.927.986.073-.004.043-.984-.073zm-.016-1.511.986.074-.004.043-.985-.074zM4.384 7.46l-.373 2.417-.042-.009.372-2.418z"/><path d="m13.446 8.328-.095 2.22-.043-.005.095-2.22z"/></g><g stroke="#fff" stroke-width=".918"><path d="m73.098 1002.7-49.055-3.95.02-.465 49.055 3.95zm0 8.3-50.306-4.13.02-.464 50.306 4.13z" opacity=".75" transform="matrix(.18799 0 0 .18668 -.318 -178.496)"/><path d="m24.845 997.65-1.475 10.043-.445-.031 1.475-10.043zm48.386 4.65-.33 8.944-.445.02.33-8.944z" opacity=".75" transform="matrix(.18799 0 0 .18668 -.318 -178.496)"/></g><g stroke-width="5.103"><path d="m2.994 9.322.984.09-.003.042-.985-.089zm.238-1.512.984.09-.004.042-.984-.089zm.49.409 10.125.844-.003.043-10.125-.844z"/><path d="M8.078 6.73 4.624 10.91l-.03-.03 3.454-4.18zm.396.252L5.02 11.161l-.03-.03 3.453-4.18zm3.91 3.256-1.634.76-.018-.04 1.635-.76zm-.526-1.105-1.65.73-.017-.04 1.65-.73zm.034.978-.902.4-.018-.04.902-.4zm-.056-.145-.902.4-.018-.04.903-.4zm-.114-.277-.903.4-.018-.039.903-.4zm-.017-.164-1.025.459-.018-.04 1.026-.459zm2.13 3.01-1.976.9-.018-.039 1.975-.901zm-.488-.38-1.65.728-.018-.04 1.65-.73z"/><path d="m12.868 13.181-1.438-.578.016-.04 1.438.579zm.17-.137.223-1.317.043.005-.223 1.318zm-1.307-1.589-.49-.852.039-.022.488.852zm.478-.17-.32-.928.041-.014.32.928zm-.567-1.804-.572-.962.038-.021.572.96zm-1.078.351-.423-1.035.04-.015.424 1.035z"/></g></g><g fill-rule="evenodd" stroke-width="5.103"><path fill="url(#J)" d="M41.284 75.189 59.475 52.9l1.475 1.147-18.29 22.19-1.639-.983z" opacity=".5" transform="matrix(.1861 0 0 .18482 -2.927 -3.07)"/><path fill="url(#K)" d="M43.218 76.874 61.52 54.418l.959.77-18.29 22.19z" opacity=".5" transform="matrix(.1861 0 0 .18482 -2.927 -3.07)"/><path fill="url(#L)" d="m39.144 76.511 3.105 2.33-5.882 3.559z" opacity=".5" transform="matrix(.1861 0 0 .18482 -2.927 -3.07)"/><path fill="url(#M)" d="M81.244 84.926 77.2 74.403l2.14-1.047 6.052 9.869z" opacity=".5" transform="matrix(.1861 0 0 .18482 -2.927 -3.07)"/></g></g><g stroke-width="2.428"><path fill-rule="evenodd" d="M53.506 964.15c-8.582.005-14.725 2.817-22.666 7.402-2.317 6.034-5.058 7.024-11.129 7.01l-5.31 3.066c1.583 4.457 2.176 5.695 5.906 10.23l5.31-3.067c2.282-3.837 5.284-7.811 11.715-5.031l-.004-.01c5.714.059 7.194 5.11 7.203 5.14v.006h.002l.002.002.76.26 8.93 15.467-.008.012c-.304.528-.095 1.134.11 1.63l10.62 21.501 14.141 24.814s.994 2.467 1.551 3.432 2.566.322 3.852.033l10.818-6.742s1.276-1.216.36-2.803c-.917-1.587-2.391-3.07-2.391-3.07l-11.672-17.863-7.446-10.54-11.174-14.75c-.178-.178-.444-.286-.757-.333l.03-.01-9.796-14.941.053-.72-.336-.505-.026-.004c-.025-.033-1.946-2.524-2.648-4.697-.707-2.188.36-3.98 4.162-6.174s13.325-1.758 19.85.656c.409.166.694.19.86.106l.003.021c.533-.308.368-.97.043-1.69l.01-.046-.039-.024-.006-.015-.002.008-2.262-1.426c.378.119.755.236 1.135.371.4.172.642.2.785.135l.004.01.02-.018a.2.2 0 0 0 .058-.052c.45-.388.243-1.345-.123-2.14l.002-.003-.004-.002-.006-.016-.003.01c-2.128-1.362-4.9-2.258-6.875-2.8-5.307-1.256-9.711-1.833-13.611-1.83zm2.508.53c.17.001.355.015.527.019q-.466-.011-.924-.012c.135 0 .26-.009.397-.008zm-1.762.036c-.269.01-.541.016-.805.032.263-.016.536-.022.805-.032m-2.293.159c-.184.019-.375.032-.557.054.182-.022.373-.035.557-.054m8.49.08c.348.036.693.07 1.051.113-.358-.044-.703-.077-1.05-.113zm2.737.347c.352.053.694.097 1.056.157-.363-.06-.704-.104-1.056-.157m-15.646.35c-.194.05-.384.109-.577.162.193-.053.383-.112.577-.162m11.885.516c.076.002.15.009.226.011a31 31 0 0 0-1.363-.01c.38-.006.761-.01 1.137-.002zm-1.508.002h.129q-.825.017-1.658.088c-1.7.147-3.11.501-4.268 1.005 1.159-.504 2.567-.858 4.268-1.005a27 27 0 0 1 1.529-.088m-12.236.021c-.212.068-.422.144-.633.217.21-.072.421-.149.633-.217m18.814.514c.35.063.683.134 1.021.205-.336-.07-.672-.142-1.021-.205m-22.381.856q-.352.153-.705.314.352-.16.705-.315zm-1.897.882c-.183.09-.365.177-.549.27.183-.093.366-.18.549-.27m19.467.348c.324-.008.724.003 1.09.004-.451-.001-.912-.005-1.3.006.079-.002.129-.008.21-.01m-9.932.006c-.134.124-.28.242-.402.371.122-.13.268-.247.402-.371m11.73 0c.462.009.967.04 1.477.068-.506-.028-1.018-.058-1.477-.068m-2.433.023c-.383.016-.767.032-1.063.053.307-.023.657-.036 1.063-.053m13.488.235c.485.2.887.375 1.102.474l-.004.008c-.157-.075-.427-.206-1.098-.482m-17.348.718c-.028.025-.058.05-.079.073q.034-.036.079-.073m5.654.127q.052.001.103.004zm-1.229.02h.036zm-4.568.111c.017.04.051.077.125.106-.075-.03-.109-.065-.125-.106m1.67.155c-.107.007-.217.015-.312.02.094-.005.206-.013.312-.02m16.541 2.123c.125.043.26.086.362.123-.103-.037-.238-.08-.362-.123m.897.328.039.016v.002zm-38.064 6.379c.04.013.087.034.129.049q.143.049.3.11c-.07-.024-.145-.051-.214-.073-.066-.023-.154-.066-.215-.086m1.32.48c.12.048.243.106.365.159-.121-.053-.246-.111-.365-.159m3.131 1.827.156.13zm2.164 2.195q.089.108.176.22zm1.125 1.559c.064.099.127.204.191.306-.064-.102-.127-.208-.191-.306" filter="url(#N)" opacity=".3" transform="matrix(-.08664 0 0 .09282 13.249 -83.262)"/><g transform="matrix(-.04376 -.02707 -.02527 .04689 48.88 -25.132)"><path fill-rule="evenodd" d="M372.14 921.51c-.092-.115-1.101-1.262-1.101-1.262l1.239-2.34 12.823-.012 1.687 1.298.065 1.038-1.103 1.623z"/><path fill="url(#O)" d="m371.95 920.17.885-1.395h12.06l1.159.606 1.843 32.452-3.573-1.113-9.879.114-2.495 1.113z"/><g fill-rule="evenodd"><path fill="url(#P)" d="m367.76 1044.4.275-48.964 2.661-41.027c.121-.91.33-1.993 1.233-2.515l2.402-1.087 9.72-.159c2.358 0 4.299 1.042 4.634 2.295l3.947 31.48 2.019 22.027 2.019 36.528s.918 3.466.918 6.608-2.937 3.854-2.937 3.854l-21.843.735c-2.157-.673-5.69-1.44-5.69-3.35s.642-6.425.642-6.425"/><path fill="url(#Q)" d="M371.04 920.26s2.182-8.85-6.32-13.847l.974-9.345s8.356 6.765 6.603 20.848z"/><path fill="#5b5c60" d="M373.29 917.92c.563-12.767-4.466-17.713-7.594-20.852 0 0 8.355 6.766 6.603 20.848z"/><path fill="url(#R)" d="M386.75 919.19s-.734-5.415.092-9.27 3.946-5.598 11.472-5.598 21.293 8.81 28.91 17.989c1.096 1.406 1.869 1.158 1.927-.55.045-.227-11.122-13.319-21.293-17.622-10.248-4.336-1.744-3.028-1.744-3.028s13.032 5.23 23.036 16.979c1.322 1.776 1.736.664 2.02-1.194 0 0-8.995-13.49-23.129-20.099s-21.017 2.662-22.577 9.27-.55 11.931-.55 11.931z"/><path d="m430.82 916.47-.617 2.515c1.13-.016 1.693-1.769 1.834-3.359zm-1.83 5.09-.592 1.68c1.098 0 1.407-1.209 1.533-2.63z"/></g><path fill="url(#S)" d="M-365.58 882.76c8.614 6.975 13.529 6.098 22.532.872v20.248c-6.677-3.74-14.541-7.07-21.706 2.57l-.957-9.195z" transform="scale(-1 1)"/><path fill="url(#T)" d="M332.53 883.63h10.513v20.248H332.53z"/><path fill="#3b3b3d" fill-rule="evenodd" d="M365.58 882.76c22.866 0 36.869 2.302 58.637 22.823-22.53-19.794-35.196-19.86-58.635-19.666z"/><path fill="url(#U)" d="M373.9-70.467c-2.634-.022-5.394 0-8.324.023l-.057 12.79.172-1.645s.13.104.352.314c.003.003 0 .002.004.004.222.21.535.523.908.944l.014.015c.047.054.102.124.152.182.114.133.23.27.353.422l.026.03c2.933 3.265 6.248 8.442 5.785 18.942l-.902-.006.109.436 12.545-.239.004-.027-.127-.082s-1.01-5.324.55-11.932 8.445-15.878 22.579-9.27c12.775 5.973 21.278 17.47 22.809 19.646l1.164-.807c-1.99-3.846-5.337-7.551-7.805-10.051-19.714-17.32-31.876-19.536-50.31-19.689zm30.064 15.031c-1.59-.002-2.51.503 3.894 3.213 9.765 4.132 20.34 16.245 21.137 17.416l.924-.932-2.14-4.064c-9.783-10.662-21.664-15.447-21.664-15.447s-1.196-.185-2.15-.186zm28.063 14.725-.002.01.006-.005zm-2.102 4.988c-.004.045-.013.084-.017.129l.054-.06z" transform="translate(0 956.36)"/><path fill="#5b5a60" d="M332.53 883.63c-1.469 7.975-1.651 10.319 0 20.248z"/><rect width="23.862" height="3.488" x="370.97" y="1049.2" fill="#323033" filter="url(#V)" rx="1.744" transform="matrix(1.0416 0 0 1.1876 -15.929 -197.14)"/><rect width="23.862" height="3.488" x="370.97" y="1049.2" fill="#060509" rx="1.744"/></g></g></svg>