<svg xmlns="http://www.w3.org/2000/svg" xmlns:xlink="http://www.w3.org/1999/xlink" width="64" height="64"><defs><filter id="j" width="1.219" height="1.26" x="-.11" y="-.13" color-interpolation-filters="sRGB"><feGaussianBlur stdDeviation=".152"/></filter><filter id="k" width="1.379" height="1.485" x="-.19" y="-.243" color-interpolation-filters="sRGB"><feGaussianBlur stdDeviation=".152"/></filter><filter id="l" width="1.1" height="1.161" x="-.05" y="-.081" color-interpolation-filters="sRGB"><feGaussianBlur stdDeviation=".128"/></filter><filter id="m" width="1.108" height="1.174" x="-.054" y="-.087" color-interpolation-filters="sRGB"><feGaussianBlur stdDeviation=".086"/></filter><filter id="n" width="1.099" height="1.161" x="-.05" y="-.08" color-interpolation-filters="sRGB"><feGaussianBlur stdDeviation=".762"/></filter><filter id="o" width="1.02" height="1.032" x="-.01" y="-.016" color-interpolation-filters="sRGB"><feGaussianBlur stdDeviation=".03"/></filter><filter id="p" width="1.399" height="1.646" x="-.199" y="-.323" color-interpolation-filters="sRGB"><feGaussianBlur stdDeviation="1.061"/></filter><filter id="q" width="1.389" height="1.631" x="-.195" y="-.315" color-interpolation-filters="sRGB"><feGaussianBlur stdDeviation="2.988"/></filter><filter id="r" width="1.399" height="1.646" x="-.199" y="-.323" color-interpolation-filters="sRGB"><feGaussianBlur stdDeviation=".512"/></filter><filter id="c" width="1.024" height="1.024" x="-.012" y="-.012" color-interpolation-filters="sRGB"><feGaussianBlur stdDeviation=".074"/></filter><linearGradient id="f" x1="9.969" x2="9.969" y1="295.76" y2="281.49" gradientTransform="translate(-.102 -283.55)scale(1.012)" gradientUnits="userSpaceOnUse"><stop offset="0" stop-color="#666"/><stop offset="1" stop-color="#9f9f9f"/></linearGradient><linearGradient id="g" x1="5.033" x2="5.033" y1="294.19" y2="282.62" gradientTransform="translate(0 -280.07)" gradientUnits="userSpaceOnUse"><stop offset="0" stop-color="#333"/><stop offset="1" stop-color="#666"/></linearGradient><linearGradient id="h" x1="8.467" x2="8.467" y1="283.24" y2="293.82" gradientTransform="translate(0 -280.07)" gradientUnits="userSpaceOnUse"><stop offset="0"/><stop offset="1" stop-color="#121212"/></linearGradient><linearGradient id="s" x1="51.497" x2="51.497" y1="11.196" y2="13.636" gradientUnits="userSpaceOnUse"><stop offset="0" stop-color="#12ed1c"/><stop offset="1" stop-color="#0fc77d"/></linearGradient><linearGradient id="b" x1="32" x2="32" y1="4" y2="60" gradientTransform="translate(-94.727)" gradientUnits="userSpaceOnUse"><stop offset="0" stop-color="#d5d5d5"/><stop offset="1" stop-color="#a4a4a4"/></linearGradient><linearGradient xlink:href="#a" id="d" x1="2.598" x2="10.583" y1="2.836" y2="11.312" gradientUnits="userSpaceOnUse"/><linearGradient id="a"><stop offset="0" stop-color="#fff"/><stop offset="1" stop-color="#fff" stop-opacity="0"/></linearGradient><linearGradient xlink:href="#a" id="e" x1="15.081" x2="12.7" y1="14.816" y2="12.171" gradientUnits="userSpaceOnUse"/><radialGradient id="i" cx="-136.99" cy="198.65" r="38.5" gradientTransform="matrix(.0982 0 0 .08247 21.918 -7.92)" gradientUnits="userSpaceOnUse"><stop offset="0" stop-color="#2561db" stop-opacity=".941"/><stop offset="1" stop-color="#0d0d0d"/></radialGradient></defs><path fill="url(#b)" d="M20.26 4c-5.782 0-9.743 1.725-12.321 4.535C5.374 11.331 4 15.34 4 19.876v24.248c0 4.538 1.374 8.545 3.939 11.341C10.517 58.275 14.479 60 20.26 60h23.549c5.782 0 9.743-1.724 12.321-4.535C58.695 52.67 60 49.03 60 44.125V20.786c0-5.935-1.305-9.456-3.87-12.252C53.552 5.725 49.59 4 43.809 4H25.494z"/><g filter="url(#c)" opacity=".75" transform="scale(3.7796)"><path fill="url(#d)" d="M5.36 1.058c-1.53 0-2.577.457-3.26 1.2-.678.74-1.042 1.8-1.042 3.001v6.415c0 1.2.364 2.26 1.043 3 .682.744 1.73 1.2 3.26 1.2h6.23c1.53 0 2.577-.456 3.26-1.2.678-.739 1.024-1.702 1.024-3V5.5c0-1.57-.346-2.502-1.024-3.242-.683-.743-1.73-1.2-3.26-1.2H6.745zm0 .264h6.232c1.477 0 2.437.432 3.064 1.116.634.69.954 1.53.954 3.062v6.174c0 1.251-.322 2.134-.954 2.822-.627.684-1.587 1.114-3.064 1.114H5.359c-1.477 0-2.437-.43-3.064-1.114-.625-.682-.973-1.675-.973-2.822V5.26c0-1.148.348-2.14.973-2.822.627-.684 1.587-1.116 3.064-1.116"/><path fill="url(#e)" d="M5.36 1.058c-1.53 0-2.577.457-3.26 1.2-.678.74-1.042 1.8-1.042 3.001v6.415c0 1.2.364 2.26 1.043 3 .682.744 1.73 1.2 3.26 1.2h6.23c1.53 0 2.577-.456 3.26-1.2.678-.739 1.024-1.702 1.024-3V5.5c0-1.57-.346-2.502-1.024-3.242-.683-.743-1.73-1.2-3.26-1.2H6.745zm0 .264h6.232c1.477 0 2.437.432 3.064 1.116.634.69.954 1.53.954 3.062v6.174c0 1.251-.322 2.134-.954 2.822-.627.684-1.587 1.114-3.064 1.114H5.359c-1.477 0-2.437-.43-3.064-1.114-.625-.682-.973-1.675-.973-2.822V5.26c0-1.148.348-2.14.973-2.822.627-.684 1.587-1.116 3.064-1.116"/></g><g stroke-width="1.434" transform="translate(9.68 9.698)scale(2.6361)"><circle cx="8.467" cy="8.46" r="7.966" fill="url(#f)"/><circle cx="8.467" cy="8.46" r="6.35" fill="url(#g)"/><circle cx="8.467" cy="8.46" r="5.292" fill="url(#h)"/><circle cx="8.467" cy="8.46" r="4.116" fill="url(#i)" stroke="#0d224d" stroke-linecap="round" stroke-linejoin="round" stroke-width=".336"/><path fill="#4678cc" d="m4.945 6.47 1.464.81s.458-.477.772-.686c.348-.23 1.105-.416 1.093-.36l-.241-1.762S6.412 4.31 4.945 6.47" filter="url(#j)" opacity=".8"/><path fill="#4678cc" d="m4.788 6.73 1.565.695s-.089.202-.123.421c-.032.2.004.387.004.387l-1.806-.019s.072-1.036.36-1.484" filter="url(#k)" opacity=".8"/><g fill="#fff" transform="translate(0 -280.07)"><ellipse cx="-228.33" cy="44.944" fill-opacity=".3" filter="url(#l)" rx="3.083" ry="1.903" transform="rotate(-40.912 351.478 75.712)scale(.20753)"/><ellipse cx="-228.1" cy="51.166" fill-opacity=".3" filter="url(#m)" rx="1.918" ry="1.184" transform="rotate(-40.912 364.297 96.013)scale(.13617)"/><ellipse cx="-222.03" cy="111.72" filter="url(#n)" opacity=".2" rx="18.419" ry="11.368" transform="rotate(-33.78 441.453 84.743)scale(.14284)"/><ellipse cx="-235.29" cy="75.046" fill-opacity=".3" filter="url(#o)" rx="3.667" ry="2.263" transform="rotate(-40.912 363.859 94.854)scale(.13617)"/><ellipse cx="-234.21" cy="88.759" filter="url(#p)" rx="6.386" ry="3.941" transform="rotate(-40.914 356.356 87.248)scale(.16571)"/></g><g transform="translate(0 -280.07)"><ellipse cx="-222.03" cy="111.72" fill="#4397ee" filter="url(#q)" opacity=".45" rx="18.419" ry="11.368" transform="rotate(-30.522 485.005 70.007)scale(.16305)"/><ellipse cx="-228.33" cy="44.944" fill="#fff" fill-opacity=".854" filter="url(#r)" rx="3.083" ry="1.903" transform="rotate(-40.914 369.07 103.988)scale(.10761)"/><ellipse cx="-228.1" cy="51.166" fill="#fff" fill-opacity=".3" filter="url(#m)" rx="1.918" ry="1.184" transform="rotate(-40.912 374.32 107.857)scale(.09151)"/></g></g><circle cx="51.5" cy="12.501" r="1.5" fill="url(#s)" stroke="#000" stroke-linecap="round" stroke-linejoin="round" stroke-opacity=".15" stroke-width=".6"/></svg>