<svg xmlns="http://www.w3.org/2000/svg" width="64" height="64" viewBox="0 0 16.933 16.933"><defs><filter id="d" width="1.013" height="1.151" x="-.007" y="-.076" color-interpolation-filters="sRGB"><feGaussianBlur stdDeviation=".042"/></filter><filter id="e" width="1.014" height="1.087" x="-.007" y="-.043" color-interpolation-filters="sRGB"><feGaussianBlur stdDeviation=".045"/></filter><filter id="b" width="1.065" height="1.092" x="-.032" y="-.046" color-interpolation-filters="sRGB"><feGaussianBlur stdDeviation=".137"/></filter><linearGradient id="a" x1="8.466" x2="8.466" y1="12.7" y2="2.381" gradientUnits="userSpaceOnUse"><stop offset="0"/><stop offset="1" stop-opacity="0"/></linearGradient><linearGradient id="c" x1="8.467" x2="8.467" y1="4.498" y2="14.552" gradientUnits="userSpaceOnUse"><stop offset="0" stop-color="#fff"/><stop offset="1"/></linearGradient></defs><path fill="#aa5adc" d="M1.945 2.381H4.91c.75 0 .904.084 1.27.63.297.441.84.429 1.756.429h7.05a1.146 1.146 0 0 1 1.152 1.152v6.956a1.15 1.15 0 0 1-1.152 1.152H1.944a1.15 1.15 0 0 1-1.15-1.152V3.533a1.15 1.15 0 0 1 1.15-1.152z"/><path fill="url(#a)" d="M1.945 2.381H4.91c.75 0 .904.084 1.27.63.297.441.84.429 1.756.429h7.05a1.146 1.146 0 0 1 1.152 1.152v6.956a1.15 1.15 0 0 1-1.152 1.152H1.944a1.15 1.15 0 0 1-1.15-1.152V3.533a1.15 1.15 0 0 1 1.15-1.152z"/><rect width="14.287" height="10.054" x="1.323" y="3.969" fill="none" stroke="#000" stroke-width=".265" filter="url(#b)" opacity=".1" rx=".529" ry=".529"/><rect width="14.287" height="10.054" x="1.323" y="3.969" fill="#fff" rx=".529" ry=".529"/><rect width="15.346" height="10.054" x=".794" y="4.498" fill="#aa5adc" rx="1.058" ry="1.058"/><rect width="15.346" height="10.054" x=".793" y="4.498" fill="url(#c)" opacity=".15" rx="1.058" ry="1.058"/><path fill="#fff" d="M1.852 4.498c-.586 0-1.058.472-1.058 1.058v.265c0-.587.472-1.059 1.058-1.059h13.229c.586 0 1.058.472 1.058 1.059v-.265c0-.586-.472-1.058-1.058-1.058z" filter="url(#d)" opacity=".15"/><path d="M1.852 4.498c-.586 0-1.058.472-1.058 1.058v.265c0-.587.472-1.059 1.058-1.059h13.229c.586 0 1.058.472 1.058 1.059v-.265c0-.586-.472-1.058-1.058-1.058z" filter="url(#d)" opacity=".1" transform="matrix(1 0 0 -1 0 19.05)"/><path fill="#fff" d="M1.944 2.381a1.15 1.15 0 0 0-1.15 1.152v.26a1.15 1.15 0 0 1 1.15-1.147h2.967c.75 0 .904.083 1.27.63.297.44.84.428 1.756.428h7.05a1.146 1.146 0 0 1 1.152 1.14v-.253a1.146 1.146 0 0 0-1.152-1.151h-7.05c-.916 0-1.459.012-1.755-.429-.367-.546-.52-.63-1.27-.63z" filter="url(#e)" opacity=".25"/><path d="M8.465 12.434a2.93 2.93 0 0 0 2.912-2.909c0-1.592-1.32-2.909-2.915-2.909a2.925 2.925 0 0 0-2.906 2.909 2.927 2.927 0 0 0 2.91 2.909m0-.58a2.32 2.32 0 0 1-2.324-2.329 2.316 2.316 0 0 1 2.321-2.327 2.325 2.325 0 0 1 2.333 2.327 2.32 2.32 0 0 1-2.33 2.33M7.047 9.88h1.416c.129 0 .227-.099.227-.226v-1.84a.223.223 0 0 0-.227-.224.22.22 0 0 0-.223.225v1.614H7.047a.22.22 0 0 0-.225.225c0 .127.099.225.225.225" opacity=".15"/><path d="M8.462 6.616a2.925 2.925 0 0 0-2.905 2.976 2.925 2.925 0 0 1 2.905-2.84 2.93 2.93 0 0 1 2.914 2.841v-.068c0-1.593-1.318-2.909-2.914-2.909m0 .973a.22.22 0 0 0-.222.225v.136c0-.126.099-.225.222-.225.13 0 .228.099.228.225v-.136a.223.223 0 0 0-.228-.225M7.048 9.43a.22.22 0 0 0-.226.225q0 .036.01.068a.22.22 0 0 1 .216-.157H8.24V9.43zm-.905.164-.001.068a2.32 2.32 0 0 0 2.323 2.33 2.32 2.32 0 0 0 2.329-2.393 2.32 2.32 0 0 1-2.329 2.256 2.32 2.32 0 0 1-2.322-2.26" opacity=".15"/><path fill="#fff" d="M8.462 7.198a2.315 2.315 0 0 0-2.32 2.395 2.315 2.315 0 0 1 2.32-2.259 2.325 2.325 0 0 1 2.332 2.264l.001-.073a2.325 2.325 0 0 0-2.333-2.327M5.557 9.593v.068a2.93 2.93 0 0 0 2.908 2.909 2.93 2.93 0 0 0 2.912-2.91v-.067a2.93 2.93 0 0 1-2.912 2.84 2.93 2.93 0 0 1-2.908-2.84m3.133.061a.223.223 0 0 1-.228.225H7.048a.22.22 0 0 1-.215-.157.2.2 0 0 0-.01.068c0 .127.098.225.225.225h1.414c.13 0 .228-.098.228-.225z" opacity=".2"/></svg>