<svg xmlns="http://www.w3.org/2000/svg" width="64" height="64" viewBox="0 0 16.933 16.933"><defs><filter id="d" width="1.013" height="1.151" x="-.007" y="-.076" color-interpolation-filters="sRGB"><feGaussianBlur stdDeviation=".042"/></filter><filter id="e" width="1.014" height="1.087" x="-.007" y="-.043" color-interpolation-filters="sRGB"><feGaussianBlur stdDeviation=".045"/></filter><filter id="b" width="1.065" height="1.092" x="-.032" y="-.046" color-interpolation-filters="sRGB"><feGaussianBlur stdDeviation=".137"/></filter><linearGradient id="a" x1="8.466" x2="8.466" y1="12.7" y2="2.381" gradientUnits="userSpaceOnUse"><stop offset="0"/><stop offset="1" stop-opacity="0"/></linearGradient><linearGradient id="c" x1="8.467" x2="8.467" y1="4.498" y2="14.552" gradientUnits="userSpaceOnUse"><stop offset="0" stop-color="#fff"/><stop offset="1"/></linearGradient></defs><path fill="#ffc61d" d="M1.945 2.381H4.91c.75 0 .904.084 1.27.63.297.441.84.429 1.756.429h7.05a1.146 1.146 0 0 1 1.152 1.152v6.956a1.15 1.15 0 0 1-1.152 1.152H1.944a1.15 1.15 0 0 1-1.15-1.152V3.533a1.15 1.15 0 0 1 1.15-1.152z"/><path fill="url(#a)" d="M1.945 2.381H4.91c.75 0 .904.084 1.27.63.297.441.84.429 1.756.429h7.05a1.146 1.146 0 0 1 1.152 1.152v6.956a1.15 1.15 0 0 1-1.152 1.152H1.944a1.15 1.15 0 0 1-1.15-1.152V3.533a1.15 1.15 0 0 1 1.15-1.152z"/><rect width="14.287" height="10.054" x="1.323" y="3.969" fill="none" stroke="#000" stroke-width=".265" filter="url(#b)" opacity=".1" rx=".529" ry=".529"/><rect width="14.287" height="10.054" x="1.323" y="3.969" fill="#fff" rx=".529" ry=".529"/><rect width="15.346" height="10.054" x=".794" y="4.498" fill="#ffc61d" rx="1.058" ry="1.058"/><rect width="15.346" height="10.054" x=".793" y="4.498" fill="url(#c)" opacity=".15" rx="1.058" ry="1.058"/><path fill="#fff" d="M1.852 4.498c-.586 0-1.058.472-1.058 1.058v.265c0-.587.472-1.059 1.058-1.059h13.229c.586 0 1.058.472 1.058 1.059v-.265c0-.586-.472-1.058-1.058-1.058z" filter="url(#d)" opacity=".15"/><path d="M1.852 4.498c-.586 0-1.058.472-1.058 1.058v.265c0-.587.472-1.059 1.058-1.059h13.229c.586 0 1.058.472 1.058 1.059v-.265c0-.586-.472-1.058-1.058-1.058z" filter="url(#d)" opacity=".1" transform="matrix(1 0 0 -1 0 19.05)"/><path fill="#fff" d="M1.944 2.381a1.15 1.15 0 0 0-1.15 1.152v.26a1.15 1.15 0 0 1 1.15-1.147h2.967c.75 0 .904.083 1.27.63.297.44.84.428 1.756.428h7.05a1.146 1.146 0 0 1 1.152 1.14v-.253a1.146 1.146 0 0 0-1.152-1.151h-7.05c-.916 0-1.459.012-1.755-.429-.367-.546-.52-.63-1.27-.63z" filter="url(#e)" opacity=".25"/><path d="M10.726 6.197h-.027l-3.455.591c-.074.013-.135.06-.135.135v3.99c-.055.32-.6.192-.978.22-.454.06-.67.582-.56.966.088.285.361.5.757.539.415.044 1.12-.068 1.2-.966l.003.003v-3.51l2.875-.492v2.645c-.065.306-.602.181-.975.209-.455.06-.671.582-.561.966.089.285.362.5.758.539.408.043 1.094-.065 1.193-.92l.008-.007v-.307l.005-4.464c0-.066-.047-.13-.108-.136z" opacity=".15"/><path d="m10.699 6.197-3.455.591c-.074.013-.135.06-.135.135v.153c0-.075.061-.122.135-.135l3.455-.591h.027c.058.007.104.066.108.129v-.145c0-.066-.047-.13-.108-.136v-.001zm-.293 4.121c-.065.306-.602.18-.975.209-.405.053-.62.472-.586.834.03-.318.238-.635.586-.681.373-.028.91.097.975-.209zm-3.297.595c-.055.32-.6.192-.978.22-.404.053-.619.471-.585.833.03-.318.237-.634.585-.68.378-.028.923.1.978-.22z" opacity=".15"/><path fill="#fff" d="m10.406 7.673-2.875.492v.154l2.875-.492zm.423 3.432-.008.007c-.099.855-.785.963-1.193.92-.396-.039-.669-.254-.758-.539a1 1 0 0 1-.025-.132.8.8 0 0 0 .025.286c.09.285.362.5.758.539.408.043 1.094-.065 1.193-.92l.008-.007zm-3.3.567c-.08.898-.786 1.01-1.2.966-.397-.039-.67-.254-.758-.54a1 1 0 0 1-.025-.131.8.8 0 0 0 .025.286c.088.285.361.5.757.539.415.044 1.12-.069 1.2-.967l.003.004v-.154z" opacity=".2"/></svg>