<svg xmlns="http://www.w3.org/2000/svg" width="64" height="64" viewBox="0 0 16.933 16.933"><defs><filter id="d" width="1.013" height="1.151" x="-.007" y="-.076" color-interpolation-filters="sRGB"><feGaussianBlur stdDeviation=".042"/></filter><filter id="e" width="1.014" height="1.087" x="-.007" y="-.043" color-interpolation-filters="sRGB"><feGaussianBlur stdDeviation=".045"/></filter><filter id="b" width="1.065" height="1.092" x="-.032" y="-.046" color-interpolation-filters="sRGB"><feGaussianBlur stdDeviation=".137"/></filter><linearGradient id="a" x1="8.466" x2="8.466" y1="12.7" y2="2.381" gradientUnits="userSpaceOnUse"><stop offset="0"/><stop offset="1" stop-opacity="0"/></linearGradient><linearGradient id="c" x1="8.467" x2="8.467" y1="4.498" y2="14.552" gradientUnits="userSpaceOnUse"><stop offset="0" stop-color="#fff"/><stop offset="1"/></linearGradient></defs><path fill="#006efd" d="M1.945 2.381H4.91c.75 0 .904.084 1.27.63.297.441.84.429 1.756.429h7.05a1.146 1.146 0 0 1 1.152 1.152v6.956a1.15 1.15 0 0 1-1.152 1.152H1.944a1.15 1.15 0 0 1-1.15-1.152V3.533a1.15 1.15 0 0 1 1.15-1.152z"/><path fill="url(#a)" d="M1.945 2.381H4.91c.75 0 .904.084 1.27.63.297.441.84.429 1.756.429h7.05a1.146 1.146 0 0 1 1.152 1.152v6.956a1.15 1.15 0 0 1-1.152 1.152H1.944a1.15 1.15 0 0 1-1.15-1.152V3.533a1.15 1.15 0 0 1 1.15-1.152z"/><rect width="14.287" height="10.054" x="1.323" y="3.969" fill="none" stroke="#000" stroke-width=".265" filter="url(#b)" opacity=".1" rx=".529" ry=".529"/><rect width="14.287" height="10.054" x="1.323" y="3.969" fill="#fff" rx=".529" ry=".529"/><rect width="15.346" height="10.054" x=".794" y="4.498" fill="#006efd" rx="1.058" ry="1.058"/><rect width="15.346" height="10.054" x=".793" y="4.498" fill="url(#c)" opacity=".15" rx="1.058" ry="1.058"/><path fill="#fff" d="M1.852 4.498c-.586 0-1.058.472-1.058 1.058v.265c0-.587.472-1.059 1.058-1.059h13.229c.586 0 1.058.472 1.058 1.059v-.265c0-.586-.472-1.058-1.058-1.058z" filter="url(#d)" opacity=".15"/><path d="M1.852 4.498c-.586 0-1.058.472-1.058 1.058v.265c0-.587.472-1.059 1.058-1.059h13.229c.586 0 1.058.472 1.058 1.059v-.265c0-.586-.472-1.058-1.058-1.058z" filter="url(#d)" opacity=".1" transform="matrix(1 0 0 -1 0 19.05)"/><path fill="#fff" d="M1.944 2.381a1.15 1.15 0 0 0-1.15 1.152v.26a1.15 1.15 0 0 1 1.15-1.147h2.967c.75 0 .904.083 1.27.63.297.44.84.428 1.756.428h7.05a1.146 1.146 0 0 1 1.152 1.14v-.253a1.146 1.146 0 0 0-1.152-1.151h-7.05c-.916 0-1.459.012-1.755-.429-.367-.546-.52-.63-1.27-.63z" filter="url(#e)" opacity=".25"/><path d="M6.526 5.82a.97.97 0 0 0-.97.97v4.851c0 .538.433.97.97.97h3.88a.97.97 0 0 0 .971-.97V8.246L8.952 5.821zm0 .486h1.94V7.76c0 .537.433.97.97.97h1.456v2.91a.484.484 0 0 1-.485.486h-3.88a.484.484 0 0 1-.486-.486V6.79c0-.269.216-.485.485-.485zm2.426.2 1.739 1.74H9.437a.484.484 0 0 1-.485-.485z" opacity=".15"/><path d="M6.526 5.82a.97.97 0 0 0-.97.97v.133a.97.97 0 0 1 .97-.966l2.426.001 2.425 2.425v-.137L8.952 5.82zm2.426 1.943V7.9a.484.484 0 0 0 .485.484h1.254l-.137-.137H9.437a.484.484 0 0 1-.485-.483m-2.911 3.881v.133a.484.484 0 0 0 .486.487h3.88a.484.484 0 0 0 .485-.487v-.133a.484.484 0 0 1-.485.482h-3.88a.484.484 0 0 1-.486-.482" opacity=".15"/><path fill="#fff" d="M6.526 6.305a.484.484 0 0 0-.485.485v.137c0-.269.216-.485.485-.485v.001h1.94v-.137zm2.426.2v.138l1.602 1.603h.137zM8.466 7.76v.137c0 .537.433.97.97.97h1.456V8.73H9.436a.97.97 0 0 1-.97-.97m-2.91 3.88v.138c0 .538.433.97.97.97h3.88a.97.97 0 0 0 .971-.97v-.137c0 .538-.433.97-.971.97h-3.88a.97.97 0 0 1-.97-.97" opacity=".2"/></svg>