<svg xmlns="http://www.w3.org/2000/svg" width="64" height="64" viewBox="0 0 16.933 16.933"><defs><filter id="d" width="1.013" height="1.151" x="-.007" y="-.076" color-interpolation-filters="sRGB"><feGaussianBlur stdDeviation=".042"/></filter><filter id="e" width="1.014" height="1.087" x="-.007" y="-.043" color-interpolation-filters="sRGB"><feGaussianBlur stdDeviation=".045"/></filter><filter id="b" width="1.065" height="1.092" x="-.032" y="-.046" color-interpolation-filters="sRGB"><feGaussianBlur stdDeviation=".137"/></filter><linearGradient id="a" x1="8.466" x2="8.466" y1="12.7" y2="2.381" gradientUnits="userSpaceOnUse"><stop offset="0"/><stop offset="1" stop-opacity="0"/></linearGradient><linearGradient id="c" x1="8.467" x2="8.467" y1="4.498" y2="14.552" gradientUnits="userSpaceOnUse"><stop offset="0" stop-color="#fff"/><stop offset="1"/></linearGradient></defs><path fill="#27d83d" d="M1.945 2.381H4.91c.75 0 .904.084 1.27.63.297.441.84.429 1.756.429h7.05a1.146 1.146 0 0 1 1.152 1.152v6.956a1.15 1.15 0 0 1-1.152 1.152H1.944a1.15 1.15 0 0 1-1.15-1.152V3.533a1.15 1.15 0 0 1 1.15-1.152z"/><path fill="url(#a)" d="M1.945 2.381H4.91c.75 0 .904.084 1.27.63.297.441.84.429 1.756.429h7.05a1.146 1.146 0 0 1 1.152 1.152v6.956a1.15 1.15 0 0 1-1.152 1.152H1.944a1.15 1.15 0 0 1-1.15-1.152V3.533a1.15 1.15 0 0 1 1.15-1.152z"/><rect width="14.287" height="10.054" x="1.323" y="3.969" fill="none" stroke="#000" stroke-width=".265" filter="url(#b)" opacity=".1" rx=".529" ry=".529"/><rect width="14.287" height="10.054" x="1.323" y="3.969" fill="#fff" rx=".529" ry=".529"/><rect width="15.346" height="10.054" x=".794" y="4.498" fill="#27d83d" rx="1.058" ry="1.058"/><rect width="15.346" height="10.054" x=".793" y="4.498" fill="url(#c)" opacity=".15" rx="1.058" ry="1.058"/><path fill="#fff" d="M1.852 4.498c-.586 0-1.058.472-1.058 1.058v.265c0-.587.472-1.059 1.058-1.059h13.229c.586 0 1.058.472 1.058 1.059v-.265c0-.586-.472-1.058-1.058-1.058z" filter="url(#d)" opacity=".15"/><path d="M1.852 4.498c-.586 0-1.058.472-1.058 1.058v.265c0-.587.472-1.059 1.058-1.059h13.229c.586 0 1.058.472 1.058 1.059v-.265c0-.586-.472-1.058-1.058-1.058z" filter="url(#d)" opacity=".1" transform="matrix(1 0 0 -1 0 19.05)"/><path fill="#fff" d="M1.944 2.381a1.15 1.15 0 0 0-1.15 1.152v.26a1.15 1.15 0 0 1 1.15-1.147h2.967c.75 0 .904.083 1.27.63.297.44.84.428 1.756.428h7.05a1.146 1.146 0 0 1 1.152 1.14v-.253a1.146 1.146 0 0 0-1.152-1.151h-7.05c-.916 0-1.459.012-1.755-.429-.367-.546-.52-.63-1.27-.63z" filter="url(#e)" opacity=".25"/><path d="M8.465 12.7c1.741 0 3.178-1.437 3.178-3.175s-1.44-3.175-3.18-3.175c-1.739 0-3.173 1.437-3.173 3.175A3.195 3.195 0 0 0 8.465 12.7m-.81-3.801a.52.52 0 0 0-.148-.301A4.7 4.7 0 0 1 8.714 6.86c.034.003.07.01.107.012a5.1 5.1 0 0 0-.663 2.156 3.5 3.5 0 0 1-.503-.13m-1.4-.87a2.71 2.71 0 0 1 1.85-1.157 5.1 5.1 0 0 0-.99 1.581.5.5 0 0 0-.237.077 3.6 3.6 0 0 1-.624-.5m3.193.02a3.4 3.4 0 0 1 .126-.956 2.72 2.72 0 0 1 1.305 1.287c-.298.227-.63.399-.98.519a.5.5 0 0 0-.378-.184 3.4 3.4 0 0 1-.073-.667m-.42 0c.002.285.036.567.1.837a.5.5 0 0 0-.1.185q-.119.009-.237.009c-.07 0-.145 0-.215-.006.049-.654.23-1.287.534-1.855a3.7 3.7 0 0 0-.083.83M5.79 9.524c0-.396.086-.77.245-1.111q.283.268.612.472-.006.035-.007.071c0 .166.08.316.206.408-.058.298-.089.605-.092.912a4.6 4.6 0 0 1-.961-.63q-.004-.06-.003-.122m5.352 0c0 .243-.034.48-.095.703a4.5 4.5 0 0 1-.525.24 3.3 3.3 0 0 1-.679-.875.52.52 0 0 0 .16-.286q.554-.18 1.034-.516.104.352.105.734m-3.967.937a4.8 4.8 0 0 1 .08-1.008.5.5 0 0 0 .27-.153c.2.064.405.117.617.15q.005.568.126 1.112a.5.5 0 0 0-.126.153 4.6 4.6 0 0 1-.967-.254M8.79 9.5q.147 0 .295-.013c.076.12.202.203.347.227q.253.495.641.897c-.331.09-.672.141-1.013.157a.5.5 0 0 0-.38-.31 4.6 4.6 0 0 1-.114-.965q.111.009.224.007m-2.896.758c.274.193.568.356.87.491q.026.48.15.946a2.7 2.7 0 0 1-1.02-1.437m2.57 1.944c-.356 0-.697-.074-1.01-.203a4.2 4.2 0 0 1-.255-1.08c.298.1.605.174.912.217.07.188.246.32.455.329q.153.361.365.694-.226.042-.467.043m.495-.894a.5.5 0 0 0 .083-.12c.472-.018.94-.098 1.394-.245q.096.076.193.144a2.7 2.7 0 0 1-1.271.958 4.5 4.5 0 0 1-.4-.737" opacity=".15"/><path d="M8.462 6.35c-1.737 0-3.172 1.437-3.172 3.175l.001.07c.038-1.705 1.457-3.103 3.171-3.103 1.718 0 3.142 1.398 3.18 3.104l.001-.071c0-1.738-1.44-3.175-3.18-3.175m.286.656a5.1 5.1 0 0 0-.59 2.021 3.5 3.5 0 0 1-.503-.129.5.5 0 0 0-.108-.256l-.04.097a.52.52 0 0 1 .148.302q.244.083.503.128a5.1 5.1 0 0 1 .664-2.155zm-.642.008a3 3 0 0 0-.146.025 5 5 0 0 0-.846 1.414.5.5 0 0 0-.236.077 3.6 3.6 0 0 1-.564-.442l-.06.084q.287.287.624.5a.5.5 0 0 1 .236-.077c.227-.58.565-1.114.992-1.581m1.004.347-.04.078q-.046.3-.043.609v.029q.007-.368.083-.716m.338.72v.11q.004.338.073.665c.15.003.286.074.378.185.35-.12.682-.292.98-.52l-.052-.103a3.5 3.5 0 0 1-.928.48.5.5 0 0 0-.378-.184 3.4 3.4 0 0 1-.073-.633m-.344.836a.5.5 0 0 0-.077.154 3 3 0 0 1-.438.003q-.008.07-.013.141.107.008.215.006.118 0 .236-.008a.5.5 0 0 1 .102-.185zm-2.458.11.001.005v-.004zm.178.463c-.023.14-.026.284-.037.427q.022-.207.06-.41zm4.318.106q-.01.327-.094.632a4.5 4.5 0 0 1-.525.24 3.3 3.3 0 0 1-.63-.786 1 1 0 0 1-.05.053c.176.325.403.62.68.874q.267-.1.525-.239a2.7 2.7 0 0 0 .094-.774m-5.35.006a3 3 0 0 0 .002.188q.448.38.961.63.003-.192.021-.382c-.004.08-.02.159-.02.24a4.6 4.6 0 0 1-.962-.63zm2.775.034q.006.494.113.964a.5.5 0 0 1 .38.31c.342-.015.683-.067 1.014-.156l-.106-.115a4.7 4.7 0 0 1-.907.13.5.5 0 0 0-.381-.31 4.6 4.6 0 0 1-.11-.823zm-2.672.765c.17.583.535 1.09 1.02 1.437l-.043-.173a2.7 2.7 0 0 1-.916-1.222zm1.28.003v.2c.314.119.64.205.968.254a.5.5 0 0 1 .126-.153l-.025-.12a.5.5 0 0 0-.1.131 4.6 4.6 0 0 1-.968-.255zm.025.657a4.2 4.2 0 0 0 .255 1.08 2.65 2.65 0 0 0 1.477.16l-.08-.128q-.188.03-.387.03c-.356 0-.697-.075-1.01-.203a4.2 4.2 0 0 1-.237-.933zm3.36.118c-.31.392-.725.696-1.201.867A4.5 4.5 0 0 1 9 11.402a.4.4 0 0 1-.04.049 4.5 4.5 0 0 0 .399.737 2.7 2.7 0 0 0 1.271-.958z" opacity=".15"/><path fill="#fff" d="M8.714 6.86a4.7 4.7 0 0 0-1.207 1.737q.022.022.04.045a4.7 4.7 0 0 1 1.167-1.64l.034.003.073-.133q-.055-.006-.107-.013m-.608.012a2.71 2.71 0 0 0-1.852 1.157l.06.059a2.71 2.71 0 0 1 1.646-1.05q.07-.085.146-.166m1.468.221c-.09.31-.13.633-.126.955v.033q.008-.43.126-.846c.533.248.977.666 1.252 1.183l.053-.038a2.72 2.72 0 0 0-1.305-1.287m-.464.126a4.7 4.7 0 0 0-.534 1.854l.012.001c.06-.574.223-1.129.482-1.635q.015-.111.04-.22m-.082.858v.113q.003.371.076.727l.024-.03a3.8 3.8 0 0 1-.1-.81m-2.992.336c-.16.341-.245.716-.245 1.112v.077c.009-.372.094-.724.245-1.047q.282.268.61.472a1 1 0 0 1-.005-.07q0-.036.006-.07a3.8 3.8 0 0 1-.61-.474m5.002.378q-.48.336-1.035.516a.52.52 0 0 1-.16.286l.05.089a.5.5 0 0 0 .11-.233q.555-.18 1.035-.516.094.317.104.663a2.6 2.6 0 0 0-.104-.805m-4.391.241q-.005.033-.006.066c0 .156.07.299.183.392l.023-.125a.5.5 0 0 1-.2-.333m.878.269a.5.5 0 0 1-.27.153q-.087.467-.08.95.005-.41.08-.808a.5.5 0 0 0 .27-.153q.3.097.618.15.005.504.1.992l.026-.023a5.4 5.4 0 0 1-.126-1.111 4 4 0 0 1-.618-.15m1.56.187a3 3 0 0 1-.295.012c-.073 0-.15 0-.223-.006q0 .072.003.142.11.007.22.006.148 0 .296-.012c.076.12.202.203.346.227q.218.424.536.782l.106-.027a3.8 3.8 0 0 1-.642-.897.51.51 0 0 1-.346-.227m-3.794.108-.001.07a3.195 3.195 0 0 0 3.175 3.176c1.74 0 3.178-1.437 3.178-3.175v-.071A3.197 3.197 0 0 1 8.464 12.7c-1.714 0-3.136-1.398-3.174-3.104m1.496.32-.011.124q.005-.062.011-.125m-.892.343q.027.093.061.184c.256.175.53.323.808.449q.022.39.108.773l.043.03a4.7 4.7 0 0 1-.15-.945 5 5 0 0 1-.87-.491m1.305.66q.007.075.017.148c.293.098.594.17.895.212.07.187.246.32.455.328q.123.291.286.566l.08-.014a4.7 4.7 0 0 1-.366-.694.51.51 0 0 1-.455-.328 5 5 0 0 1-.912-.218m3.236.024q-.682.22-1.393.246a.5.5 0 0 1-.084.12l.041.093a1 1 0 0 0 .043-.071c.472-.019.939-.098 1.393-.246q.063.05.124.094.037-.044.07-.092c-.064-.046-.13-.091-.194-.144" opacity=".2"/></svg>