<svg xmlns="http://www.w3.org/2000/svg" width="64" height="64"><defs><linearGradient id="c" x1="1.058" x2="15.875" y1="289.59" y2="289.59" gradientTransform="translate(0 -280.07)" gradientUnits="userSpaceOnUse"><stop offset="0" stop-opacity=".1"/><stop offset=".108" stop-opacity="0"/><stop offset=".894" stop-opacity="0"/><stop offset="1" stop-opacity=".1"/></linearGradient><linearGradient id="a" x1="8.467" x2="8.467" y1="2.381" y2="6.743" gradientUnits="userSpaceOnUse"><stop offset="0" stop-color="#7cc1ea"/><stop offset="1" stop-color="#56a1d3"/></linearGradient><linearGradient id="b" x1="8.466" x2="8.466" y1="12.7" y2="2.381" gradientTransform="scale(3.7796)" gradientUnits="userSpaceOnUse"><stop offset="0"/><stop offset="1" stop-opacity="0"/></linearGradient><linearGradient id="d" x1="8.467" x2="8.467" y1="4.498" y2="14.552" gradientTransform="scale(3.7796)" gradientUnits="userSpaceOnUse"><stop offset="0" stop-color="#fff"/><stop offset="1"/></linearGradient></defs><path fill="url(#a)" d="M7.35 9h11.212c2.835 0 3.416.316 4.802 2.381C24.484 13.05 26.538 13 30 13h26.646A4.33 4.33 0 0 1 61 17.354v26.292A4.347 4.347 0 0 1 56.646 48H7.348a4.347 4.347 0 0 1-4.35-4.354V13.354A4.346 4.346 0 0 1 7.348 9Z" style="fill:#686868;fill-opacity:1;stroke-width:3.7796"/><path fill="url(#b)" d="M7.35 9h11.212c2.835 0 3.416.316 4.802 2.381C24.484 13.05 26.538 13 30 13h26.646A4.33 4.33 0 0 1 61 17.354v26.292A4.347 4.347 0 0 1 56.646 48H7.348a4.347 4.347 0 0 1-4.35-4.354V13.354A4.346 4.346 0 0 1 7.348 9z" style="fill:url(#b);stroke-width:3.7796;opacity:.35"/><rect width="58.002" height="30" x="3" y="25" fill="url(#c)" rx="4" ry="4" style="fill:#686868;fill-opacity:1;stroke-width:3.7796"/><path d="M3 50.514V51c0 2.216 1.784 4 4 4h50c2.216 0 4-1.784 4-4v-.485c0 2.216-1.784 4-4 4H7c-2.216 0-4-1.784-4-4" opacity=".1" style="stroke-width:3.7796"/><path fill="#fff" d="M3 29.484V29c0-2.216 1.784-4 4-4h50c2.216 0 4 1.784 4 4v.484c0-2.216-1.784-4-4-4H7c-2.216 0-4 1.784-4 4" opacity=".2" style="stroke-width:3.7796"/><rect width="58.002" height="30" x="3" y="25" fill="url(#d)" opacity=".15" rx="4" ry="4" style="fill:url(#d);stroke-width:3.7796"/></svg>