<svg xmlns="http://www.w3.org/2000/svg" width="64" height="64" viewBox="0 0 16.933 16.933"><defs><filter id="d" width="1.013" height="1.151" x="-.007" y="-.076" color-interpolation-filters="sRGB"><feGaussianBlur stdDeviation=".042"/></filter><filter id="e" width="1.014" height="1.087" x="-.007" y="-.043" color-interpolation-filters="sRGB"><feGaussianBlur stdDeviation=".045"/></filter><filter id="b" width="1.065" height="1.092" x="-.032" y="-.046" color-interpolation-filters="sRGB"><feGaussianBlur stdDeviation=".137"/></filter><linearGradient id="a" x1="8.466" x2="8.466" y1="12.7" y2="2.381" gradientUnits="userSpaceOnUse"><stop offset="0"/><stop offset="1" stop-opacity="0"/></linearGradient><linearGradient id="c" x1="8.467" x2="8.467" y1="4.498" y2="14.552" gradientUnits="userSpaceOnUse"><stop offset="0" stop-color="#fff"/><stop offset="1"/></linearGradient></defs><path fill="#fe342c" d="M1.945 2.381H4.91c.75 0 .904.084 1.27.63.297.441.84.429 1.756.429h7.05a1.146 1.146 0 0 1 1.152 1.152v6.956a1.15 1.15 0 0 1-1.152 1.152H1.944a1.15 1.15 0 0 1-1.15-1.152V3.533a1.15 1.15 0 0 1 1.15-1.152z"/><path fill="url(#a)" d="M1.945 2.381H4.91c.75 0 .904.084 1.27.63.297.441.84.429 1.756.429h7.05a1.146 1.146 0 0 1 1.152 1.152v6.956a1.15 1.15 0 0 1-1.152 1.152H1.944a1.15 1.15 0 0 1-1.15-1.152V3.533a1.15 1.15 0 0 1 1.15-1.152z"/><rect width="14.287" height="10.054" x="1.323" y="3.969" fill="none" stroke="#000" stroke-width=".265" filter="url(#b)" opacity=".1" rx=".529" ry=".529"/><rect width="14.287" height="10.054" x="1.323" y="3.969" fill="#fff" rx=".529" ry=".529"/><rect width="15.346" height="10.054" x=".794" y="4.498" fill="#fe342c" rx="1.058" ry="1.058"/><rect width="15.346" height="10.054" x=".793" y="4.498" fill="url(#c)" opacity=".15" rx="1.058" ry="1.058"/><path fill="#fff" d="M1.852 4.498c-.586 0-1.058.472-1.058 1.058v.265c0-.587.472-1.059 1.058-1.059h13.229c.586 0 1.058.472 1.058 1.059v-.265c0-.586-.472-1.058-1.058-1.058z" filter="url(#d)" opacity=".15"/><path d="M1.852 4.498c-.586 0-1.058.472-1.058 1.058v.265c0-.587.472-1.059 1.058-1.059h13.229c.586 0 1.058.472 1.058 1.059v-.265c0-.586-.472-1.058-1.058-1.058z" filter="url(#d)" opacity=".1" transform="matrix(1 0 0 -1 0 19.05)"/><path fill="#fff" d="M1.944 2.381a1.15 1.15 0 0 0-1.15 1.152v.26a1.15 1.15 0 0 1 1.15-1.147h2.967c.75 0 .904.083 1.27.63.297.44.84.428 1.756.428h7.05a1.146 1.146 0 0 1 1.152 1.14v-.253a1.146 1.146 0 0 0-1.152-1.151h-7.05c-.916 0-1.459.012-1.755-.429-.367-.546-.52-.63-1.27-.63z" filter="url(#e)" opacity=".25"/><path d="M8.467 6.35a3.175 3.175 0 0 0-3.175 3.175A3.175 3.175 0 0 0 8.467 12.7a3.175 3.175 0 0 0 3.174-3.175A3.175 3.175 0 0 0 8.467 6.35m0 .53a2.646 2.646 0 0 1 2.645 2.645 2.646 2.646 0 0 1-2.646 2.646 2.646 2.646 0 0 1-2.645-2.646 2.646 2.646 0 0 1 2.646-2.646m0 1.05a.264.264 0 0 0-.265.264v2.007l-.484-.483c-.25-.25-.624.124-.374.373l.935.937q.009.006.017.01l.01.008c.018.014.037.03.06.04h.001c.099.039.212.016.288-.058l.934-.937c.25-.25-.124-.623-.373-.373l-.484.482V8.194a.264.264 0 0 0-.265-.264" opacity=".15"/><path d="M8.467 6.35a3.175 3.175 0 0 0-3.175 3.175l.004.067a3.175 3.175 0 0 1 3.17-3.108 3.175 3.175 0 0 1 3.17 3.108l.006-.067A3.175 3.175 0 0 0 8.467 6.35zm0 1.58a.264.264 0 0 0-.265.264v.135c0-.147.118-.266.264-.266v.001c.148 0 .266.119.266.265v-.135a.264.264 0 0 0-.265-.264M5.825 9.591l-.004.067a2.646 2.646 0 0 0 2.646 2.646 2.646 2.646 0 0 0 2.645-2.646l-.004-.067a2.646 2.646 0 0 1-2.641 2.579 2.646 2.646 0 0 1-2.642-2.579m3.581.043a.26.26 0 0 0-.19.083l-.484.482v.135l.484-.483c.17-.17.397-.051.446.12.049-.164-.093-.334-.256-.337m-1.878 0c-.163.004-.305.174-.257.338.05-.172.277-.29.447-.121l.484.484V10.2l-.484-.483a.26.26 0 0 0-.19-.083" opacity=".15"/><path fill="#fff" d="M8.467 6.879A2.646 2.646 0 0 0 5.82 9.525l.004.067a2.646 2.646 0 0 1 2.641-2.579 2.646 2.646 0 0 1 2.642 2.579l.004-.067a2.646 2.646 0 0 0-2.646-2.646m-3.17 2.713-.005.067a3.175 3.175 0 0 0 3.174 3.175 3.175 3.175 0 0 0 3.175-3.175l-.004-.067a3.175 3.175 0 0 1-3.17 3.108 3.175 3.175 0 0 1-3.17-3.108zm1.974.38a.25.25 0 0 0 .073.254l.935.936q.009.006.017.01l.01.008q.026.023.06.04h.001c.099.039.212.016.288-.058l.934-.936a.25.25 0 0 0 .073-.253.3.3 0 0 1-.073.118l-.934.937a.27.27 0 0 1-.288.057q-.035-.016-.06-.04l-.01-.007q-.01-.004-.018-.01l-.935-.937a.3.3 0 0 1-.073-.118" opacity=".2"/></svg>