<svg xmlns="http://www.w3.org/2000/svg" width="64" height="64"><defs><filter id="d" width="1.218" height="1.214" x="-.109" y="-.107" color-interpolation-filters="sRGB"><feGaussianBlur stdDeviation="1.681"/></filter><filter id="e" width="1.014" height="1.076" x="-.007" y="-.038" color-interpolation-filters="sRGB"><feGaussianBlur stdDeviation=".142"/></filter><filter id="b" width="1.151" height="1.149" x="-.076" y="-.074" color-interpolation-filters="sRGB"><feGaussianBlur stdDeviation="1.397"/></filter><linearGradient id="c" x1="31" x2="31" y1="9" y2="48" gradientUnits="userSpaceOnUse"><stop offset="0" stop-opacity=".69"/><stop offset="1" stop-opacity=".16"/></linearGradient><linearGradient id="a" x1="55.237" x2="8.553" y1="10.5" y2="10.5" gradientUnits="userSpaceOnUse"><stop offset="0" stop-color="#acacac" stop-opacity=".62"/><stop offset=".1" stop-color="#737373" stop-opacity=".62"/><stop offset=".9" stop-color="#737373" stop-opacity=".62"/><stop offset="1" stop-color="#acacac" stop-opacity=".62"/></linearGradient></defs><path fill="#b8b8b8" fill-opacity=".631" d="M8.008 10A4 4 0 0 0 8 11l5 43c.32 2.752 3.23 5 6 5h26c2.77 0 5.68-2.248 6-5l5-43q.059-.514-.008-1h-.033q.04.245.041.5c0 2.493-3.002 4.5-6.732 4.5H14.733C11.003 15 8 12.993 8 10.5q0-.255.041-.5z"/><rect width="48" height="9" x="8" y="6" fill="url(#a)" fill-opacity=".62" rx="6.733" ry="4.5"/><path fill="#fff" fill-opacity=".631" d="M9.9 11.932q-.061.448-.007.921l4.605 39.61c.295 2.534 2.976 4.605 5.527 4.605h23.95c2.552 0 5.232-2.071 5.527-4.606l4.606-39.609a3.7 3.7 0 0 0-.007-.921h-.031q.038.227.038.46c0 2.297-2.766 4.146-6.202 4.146H16.094c-3.436 0-6.201-1.849-6.201-4.145q0-.234.038-.461z" filter="url(#b)"/><path fill="url(#c)" fill-opacity=".69" d="m12.473 14.742 3.404 33.697c.255 2.19 2.571 3.98 4.776 3.98h20.695c2.204 0 4.52-1.79 4.775-3.98l3.373-33.441-.228.002H14.733c-.794 0-1.554-.09-2.26-.258z" filter="url(#d)" style="mix-blend-mode:normal" transform="matrix(1.1056 0 0 1 -2.257 0)"/><path fill="#ececec" fill-opacity=".973" d="M14.732 6C11.002 6 8 8.007 8 10.5s3.002 4.5 6.732 4.5h34.535c3.73 0 6.732-2.007 6.732-4.5S52.997 6 49.267 6zm0 1h34.535c1.686 0 3.188.464 4.209 1.147 1.02.682 1.523 1.508 1.523 2.353s-.502 1.671-1.523 2.354c-1.02.682-2.523 1.146-4.209 1.146H14.732c-1.686 0-3.188-.464-4.209-1.146C9.503 12.17 9 11.345 9 10.5s.502-1.671 1.523-2.353S13.046 7 14.732 7" filter="url(#e)"/></svg>