<svg xmlns="http://www.w3.org/2000/svg" width="64" height="64" viewBox="0 0 16.933 16.933"><defs><filter id="d" width="1.013" height="1.151" x="-.007" y="-.076" color-interpolation-filters="sRGB"><feGaussianBlur stdDeviation=".042"/></filter><filter id="e" width="1.014" height="1.087" x="-.007" y="-.043" color-interpolation-filters="sRGB"><feGaussianBlur stdDeviation=".045"/></filter><filter id="b" width="1.065" height="1.092" x="-.032" y="-.046" color-interpolation-filters="sRGB"><feGaussianBlur stdDeviation=".137"/></filter><linearGradient id="a" x1="8.466" x2="8.466" y1="12.7" y2="2.381" gradientUnits="userSpaceOnUse"><stop offset="0"/><stop offset="1" stop-opacity="0"/></linearGradient><linearGradient id="c" x1="8.467" x2="8.467" y1="4.498" y2="14.552" gradientUnits="userSpaceOnUse"><stop offset="0" stop-color="#fff"/><stop offset="1"/></linearGradient></defs><path fill="#ffc61d" d="M1.945 2.381H4.91c.75 0 .904.084 1.27.63.297.441.84.429 1.756.429h7.05a1.146 1.146 0 0 1 1.152 1.152v6.956a1.15 1.15 0 0 1-1.152 1.152H1.944a1.15 1.15 0 0 1-1.15-1.152V3.533a1.15 1.15 0 0 1 1.15-1.152z"/><path fill="url(#a)" d="M1.945 2.381H4.91c.75 0 .904.084 1.27.63.297.441.84.429 1.756.429h7.05a1.146 1.146 0 0 1 1.152 1.152v6.956a1.15 1.15 0 0 1-1.152 1.152H1.944a1.15 1.15 0 0 1-1.15-1.152V3.533a1.15 1.15 0 0 1 1.15-1.152z"/><rect width="14.287" height="10.054" x="1.323" y="3.969" fill="none" stroke="#000" stroke-width=".265" filter="url(#b)" opacity=".1" rx=".529" ry=".529"/><rect width="14.287" height="10.054" x="1.323" y="3.969" fill="#fff" rx=".529" ry=".529"/><rect width="15.346" height="10.054" x=".794" y="4.498" fill="#ffc61d" rx="1.058" ry="1.058"/><rect width="15.346" height="10.054" x=".793" y="4.498" fill="url(#c)" opacity=".15" rx="1.058" ry="1.058"/><path fill="#fff" d="M1.852 4.498c-.586 0-1.058.472-1.058 1.058v.265c0-.587.472-1.059 1.058-1.059h13.229c.586 0 1.058.472 1.058 1.059v-.265c0-.586-.472-1.058-1.058-1.058z" filter="url(#d)" opacity=".15"/><path d="M1.852 4.498c-.586 0-1.058.472-1.058 1.058v.265c0-.587.472-1.059 1.058-1.059h13.229c.586 0 1.058.472 1.058 1.059v-.265c0-.586-.472-1.058-1.058-1.058z" filter="url(#d)" opacity=".1" transform="matrix(1 0 0 -1 0 19.05)"/><path fill="#fff" d="M1.944 2.381a1.15 1.15 0 0 0-1.15 1.152v.26a1.15 1.15 0 0 1 1.15-1.147h2.967c.75 0 .904.083 1.27.63.297.44.84.428 1.756.428h7.05a1.146 1.146 0 0 1 1.152 1.14v-.253a1.146 1.146 0 0 0-1.152-1.151h-7.05c-.916 0-1.459.012-1.755-.429-.367-.546-.52-.63-1.27-.63z" filter="url(#e)" opacity=".25"/><path d="M7.913 6.607a.406.406 0 0 0-.34.609l.415.718L6.66 10.23H5.626a.406.406 0 1 0 0 .812h3.691c.178-.332-.051-.812-.459-.812h-1.26L9.34 7.215a.406.406 0 1 0-.702-.405s-.09.312-.18.312-.181-.312-.181-.312a.41.41 0 0 0-.363-.203zM9.056 8.16c-.24.198-.483.787-.143 1.375l1.5 2.6a.406.406 0 0 0 .704-.406l-.397-.687h.588a.406.406 0 1 0 0-.812H10.25zm-2.64 3.01a.36.36 0 0 0-.302.18l-.292.506a.38.38 0 0 0 .154.515.38.38 0 0 0 .523-.125l.292-.505a.38.38 0 0 0-.154-.516.4.4 0 0 0-.22-.055z" opacity=".15"/><path d="M8.993 6.585a.41.41 0 0 0-.355.225s-.09.312-.18.312-.181-.312-.181-.312a.41.41 0 0 0-.363-.203.406.406 0 0 0-.389.474.406.406 0 0 1 .388-.334h.001a.41.41 0 0 1 .363.202s.091.312.181.312.18-.312.18-.312a.406.406 0 0 1 .763.115.406.406 0 0 0-.408-.479M7.948 8.004 6.66 10.23H5.626a.406.406 0 0 0-.399.476.406.406 0 0 1 .399-.336H6.66l1.328-2.296zm1.107.156h.001m0 0c-.165.137-.33.458-.308.836.02-.317.164-.577.308-.696h.001l1.194 2.07h1.058a.406.406 0 0 1 .399.336.406.406 0 0 0-.399-.476H10.25zm-1.377 2.07-.08.14h1.26c.287 0 .485.236.516.492.038-.302-.177-.632-.516-.632zm-1.342.952a.36.36 0 0 0-.222.168l-.292.506a.38.38 0 0 0-.038.25.4.4 0 0 1 .038-.11l.292-.506a.36.36 0 0 1 .302-.18h.001a.4.4 0 0 1 .22.054.38.38 0 0 1 .193.266.38.38 0 0 0-.193-.405.4.4 0 0 0-.107-.043zm4.384 0 .397.686a.4.4 0 0 1 .048.135.4.4 0 0 0-.048-.274l-.316-.547z" opacity=".15"/><path fill="#fff" d="M9.4 7.064a.4.4 0 0 1-.06.15L7.598 10.23h.08L9.34 7.355a.4.4 0 0 0 .06-.29m-1.875.017a.4.4 0 0 0 .048.274l.375.649.04-.07-.415-.718a.4.4 0 0 1-.048-.135m1.222 1.915a1.2 1.2 0 0 0 .166.679l1.5 2.6a.406.406 0 0 0 .751-.272.406.406 0 0 1-.75.132l-1.501-2.6a1.2 1.2 0 0 1-.166-.539m-3.52 1.71a.406.406 0 0 0 .399.475h.71a.4.4 0 0 1 .08-.01h.001a.4.4 0 0 1 .114.01h2.786a.54.54 0 0 0 .057-.319.5.5 0 0 1-.057.18H5.626a.406.406 0 0 1-.4-.336m6.48 0a.406.406 0 0 1-.399.336h-.588l.08.14h.508a.406.406 0 0 0 .4-.476m-4.877.924a.4.4 0 0 1-.039.111l-.292.505a.38.38 0 0 1-.523.125.38.38 0 0 1-.192-.265.38.38 0 0 0 .192.405.38.38 0 0 0 .523-.126l.292-.504a.38.38 0 0 0 .039-.251" opacity=".2"/></svg>