<svg xmlns="http://www.w3.org/2000/svg" width="64" height="64" viewBox="0 0 16.933 16.933"><defs><filter id="d" width="1.013" height="1.151" x="-.007" y="-.076" color-interpolation-filters="sRGB"><feGaussianBlur stdDeviation=".042"/></filter><filter id="e" width="1.014" height="1.087" x="-.007" y="-.043" color-interpolation-filters="sRGB"><feGaussianBlur stdDeviation=".045"/></filter><filter id="b" width="1.065" height="1.092" x="-.032" y="-.046" color-interpolation-filters="sRGB"><feGaussianBlur stdDeviation=".137"/></filter><linearGradient id="a" x1="8.466" x2="8.466" y1="12.7" y2="2.381" gradientUnits="userSpaceOnUse"><stop offset="0"/><stop offset="1" stop-opacity="0"/></linearGradient><linearGradient id="c" x1="8.467" x2="8.467" y1="4.498" y2="14.552" gradientUnits="userSpaceOnUse"><stop offset="0" stop-color="#fff"/><stop offset="1"/></linearGradient></defs><path fill="#006efd" d="M1.945 2.381H4.91c.75 0 .904.084 1.27.63.297.441.84.429 1.756.429h7.05a1.146 1.146 0 0 1 1.152 1.152v6.956a1.15 1.15 0 0 1-1.152 1.152H1.944a1.15 1.15 0 0 1-1.15-1.152V3.533a1.15 1.15 0 0 1 1.15-1.152z"/><path fill="url(#a)" d="M1.945 2.381H4.91c.75 0 .904.084 1.27.63.297.441.84.429 1.756.429h7.05a1.146 1.146 0 0 1 1.152 1.152v6.956a1.15 1.15 0 0 1-1.152 1.152H1.944a1.15 1.15 0 0 1-1.15-1.152V3.533a1.15 1.15 0 0 1 1.15-1.152z"/><rect width="14.287" height="10.054" x="1.323" y="3.969" fill="none" stroke="#000" stroke-width=".265" filter="url(#b)" opacity=".1" rx=".529" ry=".529"/><rect width="14.287" height="10.054" x="1.323" y="3.969" fill="#fff" rx=".529" ry=".529"/><rect width="15.346" height="10.054" x=".794" y="4.498" fill="#006efd" rx="1.058" ry="1.058"/><rect width="15.346" height="10.054" x=".793" y="4.498" fill="url(#c)" opacity=".15" rx="1.058" ry="1.058"/><path fill="#fff" d="M1.852 4.498c-.586 0-1.058.472-1.058 1.058v.265c0-.587.472-1.059 1.058-1.059h13.229c.586 0 1.058.472 1.058 1.059v-.265c0-.586-.472-1.058-1.058-1.058z" filter="url(#d)" opacity=".15"/><path d="M1.852 4.498c-.586 0-1.058.472-1.058 1.058v.265c0-.587.472-1.059 1.058-1.059h13.229c.586 0 1.058.472 1.058 1.059v-.265c0-.586-.472-1.058-1.058-1.058z" filter="url(#d)" opacity=".1" transform="matrix(1 0 0 -1 0 19.05)"/><path fill="#fff" d="M1.944 2.381a1.15 1.15 0 0 0-1.15 1.152v.26a1.15 1.15 0 0 1 1.15-1.147h2.967c.75 0 .904.083 1.27.63.297.44.84.428 1.756.428h7.05a1.146 1.146 0 0 1 1.152 1.14v-.253a1.146 1.146 0 0 0-1.152-1.151h-7.05c-.916 0-1.459.012-1.755-.429-.367-.546-.52-.63-1.27-.63z" filter="url(#e)" opacity=".25"/><path d="M8.467 6.272a.8.8 0 0 0-.562.233l-2.62 2.619a.79.79 0 0 0 0 1.123l2.62 2.619c.311.31.812.31 1.123 0l2.62-2.62a.79.79 0 0 0 0-1.122l-2.62-2.62a.8.8 0 0 0-.561-.232m0 .53c.067 0 .135.025.187.077l2.619 2.62a.264.264 0 0 1 0 .374l-2.62 2.618a.264.264 0 0 1-.374 0L5.66 9.873a.264.264 0 0 1 0-.375L8.28 6.88a.26.26 0 0 1 .186-.078m.128.87a.37.37 0 0 0-.37.376.372.372 0 0 0 .744 0 .375.375 0 0 0-.374-.375m-.196.883c-.18 0-.31.098-.478.26l-.254.254a.36.36 0 0 0-.123.264l-.033.394c-.008.107.053.178.15.184.091.006.159-.049.17-.164l.036-.431.15-.134c.028-.025.069-.01.066.031l-.028.389c-.014.188.068.324.161.44l.333.419c.032.04.037.055.052.085l.354.72c.042.083.105.11.17.11a.166.166 0 0 0 .167-.173q0-.058-.032-.121l-.333-.674a1 1 0 0 0-.094-.159l-.204-.289.013-.038c.056-.179.078-.288.09-.459l.034-.48c.017-.235-.12-.428-.367-.428m.507.37-.03.428.117.116c.055.056.108.074.205.074h.375c.11 0 .178-.064.178-.16 0-.097-.07-.16-.18-.16H9.18zm-.825 1.18-.084.39-.474.562c-.043.05-.072.093-.072.155 0 .096.073.165.168.165a.18.18 0 0 0 .136-.065l.5-.595a.34.34 0 0 0 .08-.139l.032-.116z" opacity=".15"/><path d="M8.467 6.272a.8.8 0 0 0-.562.233l-2.62 2.619a.8.8 0 0 0-.23.632.8.8 0 0 1 .23-.49l2.62-2.619a.79.79 0 0 1 1.123 0l2.62 2.619a.8.8 0 0 1 .23.49.8.8 0 0 0-.23-.632l-2.62-2.62a.8.8 0 0 0-.562-.232m.128 1.4a.37.37 0 0 0-.363.446.37.37 0 0 1 .363-.303c.182 0 .334.13.368.303a.375.375 0 0 0-.367-.445m-.196.883c-.18 0-.31.098-.478.26l-.254.254a.36.36 0 0 0-.123.264l-.033.394q-.003.04.006.071l.027-.323a.36.36 0 0 1 .123-.264l.254-.253c.168-.163.298-.261.478-.261.21 0 .34.138.365.324l.002-.037c.017-.236-.12-.43-.367-.43m.507.37-.03.428.01.01.02-.295.273.297h.393c.079 0 .138.033.164.089a.2.2 0 0 0 .015-.071c0-.097-.07-.16-.18-.16H9.18zm-.831.4-.02.277a.5.5 0 0 0 .002.106l.026-.353a.04.04 0 0 0-.008-.03m-2.483.431a.26.26 0 0 0 .068.259l2.62 2.619c.103.103.27.103.374 0l2.619-2.62c.07-.07.093-.169.068-.258a.27.27 0 0 1-.068.117l-2.62 2.618a.264.264 0 0 1-.374 0L5.66 9.873a.27.27 0 0 1-.068-.117m3.068.248-.018.06-.013.038.204.29q.048.065.094.158l.333.674.02.048a.2.2 0 0 0 .012-.07c0-.04-.01-.077-.032-.12l-.333-.674a1 1 0 0 0-.094-.159zm-.579.101-.084.39-.474.562c-.043.05-.072.093-.072.155q0 .04.015.07a.3.3 0 0 1 .057-.083l.474-.562.084-.39.256.32.03-.105z" opacity=".15"/><path fill="#fff" d="M8.467 6.802a.26.26 0 0 0-.188.077L5.66 9.499a.26.26 0 0 0-.068.257.26.26 0 0 1 .068-.115l2.62-2.62a.263.263 0 0 1 .374 0l2.619 2.62a.26.26 0 0 1 .068.115.26.26 0 0 0-.068-.258L8.653 6.88a.26.26 0 0 0-.186-.078m-.235 1.316a.372.372 0 1 0 .73 0 .372.372 0 0 1-.73 0m.532.904-.032.441c-.012.171-.034.28-.09.459l-.013.038.03.044a1.7 1.7 0 0 0 .073-.399l.034-.48a.5.5 0 0 0-.002-.103m-.719.148q-.015 0-.028.012l-.15.134-.036.432c-.011.114-.079.169-.17.163-.074-.005-.126-.046-.144-.112l-.006.07c-.008.108.053.178.15.184.091.006.159-.048.17-.163l.036-.432.15-.134c.02-.017.045-.016.058 0l.008-.11c.002-.03-.017-.045-.038-.044m.84.193-.009.132.117.117c.055.056.108.073.205.073h.375c.11 0 .178-.064.178-.16a.2.2 0 0 0-.015-.071c-.026.055-.084.089-.163.089h-.375c-.097 0-.15-.018-.205-.073zm-.828.346-.002.035c-.014.188.068.324.161.44l.333.419c.032.04.037.056.052.085l.354.72c.042.083.105.111.17.111a.166.166 0 0 0 .167-.174.2.2 0 0 0-.012-.073.16.16 0 0 1-.155.105c-.065 0-.128-.028-.17-.112l-.354-.72c-.015-.029-.02-.044-.052-.084l-.333-.418a.67.67 0 0 1-.159-.334m-3.001.047a.8.8 0 0 0 .23.633l2.62 2.619c.31.31.81.31 1.122 0l2.62-2.62a.8.8 0 0 0 .229-.632.8.8 0 0 1-.23.49l-2.62 2.62a.79.79 0 0 1-1.122 0l-2.62-2.62a.8.8 0 0 1-.23-.49m3.281.812-.003.01a.34.34 0 0 1-.079.139l-.5.595a.18.18 0 0 1-.136.065.16.16 0 0 1-.153-.094.2.2 0 0 0-.015.071c0 .096.073.165.168.165a.18.18 0 0 0 .136-.065l.5-.595a.34.34 0 0 0 .08-.138q.018-.06.032-.117z" opacity=".2"/></svg>