<svg xmlns="http://www.w3.org/2000/svg" width="64" height="64" viewBox="0 0 16.933 16.933"><defs><filter id="d" width="1.013" height="1.151" x="-.007" y="-.076" color-interpolation-filters="sRGB"><feGaussianBlur stdDeviation=".042"/></filter><filter id="e" width="1.014" height="1.087" x="-.007" y="-.043" color-interpolation-filters="sRGB"><feGaussianBlur stdDeviation=".045"/></filter><filter id="b" width="1.065" height="1.092" x="-.032" y="-.046" color-interpolation-filters="sRGB"><feGaussianBlur stdDeviation=".137"/></filter><linearGradient id="a" x1="8.466" x2="8.466" y1="12.7" y2="2.381" gradientUnits="userSpaceOnUse"><stop offset="0"/><stop offset="1" stop-opacity="0"/></linearGradient><linearGradient id="c" x1="8.467" x2="8.467" y1="4.498" y2="14.552" gradientUnits="userSpaceOnUse"><stop offset="0" stop-color="#fff"/><stop offset="1"/></linearGradient></defs><path fill="#ffc61d" d="M1.945 2.381H4.91c.75 0 .904.084 1.27.63.297.441.84.429 1.756.429h7.05a1.146 1.146 0 0 1 1.152 1.152v6.956a1.15 1.15 0 0 1-1.152 1.152H1.944a1.15 1.15 0 0 1-1.15-1.152V3.533a1.15 1.15 0 0 1 1.15-1.152z"/><path fill="url(#a)" d="M1.945 2.381H4.91c.75 0 .904.084 1.27.63.297.441.84.429 1.756.429h7.05a1.146 1.146 0 0 1 1.152 1.152v6.956a1.15 1.15 0 0 1-1.152 1.152H1.944a1.15 1.15 0 0 1-1.15-1.152V3.533a1.15 1.15 0 0 1 1.15-1.152z"/><rect width="14.287" height="10.054" x="1.323" y="3.969" fill="none" stroke="#000" stroke-width=".265" filter="url(#b)" opacity=".1" rx=".529" ry=".529"/><rect width="14.287" height="10.054" x="1.323" y="3.969" fill="#fff" rx=".529" ry=".529"/><rect width="15.346" height="10.054" x=".794" y="4.498" fill="#ffc61d" rx="1.058" ry="1.058"/><rect width="15.346" height="10.054" x=".793" y="4.498" fill="url(#c)" opacity=".15" rx="1.058" ry="1.058"/><path fill="#fff" d="M1.852 4.498c-.586 0-1.058.472-1.058 1.058v.265c0-.587.472-1.059 1.058-1.059h13.229c.586 0 1.058.472 1.058 1.059v-.265c0-.586-.472-1.058-1.058-1.058z" filter="url(#d)" opacity=".15"/><path d="M1.852 4.498c-.586 0-1.058.472-1.058 1.058v.265c0-.587.472-1.059 1.058-1.059h13.229c.586 0 1.058.472 1.058 1.059v-.265c0-.586-.472-1.058-1.058-1.058z" filter="url(#d)" opacity=".1" transform="matrix(1 0 0 -1 0 19.05)"/><path fill="#fff" d="M1.944 2.381a1.15 1.15 0 0 0-1.15 1.152v.26a1.15 1.15 0 0 1 1.15-1.147h2.967c.75 0 .904.083 1.27.63.297.44.84.428 1.756.428h7.05a1.146 1.146 0 0 1 1.152 1.14v-.253a1.146 1.146 0 0 0-1.152-1.151h-7.05c-.916 0-1.459.012-1.755-.429-.367-.546-.52-.63-1.27-.63z" filter="url(#e)" opacity=".25"/><path d="M9.18 6.371a.265.265 0 0 0-.317.197l-1.275 5.418a.265.265 0 0 0 .197.319.265.265 0 0 0 .319-.198L9.377 6.69a.265.265 0 0 0-.197-.318m-2.037.83a.265.265 0 0 0-.371.047L5.258 9.193a.265.265 0 0 0-.004.319l1.498 2.023a.265.265 0 0 0 .369.055.265.265 0 0 0 .055-.371l-1.377-1.86 1.39-1.787a.265.265 0 0 0-.046-.37m2.65.006a.265.265 0 0 0-.047.371l1.39 1.787-1.378 1.86a.265.265 0 0 0 .055.37.265.265 0 0 0 .369-.054l1.498-2.023a.265.265 0 0 0-.002-.319l-1.514-1.945a.265.265 0 0 0-.371-.047" opacity=".15"/><path d="M9.111 6.365a.265.265 0 0 0-.248.203l-1.275 5.418a.27.27 0 0 0 .004.137l1.271-5.4a.265.265 0 0 1 .317-.197.27.27 0 0 1 .193.181l.004-.018a.265.265 0 0 0-.197-.318.3.3 0 0 0-.069-.006m-2.13.78a.27.27 0 0 0-.21.103L5.259 9.194a.27.27 0 0 0-.043.238.3.3 0 0 1 .043-.084l1.514-1.945a.265.265 0 0 1 .37-.047.27.27 0 0 1 .091.132.265.265 0 0 0-.09-.287.27.27 0 0 0-.161-.055m2.973.006a.27.27 0 0 0-.16.056.265.265 0 0 0-.091.286.27.27 0 0 1 .09-.132.265.265 0 0 1 .371.047l1.514 1.945a.3.3 0 0 1 .042.084.27.27 0 0 0-.042-.238l-1.514-1.945a.27.27 0 0 0-.21-.103M5.857 9.44l-.058.075 1.377 1.86a.3.3 0 0 1 .04.081.27.27 0 0 0-.04-.236zm5.22.005-1.319 1.78a.27.27 0 0 0-.04.237.3.3 0 0 1 .04-.082l1.379-1.86z" opacity=".15"/><path fill="#fff" d="m9.373 6.707-1.27 5.4a.265.265 0 0 1-.318.197.27.27 0 0 1-.193-.18l-.004.016a.265.265 0 0 0 .197.318.265.265 0 0 0 .319-.197l1.273-5.418a.27.27 0 0 0-.004-.136m-2.14.78a.3.3 0 0 1-.043.086L5.799 9.359l.058.079L7.19 7.726a.27.27 0 0 0 .043-.239m2.47.006a.27.27 0 0 0 .043.239l1.332 1.712.059-.079-1.391-1.787a.3.3 0 0 1-.043-.085M5.214 9.431a.27.27 0 0 0 .04.234l1.498 2.023a.265.265 0 0 0 .369.055.265.265 0 0 0 .096-.289.27.27 0 0 1-.096.136.265.265 0 0 1-.369-.055L5.254 9.512a.3.3 0 0 1-.04-.08m6.506.005a.3.3 0 0 1-.04.082l-1.498 2.023a.265.265 0 0 1-.37.054.27.27 0 0 1-.095-.135.265.265 0 0 0 .096.289.265.265 0 0 0 .369-.055l1.498-2.023a.27.27 0 0 0 .04-.235" opacity=".2"/></svg>